<svg width="20" height="20" viewBox="0 0 20 20" fill="none" xmlns="http://www.w3.org/2000/svg">
<path d="M7.86796 17.5C5.84609 17.5 3.96136 16.9119 2.375 15.8973C3.72187 15.9844 6.09879 15.7757 7.57724 14.3655C5.35317 14.2634 4.35016 12.5577 4.21934 11.8287C4.40831 11.9016 5.30956 11.9891 5.81834 11.785C3.25994 11.1435 2.86745 8.89833 2.95467 8.21311C3.43437 8.54843 4.24841 8.66506 4.56821 8.6359C2.18425 6.93015 3.04189 4.36422 3.46345 3.81022C5.17426 6.18042 7.73825 7.51161 10.9102 7.58565C10.8504 7.32335 10.8188 7.05026 10.8188 6.76978C10.8188 4.75682 12.4459 3.125 14.4529 3.125C15.5016 3.125 16.4465 3.57047 17.1098 4.28302C17.8106 4.11882 18.8652 3.73442 19.3808 3.402C19.1209 4.33507 18.3118 5.11343 17.8224 5.40192C17.8185 5.39207 17.8265 5.41174 17.8224 5.40192C18.2523 5.3369 19.4155 5.11336 19.875 4.8016C19.6478 5.32578 18.79 6.19733 18.0861 6.68526C18.217 12.4613 13.7978 17.5 7.86796 17.5Z" fill="#47ACDF"/>
</svg>
