<svg width="20" height="20" viewBox="0 0 20 20" fill="none" xmlns="http://www.w3.org/2000/svg">
<path d="M1.90282 6.21319C1.98315 4.97646 2.97747 4.00723 4.21529 3.9459C6.00774 3.8571 8.56967 3.75 10.5 3.75C12.4303 3.75 14.9923 3.8571 16.7847 3.9459C18.0225 4.00723 19.0169 4.97646 19.0972 6.21319C19.1741 7.39808 19.25 8.85604 19.25 10C19.25 11.144 19.1741 12.6019 19.0972 13.7868C19.0169 15.0235 18.0225 15.9928 16.7847 16.0541C14.9923 16.1429 12.4303 16.25 10.5 16.25C8.56967 16.25 6.00774 16.1429 4.21529 16.0541C2.97747 15.9928 1.98315 15.0235 1.90282 13.7868C1.82585 12.6019 1.75 11.144 1.75 10C1.75 8.85604 1.82585 7.39808 1.90282 6.21319Z" fill="#FC0D1B"/>
<path d="M8.625 7.5V12.5L13.625 10L8.625 7.5Z" fill="white"/>
</svg>
