<svg width="119" height="19" viewBox="0 0 119 19" fill="none" xmlns="http://www.w3.org/2000/svg">
<path d="M118.1 18.5863H103.46V0.771484H117.816V4.38609H107.488V7.66505H116.396V11.228H107.488V14.9459H118.1V18.5863Z" fill="black" style="fill:black;fill-opacity:1;"/>
<path d="M94.7128 18.5863H90.5559V4.43773H84.2819V0.771484H100.987V4.43773H94.7128V18.5863Z" fill="black" style="fill:black;fill-opacity:1;"/>
<path d="M85.9412 18.5863H81.6552L80.4159 15.075H72.8767L71.6374 18.5863H67.4031L74.0386 0.771484H79.2799L85.9412 18.5863ZM76.6205 4.38609L74.0386 11.7186H79.2282L76.6205 4.38609Z" fill="black" style="fill:black;fill-opacity:1;"/>
<path d="M49.194 18.5863H45.4502V0.771484H51.5177L55.3905 13.1128L59.2892 0.771484H65.1243V18.5863H61.3806V4.87664L57.1204 18.5863H53.4541L49.194 4.825V18.5863Z" fill="black" style="fill:black;fill-opacity:1;"/>
<path d="M41.4822 18.5863H37.3253V0.771484H41.4822V18.5863Z" fill="black" style="fill:black;fill-opacity:1;"/>
<path d="M34.8128 18.5863H21.2578V0.771484H25.4147V14.9459H34.8128V18.5863Z" fill="black" style="fill:black;fill-opacity:1;"/>
<path d="M9.34651 18.9732C4.15687 18.9732 0 15.2295 0 9.7043C0 4.23076 4.15687 0.383789 9.34651 0.383789C14.0198 0.383789 17.6344 3.32711 18.4606 7.76791H14.2263C13.5808 5.52169 11.7993 4.12749 9.34651 4.12749C6.42895 4.12749 4.20851 6.34789 4.20851 9.67849C4.20851 12.9574 6.45477 15.2295 9.34651 15.2295C11.6702 15.2295 13.4517 13.9902 14.1747 11.8214H18.409C17.5312 16.159 13.9423 18.9732 9.34651 18.9732Z" fill="black" style="fill:black;fill-opacity:1;"/>
</svg>
