<svg width="17878" height="1021" viewBox="0 0 17878 1021" fill="none" xmlns="http://www.w3.org/2000/svg">
<path d="M517.4 1019.5C256.1 1019.5 46.8 831 46.8 552.8C46.8 277.2 256.1 83.4999 517.4 83.4999C752.7 83.4999 934.7 231.7 976.3 455.3H763.1C730.6 342.2 640.9 272 517.4 272C370.5 272 258.7 383.8 258.7 551.5C258.7 716.6 371.8 831 517.4 831C634.4 831 724.1 768.6 760.5 659.4H973.7C929.5 877.8 748.8 1019.5 517.4 1019.5ZM1799.65 1000H1117.15V103H1326.45V816.7H1799.65V1000ZM2135.44 1000H1926.14V103H2135.44V1000ZM2523.74 1000H2335.24V103H2640.74L2835.74 724.4L3032.04 103H3325.84V1000H3137.34V309.7L2922.84 1000H2738.24L2523.74 307.1V1000ZM4373.96 1000H4158.16L4095.76 823.2H3716.16L3653.76 1000H3440.56L3774.66 103H4038.56L4373.96 1000ZM3904.66 285L3774.66 654.2H4035.96L3904.66 285ZM4815.63 1000H4606.33V287.6H4290.43V103H5131.53V287.6H4815.63V1000ZM5993.17 1000H5256.07V103H5978.87V285H5458.87V450.1H5907.37V629.5H5458.87V816.7H5993.17V1000Z" fill="black"/>
<g clip-path="url(#clip0_795_82)">
<path d="M7084 0C7636.28 0 8084 447.715 8084 1000C8084 1552.28 7636.28 2000 7084 2000C6531.72 2000 6084 1552.28 6084 1000C6084 447.715 6531.72 0 7084 0ZM7084 110C6592.47 110 6194 508.467 6194 1000C6194 1491.53 6592.47 1890 7084 1890C7575.53 1890 7974 1491.53 7974 1000C7974 508.467 7575.53 110 7084 110Z" fill="#0037A3"/>
<path d="M7084 240C7503.74 240 7844 580.264 7844 1000C7844 1419.74 7503.74 1760 7084 1760C6664.26 1760 6324 1419.74 6324 1000C6324 580.264 6664.26 240 7084 240ZM7084 360C6730.54 360 6444 646.538 6444 1000C6444 1353.46 6730.54 1640 7084 1640C7437.46 1640 7724 1353.46 7724 1000C7724 646.538 7437.46 360 7084 360Z" fill="#0037A3"/>
<path d="M7084 490C7365.67 490 7594 718.335 7594 1000C7594 1281.67 7365.67 1510 7084 1510C6802.33 1510 6574 1281.67 6574 1000C6574 718.335 6802.33 490 7084 490ZM7084 610C6868.61 610 6694 784.609 6694 1000C6694 1215.39 6868.61 1390 7084 1390C7299.39 1390 7474 1215.39 7474 1000C7474 784.609 7299.39 610 7084 610Z" fill="#0037A3"/>
<path d="M7084 740C7227.59 740 7344 856.406 7344 1000C7344 1143.59 7227.59 1260 7084 1260C6940.41 1260 6824 1143.59 6824 1000C6824 856.406 6940.41 740 7084 740ZM7084 860C7006.68 860 6944 922.68 6944 1000C6944 1077.32 7006.68 1140 7084 1140C7161.32 1140 7224 1077.32 7224 1000C7224 922.68 7161.32 860 7084 860Z" fill="#0037A3"/>
</g>
<path d="M8182 1000H7976.6V103H8440.7C8622.7 103 8741 209.6 8741 376C8741 545 8618.8 659.4 8440.7 659.4H8182V1000ZM8178.1 283.7V477.4H8425.1C8494 477.4 8531.7 438.4 8531.7 379.9C8531.7 321.4 8492.7 283.7 8425.1 283.7H8178.1ZM9293.15 1020.8C9029.25 1020.8 8823.85 825.8 8823.85 551.5C8823.85 277.2 9029.25 82.2 9293.15 82.2C9558.35 82.2 9763.75 277.2 9763.75 551.5C9763.75 825.8 9558.35 1020.8 9293.15 1020.8ZM9293.15 831C9446.55 831 9551.85 712.7 9551.85 551.5C9551.85 390.3 9446.55 270.7 9293.15 270.7C9139.75 270.7 9035.75 390.3 9035.75 551.5C9035.75 712.7 9139.75 831 9293.15 831ZM10599.6 1000H9917.05V103H10126.4V816.7H10599.6V1000ZM10935.3 1000H10726V103H10935.3V1000ZM11558.9 1019.5C11297.6 1019.5 11088.3 831 11088.3 552.8C11088.3 277.2 11297.6 83.4999 11558.9 83.4999C11794.2 83.4999 11976.2 231.7 12017.8 455.3H11804.6C11772.1 342.2 11682.4 272 11558.9 272C11412 272 11300.2 383.8 11300.2 551.5C11300.2 716.6 11413.3 831 11558.9 831C11675.9 831 11765.6 768.6 11802 659.4H12015.2C11971 877.8 11790.3 1019.5 11558.9 1019.5ZM12560.2 1000H12350.9V662L12022 103H12259.9L12461.4 476.1L12656.4 103H12880L12560.2 660.7V1000ZM13830.5 636L14039.8 1000H13801.9L13617.3 647.7H13474.3V1000H13268.9V103H13734.3C13913.7 103 14033.3 208.3 14033.3 374.7C14033.3 507.3 13952.7 604.8 13830.5 636ZM13470.4 282.4V474.8H13720C13788.9 474.8 13826.6 437.1 13826.6 378.6C13826.6 318.8 13786.3 282.4 13720 282.4H13470.4ZM15025.8 1000H14810L14747.6 823.2H14368L14305.6 1000H14092.4L14426.5 103H14690.4L15025.8 1000ZM14556.5 285L14426.5 654.2H14687.8L14556.5 285ZM15507.4 103C15801.2 103 15980.6 269.4 15980.6 543.7C15980.6 824.5 15797.3 1000 15507.4 1000H15138.2V103H15507.4ZM15346.2 821.9H15495.7C15664.7 821.9 15768.7 711.4 15768.7 545C15768.7 378.6 15664.7 281.1 15495.7 281.1H15346.2V821.9ZM16948.4 1000H16732.6L16670.2 823.2H16290.6L16228.2 1000H16015L16349.1 103H16613L16948.4 1000ZM16479.1 285L16349.1 654.2H16610.4L16479.1 285ZM17622.5 636L17831.8 1000H17593.9L17409.3 647.7H17266.3V1000H17060.9V103H17526.3C17705.7 103 17825.3 208.3 17825.3 374.7C17825.3 507.3 17744.7 604.8 17622.5 636ZM17262.4 282.4V474.8H17512C17580.9 474.8 17618.6 437.1 17618.6 378.6C17618.6 318.8 17578.3 282.4 17512 282.4H17262.4Z" fill="black"/>
<defs>
<clipPath id="clip0_795_82">
<rect width="1000" height="1000" fill="white" transform="translate(6464)"/>
</clipPath>
</defs>
</svg>
