<svg xmlns="http://www.w3.org/2000/svg" width="201" height="28" viewBox="0 0 201 28" fill="none">
  <path
    d="M195.818 20.9513V11.0996H197.703V12.6949H197.741C197.921 12.1538 198.204 11.734 198.59 11.4355C198.982 11.1307 199.493 10.9784 200.121 10.9784C200.271 10.9784 200.408 10.9846 200.532 10.997C200.663 11.0032 200.766 11.0126 200.84 11.025V12.8629C200.766 12.8442 200.632 12.8255 200.439 12.8069C200.246 12.782 200.034 12.7696 199.804 12.7696C199.437 12.7696 199.098 12.8535 198.786 13.0215C198.481 13.1894 198.239 13.4475 198.058 13.7958C197.878 14.1441 197.787 14.5888 197.787 15.1298V20.9513H195.818Z"
    fill="#FFFFFF" />
  <path
    d="M188.703 21.1075C188.05 21.1075 187.465 20.9956 186.948 20.7717C186.438 20.5478 186.033 20.215 185.734 19.7735C185.436 19.3319 185.286 18.7846 185.286 18.1315C185.286 17.5718 185.392 17.1115 185.604 16.7508C185.822 16.3901 186.114 16.104 186.481 15.8925C186.849 15.6811 187.266 15.5225 187.732 15.4167C188.199 15.3048 188.682 15.2208 189.18 15.1649C189.802 15.084 190.291 15.0218 190.645 14.9783C191.006 14.9285 191.261 14.8539 191.411 14.7544C191.566 14.6486 191.644 14.4776 191.644 14.2413V14.1573C191.644 13.8401 191.566 13.5602 191.411 13.3177C191.255 13.0689 191.028 12.873 190.729 12.7299C190.431 12.5869 190.073 12.5154 189.656 12.5154C189.239 12.5154 188.868 12.5838 188.545 12.7206C188.227 12.8574 187.972 13.0471 187.779 13.2897C187.592 13.526 187.487 13.7966 187.462 14.1013H185.529C185.56 13.4732 185.75 12.9196 186.099 12.4407C186.447 11.9618 186.926 11.5856 187.536 11.3119C188.146 11.0382 188.862 10.9014 189.684 10.9014C190.287 10.9014 190.832 10.9792 191.317 11.1346C191.803 11.2901 192.214 11.514 192.55 11.8063C192.892 12.0924 193.15 12.4376 193.325 12.8419C193.505 13.2462 193.595 13.6971 193.595 14.1946V20.9489H191.654V19.5496H191.616C191.479 19.817 191.293 20.0689 191.056 20.3052C190.82 20.5416 190.508 20.7344 190.122 20.8836C189.743 21.0329 189.27 21.1075 188.703 21.1075ZM189.105 19.5216C189.684 19.5216 190.16 19.419 190.533 19.2137C190.913 19.0023 191.193 18.7255 191.374 18.3834C191.56 18.0413 191.654 17.6682 191.654 17.2639V16.1071C191.585 16.1631 191.473 16.2159 191.317 16.2657C191.168 16.3092 190.984 16.3528 190.767 16.3963C190.549 16.4336 190.312 16.474 190.057 16.5176C189.802 16.5611 189.547 16.5984 189.292 16.6295C188.931 16.6793 188.594 16.7633 188.283 16.8814C187.972 16.9934 187.72 17.152 187.527 17.3572C187.34 17.5625 187.247 17.833 187.247 18.1688C187.247 18.4487 187.322 18.6913 187.471 18.8965C187.62 19.0955 187.835 19.251 188.115 19.363C188.395 19.4687 188.725 19.5216 189.105 19.5216Z"
    fill="#FFFFFF" />
  <path
    d="M178.472 21.1443C177.62 21.1443 176.87 20.9297 176.222 20.5006C175.581 20.0652 175.083 19.4651 174.729 18.7001C174.374 17.9288 174.196 17.0364 174.196 16.0226C174.196 15.0088 174.374 14.1194 174.729 13.3544C175.09 12.5832 175.591 11.9831 176.232 11.5539C176.873 11.1185 177.617 10.9009 178.463 10.9009C178.893 10.9009 179.297 10.9631 179.677 11.0875C180.056 11.2056 180.399 11.3829 180.704 11.6192C181.015 11.8556 181.276 12.1572 181.488 12.5241H181.507V7.04792H183.477V20.9484H181.544V19.4464H181.525C181.301 19.8258 181.034 20.143 180.722 20.398C180.411 20.6467 180.066 20.8333 179.686 20.9577C179.306 21.0821 178.902 21.1443 178.472 21.1443ZM178.874 19.4464C179.434 19.4464 179.919 19.3065 180.33 19.0266C180.747 18.7405 181.068 18.3393 181.292 17.8231C181.522 17.3069 181.637 16.7067 181.637 16.0226C181.637 15.326 181.522 14.7227 181.292 14.2127C181.068 13.6965 180.747 13.2985 180.33 13.0186C179.919 12.7325 179.434 12.5894 178.874 12.5894C178.345 12.5894 177.878 12.7201 177.473 12.9813C177.075 13.2425 176.761 13.6281 176.53 14.1381C176.306 14.6481 176.194 15.2762 176.194 16.0226C176.194 16.7627 176.306 17.3878 176.53 17.8977C176.761 18.4015 177.075 18.7871 177.473 19.0546C177.878 19.3158 178.345 19.4464 178.874 19.4464Z"
    fill="#FFFFFF" />
  <path
    d="M167.566 21.1075C166.913 21.1075 166.328 20.9956 165.811 20.7717C165.301 20.5478 164.896 20.215 164.598 19.7735C164.299 19.3319 164.149 18.7846 164.149 18.1315C164.149 17.5718 164.255 17.1115 164.467 16.7508C164.685 16.3901 164.977 16.104 165.344 15.8925C165.712 15.6811 166.129 15.5225 166.596 15.4167C167.062 15.3048 167.545 15.2208 168.043 15.1649C168.665 15.084 169.154 15.0218 169.508 14.9783C169.869 14.9285 170.125 14.8539 170.274 14.7544C170.43 14.6486 170.507 14.4776 170.507 14.2413V14.1573C170.507 13.8401 170.43 13.5602 170.274 13.3177C170.118 13.0689 169.891 12.873 169.592 12.7299C169.294 12.5869 168.936 12.5154 168.519 12.5154C168.102 12.5154 167.731 12.5838 167.408 12.7206C167.09 12.8574 166.835 13.0471 166.642 13.2897C166.456 13.526 166.35 13.7966 166.325 14.1013H164.392C164.423 13.4732 164.613 12.9196 164.962 12.4407C165.31 11.9618 165.79 11.5856 166.399 11.3119C167.009 11.0382 167.725 10.9014 168.547 10.9014C169.151 10.9014 169.695 10.9792 170.181 11.1346C170.666 11.2901 171.077 11.514 171.413 11.8063C171.755 12.0924 172.014 12.4376 172.188 12.8419C172.368 13.2462 172.459 13.6971 172.459 14.1946V20.9489H170.517V19.5496H170.479C170.342 19.817 170.156 20.0689 169.919 20.3052C169.683 20.5416 169.371 20.7344 168.986 20.8836C168.606 21.0329 168.133 21.1075 167.566 21.1075ZM167.968 19.5216C168.547 19.5216 169.023 19.419 169.396 19.2137C169.776 19.0023 170.056 18.7255 170.237 18.3834C170.423 18.0413 170.517 17.6682 170.517 17.2639V16.1071C170.448 16.1631 170.336 16.2159 170.181 16.2657C170.031 16.3092 169.848 16.3528 169.63 16.3963C169.412 16.4336 169.175 16.474 168.92 16.5176C168.665 16.5611 168.41 16.5984 168.155 16.6295C167.794 16.6793 167.458 16.7633 167.146 16.8814C166.835 16.9934 166.583 17.152 166.39 17.3572C166.203 17.5625 166.11 17.833 166.11 18.1688C166.11 18.4487 166.185 18.6913 166.334 18.8965C166.484 19.0955 166.698 19.251 166.978 19.363C167.258 19.4687 167.588 19.5216 167.968 19.5216Z"
    fill="#FFFFFF" />
  <path
    d="M152.717 20.9484V7.04792H158.011C159.007 7.04792 159.866 7.22517 160.588 7.57968C161.316 7.92797 161.876 8.42553 162.268 9.07235C162.66 9.71917 162.856 10.4873 162.856 11.3767C162.856 12.2598 162.648 13.0248 162.231 13.6716C161.814 14.3185 161.232 14.816 160.485 15.1643C159.738 15.5126 158.867 15.6867 157.871 15.6867H153.912V13.9235H157.927C158.525 13.9235 159.038 13.8209 159.467 13.6157C159.903 13.4104 160.236 13.1181 160.466 12.7387C160.697 12.3531 160.812 11.8991 160.812 11.3767C160.812 10.8542 160.694 10.4064 160.457 10.0333C160.227 9.65387 159.894 9.36155 159.458 9.15631C159.029 8.94485 158.515 8.83912 157.918 8.83912H154.79V20.9484H152.717ZM160.737 20.9484L157.442 14.6885H159.71L163.071 20.9484H160.737Z"
    fill="#FFFFFF" />
  <path
    d="M138.066 24.85V23.1894H139.13C139.342 23.1894 139.522 23.1489 139.672 23.0681C139.821 22.9935 139.955 22.8722 140.073 22.7043C140.197 22.5363 140.309 22.3218 140.409 22.0605L140.857 20.8851L137.048 11.0988H139.158L141.128 16.5004C141.308 17.0103 141.483 17.5203 141.651 18.0303C141.825 18.5341 141.99 19.041 142.146 19.551H141.613C141.769 19.041 141.931 18.5341 142.099 18.0303C142.273 17.5203 142.451 17.0103 142.631 16.5004L144.573 11.0988H146.655L142.174 22.6763C141.987 23.1552 141.757 23.5532 141.483 23.8704C141.209 24.1938 140.891 24.4364 140.53 24.5981C140.169 24.766 139.765 24.85 139.317 24.85C139.111 24.85 138.903 24.85 138.691 24.85C138.48 24.85 138.271 24.85 138.066 24.85Z"
    fill="#FFFFFF" />
  <path
    d="M132.296 21.1716C131.356 21.1716 130.534 20.9539 129.831 20.5186C129.128 20.0832 128.577 19.4799 128.178 18.7087C127.786 17.9313 127.59 17.0419 127.59 16.0406C127.59 15.0268 127.786 14.1312 128.178 13.3538C128.577 12.5763 129.128 11.9699 129.831 11.5346C130.534 11.093 131.356 10.8722 132.296 10.8722C132.881 10.8722 133.422 10.9624 133.92 11.1427C134.424 11.3169 134.866 11.5657 135.246 11.8891C135.626 12.2063 135.931 12.5857 136.161 13.0272C136.397 13.4626 136.547 13.9415 136.609 14.4639H134.648C134.599 14.1841 134.511 13.9291 134.387 13.6989C134.262 13.4688 134.101 13.2698 133.901 13.1019C133.702 12.9339 133.469 12.8033 133.201 12.71C132.94 12.6168 132.641 12.5701 132.305 12.5701C131.739 12.5701 131.253 12.7132 130.849 12.9993C130.444 13.2853 130.133 13.6896 129.915 14.212C129.697 14.7283 129.588 15.3378 129.588 16.0406C129.588 16.7371 129.697 17.3435 129.915 17.8598C130.133 18.3697 130.444 18.7678 130.849 19.0539C131.253 19.3338 131.739 19.4737 132.305 19.4737C132.641 19.4737 132.94 19.4302 133.201 19.3431C133.463 19.2498 133.687 19.1192 133.873 18.9513C134.06 18.7833 134.216 18.5843 134.34 18.3542C134.465 18.1179 134.558 17.8566 134.62 17.5705H136.609C136.553 18.0868 136.407 18.5626 136.17 18.9979C135.94 19.4333 135.632 19.8158 135.246 20.1454C134.866 20.4688 134.424 20.7207 133.92 20.9011C133.422 21.0814 132.881 21.1716 132.296 21.1716Z"
    fill="#FFFFFF" />
  <path
    d="M123.877 20.9501V11.0985H125.847V20.9501H123.877ZM124.857 9.40061C124.509 9.40061 124.213 9.28555 123.97 9.05543C123.734 8.81909 123.615 8.53299 123.615 8.19714C123.615 7.85507 123.734 7.56898 123.97 7.33886C124.213 7.10252 124.509 6.98435 124.857 6.98435C125.206 6.98435 125.501 7.10252 125.744 7.33886C125.987 7.56898 126.108 7.85507 126.108 8.19714C126.108 8.53299 125.987 8.81909 125.744 9.05543C125.501 9.28555 125.206 9.40061 124.857 9.40061Z"
    fill="#FFFFFF" />
  <path
    d="M121.772 20.9484C120.789 20.9484 120.085 20.768 119.662 20.4073C119.239 20.0404 119.027 19.4308 119.027 18.5788V7.04792H120.997V18.3829C120.997 18.7623 121.063 19.0173 121.193 19.1479C121.324 19.2722 121.576 19.3344 121.95 19.3344C122.006 19.3344 122.071 19.3344 122.146 19.3344C122.22 19.3344 122.286 19.3344 122.342 19.3344V20.9484C122.248 20.9484 122.152 20.9484 122.052 20.9484C121.959 20.9484 121.866 20.9484 121.772 20.9484Z"
    fill="#FFFFFF" />
  <path
    d="M112.565 21.1716C111.625 21.1716 110.8 20.9539 110.091 20.5186C109.381 20.0832 108.827 19.4799 108.429 18.7087C108.037 17.9375 107.841 17.0481 107.841 16.0406C107.841 15.0206 108.037 14.125 108.429 13.3538C108.827 12.5763 109.381 11.9699 110.091 11.5346C110.8 11.093 111.625 10.8722 112.565 10.8722C113.505 10.8722 114.326 11.093 115.03 11.5346C115.739 11.9699 116.29 12.5763 116.682 13.3538C117.081 14.125 117.28 15.0206 117.28 16.0406C117.28 17.0481 117.081 17.9375 116.682 18.7087C116.29 19.4799 115.739 20.0832 115.03 20.5186C114.326 20.9539 113.505 21.1716 112.565 21.1716ZM112.565 19.4737C113.125 19.4737 113.608 19.3338 114.012 19.0539C114.423 18.7678 114.737 18.3666 114.955 17.8504C115.179 17.3342 115.291 16.7309 115.291 16.0406C115.291 15.3315 115.179 14.7189 114.955 14.2027C114.737 13.6865 114.423 13.2853 114.012 12.9993C113.608 12.7132 113.125 12.5701 112.565 12.5701C112.005 12.5701 111.519 12.7132 111.109 12.9993C110.704 13.2791 110.39 13.6803 110.166 14.2027C109.948 14.7189 109.839 15.3315 109.839 16.0406C109.839 16.7371 109.948 17.3435 110.166 17.8598C110.39 18.3697 110.704 18.7678 111.109 19.0539C111.513 19.3338 111.999 19.4737 112.565 19.4737Z"
    fill="#FFFFFF" />
  <path
    d="M97.227 20.9484V7.04792H102.381C103.376 7.04792 104.235 7.22517 104.957 7.57968C105.679 7.92797 106.236 8.42553 106.628 9.07235C107.027 9.71917 107.226 10.4873 107.226 11.3767C107.226 12.266 107.024 13.0341 106.619 13.681C106.215 14.3278 105.645 14.8285 104.911 15.183C104.176 15.5375 103.311 15.7147 102.315 15.7147H98.3193V13.9235H102.278C102.882 13.9235 103.398 13.8209 103.828 13.6157C104.257 13.4042 104.59 13.1088 104.827 12.7294C105.063 12.35 105.181 11.8991 105.181 11.3767C105.181 10.8542 105.063 10.4064 104.827 10.0333C104.59 9.65387 104.257 9.36155 103.828 9.15631C103.398 8.95107 102.882 8.84845 102.278 8.84845H99.2996V20.9484H97.227Z"
    fill="#FFFFFF" />
  <path
    d="M86.3015 21.1716C85.3243 21.1716 84.484 20.9508 83.7807 20.5092C83.0836 20.0677 82.5452 19.4613 82.1655 18.6901C81.7921 17.9126 81.6054 17.0295 81.6054 16.0406C81.6054 15.033 81.8014 14.1436 82.1936 13.3724C82.5857 12.595 83.1272 11.9855 83.818 11.5439C84.5089 11.0961 85.3025 10.8722 86.1988 10.8722C86.8959 10.8722 87.5245 10.9966 88.0847 11.2454C88.651 11.4941 89.1365 11.8487 89.5411 12.3089C89.9457 12.7629 90.2569 13.304 90.4747 13.9322C90.6925 14.5603 90.8015 15.2569 90.8015 16.0219V16.5537H82.4923V15.061H89.7652L88.8969 15.5181C88.8969 14.9086 88.788 14.38 88.5701 13.9322C88.3523 13.4782 88.0411 13.1299 87.6365 12.8873C87.2382 12.6385 86.7651 12.5141 86.2174 12.5141C85.6759 12.5141 85.206 12.6385 84.8077 12.8873C84.4093 13.1299 84.0981 13.4782 83.8741 13.9322C83.6562 14.38 83.5473 14.9086 83.5473 15.5181V16.3671C83.5473 16.989 83.6562 17.5395 83.8741 18.0184C84.0919 18.491 84.4062 18.8611 84.817 19.1285C85.234 19.396 85.7382 19.5297 86.3295 19.5297C86.7589 19.5297 87.1386 19.4644 87.4685 19.3338C87.7983 19.1969 88.0722 19.0104 88.29 18.774C88.5079 18.5377 88.6635 18.264 88.7569 17.953H90.6521C90.5338 18.5874 90.2693 19.1472 89.8585 19.6323C89.454 20.1112 88.9436 20.4875 88.3274 20.7611C87.7174 21.0348 87.0421 21.1716 86.3015 21.1716Z"
    fill="#FFFFFF" />
  <path
    d="M80.697 11.0978V12.7211H74.9833V11.0978H80.697ZM76.7198 8.41103H78.6897V18.3466C78.6897 18.7073 78.7644 18.9623 78.9138 19.1116C79.0694 19.2546 79.3432 19.3262 79.7354 19.3262C79.8847 19.3262 80.0497 19.3262 80.2302 19.3262C80.4107 19.3262 80.5663 19.3262 80.697 19.3262V20.9494C80.5352 20.9494 80.3391 20.9494 80.1088 20.9494C79.8847 20.9494 79.6669 20.9494 79.4553 20.9494C78.5279 20.9494 77.8401 20.7566 77.392 20.371C76.9439 19.9792 76.7198 19.3884 76.7198 18.5985V8.41103Z"
    fill="#FFFFFF" />
  <path
    d="M68.8377 21.1075C68.1841 21.1075 67.5991 20.9956 67.0825 20.7717C66.5721 20.5478 66.1675 20.215 65.8688 19.7735C65.57 19.3319 65.4206 18.7846 65.4206 18.1315C65.4206 17.5718 65.5264 17.1115 65.7381 16.7508C65.9559 16.3901 66.2484 16.104 66.6157 15.8925C66.9829 15.6811 67.3999 15.5225 67.8667 15.4167C68.3335 15.3048 68.8159 15.2208 69.3138 15.1649C69.9362 15.084 70.4248 15.0218 70.7796 14.9783C71.1406 14.9285 71.3957 14.8539 71.5451 14.7544C71.7007 14.6486 71.7785 14.4776 71.7785 14.2413V14.1573C71.7785 13.8401 71.7007 13.5602 71.5451 13.3177C71.3895 13.0689 71.1623 12.873 70.8636 12.7299C70.5648 12.5869 70.207 12.5154 69.7899 12.5154C69.3729 12.5154 69.0026 12.5838 68.6789 12.7206C68.3615 12.8574 68.1063 13.0471 67.9134 13.2897C67.7267 13.526 67.6208 13.7966 67.5959 14.1013H65.6634C65.6945 13.4732 65.8843 12.9196 66.2329 12.4407C66.5814 11.9618 67.0607 11.5856 67.6706 11.3119C68.2806 11.0382 68.9964 10.9014 69.8179 10.9014C70.4217 10.9014 70.9663 10.9792 71.4518 11.1346C71.9372 11.2901 72.348 11.514 72.6841 11.8063C73.0265 12.0924 73.2848 12.4376 73.459 12.8419C73.6395 13.2462 73.7298 13.6971 73.7298 14.1946V20.9489H71.7879V19.5496H71.7505C71.6136 19.817 71.4269 20.0689 71.1904 20.3052C70.9538 20.5416 70.6426 20.7344 70.2567 20.8836C69.8771 21.0329 69.404 21.1075 68.8377 21.1075ZM69.2391 19.5216C69.8179 19.5216 70.2941 19.419 70.6675 19.2137C71.0472 19.0023 71.3273 18.7255 71.5078 18.3834C71.6945 18.0413 71.7879 17.6682 71.7879 17.2639V16.1071C71.7194 16.1631 71.6074 16.2159 71.4518 16.2657C71.3024 16.3092 71.1188 16.3528 70.9009 16.3963C70.6831 16.4336 70.4466 16.474 70.1914 16.5176C69.9362 16.5611 69.681 16.5984 69.4258 16.6295C69.0648 16.6793 68.7287 16.7633 68.4175 16.8814C68.1063 16.9934 67.8542 17.152 67.6613 17.3572C67.4746 17.5625 67.3812 17.833 67.3812 18.1688C67.3812 18.4487 67.4559 18.6913 67.6053 18.8965C67.7547 19.0955 67.9694 19.251 68.2495 19.363C68.5296 19.4687 68.8594 19.5216 69.2391 19.5216Z"
    fill="#FFFFFF" />
  <path
    d="M49.4899 20.9489V11.0973H51.4038V13.1777H51.2171C51.4038 12.6802 51.6527 12.2635 51.9639 11.9276C52.2814 11.5856 52.6455 11.3306 53.0563 11.1626C53.4671 10.9885 53.8965 10.9014 54.3447 10.9014C55.1102 10.9014 55.7637 11.1222 56.3052 11.5638C56.853 11.9992 57.1891 12.5371 57.3135 13.1777H57.0055C57.1424 12.7424 57.3633 12.3537 57.6683 12.0116C57.9795 11.6695 58.3592 11.399 58.8073 11.2C59.2555 11.0009 59.7534 10.9014 60.3011 10.9014C60.9173 10.9014 61.4743 11.0351 61.9723 11.3026C62.4702 11.57 62.8654 11.9681 63.158 12.4967C63.4505 13.0191 63.5968 13.6753 63.5968 14.4652V20.9489H61.6175V14.6331C61.6175 13.9303 61.4214 13.4203 61.0293 13.1031C60.6372 12.7859 60.1735 12.6273 59.6382 12.6273C59.2026 12.6273 58.826 12.7206 58.5086 12.9072C58.1911 13.0938 57.9453 13.3488 57.771 13.6722C57.5967 13.9956 57.5096 14.3688 57.5096 14.7917V20.9489H55.5677V14.5025C55.5677 13.9365 55.3841 13.4825 55.0169 13.1404C54.6559 12.7984 54.1953 12.6273 53.6351 12.6273C53.2554 12.6273 52.8976 12.7175 52.5615 12.8979C52.2316 13.0782 51.9639 13.3457 51.7585 13.7002C51.5594 14.0485 51.4598 14.4838 51.4598 15.0063V20.9489H49.4899Z"
    fill="#FFFFFF" />
  <path
    d="M45.2922 20.9501V11.0985H47.2622V20.9501H45.2922ZM46.2725 9.40061C45.924 9.40061 45.6283 9.28555 45.3856 9.05543C45.1491 8.81909 45.0308 8.53299 45.0308 8.19714C45.0308 7.85507 45.1491 7.56898 45.3856 7.33886C45.6283 7.10252 45.924 6.98435 46.2725 6.98435C46.6211 6.98435 46.9167 7.10252 47.1595 7.33886C47.4022 7.56898 47.5236 7.85507 47.5236 8.19714C47.5236 8.53299 47.4022 8.81909 47.1595 9.05543C46.9167 9.28555 46.6211 9.40061 46.2725 9.40061Z"
    fill="#FFFFFF" />
  <path
    d="M43.19 20.9484C42.2066 20.9484 41.5033 20.768 41.08 20.4073C40.6568 20.0403 40.4452 19.4308 40.4452 18.5788V7.04791H42.4151V18.3829C42.4151 18.7622 42.4804 19.0172 42.6111 19.1478C42.7419 19.2722 42.9939 19.3344 43.3674 19.3344C43.4234 19.3344 43.4887 19.3344 43.5634 19.3344C43.6381 19.3344 43.7035 19.3344 43.7595 19.3344V20.9484C43.6661 20.9484 43.5697 20.9484 43.4701 20.9484C43.3767 20.9484 43.2833 20.9484 43.19 20.9484Z"
    fill="#FFFFFF" />
  <path
    d="M32.7386 21.1732C31.4627 21.1732 30.3361 20.8716 29.3589 20.2683C28.3817 19.665 27.6193 18.8254 27.0716 17.7494C26.5239 16.6735 26.25 15.4265 26.25 14.0084C26.25 12.5779 26.5239 11.3247 27.0716 10.2488C27.6193 9.16657 28.3817 8.32695 29.3589 7.72988C30.3361 7.12659 31.4627 6.82495 32.7386 6.82495C33.4979 6.82495 34.2044 6.94001 34.8579 7.17013C35.5177 7.39403 36.1058 7.71744 36.6224 8.14037C37.1453 8.56329 37.5747 9.07328 37.9108 9.67035C38.2469 10.2674 38.4772 10.936 38.6017 11.6761H36.4917C36.3921 11.2034 36.2303 10.7836 36.0063 10.4167C35.7822 10.0497 35.5083 9.73876 35.1847 9.48377C34.861 9.22877 34.4938 9.03908 34.083 8.91469C33.6722 8.78408 33.2303 8.71877 32.7573 8.71877C31.8423 8.71877 31.055 8.93956 30.3952 9.38115C29.7355 9.82273 29.2251 10.4416 28.8641 11.2377C28.5093 12.0275 28.332 12.9511 28.332 14.0084C28.332 15.0595 28.5093 15.98 28.8641 16.7699C29.2251 17.5597 29.7355 18.1754 30.3952 18.617C31.055 19.0586 31.8423 19.2794 32.7573 19.2794C33.2303 19.2794 33.6691 19.2172 34.0737 19.0928C34.4845 18.9622 34.8517 18.7725 35.1753 18.5237C35.499 18.2687 35.7729 17.9578 35.9969 17.5908C36.221 17.2239 36.389 16.8072 36.5011 16.3407H38.6017C38.4834 17.0746 38.2531 17.7401 37.9108 18.3372C37.5747 18.9342 37.1453 19.4442 36.6224 19.8671C36.1058 20.2901 35.5177 20.6135 34.8579 20.8374C34.2044 21.0613 33.4979 21.1732 32.7386 21.1732Z"
    fill="#FFFFFF" />
  <path
    d="M14 28V26.25C7.23451 26.25 1.75 20.7655 1.75 14C1.75 7.23451 7.23451 1.75 14 1.75V0C6.26801 0 0 6.26801 0 14C0 21.732 6.26801 28 14 28Z"
    fill="#005EEB" />
  <path
    d="M14 3.5C8.20101 3.5 3.5 8.20101 3.5 14C3.5 19.799 8.20101 24.5 14 24.5V22.75C9.16751 22.75 5.25 18.8325 5.25 14C5.25 9.16751 9.16751 5.25 14 5.25V3.5Z"
    fill="#005EEB" />
  <path
    d="M14 7C10.134 7 7 10.134 7 14C7 17.866 10.134 21 14 21V19.25C11.1005 19.25 8.75 16.8995 8.75 14C8.75 11.1005 11.1005 8.75 14 8.75V7Z"
    fill="#005EEB" />
  <path
    d="M14 10.5C12.067 10.5 10.5 12.067 10.5 14C10.5 15.933 12.067 17.5 14 17.5V15.75C13.0335 15.75 12.25 14.9665 12.25 14C12.25 13.0335 13.0335 12.25 14 12.25V10.5Z"
    fill="#005EEB" />
</svg>