<svg width="21" height="20" viewBox="0 0 21 20" fill="none" xmlns="http://www.w3.org/2000/svg">
<path d="M12.9347 9.79297C15.8599 9.79297 18.4853 11.0754 20.2798 13.1086V17.2283C19.2834 14.1223 16.3718 11.874 12.9347 11.874C8.67538 11.874 5.2224 15.3269 5.2224 19.5862H3.1413C3.1413 14.1776 7.52602 9.79297 12.9347 9.79297Z" fill="#0037A3" style="fill:#0037A3;fill:color(display-p3 0.0000 0.2157 0.6392);fill-opacity:1;"/>
<path d="M12.9347 14.6895C15.6391 14.6895 17.8314 16.8818 17.8314 19.5861H15.7503C15.7503 18.0311 14.4897 16.7705 12.9347 16.7705C11.3797 16.7705 10.1191 18.0311 10.1191 19.5861H8.03796C8.03796 16.8818 10.2303 14.6895 12.9347 14.6895Z" fill="#0037A3" style="fill:#0037A3;fill:color(display-p3 0.0000 0.2157 0.6392);fill-opacity:1;"/>
<path d="M12.9346 4.89648C15.6103 4.89648 18.1189 5.61198 20.2796 6.86189V9.33675C18.2113 7.85189 15.6751 6.97755 12.9346 6.97755C7.01628 6.97755 2.05041 11.055 0.692749 16.5538V11.4637C3.32454 7.50541 7.82483 4.89648 12.9346 4.89648Z" fill="#0037A3" style="fill:#0037A3;fill:color(display-p3 0.0000 0.2157 0.6392);fill-opacity:1;"/>
<path d="M12.9346 0C15.5321 0 18.0114 0.505822 20.2796 1.42404V3.69206C18.046 2.65818 15.5577 2.08107 12.9346 2.08107C8.16956 2.08107 3.84928 3.98488 0.692749 7.07328V4.29601C4.04603 1.60796 8.30245 0 12.9346 0Z" fill="#0037A3" style="fill:#0037A3;fill:color(display-p3 0.0000 0.2157 0.6392);fill-opacity:1;"/>
</svg>
