<svg width="197" height="19" viewBox="0 0 197 19" fill="none" xmlns="http://www.w3.org/2000/svg">
<path d="M192.282 11.3571L196.439 18.5863H191.714L188.048 11.5895H185.208V18.5863H181.128V0.771484H190.372C193.935 0.771484 196.31 2.86279 196.31 6.16757C196.31 8.80107 194.709 10.7375 192.282 11.3571ZM185.13 4.33445V8.1556H190.088C191.456 8.1556 192.205 7.40686 192.205 6.24503C192.205 5.05737 191.404 4.33445 190.088 4.33445H185.13Z" fill="black" style="fill:black;fill-opacity:1;"/>
<path d="M178.895 18.5863H174.609L173.369 15.075H165.83L164.591 18.5863H160.356L166.992 0.771484H172.233L178.895 18.5863ZM169.574 4.38609L166.992 11.7186H172.182L169.574 4.38609Z" fill="black" style="fill:black;fill-opacity:1;"/>
<path d="M150.275 0.771484C156.11 0.771484 159.673 4.07626 159.673 9.52399C159.673 15.1008 156.033 18.5863 150.275 18.5863H142.942V0.771484H150.275ZM147.073 15.0492H150.043C153.399 15.0492 155.465 12.8546 155.465 9.54981C155.465 6.24503 153.399 4.30863 150.043 4.30863H147.073V15.0492Z" fill="black" style="fill:black;fill-opacity:1;"/>
<path d="M140.709 18.5863H136.423L135.183 15.075H127.644L126.405 18.5863H122.171L128.806 0.771484H134.047L140.709 18.5863ZM131.388 4.38609L128.806 11.7186H133.996L131.388 4.38609Z" fill="black" style="fill:black;fill-opacity:1;"/>
<path d="M116.969 11.3571L121.126 18.5863H116.401L112.735 11.5895H109.895V18.5863H105.815V0.771484H115.059C118.622 0.771484 120.997 2.86279 120.997 6.16757C120.997 8.80107 119.396 10.7375 116.969 11.3571ZM109.817 4.33445V8.1556H114.775C116.143 8.1556 116.892 7.40686 116.892 6.24503C116.892 5.05737 116.091 4.33445 114.775 4.33445H109.817Z" fill="black" style="fill:black;fill-opacity:1;"/>
<path d="M91.7415 18.5863H87.5847V11.8735L81.0524 0.771484H85.7773L89.7793 8.18142L93.6521 0.771484H98.093L91.7415 11.8477V18.5863Z" fill="black" style="fill:black;fill-opacity:1;"/>
<path d="M71.8546 18.9732C66.665 18.9732 62.5081 15.2295 62.5081 9.7043C62.5081 4.23076 66.665 0.383789 71.8546 0.383789C76.5279 0.383789 80.1426 3.32711 80.9688 7.76791H76.7344C76.089 5.52169 74.3074 4.12749 71.8546 4.12749C68.9371 4.12749 66.7166 6.34789 66.7166 9.67849C66.7166 12.9574 68.9629 15.2295 71.8546 15.2295C74.1783 15.2295 75.9599 13.9902 76.6828 11.8214H80.9171C80.0393 16.159 76.4504 18.9732 71.8546 18.9732Z" fill="black" style="fill:black;fill-opacity:1;"/>
<path d="M59.4697 18.5863H55.3129V0.771484H59.4697V18.5863Z" fill="black" style="fill:black;fill-opacity:1;"/>
<path d="M52.8003 18.5863H39.2453V0.771484H43.4022V14.9459H52.8003V18.5863Z" fill="black" style="fill:black;fill-opacity:1;"/>
<path d="M26.8543 18.9999C21.613 18.9999 17.5336 15.1271 17.5336 9.6794C17.5336 4.23168 21.613 0.358887 26.8543 0.358887C32.1214 0.358887 36.2008 4.23168 36.2008 9.6794C36.2008 15.1271 32.1214 18.9999 26.8543 18.9999ZM26.8543 15.2304C29.901 15.2304 31.9923 12.8809 31.9923 9.6794C31.9923 6.4779 29.901 4.10258 26.8543 4.10258C23.8077 4.10258 21.7421 6.4779 21.7421 9.6794C21.7421 12.8809 23.8077 15.2304 26.8543 15.2304Z" fill="black" style="fill:black;fill-opacity:1;"/>
<path d="M4.78572 18.5863H0.706299V0.771484H9.92372C13.5384 0.771484 15.8879 2.88861 15.8879 6.19339C15.8879 9.54981 13.4609 11.8218 9.92372 11.8218H4.78572V18.5863ZM4.70826 4.36027V8.20724H9.61389C10.9823 8.20724 11.7311 7.43268 11.7311 6.27085C11.7311 5.10901 10.9565 4.36027 9.61389 4.36027H4.70826Z" fill="black" style="fill:black;fill-opacity:1;"/>
</svg>
