<svg width="89" height="68" viewBox="0 0 89 68" fill="none" xmlns="http://www.w3.org/2000/svg">
<path d="M89 68H80.5667L77.2144 59.1789H61.8669L58.6979 68H50.4741L65.4288 29.1661H73.6263L89 68ZM74.7263 52.636L69.4359 38.2256L64.2502 52.636H74.7263Z" fill="white"/>
<path d="M32.5674 11.046C27.4742 27.1939 16.9448 36.3576 0 40.8651C1.17536 42.3016 3.03636 45.1745 3.72199 46.6605C21.2545 41.1128 32.6653 30.7107 38.836 12.8787L32.5674 11.046ZM13.6636 11.4422L7.78679 13.2254C13.9085 30.364 23.997 41.7072 42.3621 46.5615C43.2926 44.8278 45.2026 42.0044 46.6228 40.6174C29.1882 36.6548 18.6099 26.1041 13.6636 11.4422ZM0.881524 7.82629V13.6712H45.7413V7.82629H0.881524ZM20.1281 0V11.3927H26.2008V0H20.1281Z" fill="white"/>
</svg>
