<svg width="374" height="436" viewBox="0 0 374 436" fill="none" xmlns="http://www.w3.org/2000/svg">
<g opacity="0.149994">
<path d="M148.551 41.5192C144.373 46.8504 135.847 50.0235 131.574 49.094C129.596 48.6637 129.332 47.5553 129.244 47.1909C128.692 44.8809 131.977 42.8338 135.456 40.666C139.099 38.3962 142.866 36.0483 143.614 32.5725C144.042 30.5853 144.065 27.6545 144.089 24.5509C144.126 19.6409 144.176 13.0976 146.22 11.5516C146.447 11.3801 146.698 11.2703 146.977 11.2312C147.339 11.1793 148.442 11.0231 149.663 13.1299C153.074 19.0238 153.003 35.8352 148.551 41.5192Z" fill="url(#paint0_linear_1_2)"/>
<path d="M128.199 71.4087C125.883 73.9263 124.404 72.9766 121.282 70.5854C119.351 69.1078 117.163 67.4324 114.387 67.0503C111.633 66.6707 108.741 67.2872 106.189 67.8322C102.226 68.6781 100.435 68.8886 99.9171 67.361C99.4985 66.1263 100.284 65.4562 102.468 63.9859C104.67 62.5071 107.414 60.6615 107.513 56.9415C107.579 54.4905 107.777 47.0286 110.691 44.7314C111.537 44.0887 112.571 43.8775 113.867 44.1491C115.571 44.508 115.729 45.23 115.663 48.1614C115.606 50.7638 115.527 54.3281 118.556 57.5665C120.082 59.1979 121.865 60.6578 123.589 62.0695C126.493 64.4455 129.236 66.6897 129.384 68.7623C129.443 69.6113 129.057 70.4767 128.199 71.4087Z" fill="url(#paint1_linear_1_2)"/>
<path d="M113.342 114.917C112.433 117.854 110.358 120.387 107.658 121.856C105.613 122.969 103.461 123.328 101.599 122.867C98.9208 122.204 96.9955 120.002 94.9584 117.671C93.865 116.42 92.7349 115.127 91.4477 114.038C87.6919 110.858 82.3029 109.24 75.4319 109.227C73.0567 109.223 70.6645 109.386 68.3511 109.542C65.3569 109.746 62.2612 109.956 59.2528 109.793C56.0349 109.62 51.795 108.769 49.8746 105.704C49.5525 105.19 49.1956 104.427 49.3245 103.711C49.4229 103.175 49.8019 102.632 50.182 102.121C52.0034 99.6698 54.1615 97.4946 56.599 95.6514C56.6357 95.6234 56.6736 95.5947 56.7115 95.566C57.9516 94.637 59.7155 93.8302 60.6054 94.6133C60.9465 94.9135 61.153 95.4378 61.3914 96.0463C61.5106 96.3497 61.631 96.653 61.7691 96.9423C63.2452 100.026 67.1697 101.628 70.3381 100.442C73.5915 99.2273 75.43 95.3212 74.2755 92.0877C73.6533 90.3465 72.3942 89.0965 71.1761 87.8881C70.1413 86.8615 69.1634 85.8911 68.6836 84.7162C67.5419 81.9215 69.4861 78.713 71.4982 76.8144C72.5091 75.8585 73.6252 75.0267 74.8066 74.1484C76.4232 72.943 78.0973 71.6974 79.4792 70.1057C81.6899 67.5594 82.9166 64.4199 84.1029 61.3853C85.3326 58.2366 86.4952 55.2644 88.6502 52.9933C88.8819 52.7498 89.1447 52.5149 89.4179 52.308C90.1752 51.7348 91.0193 51.3766 91.5357 51.6342C92.5258 52.126 93.3491 53.2155 93.5374 54.2836C93.6737 55.0532 93.5893 55.8338 93.3021 56.4807C92.5851 58.0938 91.1195 59.2883 89.5689 60.5522C89.2419 60.8183 88.9173 61.0838 88.5989 61.353C85.8809 63.6521 83.581 66.3698 81.7639 69.4288C81.322 70.1728 80.8367 71.0535 80.6643 72.0929C80.2127 74.8186 82.089 77.1567 83.7741 78.8907C85.1542 80.3103 86.7182 81.9179 86.6889 83.6884C86.6632 85.1972 85.5032 86.4916 84.2753 87.8625C83.037 89.2454 81.7553 90.6754 81.3061 92.5846C80.7524 94.9404 81.7272 97.6838 83.7894 99.5746C85.6945 101.321 88.1503 102.168 90.0774 102.71C92.2349 103.318 94.4517 103.741 96.5946 104.15C98.5571 104.523 100.587 104.91 102.525 105.434C107.188 106.695 110.618 108.681 112.718 111.337C113.195 111.94 113.454 112.404 113.558 112.844C113.684 113.375 113.615 114.033 113.342 114.917Z" fill="url(#paint2_linear_1_2)"/>
<path d="M36.4931 120.325C35.5787 119.368 35.1222 117.984 35.2725 116.622C35.3428 115.98 35.5439 115.326 35.756 114.635C35.9302 114.067 36.1099 113.478 36.2309 112.856C36.6184 110.843 36.314 108.732 35.3727 106.91C35.2175 106.609 35.0433 106.314 34.8691 106.017C34.4511 105.309 34.0575 104.641 34.0373 104.01C34.0067 103.043 34.8844 102.132 35.7181 101.694C35.8012 101.65 35.8403 101.645 35.8415 101.645C35.8348 101.661 36.1123 101.857 36.5133 103.071C36.6422 103.466 36.7504 103.868 36.8586 104.269C37.0126 104.84 37.1715 105.43 37.3922 106.018C38.2313 108.266 39.8877 110.26 42.6038 112.294L42.7597 112.41C43.2279 112.758 43.6698 113.087 43.9491 113.469C44.5016 114.223 44.5163 115.337 44.4319 116.139C44.1813 118.522 42.5641 121.244 40.0655 121.596C38.7851 121.778 37.416 121.291 36.4931 120.325Z" fill="url(#paint3_linear_1_2)"/>
<path d="M42.0127 132.049C43.9129 128.93 47.8655 124.397 50.3439 123.997C50.9172 123.905 51.2106 124.079 51.4031 124.242C51.853 124.624 52.1023 125.252 52.1445 126.109C52.2869 128.995 50.0835 133.56 47.019 136.727C45.0894 138.719 43.4532 137.833 42.839 137.361C41.4986 136.328 40.7536 134.115 42.0127 132.049Z" fill="url(#paint4_linear_1_2)"/>
<path d="M43.9567 160.879C37.4071 162.182 34.5375 159.128 30.9052 155.26C29.423 153.682 27.8902 152.05 25.9893 150.61C22.7604 148.164 22.8417 145.173 23.1778 143.608C23.7805 140.812 25.9404 138.529 28.5588 137.927C31.1289 137.336 32.7229 139.345 35.1115 142.673C37.6162 146.166 40.4564 150.122 45.7848 149.891C52.7513 149.587 57.4092 139.624 61.151 131.617C61.8056 130.215 62.4247 128.89 62.9974 127.755C63.9631 125.84 65.0125 124.725 66.1163 124.44C67.6132 124.053 69.3172 125.212 70.6869 126.142C71.0713 126.403 71.4319 126.647 71.7638 126.847C73.8425 128.097 76.6167 127.839 80.1287 127.512C81.546 127.38 83.1535 127.231 84.8514 127.174C85.6612 127.148 86.3812 127.446 87.0554 128.088C89.5888 130.503 91.1742 137.468 91.2965 146.72C91.3967 154.368 93.0543 163.615 97.4042 166.63C98.9536 167.703 100.764 167.915 102.642 167.244C108.112 165.289 106.561 160.035 104.914 154.477C104.059 151.595 103.091 148.329 102.909 145.098C102.642 140.361 105.583 138.198 110.448 134.623C114.406 131.714 119.34 128.088 124.504 121.68C127.968 117.381 129.438 113.205 128.871 109.267C127.894 102.488 121.209 97.8468 116.326 94.457C115.428 93.8339 114.579 93.2449 113.85 92.7005C110.154 89.9406 106.38 89.9712 103.346 89.9962C100.323 90.0206 98.8338 89.9583 98.0288 88.2762C97.2948 86.7431 97.8528 85.2643 98.45 84.2945C100.054 81.6896 104.519 78.8248 110.535 78.6881C113.917 78.6118 117.32 81.6542 122.03 85.8661C126.65 89.998 132.401 95.1418 140.714 99.7083C145.574 102.378 151.062 101.968 155.472 101.637C160.025 101.297 162.637 101.204 163.361 103.243C165.251 108.567 161.742 110.664 153.627 114.897C151.343 116.087 148.755 117.437 146.094 119.046C144.313 120.123 142.38 121.158 140.334 122.253C130.971 127.265 120.359 132.948 117.973 145.989C117.245 149.966 117.791 153.175 119.594 155.526C122.952 159.9 129.756 160.461 135.758 160.956C137.99 161.141 140.096 161.314 141.722 161.676C148.84 163.26 152.854 172.939 158.658 192.688C164.102 211.214 179.025 210.271 189.921 209.582C190.844 209.524 191.742 209.467 192.606 209.424C200.295 209.04 202.182 206.217 204.368 202.947C205.489 201.27 206.759 199.37 209.052 197.409C210.654 196.034 212.173 195.528 213.687 195.852C218.106 196.798 221.828 204.681 223.052 207.272C225.481 212.414 225.494 220.337 223.081 223.897C222.127 225.303 220.902 225.94 219.339 225.845C218.261 225.781 217.13 225.671 215.932 225.557C208.852 224.877 199.155 223.948 182.308 230.314C180.008 231.183 178.03 232.245 176.38 233.492C173.945 235.334 172.225 237.581 171.242 240.215C167.924 249.114 173.809 259.974 176.971 265.81L177.159 266.154C179.965 271.339 182.593 276.769 181.264 281.15C180.542 283.525 178.723 285.455 175.7 287.054C174.086 287.908 172.578 288.029 171.091 287.427C165.139 285.017 160.943 272.084 158.435 264.358C158.153 263.49 157.89 262.681 157.646 261.951C154.944 253.864 145.029 251.487 139.074 248.474C129.954 243.859 126.821 238.209 124.907 231.798C124.079 229.026 124.073 226.825 124.89 225.601C125.487 224.704 126.386 224.254 127.635 224.226C132.164 224.127 139.342 229.834 143.177 234.46C146.394 238.34 150.877 241.027 155.497 240.991C159.289 240.961 162.598 239.222 164.815 236.096C167.332 232.545 166.729 230.062 165.782 228.603C163.904 225.715 159.186 224.722 155.701 225.399C151.631 226.19 148.481 222.435 150.829 218.317C155.486 210.152 150.876 198.25 134.526 179.239C126.447 169.844 118.755 169.127 113.726 170.179C105.625 171.874 99.9211 178.982 98.615 183.251L98.4004 183.953C96.2961 190.859 93.91 198.688 88.65 197.805C87.3543 197.588 86.4277 197.011 85.8159 196.041C84.8496 194.511 84.1467 191.12 86.2889 183.655C87.1348 180.711 85.7908 178.615 84.4902 176.587C82.766 173.898 81.1378 171.358 83.6015 166.162C86.064 160.969 86.0414 153.54 83.5434 147.676C81.5204 142.928 78.1851 139.658 73.8969 138.218C67.3583 136.024 61.621 143.114 56.0725 149.972C52.0435 154.95 47.8782 160.098 43.9567 160.879Z" fill="url(#paint5_linear_1_2)"/>
<path d="M303.34 168.649C303.37 164.679 303.846 159.129 304.351 153.255C304.739 148.744 305.139 144.081 305.348 139.945C305.654 133.903 301.518 133.255 297.868 132.684C294.72 132.19 291.465 131.681 289.553 128.272C288.263 125.972 288.129 123.7 289.166 121.703C290.513 119.109 293.666 117.194 297.2 116.825C299.641 116.571 301.008 118.661 302.813 121.88C304.292 124.514 305.968 127.502 309.016 126.536C310.805 125.97 312.048 124.924 312.711 123.422C313.936 120.649 312.777 117.009 311.59 114.443C306.959 104.432 298.334 100.54 288.52 104.032C279.569 107.216 273.106 108.045 270.321 106.364C269.483 105.859 269.025 105.143 268.878 104.114C268.634 102.396 270.538 101.299 273.468 99.8224C276.213 98.4394 279.323 96.8733 278.889 93.8192C278.318 89.8039 273.993 88.6089 269.811 87.4529C266.707 86.596 263.498 85.7098 261.814 83.7714C259.999 81.6823 259.832 79.2965 259.602 75.9947C259.348 72.3461 259.032 67.8053 256.227 62.053C253.847 57.1728 250.222 56.2531 247.022 55.4413C243.417 54.5271 240.303 53.7367 238.302 47.8306C236.503 42.5263 233.91 36.9912 227.169 32.4363C222.743 29.4451 218.973 22.0883 219.56 17.5835C219.802 15.7195 220.733 14.5306 222.396 13.9496C227.541 12.1522 231.91 12.2724 235.033 14.2957C237.767 16.0674 239.589 19.4016 239.907 23.2156C240.322 28.194 243.428 31.5087 246.169 34.4334C247.525 35.8811 248.806 37.2482 249.568 38.6324C250.071 39.5472 250.501 40.5378 250.955 41.5876C252.634 45.4631 254.537 49.8557 261.119 52.9421C266.258 55.3534 268.759 63.4848 268.908 70.0196C269.039 75.7701 273.539 79.2971 282.283 80.5031C284.933 80.8681 285.465 82.6564 286.177 85.7849C286.589 87.5945 287.014 89.4651 288.171 90.9892C288.933 91.9943 289.828 92.5436 290.832 92.6217C292.814 92.7768 294.6 91.0575 296.489 89.2381C297.436 88.3269 298.417 87.3888 299.414 86.6766C300.863 85.6506 302.558 86.1053 303.439 86.4672C305.983 87.5127 308.023 90.1005 308.514 92.9074C308.612 93.4646 308.699 94.009 308.784 94.5369C309.539 99.2444 310.252 103.691 317.252 104.228C319.383 104.392 320.944 104.023 322.046 103.075C323.798 101.569 323.989 98.9472 324.211 95.912C324.313 94.5162 324.429 92.9342 324.702 91.2998C325.176 88.4722 326.793 87.9345 328.066 87.9845C330.012 88.0583 331.981 89.5762 332.119 91.1082C332.262 92.695 332.311 94.4802 332.369 96.548C332.458 99.7565 332.559 103.393 333.04 107.687C333.426 111.125 329.883 113.935 326.757 116.415C324.104 118.52 321.812 120.338 321.855 122.569C321.903 125.007 324.331 125.988 326.68 126.936C329.955 128.259 331.907 129.26 331.399 132.016C330.869 134.894 329.018 135.326 325.212 135.959C322.459 136.418 319.034 136.989 315.938 139.33C311.504 142.684 312.172 148.109 312.944 154.393C313.451 158.524 314.027 163.207 313.271 168.087C312.6 172.405 310.711 174.862 308.217 174.662C305.891 174.475 303.315 171.959 303.34 168.649Z" fill="url(#paint6_linear_1_2)"/>
<path d="M280.993 53.2918C278.63 46.5752 272.45 41.7798 268.361 38.6067C267.597 38.0147 266.875 37.4544 266.269 36.9528C263.599 34.7471 259.07 28.2196 259.677 24.1744C259.861 22.9379 260.52 22.1249 261.746 21.6147C265.165 20.1932 268.77 20.308 271.636 21.9302C274.633 23.6251 276.619 26.8519 277.229 31.0161C278.357 38.7032 280.695 42.5006 283.655 47.3076L283.931 47.7549C286.314 51.6268 290.171 54.3727 293.759 54.7505C296.171 55.005 298.352 54.1914 300.061 52.3989C300.405 52.0388 300.767 51.7159 301.141 51.4327C302.914 50.0925 304.96 49.6365 306.628 50.2774C308.715 51.0812 309.917 53.5017 310.011 57.0954C310.183 63.649 313.507 64.7 316.439 65.6271C318.25 66.1996 319.959 66.7403 321.284 68.4877C322.114 69.5802 322.015 70.8472 320.992 72.2528C318.625 75.504 312.113 78.1638 307.576 76.5886C304.311 75.4551 303.907 71.5998 303.516 67.87C303.138 64.2624 302.747 60.5327 299.345 59.9346C295.807 59.312 293.582 62.396 291.619 65.1187C290.044 67.3 288.558 69.3617 286.827 69.159C284.483 68.8844 283.803 65.9023 282.889 61.06C282.434 58.6511 281.918 55.9205 280.993 53.2918Z" fill="url(#paint7_linear_1_2)"/>
<path d="M337.145 48.9243C336.259 50.6564 331.777 52.5112 327.108 52.4044C323.513 52.322 322.589 49.9612 321.264 45.7958C320.8 44.334 320.32 42.8229 319.619 41.3575C318.006 37.9891 317.603 34.3974 318.639 32.6225C319.019 31.9707 319.555 31.6417 320.329 31.5862C322.924 31.4043 323.728 33.7302 324.946 39.0816L325.03 39.452C325.801 42.8296 329.208 44.0643 332.214 45.1537C334.219 45.88 336.114 46.5666 336.987 47.717C337.394 48.2542 337.304 48.6148 337.145 48.9243Z" fill="url(#paint8_linear_1_2)"/>
<path d="M30.131 280.195C29.6604 279.239 28.9881 277.509 29.7888 276.678C30.7251 275.702 33.588 275.721 35.8873 276.742C38.5167 277.909 41.5617 277.719 43.4784 276.269C43.4869 276.263 43.4949 276.256 43.5034 276.25C44.9288 275.157 45.5528 273.53 45.2582 271.669C45.1659 271.084 45.076 270.422 44.9777 269.697C44.4123 265.535 43.5572 259.246 40.3686 253.06C38.5167 249.467 35.542 246.827 32.9175 244.501C30.3309 242.206 28.0976 240.225 27.9301 238.17C27.7565 236.056 29.5351 234.5 32.4493 232.137C34.4443 230.521 36.7051 228.688 38.3076 226.23C41.797 220.877 39.7366 209.932 32.008 192.769C25.4645 178.237 17.4908 179.965 12.7278 180.996L12.193 181.11C10.4724 181.474 8.69141 179.607 7.81984 177.576C7.08702 175.865 6.83397 173.645 8.03683 172.835C8.68652 172.389 9.47191 172.617 10.8025 173.054C12.1655 173.504 13.8622 174.062 15.7557 173.473C16.7831 173.151 17.7237 172.255 18.9125 171.118C20.8408 169.277 23.2404 166.984 26.5109 166.874C28.2626 166.816 29.2613 171.413 30.4904 179.917C31.8656 189.434 36.9722 195.455 43.4973 195.257C45.2191 195.205 46.4457 195.662 47.2507 196.655C48.6919 198.434 48.8239 202.101 47.6229 206.981C46.5448 211.364 46.9041 217.956 54.7464 224.464C54.9799 224.658 55.0746 224.87 55.071 225.193C55.0502 227.078 51.7485 231.003 47.0423 234.737C42.8067 238.098 40.3307 245.502 44.3444 254.468C47.2049 260.86 58.1863 272.962 68.2197 276.64C72.113 278.069 75.518 278.107 78.3399 276.758C86.7274 272.751 85.843 260.218 85.1315 250.152C84.8657 246.383 84.6139 242.825 84.8913 240.294C85.1481 237.963 85.8521 236.302 86.882 235.523C87.2145 235.272 87.5806 235.113 87.9767 235.052C90.015 234.743 93.3571 237.039 95.8788 242.813C98.2638 248.271 98.7069 256.893 99.2197 266.876C99.6292 274.854 100.094 283.898 101.696 292.606C104.783 309.382 110.939 314.512 115.888 318.634C116.787 319.383 117.637 320.091 118.437 320.838C119.75 322.065 120.334 323.289 120.08 324.285C119.9 324.991 119.282 325.558 118.47 325.767C118.024 325.883 116.881 326.039 115.902 325.002C111.349 320.179 106.597 318.478 101.372 319.803C97.6905 320.736 93.1725 319.884 90.8627 317.823C89.5731 316.67 89.0371 315.229 89.2706 313.541C89.5004 311.881 90.2375 310.017 91.018 308.042C93.1138 302.745 95.7218 296.153 89.5517 289.639C81.534 281.176 64.069 284.688 51.6305 288.067C44.0987 290.112 34.0048 288.049 30.131 280.195Z" fill="url(#paint9_linear_1_2)"/>
<path d="M124.147 398.386C123.641 396.121 126.088 393.696 128.576 392.396C131.025 391.12 133.172 391.102 134.319 392.349C135.381 393.504 135.869 394.989 135.692 396.533C135.492 398.265 134.477 399.95 132.95 401.104C132.854 401.177 132.754 401.249 132.653 401.318H132.653C131.083 402.389 129.068 402.604 127.264 401.893C125.639 401.252 124.502 399.973 124.147 398.386ZM154.001 399.274C154.335 397.041 157.789 395.989 159.819 395.561C162.184 395.061 165.852 396.45 167.224 398.364C167.932 399.352 168.018 400.458 167.457 401.399C167.17 401.882 166.772 402.307 166.292 402.669C164 404.403 159.84 404.699 156.887 403.072C156.098 402.637 153.696 401.313 154.001 399.274ZM164.176 393.69C164.038 393.795 163.895 393.891 163.75 393.978C162.542 394.708 161.139 394.832 159.696 394.342C156.505 393.256 156.871 386.202 157.963 382.724C159.052 379.253 160.728 379.166 161.631 379.424C164.68 380.297 167.22 385.845 166.709 389.091C166.403 391.032 165.47 392.711 164.176 393.69ZM164.797 371.591C160.013 375.208 152.791 373.603 149.651 372.644C148.205 372.201 146.159 372.274 144.181 372.344C141.164 372.452 138.315 372.553 136.726 370.973C135.979 370.231 135.619 369.218 135.658 367.963C135.846 361.831 147.614 360.141 152.664 359.701C154.898 359.504 157.217 358.378 157.53 357.339C157.714 356.724 157.033 356.024 156.43 355.546C155.596 354.885 154.597 354.253 153.538 353.584C150.782 351.843 147.931 350.042 147.624 347.332C147.446 345.752 148.152 344.184 149.787 342.537C155.04 337.235 159.409 341.425 162.593 344.487C163.303 345.169 163.972 345.814 164.635 346.362C166.665 348.044 168.205 347.387 169.988 346.628C171.548 345.962 173.491 345.135 175.205 346.91C176.123 347.861 176.575 348.947 176.549 350.136C176.485 352.965 173.728 355.579 171.296 357.884C170.713 358.437 170.162 358.959 169.701 359.438C168.673 360.504 168.685 361.483 168.703 362.965C168.726 364.824 168.754 367.138 166.488 369.949C165.973 370.589 165.404 371.132 164.797 371.591ZM181.544 390.868C180.176 388.296 181.811 383.809 182.894 380.839L183.072 380.35C184.169 377.309 186.455 370.983 196.369 365.517C203.133 361.789 209.594 362.758 212.735 365.235C214.309 366.477 214.978 368.029 214.57 369.494C213.726 372.526 210.129 373.483 205.964 374.589C201.537 375.766 196.518 377.1 193.861 381.093C192.702 382.833 191.85 384.734 191.097 386.411C190.132 388.567 189.145 390.766 187.607 391.93C186.616 392.679 185.397 392.999 183.808 392.602V392.601C182.795 392.348 182.012 391.748 181.544 390.868ZM234.899 366.193C232.425 365.298 229.621 364.284 229.175 361.315C228.816 358.925 230.166 356.396 232.802 354.525C235.006 352.966 238.216 351.914 240.42 353.078C244.045 354.995 244.067 358.416 244.088 361.436C244.1 363.482 244.113 365.415 245.079 366.987C245.289 367.331 245.506 367.679 245.723 368.03C247.939 371.6 250.231 375.291 249.433 377.854C249.231 378.5 248.845 379.044 248.299 379.457C248.065 379.633 247.801 379.787 247.511 379.914C246.348 380.422 245.432 380.223 244.868 379.965C242.915 379.074 242.038 376.258 241.022 372.997C240.661 371.838 240.288 370.64 239.868 369.564C239.152 367.732 237.087 366.984 234.899 366.193ZM365.307 316.058C365.285 314.164 367.342 312.495 369.074 311.428C371.363 310.012 372.514 308.49 374.197 304.623C375.522 301.583 378.652 299.399 381.061 298.814C382.566 298.448 383.836 298.643 384.738 299.376C385.528 300.018 385.983 300.923 386.054 301.995C386.286 305.487 382.502 309.906 380.865 311.644C380.093 312.462 379.029 313.397 377.818 314.313C374.132 317.1 369.088 319.714 366.801 318.375C365.516 317.622 365.313 316.6 365.307 316.058ZM384.664 281.563C384.915 280.323 385.648 279.447 386.735 279.096C387.928 278.711 390.661 278.255 392.471 279.293C393.264 279.747 393.782 280.437 393.968 281.286C394.318 282.88 393.592 284.396 391.973 285.621C391.171 286.227 390.151 286.761 388.936 287.198C388.03 287.523 387.061 287.321 386.275 286.644C385.015 285.556 384.308 283.325 384.664 281.563ZM54.5868 323.413C53.3956 321.53 52.2704 317.613 53.5001 314.798C54.1956 313.206 55.5378 312.181 57.3806 311.838C59.1806 311.503 61.1352 312.139 62.6082 313.542C64.292 315.146 65.0689 317.43 64.74 319.807C64.3996 322.277 63.3257 324.292 61.8405 325.415C61.2733 325.844 60.6456 326.142 59.977 326.287C57.9808 326.719 56.0164 325.67 54.5868 323.413ZM62.3863 364.516C63.8086 364.929 65.1422 364.826 66.246 364.215C68.755 362.826 72.9527 360.502 76.8582 361.868C79.1417 362.666 80.9368 364.617 82.1958 367.667C83.4525 370.713 83.5827 373.652 83.7202 376.764C83.9133 381.128 84.1132 385.641 87.5927 390.974C106.48 405.214 127.473 416.258 149.995 423.803C172.247 431.258 195.437 435.119 218.923 435.277C267.753 435.607 314.193 420.18 353.221 390.664C399.112 355.959 429.195 305.551 437.932 248.725C438.543 239.414 438.219 232.367 437.04 229.386C435.93 226.578 434.013 225.014 431.78 225.093C429.226 225.183 426.875 227.47 425.788 230.917C423.392 238.528 419.453 239.074 414.895 239.71C414.185 239.808 413.443 239.912 412.667 240.045C409.479 240.595 406.875 242.267 405.876 244.407C405.06 246.153 405.287 248.139 406.551 250.308C410.291 256.731 415.891 262.595 419.354 261.377C420.555 260.953 420.543 257.83 420.534 255.07C420.52 250.557 420.505 244.941 425.225 243.669C427.439 243.074 429.47 243.965 430.944 246.178C434.33 251.259 434.403 262.696 429.661 268.801C426.235 273.214 422.349 274.266 419.694 274.37C415.954 274.518 412.173 272.912 409.584 270.072C408.117 268.464 405.815 266.986 403.378 265.42C399.347 262.83 395.179 260.152 393.732 256.243C391.401 249.943 388.915 236.673 396.218 231.673C398.492 230.108 401.526 228.858 404.461 227.65C410.359 225.219 415.933 222.924 415.666 218.518C415.392 213.958 417.156 208.965 420.27 205.489C422.43 203.076 424.975 201.679 427.433 201.554C432.744 201.283 436.399 199.978 437.729 197.876C438.571 196.544 438.539 194.837 437.632 192.656C435.752 188.138 433.128 185.245 430.784 185.107C428.868 184.995 427.456 186.767 426.609 188.275C424.128 192.684 421.622 194.32 419.198 195.901C417.781 196.824 416.444 197.697 415.069 199.135C413.354 200.926 412.591 202.898 411.785 204.985C410.877 207.333 409.939 209.762 407.595 211.793C405.679 213.456 403.736 214.391 401.856 215.3C399.501 216.439 397.275 217.513 394.974 219.967C391.878 223.266 386.672 223.443 384.092 221.389C382.523 220.141 381.585 217.711 383.66 214.637C385.71 211.6 386.042 207.248 384.468 204.054C383.401 201.889 381.616 200.62 379.442 200.483C376.468 200.295 374.392 201.838 372.383 203.331C370.153 204.988 367.848 206.7 364.833 205.212C360.62 203.133 357.373 196.928 359.32 189.091C359.874 186.861 358.055 185.081 356.064 184.538C353.726 183.9 350.758 184.786 349.444 189.189C348.158 193.49 349.327 197.675 350.564 202.105C351.965 207.121 353.413 212.308 351.476 218.122C347.39 230.388 343.714 246.201 344.71 253.878C345.295 258.37 347.791 261.164 349.868 261.268C351.677 261.36 353.253 259.3 354.083 255.756C355.542 249.538 357.684 247.35 359.574 245.419C360.985 243.976 362.205 242.731 362.981 239.757C363.666 237.14 362.487 233.467 361.346 229.914C360.004 225.735 358.737 221.788 360.237 219C360.926 217.718 362.138 216.825 363.835 216.347C369.238 214.823 374.518 218.157 377.656 221.784C380.95 225.591 382.217 229.971 380.885 232.943C378.279 238.75 378.092 243.475 380.257 248.743C381.485 251.732 385.577 262.133 386.629 270.441C387.173 274.739 384.433 277.918 381.466 278.508C379.012 278.996 375.661 277.807 374.3 272.849C373.478 269.857 373.093 266.727 372.754 263.965C372.347 260.65 371.927 257.222 370.847 256.403C370.707 256.296 370.489 256.182 370.049 256.249C368.715 256.448 367.965 258.184 366.75 261.235C365.288 264.903 363.286 269.925 358.351 274.29C355.119 277.15 351.437 278.156 347.716 277.189C342.155 275.744 336.835 269.882 334.162 262.256C333.596 260.64 332.931 258.888 332.226 257.033C328.279 246.637 323.366 233.7 329.673 227.881C335.201 222.78 336.13 219.442 333.679 217.384C330.436 214.662 325.515 215.942 323.877 212.733C323.067 211.145 322.8 208.455 326.128 204.651C331.998 197.94 333.944 189.043 334.99 184.264L335.162 183.479C335.392 182.448 335.915 181.025 336.52 179.378C338.097 175.09 340.48 168.609 338.767 165.255C338.242 164.228 337.346 163.548 336.03 163.177C333.901 162.577 332.249 162.704 330.979 163.568C327.902 165.672 327.025 171.904 326.288 179.228C325.784 184.23 323.118 188.66 318.817 191.684C314.549 194.682 309.281 195.794 304.725 194.66C295.629 192.393 287.086 179.641 287.147 168.419C287.171 164.066 288.128 159.637 288.972 155.729C290.36 149.303 289.055 144.387 283.41 142.823C276.55 140.923 265.994 138.781 268.069 129.669C269.69 122.544 268.51 118.18 266.865 116.473C266.014 115.589 264.95 115.259 263.705 115.491C260.603 116.069 253.856 116.257 250.522 112.828C249.367 111.64 248.15 109.486 248.914 105.975C250.062 100.701 253.572 99.8803 255.425 98.5053C257.395 97.0412 255.774 94.305 253.744 93.594C251.689 92.8739 249.022 92.5846 247.259 90.9348C245.144 88.9574 244.335 86.2671 244.786 82.7119C245.861 74.2113 245.521 69.1426 243.745 67.2151C243.131 66.5487 242.335 66.2606 241.239 66.307C239.131 66.3973 238.07 68.7556 236.57 72.63C235.21 76.1405 233.667 80.1217 230.154 81.451C227.163 82.5825 223.172 82.1297 219.313 81.6927C214.847 81.1861 210.224 80.6612 208.038 82.7632C206.924 83.8312 205.692 85.4602 206.146 87.1569C206.641 89.0129 208.984 90.5888 212.572 91.4805C213.245 91.6477 214.037 91.8283 214.915 92.0285C221.597 93.5489 232.779 96.0933 236.594 102.701C238.047 105.215 238.291 108.073 237.322 111.192C235.067 118.454 225.936 120.722 215.364 123.349C205.346 125.836 193.99 128.659 186.228 136.272C179.565 142.809 181.215 149.635 182.793 153.123C185.032 158.074 188.989 161.05 190.311 160.954C193.825 160.703 195.438 157.816 197.882 153.447C200.836 148.167 204.511 141.594 213.505 136.633C229.994 127.531 241.745 124.283 249.428 126.702C253.699 128.047 256.731 131.683 256.48 135.16C256.37 136.675 255.386 140.315 248.612 141.415C246.818 141.707 244.974 141.933 243.19 142.152C233.004 143.405 226.83 144.684 227.018 151.915C227.172 157.864 229.101 162.848 232.178 165.249C233.522 166.298 234.931 166.697 236.252 166.404C237.392 166.153 239.739 163.414 242.008 160.766C247.85 153.95 256.679 143.647 266.909 147.524C271.303 149.189 274.577 152.799 276.639 158.254C280.547 168.585 278.823 182.722 275.868 188.309C274.286 191.299 271.532 194.122 268.867 196.852C264.244 201.59 259.877 206.065 261.98 210.69C262.606 212.068 264.026 214.426 266.499 214.743C269.198 215.089 272.484 212.979 276.004 208.645C280.337 203.307 286.47 200.154 292.833 199.991C298.234 199.852 303.128 201.906 306.613 205.774C314.357 214.368 319.488 226.849 313.491 235.363C309.974 240.358 308.268 243.348 308.707 245.826C308.988 247.415 310.228 248.925 312.608 250.579C318.299 254.533 327.769 264.221 328.95 273.39C329.451 277.271 328.456 280.699 325.994 283.578C316.331 294.875 306.984 295.348 297.088 295.847C292.711 296.067 289.016 298.046 285.105 300.142C279.915 302.921 274.549 305.795 267.32 304.56C261.398 303.549 256.952 300.355 254.798 295.57C252.749 291.015 253.151 285.689 255.873 281.323C258.75 276.709 259.664 273.373 258.75 270.826C257.873 268.381 255.247 266.45 250.722 264.923C243.443 262.466 235.767 264.311 231.39 267.229C229.206 268.679 227.902 270.367 227.802 271.852C227.676 273.712 230.905 275.05 234.029 276.343C238.009 277.991 242.961 280.042 241.815 284.406C240.768 288.382 236.505 288.183 232.745 288.005C228.858 287.822 224.838 287.63 223.084 291.01C221.096 294.84 221.488 300.268 224.039 304.206C226.268 307.648 229.728 309.42 233.78 309.195C238.666 308.924 241.098 306.832 243.055 305.153C245.342 303.19 248.129 301.913 251.659 304.454C255.719 307.378 254.609 312.538 253.496 317.919C252.537 322.554 251.451 327.808 253.3 332.605C255.484 338.268 259.045 342.335 263.069 343.764C265.224 344.529 271.412 342.933 268.8 335.915C266.716 330.312 265.665 322.118 272.088 317.696C279.29 312.762 292.014 313.047 301.305 313.256C305.069 313.34 308.321 313.414 309.982 313.08C313.037 312.466 316.763 308.407 320.707 304.108C323.798 300.74 326.992 297.258 330.515 294.594C336.587 290.002 346.851 288.783 352.047 292.037C354.905 293.825 356.082 296.793 355.361 300.392C354.874 302.826 353.96 304.452 352.575 305.363C350.456 306.755 347.761 306.181 344.908 305.573C341.461 304.839 337.897 304.081 334.672 306.334C331.911 308.256 330.067 310.834 328.107 313.564C324.504 318.581 320.778 323.767 311.309 324.725C306.46 325.216 302.068 324.655 298.193 324.161C290.871 323.228 286.033 322.609 283.355 329.463C282.017 332.889 281.398 335.925 280.851 338.603C279.541 345.024 278.702 350.209 269.499 352.375C256.603 355.41 249.535 351.116 244.896 344.332C242.454 340.761 241.358 336.97 241.471 333.397C241.623 328.609 243.104 321.134 238.361 320.937C233.618 320.739 230.378 321.112 225.853 319.912C220.449 318.479 215.982 315.743 212.574 311.78C204.462 302.351 205.882 289.783 211.942 283.081C214.316 280.456 213.505 278.609 211.737 275.303C210.449 272.891 208.988 270.159 209.595 266.714C210.978 258.869 226.92 251.218 238.266 251.012C250.278 250.794 261.962 253.053 267.857 254.417C272.627 255.521 276.683 258.886 278.191 262.989C279.131 265.547 279.525 269.575 276.061 274.225C271.452 280.413 267.629 288.838 271.425 290.96C275.062 292.993 279.802 288.921 281.997 285.543C283.65 282.993 285.363 280.358 288.55 278.797C292.38 276.925 295.327 277.968 297.928 278.888C300.595 279.832 302.9 280.647 306.256 278.747C309.117 277.127 309.609 274.541 309.521 272.652C309.338 268.679 306.462 264.337 302.975 262.768L302.694 262.641C296.004 259.633 289.086 256.522 287.354 250.634C285.653 244.847 290.434 239.768 294.654 235.288C300.088 229.517 303.216 225.764 299.196 221.505C296.963 219.14 292.8 216.576 288.416 217.133C284.877 217.581 281.904 219.95 279.579 224.169C277.678 227.619 276.507 230.813 275.474 233.632C273.11 240.079 271.242 245.17 262.515 245.096C258.139 245.059 255.101 243.881 253.489 241.594C251.036 238.118 252.402 232.842 253.867 228.636C254.686 226.284 252.867 222.108 250.943 217.688C247.79 210.446 243.866 201.433 249.096 194.566C254.237 187.815 264.939 173.763 263.745 166.095C263.5 164.525 262.767 163.332 261.504 162.445C258.778 160.535 256.848 162.556 252.773 167.987C248.438 173.765 243.043 180.954 233.359 180.158C222.869 179.295 219.83 169.49 217.387 161.613C215.844 156.632 214.51 152.33 211.856 152.506C208.971 152.699 207.649 156.555 206.116 161.02C203.914 167.437 201.174 175.424 192.05 175.909C185.827 176.239 179.382 171.755 174.807 163.916C167.4 151.223 168.635 138.432 173.144 131.386C181.345 118.571 194.585 115.922 204.254 113.986C206.512 113.534 208.645 113.107 210.378 112.604C214.931 111.284 217.472 108.427 217.216 106.536C216.985 104.817 214.362 103.713 210.374 103.656C202.771 103.548 196.209 100.812 192.821 96.338C190.378 93.1125 189.683 89.1826 190.811 84.975C193.869 73.5729 203.818 68.6958 209.216 67.6137C211.826 67.0894 214.474 67.6753 216.811 68.1929C220.373 68.9808 222.445 69.3214 223.649 67.2133C224.766 65.2548 223.71 63.9774 221.412 61.4988C219.719 59.6739 217.611 57.4017 216.773 54.2268C216.144 51.8423 215.906 49.7385 215.697 47.8831C215.308 44.4232 215.026 41.9233 212.63 39.3123C211.14 37.6876 210.357 35.372 209.529 32.9222C207.921 28.1635 206.258 23.2436 199.249 22.3263C196.517 21.9693 193.819 23.2901 192.207 25.7759C190.056 29.0954 190.359 33.4873 193.037 37.8243C197.79 45.5193 206.554 59.7069 191.345 71.2067C191.029 71.4459 190.701 71.6846 190.365 71.9208C178.496 80.2529 170.515 77.4058 163.472 74.8931C161.529 74.2003 159.695 73.5448 157.882 73.1743C152.343 72.041 145.681 73.3373 142.063 76.2217C140.436 77.5211 139.595 79.0005 139.564 80.6191C139.538 82.0155 140.157 83.2398 141.406 84.2603C144.587 86.8597 151.463 87.8283 157.398 86.5118C161.046 85.7043 168.043 84.9408 173.924 88.9147C178.193 91.7984 180.9 96.5626 181.971 103.076C184.507 118.493 164.849 129.124 154.1 132.591C152.74 133.031 151.145 133.468 149.458 133.931C143.083 135.679 134.354 138.072 133.293 142.33C132.956 143.679 134.942 144.383 139.552 145.669C145.671 147.375 154.917 149.955 160.377 158.731C164.593 165.507 166.696 171.892 168.386 177.021C170.413 183.168 171.876 187.609 175.641 189.977C176.056 190.237 176.463 190.495 176.866 190.751C183.702 195.097 188.65 198.233 197.91 189.65C204.198 183.835 212.023 181.384 218.847 183.112C224.521 184.548 232.405 189.562 237.739 205.295C242.03 217.952 242.243 227.399 238.374 233.376C235.219 238.249 230.111 239.702 226.381 240.062C222.557 240.432 218.807 239.082 215.498 237.89C212.774 236.909 208.341 237.488 208.116 241.403C207.921 244.777 207.477 249.385 202.859 249.694C199.283 249.936 197.632 246.526 196.175 243.517C194.255 239.555 191.861 238.532 189.275 239.559C186.259 240.757 185.304 242.647 184.422 245.805C183.676 248.471 184.039 251.215 185.368 252.967C186.745 254.783 188.036 255.148 189.53 255.573C191.161 256.035 193.009 256.559 194.55 259.058C196.355 261.987 194.662 263.931 194.012 265.645C191.555 272.124 196.118 275.054 196.157 281.592C196.203 289.395 192.806 295.459 186.328 299.123C180.867 302.214 175.522 303.048 170.443 301.6C162.077 299.217 157.007 291.33 155.216 288.049C152.659 283.369 149.687 278.319 146.765 277.654C145.742 277.421 144.668 277.721 143.483 278.571C142.381 279.385 141.735 280.422 141.527 281.795C140.985 285.379 143.514 290.245 146.062 293.604C147.553 295.571 149.488 297.046 151.359 298.472C154.004 300.49 156.502 302.395 156.949 305.312C157.098 306.284 157.126 307.448 157.157 308.679C157.291 314.112 157.748 317.991 162.427 318.431C164.752 318.649 169.282 317.101 174.079 315.463C184.559 311.884 197.602 307.429 202.901 315.378C206.673 321.037 208.196 327.392 209.421 332.499C210.363 336.428 213.482 341.165 219.126 337.273C221.879 335.374 224.491 333.598 226.603 334.171C227.22 334.338 228.074 334.792 228.641 335.999C229.617 338.071 229.621 340.219 228.654 342.206C227.005 345.593 222.632 348.259 216.34 349.709C214.396 350.157 212.563 350.598 210.82 351.018C203.714 352.73 198.1 354.081 192.526 354.056C188.326 354.036 185.746 350.998 185.366 348.007C185.028 345.336 186.319 341.777 191.074 340.531C194.826 339.548 197.468 337.634 198.322 335.279C198.899 333.691 198.61 332.019 197.488 330.448C194.283 325.962 189.911 324.822 184.492 327.059C183.705 327.385 182.774 327.814 181.697 328.312C174.392 331.689 160.795 337.974 152.105 328.229C147.079 322.594 144.59 317.766 142.395 313.505C140.515 309.86 138.892 306.711 136.079 303.942C131.428 299.365 123.653 290.623 123.815 283.486C123.869 281.119 124.941 278.083 129.741 274.757C136.014 270.41 137.166 264.448 129.748 259.068C126.106 256.426 122.536 253.272 118.768 247.591C106.984 229.825 107.179 216.814 115.461 211.332C122.227 206.842 126.939 210.531 130.382 213.224C133.327 215.529 135.676 215.341 137.131 213.654C141.235 208.891 133.155 198.737 130.517 195.261C125.838 189.09 116.576 180.69 111.646 184.418C109.461 186.071 109.523 188.745 109.602 192.131C109.704 196.483 109.831 201.897 104.47 206.309C98.9696 210.848 90.5424 212.552 83.5008 210.581C78.286 209.121 74.5388 205.807 72.9503 201.249C68.95 189.768 69.4762 182.117 70.5806 173.307L70.7127 172.261C71.528 165.824 72.7596 156.094 70.1253 153.457C69.6192 152.949 68.9787 152.764 68.112 152.871C65.6568 153.177 65.2009 154.829 64.5463 157.97C63.8947 161.095 63.0831 164.982 58.5541 166.791C55.8129 167.885 53.0619 168.234 50.6342 168.542C45.8797 169.144 42.4435 169.581 40.7419 174.699C39.6974 177.843 39.9621 180.417 41.506 182.139C43.0847 183.901 46.0343 184.683 48.844 184.085C51.8114 183.454 54.9639 184.299 57.2785 186.345C59.785 188.56 61.0398 191.886 60.7239 195.468C60.5625 197.288 60.2049 199.127 59.8596 200.903C58.7967 206.363 58.3011 209.793 61.3638 211.44C63.9449 212.827 71.7994 217.05 67.2221 225.615C66.3658 227.219 65.0169 229.029 63.4553 231.125C59.1396 236.917 53.769 244.126 56.344 250.553C58.5914 256.161 63.1778 260.425 66.7863 260.258C69.9963 260.109 71.7273 256.524 72.6123 253.542C73.842 249.397 74.0914 245.266 74.3316 241.27C74.8505 232.653 75.3443 224.514 86.6851 221.496C91.5912 220.191 95.9295 220.849 99.5802 223.451C106.405 228.312 108.873 238.706 109.256 244.079C109.353 245.436 109.389 247.619 109.434 250.382C109.661 264.253 110.134 293.118 119.629 302.257L120.836 303.417C129.69 311.917 139.725 321.55 138.822 330.176C138.455 333.692 136.273 336.718 132.332 339.171C123.209 344.852 113.135 340.411 104.247 336.494C98.3932 333.916 92.8643 331.479 89.2894 333.002C85.3111 334.696 85.7439 338.054 86.3532 339.906C87.663 343.882 92.1651 347.993 95.795 347.137C110.212 343.734 116.917 347.913 119.631 350.707C124.686 355.914 127.963 355.238 131.431 354.522C133.761 354.042 136.27 355.495 137.026 357.763C137.353 358.746 138.018 362.144 132.773 364.6C128.104 366.787 123.672 364.778 119.387 362.836C116.675 361.607 113.871 360.336 110.856 359.962C108.057 359.615 105.108 359.839 102.256 360.057C96.9783 360.459 91.5215 360.874 86.8844 357.658C84.1168 355.74 81.8762 353.225 79.8996 351.007C76.8784 347.618 74.9324 345.576 73.0413 346.259C69.4041 347.574 69.1064 349.057 70.1015 352.576C70.7127 354.739 69.6376 356.859 67.5479 357.618C65.3311 358.422 62.3295 357.529 60.6206 353.723C57.8372 347.521 59.1231 337.384 64.99 333.613C66.3866 332.713 67.7856 332.001 69.1394 331.311C73.0419 329.324 76.1273 327.755 77.258 322.886C78.0617 319.425 78.2017 316.067 78.3251 313.104C78.4608 309.853 78.5776 307.045 79.4644 304.645C79.9601 303.3 79.7743 301.977 78.9253 300.817C77.3368 298.647 73.7626 297.47 69.3631 297.667C68.3412 297.714 67.3554 297.745 66.408 297.777C58.7961 298.024 55.0544 298.344 53.1902 302.817C52.2184 305.146 49.3788 311.841 43.6629 310.378C40.9705 309.689 40.1961 312.33 42.6367 314.93C49.0536 321.767 55.7273 331.991 55.2176 338.287C55.0428 340.447 54.258 342.316 53.5001 344.122C52.087 347.488 50.7509 350.668 53.4854 355.702C56.0354 360.398 59.2802 363.611 62.3863 364.516Z" fill="url(#paint10_linear_1_2)"/>
<path d="M37.8107 338.56C31.9028 329.853 26.5995 320.696 22.0222 311.296C23.8858 311.603 26.27 312.779 28.6323 315.38C29.9207 316.797 31.4011 318.249 32.9694 319.786C37.4916 324.22 42.6166 329.246 41.8238 332.662C41.2523 335.124 39.7488 337.298 37.8107 338.56Z" fill="url(#paint11_linear_1_2)"/>
<path d="M7.30567 209.652C7.89852 209.47 8.39116 209.499 8.81043 209.737C11.2241 211.109 8.77682 216.623 6.61868 221.488C5.62305 223.733 4.68119 225.854 4.08954 227.77C3.06885 231.072 3.16053 234.566 3.23511 237.374C3.27178 238.773 3.32189 240.653 3.07739 241.236C2.81031 241.142 2.18629 240.742 1.31776 239.617C0.523201 232.413 0.0800917 225.131 0 217.959C2.17955 213.65 5.09374 210.33 7.30567 209.652Z" fill="url(#paint12_linear_1_2)"/>
<path d="M30.4255 260.675C29.4861 263.246 28.0217 264.79 26.1667 266.747C24.0079 269.024 21.3211 271.858 18.9075 277.228C16.4725 282.642 19.7894 287.569 22.4549 291.528C24.0617 293.915 25.5805 296.17 25.2621 297.701C25.1313 298.333 24.6644 298.897 23.8282 299.433C21.6952 300.797 19.1244 300.841 17.16 300.572C14.7501 294.859 12.5553 288.954 10.627 282.998C12.724 281.339 14.9506 279.24 17.2059 275.694C20.8297 269.993 21.0088 262.331 20.521 256.906C19.9153 250.174 17.9497 243.118 15.1272 237.547C11.243 229.88 13.9849 223.315 16.404 217.523C17.1191 215.812 17.7939 214.196 18.2694 212.625C19.2504 209.387 18.2193 205.132 17.3092 201.377C16.5409 198.206 15.7451 194.926 16.588 193.714C16.6399 193.64 16.7102 193.554 16.819 193.472C16.9938 193.34 17.267 193.216 17.7187 193.162C21.7483 192.677 26.504 209.859 28.3621 217.269C29.7336 222.742 27.65 224.404 24.7658 226.704C22.2727 228.691 19.4472 230.945 18.6923 235.951C17.792 241.933 22.0606 247.202 25.8268 251.851C28.5986 255.272 31.2176 258.504 30.4255 260.675Z" fill="url(#paint13_linear_1_2)"/>
<path d="M182.494 12.9798C181.941 16.9774 180.655 21.6391 179.409 26.1488C177.189 34.1947 175.09 41.7945 176.341 47.1672C177.128 50.5508 179.072 53.2301 180.786 55.5939C183.36 59.1436 184.512 60.9459 182.586 63.1162C179.142 67.0027 176.311 65.1113 171.975 61.7198C169.466 59.757 167.096 57.9028 164.508 58.1225C162.446 58.2977 159.553 59.3963 156.491 60.5596C151.39 62.4979 145.038 64.9099 143.832 62.2495C143.558 61.6459 143.533 61.1045 143.752 60.5455C144.721 58.0682 150.048 55.8106 154.33 53.9967C156.01 53.2851 157.598 52.6119 158.953 51.9332C159.45 51.6848 159.909 51.3974 160.332 51.0781C165.801 46.9438 165.309 37.2042 164.405 30.0109C163.987 26.692 166.21 24.8134 168.783 22.6376C171.172 20.6174 173.882 18.3281 173.863 14.6295C173.844 10.3017 169.265 7.2818 165.225 4.61776C164.367 4.05075 163.534 3.50144 162.804 2.97409C166.903 1.87128 171.097 0.873402 175.308 0C177.673 1.53925 183.451 6.063 182.494 12.9798Z" fill="url(#paint14_linear_1_2)"/>
<path d="M26.4808 123.853C24.9326 122.302 19.9079 128.654 21.8681 129.891C23.8276 131.129 28.6077 125.984 26.4808 123.853Z" fill="url(#paint15_linear_1_2)"/>
<path d="M5.14106 201.707C4.24689 204.211 2.29348 206.157 0.1427 207.177C0.326662 202.294 0.680547 197.419 1.18846 192.561C4.06842 194.633 6.35 198.322 5.14106 201.707Z" fill="url(#paint16_linear_1_2)"/>
</g>
<defs>
<linearGradient id="paint0_linear_1_2" x1="392.43" y1="363.837" x2="128.102" y2="14.3148" gradientUnits="userSpaceOnUse">
<stop stop-color="#0070A2" style="stop-color:#0070A2;stop-color:color(display-p3 0.0000 0.4392 0.6353);stop-opacity:1;"/>
<stop offset="0.0714" stop-color="#00739F" style="stop-color:#00739F;stop-color:color(display-p3 0.0000 0.4510 0.6235);stop-opacity:1;"/>
<stop offset="0.1428" stop-color="#00769C" style="stop-color:#00769C;stop-color:color(display-p3 0.0000 0.4627 0.6118);stop-opacity:1;"/>
<stop offset="0.2142" stop-color="#007999" style="stop-color:#007999;stop-color:color(display-p3 0.0000 0.4745 0.6000);stop-opacity:1;"/>
<stop offset="0.285601" stop-color="#007D96" style="stop-color:#007D96;stop-color:color(display-p3 0.0000 0.4902 0.5882);stop-opacity:1;"/>
<stop offset="0.357001" stop-color="#008092" style="stop-color:#008092;stop-color:color(display-p3 0.0000 0.5020 0.5725);stop-opacity:1;"/>
<stop offset="0.428401" stop-color="#00848E" style="stop-color:#00848E;stop-color:color(display-p3 0.0000 0.5176 0.5569);stop-opacity:1;"/>
<stop offset="0.499801" stop-color="#00888A" style="stop-color:#00888A;stop-color:color(display-p3 0.0000 0.5333 0.5412);stop-opacity:1;"/>
<stop offset="0.571201" stop-color="#008C87" style="stop-color:#008C87;stop-color:color(display-p3 0.0000 0.5490 0.5294);stop-opacity:1;"/>
<stop offset="0.642601" stop-color="#009083" style="stop-color:#009083;stop-color:color(display-p3 0.0000 0.5647 0.5137);stop-opacity:1;"/>
<stop offset="0.714001" stop-color="#00947F" style="stop-color:#00947F;stop-color:color(display-p3 0.0000 0.5804 0.4980);stop-opacity:1;"/>
<stop offset="0.785402" stop-color="#00987B" style="stop-color:#00987B;stop-color:color(display-p3 0.0000 0.5961 0.4824);stop-opacity:1;"/>
<stop offset="0.856802" stop-color="#009C76" style="stop-color:#009C76;stop-color:color(display-p3 0.0000 0.6118 0.4627);stop-opacity:1;"/>
<stop offset="0.928202" stop-color="#00A172" style="stop-color:#00A172;stop-color:color(display-p3 0.0000 0.6314 0.4471);stop-opacity:1;"/>
<stop offset="0.999602" stop-color="#00A56E" style="stop-color:#00A56E;stop-color:color(display-p3 0.0000 0.6471 0.4314);stop-opacity:1;"/>
</linearGradient>
<linearGradient id="paint1_linear_1_2" x1="359.686" y1="388.597" x2="95.358" y2="39.0744" gradientUnits="userSpaceOnUse">
<stop stop-color="#0070A2" style="stop-color:#0070A2;stop-color:color(display-p3 0.0000 0.4392 0.6353);stop-opacity:1;"/>
<stop offset="0.0714" stop-color="#00739F" style="stop-color:#00739F;stop-color:color(display-p3 0.0000 0.4510 0.6235);stop-opacity:1;"/>
<stop offset="0.1428" stop-color="#00769C" style="stop-color:#00769C;stop-color:color(display-p3 0.0000 0.4627 0.6118);stop-opacity:1;"/>
<stop offset="0.2142" stop-color="#007999" style="stop-color:#007999;stop-color:color(display-p3 0.0000 0.4745 0.6000);stop-opacity:1;"/>
<stop offset="0.285601" stop-color="#007D96" style="stop-color:#007D96;stop-color:color(display-p3 0.0000 0.4902 0.5882);stop-opacity:1;"/>
<stop offset="0.357001" stop-color="#008092" style="stop-color:#008092;stop-color:color(display-p3 0.0000 0.5020 0.5725);stop-opacity:1;"/>
<stop offset="0.428401" stop-color="#00848E" style="stop-color:#00848E;stop-color:color(display-p3 0.0000 0.5176 0.5569);stop-opacity:1;"/>
<stop offset="0.499801" stop-color="#00888A" style="stop-color:#00888A;stop-color:color(display-p3 0.0000 0.5333 0.5412);stop-opacity:1;"/>
<stop offset="0.571201" stop-color="#008C87" style="stop-color:#008C87;stop-color:color(display-p3 0.0000 0.5490 0.5294);stop-opacity:1;"/>
<stop offset="0.642601" stop-color="#009083" style="stop-color:#009083;stop-color:color(display-p3 0.0000 0.5647 0.5137);stop-opacity:1;"/>
<stop offset="0.714001" stop-color="#00947F" style="stop-color:#00947F;stop-color:color(display-p3 0.0000 0.5804 0.4980);stop-opacity:1;"/>
<stop offset="0.785402" stop-color="#00987B" style="stop-color:#00987B;stop-color:color(display-p3 0.0000 0.5961 0.4824);stop-opacity:1;"/>
<stop offset="0.856802" stop-color="#009C76" style="stop-color:#009C76;stop-color:color(display-p3 0.0000 0.6118 0.4627);stop-opacity:1;"/>
<stop offset="0.928202" stop-color="#00A172" style="stop-color:#00A172;stop-color:color(display-p3 0.0000 0.6314 0.4471);stop-opacity:1;"/>
<stop offset="0.999602" stop-color="#00A56E" style="stop-color:#00A56E;stop-color:color(display-p3 0.0000 0.6471 0.4314);stop-opacity:1;"/>
</linearGradient>
<linearGradient id="paint2_linear_1_2" x1="325.553" y1="414.41" x2="61.225" y2="64.8881" gradientUnits="userSpaceOnUse">
<stop stop-color="#0070A2" style="stop-color:#0070A2;stop-color:color(display-p3 0.0000 0.4392 0.6353);stop-opacity:1;"/>
<stop offset="0.0714" stop-color="#00739F" style="stop-color:#00739F;stop-color:color(display-p3 0.0000 0.4510 0.6235);stop-opacity:1;"/>
<stop offset="0.1428" stop-color="#00769C" style="stop-color:#00769C;stop-color:color(display-p3 0.0000 0.4627 0.6118);stop-opacity:1;"/>
<stop offset="0.2142" stop-color="#007999" style="stop-color:#007999;stop-color:color(display-p3 0.0000 0.4745 0.6000);stop-opacity:1;"/>
<stop offset="0.285601" stop-color="#007D96" style="stop-color:#007D96;stop-color:color(display-p3 0.0000 0.4902 0.5882);stop-opacity:1;"/>
<stop offset="0.357001" stop-color="#008092" style="stop-color:#008092;stop-color:color(display-p3 0.0000 0.5020 0.5725);stop-opacity:1;"/>
<stop offset="0.428401" stop-color="#00848E" style="stop-color:#00848E;stop-color:color(display-p3 0.0000 0.5176 0.5569);stop-opacity:1;"/>
<stop offset="0.499801" stop-color="#00888A" style="stop-color:#00888A;stop-color:color(display-p3 0.0000 0.5333 0.5412);stop-opacity:1;"/>
<stop offset="0.571201" stop-color="#008C87" style="stop-color:#008C87;stop-color:color(display-p3 0.0000 0.5490 0.5294);stop-opacity:1;"/>
<stop offset="0.642601" stop-color="#009083" style="stop-color:#009083;stop-color:color(display-p3 0.0000 0.5647 0.5137);stop-opacity:1;"/>
<stop offset="0.714001" stop-color="#00947F" style="stop-color:#00947F;stop-color:color(display-p3 0.0000 0.5804 0.4980);stop-opacity:1;"/>
<stop offset="0.785402" stop-color="#00987B" style="stop-color:#00987B;stop-color:color(display-p3 0.0000 0.5961 0.4824);stop-opacity:1;"/>
<stop offset="0.856802" stop-color="#009C76" style="stop-color:#009C76;stop-color:color(display-p3 0.0000 0.6118 0.4627);stop-opacity:1;"/>
<stop offset="0.928202" stop-color="#00A172" style="stop-color:#00A172;stop-color:color(display-p3 0.0000 0.6314 0.4471);stop-opacity:1;"/>
<stop offset="0.999602" stop-color="#00A56E" style="stop-color:#00A56E;stop-color:color(display-p3 0.0000 0.6471 0.4314);stop-opacity:1;"/>
</linearGradient>
<linearGradient id="paint3_linear_1_2" x1="287.882" y1="442.9" x2="23.554" y2="93.378" gradientUnits="userSpaceOnUse">
<stop stop-color="#0070A2" style="stop-color:#0070A2;stop-color:color(display-p3 0.0000 0.4392 0.6353);stop-opacity:1;"/>
<stop offset="0.0714" stop-color="#00739F" style="stop-color:#00739F;stop-color:color(display-p3 0.0000 0.4510 0.6235);stop-opacity:1;"/>
<stop offset="0.1428" stop-color="#00769C" style="stop-color:#00769C;stop-color:color(display-p3 0.0000 0.4627 0.6118);stop-opacity:1;"/>
<stop offset="0.2142" stop-color="#007999" style="stop-color:#007999;stop-color:color(display-p3 0.0000 0.4745 0.6000);stop-opacity:1;"/>
<stop offset="0.285601" stop-color="#007D96" style="stop-color:#007D96;stop-color:color(display-p3 0.0000 0.4902 0.5882);stop-opacity:1;"/>
<stop offset="0.357001" stop-color="#008092" style="stop-color:#008092;stop-color:color(display-p3 0.0000 0.5020 0.5725);stop-opacity:1;"/>
<stop offset="0.428401" stop-color="#00848E" style="stop-color:#00848E;stop-color:color(display-p3 0.0000 0.5176 0.5569);stop-opacity:1;"/>
<stop offset="0.499801" stop-color="#00888A" style="stop-color:#00888A;stop-color:color(display-p3 0.0000 0.5333 0.5412);stop-opacity:1;"/>
<stop offset="0.571201" stop-color="#008C87" style="stop-color:#008C87;stop-color:color(display-p3 0.0000 0.5490 0.5294);stop-opacity:1;"/>
<stop offset="0.642601" stop-color="#009083" style="stop-color:#009083;stop-color:color(display-p3 0.0000 0.5647 0.5137);stop-opacity:1;"/>
<stop offset="0.714001" stop-color="#00947F" style="stop-color:#00947F;stop-color:color(display-p3 0.0000 0.5804 0.4980);stop-opacity:1;"/>
<stop offset="0.785402" stop-color="#00987B" style="stop-color:#00987B;stop-color:color(display-p3 0.0000 0.5961 0.4824);stop-opacity:1;"/>
<stop offset="0.856802" stop-color="#009C76" style="stop-color:#009C76;stop-color:color(display-p3 0.0000 0.6118 0.4627);stop-opacity:1;"/>
<stop offset="0.928202" stop-color="#00A172" style="stop-color:#00A172;stop-color:color(display-p3 0.0000 0.6314 0.4471);stop-opacity:1;"/>
<stop offset="0.999602" stop-color="#00A56E" style="stop-color:#00A56E;stop-color:color(display-p3 0.0000 0.6471 0.4314);stop-opacity:1;"/>
</linearGradient>
<linearGradient id="paint4_linear_1_2" x1="285.269" y1="444.875" x2="20.9413" y2="95.3533" gradientUnits="userSpaceOnUse">
<stop stop-color="#0070A2" style="stop-color:#0070A2;stop-color:color(display-p3 0.0000 0.4392 0.6353);stop-opacity:1;"/>
<stop offset="0.0714" stop-color="#00739F" style="stop-color:#00739F;stop-color:color(display-p3 0.0000 0.4510 0.6235);stop-opacity:1;"/>
<stop offset="0.1428" stop-color="#00769C" style="stop-color:#00769C;stop-color:color(display-p3 0.0000 0.4627 0.6118);stop-opacity:1;"/>
<stop offset="0.2142" stop-color="#007999" style="stop-color:#007999;stop-color:color(display-p3 0.0000 0.4745 0.6000);stop-opacity:1;"/>
<stop offset="0.285601" stop-color="#007D96" style="stop-color:#007D96;stop-color:color(display-p3 0.0000 0.4902 0.5882);stop-opacity:1;"/>
<stop offset="0.357001" stop-color="#008092" style="stop-color:#008092;stop-color:color(display-p3 0.0000 0.5020 0.5725);stop-opacity:1;"/>
<stop offset="0.428401" stop-color="#00848E" style="stop-color:#00848E;stop-color:color(display-p3 0.0000 0.5176 0.5569);stop-opacity:1;"/>
<stop offset="0.499801" stop-color="#00888A" style="stop-color:#00888A;stop-color:color(display-p3 0.0000 0.5333 0.5412);stop-opacity:1;"/>
<stop offset="0.571201" stop-color="#008C87" style="stop-color:#008C87;stop-color:color(display-p3 0.0000 0.5490 0.5294);stop-opacity:1;"/>
<stop offset="0.642601" stop-color="#009083" style="stop-color:#009083;stop-color:color(display-p3 0.0000 0.5647 0.5137);stop-opacity:1;"/>
<stop offset="0.714001" stop-color="#00947F" style="stop-color:#00947F;stop-color:color(display-p3 0.0000 0.5804 0.4980);stop-opacity:1;"/>
<stop offset="0.785402" stop-color="#00987B" style="stop-color:#00987B;stop-color:color(display-p3 0.0000 0.5961 0.4824);stop-opacity:1;"/>
<stop offset="0.856802" stop-color="#009C76" style="stop-color:#009C76;stop-color:color(display-p3 0.0000 0.6118 0.4627);stop-opacity:1;"/>
<stop offset="0.928202" stop-color="#00A172" style="stop-color:#00A172;stop-color:color(display-p3 0.0000 0.6314 0.4471);stop-opacity:1;"/>
<stop offset="0.999602" stop-color="#00A56E" style="stop-color:#00A56E;stop-color:color(display-p3 0.0000 0.6471 0.4314);stop-opacity:1;"/>
</linearGradient>
<linearGradient id="paint5_linear_1_2" x1="317.306" y1="420.649" x2="52.9784" y2="71.1272" gradientUnits="userSpaceOnUse">
<stop stop-color="#0070A2" style="stop-color:#0070A2;stop-color:color(display-p3 0.0000 0.4392 0.6353);stop-opacity:1;"/>
<stop offset="0.0714" stop-color="#00739F" style="stop-color:#00739F;stop-color:color(display-p3 0.0000 0.4510 0.6235);stop-opacity:1;"/>
<stop offset="0.1428" stop-color="#00769C" style="stop-color:#00769C;stop-color:color(display-p3 0.0000 0.4627 0.6118);stop-opacity:1;"/>
<stop offset="0.2142" stop-color="#007999" style="stop-color:#007999;stop-color:color(display-p3 0.0000 0.4745 0.6000);stop-opacity:1;"/>
<stop offset="0.285601" stop-color="#007D96" style="stop-color:#007D96;stop-color:color(display-p3 0.0000 0.4902 0.5882);stop-opacity:1;"/>
<stop offset="0.357001" stop-color="#008092" style="stop-color:#008092;stop-color:color(display-p3 0.0000 0.5020 0.5725);stop-opacity:1;"/>
<stop offset="0.428401" stop-color="#00848E" style="stop-color:#00848E;stop-color:color(display-p3 0.0000 0.5176 0.5569);stop-opacity:1;"/>
<stop offset="0.499801" stop-color="#00888A" style="stop-color:#00888A;stop-color:color(display-p3 0.0000 0.5333 0.5412);stop-opacity:1;"/>
<stop offset="0.571201" stop-color="#008C87" style="stop-color:#008C87;stop-color:color(display-p3 0.0000 0.5490 0.5294);stop-opacity:1;"/>
<stop offset="0.642601" stop-color="#009083" style="stop-color:#009083;stop-color:color(display-p3 0.0000 0.5647 0.5137);stop-opacity:1;"/>
<stop offset="0.714001" stop-color="#00947F" style="stop-color:#00947F;stop-color:color(display-p3 0.0000 0.5804 0.4980);stop-opacity:1;"/>
<stop offset="0.785402" stop-color="#00987B" style="stop-color:#00987B;stop-color:color(display-p3 0.0000 0.5961 0.4824);stop-opacity:1;"/>
<stop offset="0.856802" stop-color="#009C76" style="stop-color:#009C76;stop-color:color(display-p3 0.0000 0.6118 0.4627);stop-opacity:1;"/>
<stop offset="0.928202" stop-color="#00A172" style="stop-color:#00A172;stop-color:color(display-p3 0.0000 0.6314 0.4471);stop-opacity:1;"/>
<stop offset="0.999602" stop-color="#00A56E" style="stop-color:#00A56E;stop-color:color(display-p3 0.0000 0.6471 0.4314);stop-opacity:1;"/>
</linearGradient>
<linearGradient id="paint6_linear_1_2" x1="457.343" y1="314.745" x2="193.015" y2="-34.7775" gradientUnits="userSpaceOnUse">
<stop stop-color="#0070A2" style="stop-color:#0070A2;stop-color:color(display-p3 0.0000 0.4392 0.6353);stop-opacity:1;"/>
<stop offset="0.0714" stop-color="#00739F" style="stop-color:#00739F;stop-color:color(display-p3 0.0000 0.4510 0.6235);stop-opacity:1;"/>
<stop offset="0.1428" stop-color="#00769C" style="stop-color:#00769C;stop-color:color(display-p3 0.0000 0.4627 0.6118);stop-opacity:1;"/>
<stop offset="0.2142" stop-color="#007999" style="stop-color:#007999;stop-color:color(display-p3 0.0000 0.4745 0.6000);stop-opacity:1;"/>
<stop offset="0.285601" stop-color="#007D96" style="stop-color:#007D96;stop-color:color(display-p3 0.0000 0.4902 0.5882);stop-opacity:1;"/>
<stop offset="0.357001" stop-color="#008092" style="stop-color:#008092;stop-color:color(display-p3 0.0000 0.5020 0.5725);stop-opacity:1;"/>
<stop offset="0.428401" stop-color="#00848E" style="stop-color:#00848E;stop-color:color(display-p3 0.0000 0.5176 0.5569);stop-opacity:1;"/>
<stop offset="0.499801" stop-color="#00888A" style="stop-color:#00888A;stop-color:color(display-p3 0.0000 0.5333 0.5412);stop-opacity:1;"/>
<stop offset="0.571201" stop-color="#008C87" style="stop-color:#008C87;stop-color:color(display-p3 0.0000 0.5490 0.5294);stop-opacity:1;"/>
<stop offset="0.642601" stop-color="#009083" style="stop-color:#009083;stop-color:color(display-p3 0.0000 0.5647 0.5137);stop-opacity:1;"/>
<stop offset="0.714001" stop-color="#00947F" style="stop-color:#00947F;stop-color:color(display-p3 0.0000 0.5804 0.4980);stop-opacity:1;"/>
<stop offset="0.785402" stop-color="#00987B" style="stop-color:#00987B;stop-color:color(display-p3 0.0000 0.5961 0.4824);stop-opacity:1;"/>
<stop offset="0.856802" stop-color="#009C76" style="stop-color:#009C76;stop-color:color(display-p3 0.0000 0.6118 0.4627);stop-opacity:1;"/>
<stop offset="0.928202" stop-color="#00A172" style="stop-color:#00A172;stop-color:color(display-p3 0.0000 0.6314 0.4471);stop-opacity:1;"/>
<stop offset="0.999602" stop-color="#00A56E" style="stop-color:#00A56E;stop-color:color(display-p3 0.0000 0.6471 0.4314);stop-opacity:1;"/>
</linearGradient>
<linearGradient id="paint7_linear_1_2" x1="478.142" y1="299.015" x2="213.814" y2="-50.5074" gradientUnits="userSpaceOnUse">
<stop stop-color="#0070A2" style="stop-color:#0070A2;stop-color:color(display-p3 0.0000 0.4392 0.6353);stop-opacity:1;"/>
<stop offset="0.0714" stop-color="#00739F" style="stop-color:#00739F;stop-color:color(display-p3 0.0000 0.4510 0.6235);stop-opacity:1;"/>
<stop offset="0.1428" stop-color="#00769C" style="stop-color:#00769C;stop-color:color(display-p3 0.0000 0.4627 0.6118);stop-opacity:1;"/>
<stop offset="0.2142" stop-color="#007999" style="stop-color:#007999;stop-color:color(display-p3 0.0000 0.4745 0.6000);stop-opacity:1;"/>
<stop offset="0.285601" stop-color="#007D96" style="stop-color:#007D96;stop-color:color(display-p3 0.0000 0.4902 0.5882);stop-opacity:1;"/>
<stop offset="0.357001" stop-color="#008092" style="stop-color:#008092;stop-color:color(display-p3 0.0000 0.5020 0.5725);stop-opacity:1;"/>
<stop offset="0.428401" stop-color="#00848E" style="stop-color:#00848E;stop-color:color(display-p3 0.0000 0.5176 0.5569);stop-opacity:1;"/>
<stop offset="0.499801" stop-color="#00888A" style="stop-color:#00888A;stop-color:color(display-p3 0.0000 0.5333 0.5412);stop-opacity:1;"/>
<stop offset="0.571201" stop-color="#008C87" style="stop-color:#008C87;stop-color:color(display-p3 0.0000 0.5490 0.5294);stop-opacity:1;"/>
<stop offset="0.642601" stop-color="#009083" style="stop-color:#009083;stop-color:color(display-p3 0.0000 0.5647 0.5137);stop-opacity:1;"/>
<stop offset="0.714001" stop-color="#00947F" style="stop-color:#00947F;stop-color:color(display-p3 0.0000 0.5804 0.4980);stop-opacity:1;"/>
<stop offset="0.785402" stop-color="#00987B" style="stop-color:#00987B;stop-color:color(display-p3 0.0000 0.5961 0.4824);stop-opacity:1;"/>
<stop offset="0.856802" stop-color="#009C76" style="stop-color:#009C76;stop-color:color(display-p3 0.0000 0.6118 0.4627);stop-opacity:1;"/>
<stop offset="0.928202" stop-color="#00A172" style="stop-color:#00A172;stop-color:color(display-p3 0.0000 0.6314 0.4471);stop-opacity:1;"/>
<stop offset="0.999602" stop-color="#00A56E" style="stop-color:#00A56E;stop-color:color(display-p3 0.0000 0.6471 0.4314);stop-opacity:1;"/>
</linearGradient>
<linearGradient id="paint8_linear_1_2" x1="504.517" y1="279.069" x2="240.189" y2="-70.4535" gradientUnits="userSpaceOnUse">
<stop stop-color="#0070A2" style="stop-color:#0070A2;stop-color:color(display-p3 0.0000 0.4392 0.6353);stop-opacity:1;"/>
<stop offset="0.0714" stop-color="#00739F" style="stop-color:#00739F;stop-color:color(display-p3 0.0000 0.4510 0.6235);stop-opacity:1;"/>
<stop offset="0.1428" stop-color="#00769C" style="stop-color:#00769C;stop-color:color(display-p3 0.0000 0.4627 0.6118);stop-opacity:1;"/>
<stop offset="0.2142" stop-color="#007999" style="stop-color:#007999;stop-color:color(display-p3 0.0000 0.4745 0.6000);stop-opacity:1;"/>
<stop offset="0.285601" stop-color="#007D96" style="stop-color:#007D96;stop-color:color(display-p3 0.0000 0.4902 0.5882);stop-opacity:1;"/>
<stop offset="0.357001" stop-color="#008092" style="stop-color:#008092;stop-color:color(display-p3 0.0000 0.5020 0.5725);stop-opacity:1;"/>
<stop offset="0.428401" stop-color="#00848E" style="stop-color:#00848E;stop-color:color(display-p3 0.0000 0.5176 0.5569);stop-opacity:1;"/>
<stop offset="0.499801" stop-color="#00888A" style="stop-color:#00888A;stop-color:color(display-p3 0.0000 0.5333 0.5412);stop-opacity:1;"/>
<stop offset="0.571201" stop-color="#008C87" style="stop-color:#008C87;stop-color:color(display-p3 0.0000 0.5490 0.5294);stop-opacity:1;"/>
<stop offset="0.642601" stop-color="#009083" style="stop-color:#009083;stop-color:color(display-p3 0.0000 0.5647 0.5137);stop-opacity:1;"/>
<stop offset="0.714001" stop-color="#00947F" style="stop-color:#00947F;stop-color:color(display-p3 0.0000 0.5804 0.4980);stop-opacity:1;"/>
<stop offset="0.785402" stop-color="#00987B" style="stop-color:#00987B;stop-color:color(display-p3 0.0000 0.5961 0.4824);stop-opacity:1;"/>
<stop offset="0.856802" stop-color="#009C76" style="stop-color:#009C76;stop-color:color(display-p3 0.0000 0.6118 0.4627);stop-opacity:1;"/>
<stop offset="0.928202" stop-color="#00A172" style="stop-color:#00A172;stop-color:color(display-p3 0.0000 0.6314 0.4471);stop-opacity:1;"/>
<stop offset="0.999602" stop-color="#00A56E" style="stop-color:#00A56E;stop-color:color(display-p3 0.0000 0.6471 0.4314);stop-opacity:1;"/>
</linearGradient>
<linearGradient id="paint9_linear_1_2" x1="232.559" y1="484.738" x2="-31.769" y2="135.216" gradientUnits="userSpaceOnUse">
<stop stop-color="#0070A2" style="stop-color:#0070A2;stop-color:color(display-p3 0.0000 0.4392 0.6353);stop-opacity:1;"/>
<stop offset="0.0714" stop-color="#00739F" style="stop-color:#00739F;stop-color:color(display-p3 0.0000 0.4510 0.6235);stop-opacity:1;"/>
<stop offset="0.1428" stop-color="#00769C" style="stop-color:#00769C;stop-color:color(display-p3 0.0000 0.4627 0.6118);stop-opacity:1;"/>
<stop offset="0.2142" stop-color="#007999" style="stop-color:#007999;stop-color:color(display-p3 0.0000 0.4745 0.6000);stop-opacity:1;"/>
<stop offset="0.285601" stop-color="#007D96" style="stop-color:#007D96;stop-color:color(display-p3 0.0000 0.4902 0.5882);stop-opacity:1;"/>
<stop offset="0.357001" stop-color="#008092" style="stop-color:#008092;stop-color:color(display-p3 0.0000 0.5020 0.5725);stop-opacity:1;"/>
<stop offset="0.428401" stop-color="#00848E" style="stop-color:#00848E;stop-color:color(display-p3 0.0000 0.5176 0.5569);stop-opacity:1;"/>
<stop offset="0.499801" stop-color="#00888A" style="stop-color:#00888A;stop-color:color(display-p3 0.0000 0.5333 0.5412);stop-opacity:1;"/>
<stop offset="0.571201" stop-color="#008C87" style="stop-color:#008C87;stop-color:color(display-p3 0.0000 0.5490 0.5294);stop-opacity:1;"/>
<stop offset="0.642601" stop-color="#009083" style="stop-color:#009083;stop-color:color(display-p3 0.0000 0.5647 0.5137);stop-opacity:1;"/>
<stop offset="0.714001" stop-color="#00947F" style="stop-color:#00947F;stop-color:color(display-p3 0.0000 0.5804 0.4980);stop-opacity:1;"/>
<stop offset="0.785402" stop-color="#00987B" style="stop-color:#00987B;stop-color:color(display-p3 0.0000 0.5961 0.4824);stop-opacity:1;"/>
<stop offset="0.856802" stop-color="#009C76" style="stop-color:#009C76;stop-color:color(display-p3 0.0000 0.6118 0.4627);stop-opacity:1;"/>
<stop offset="0.928202" stop-color="#00A172" style="stop-color:#00A172;stop-color:color(display-p3 0.0000 0.6314 0.4471);stop-opacity:1;"/>
<stop offset="0.999602" stop-color="#00A56E" style="stop-color:#00A56E;stop-color:color(display-p3 0.0000 0.6471 0.4314);stop-opacity:1;"/>
</linearGradient>
<linearGradient id="paint10_linear_1_2" x1="342.461" y1="401.625" x2="78.1334" y2="52.1024" gradientUnits="userSpaceOnUse">
<stop stop-color="#0070A2" style="stop-color:#0070A2;stop-color:color(display-p3 0.0000 0.4392 0.6353);stop-opacity:1;"/>
<stop offset="0.0714" stop-color="#00739F" style="stop-color:#00739F;stop-color:color(display-p3 0.0000 0.4510 0.6235);stop-opacity:1;"/>
<stop offset="0.1428" stop-color="#00769C" style="stop-color:#00769C;stop-color:color(display-p3 0.0000 0.4627 0.6118);stop-opacity:1;"/>
<stop offset="0.2142" stop-color="#007999" style="stop-color:#007999;stop-color:color(display-p3 0.0000 0.4745 0.6000);stop-opacity:1;"/>
<stop offset="0.285601" stop-color="#007D96" style="stop-color:#007D96;stop-color:color(display-p3 0.0000 0.4902 0.5882);stop-opacity:1;"/>
<stop offset="0.357001" stop-color="#008092" style="stop-color:#008092;stop-color:color(display-p3 0.0000 0.5020 0.5725);stop-opacity:1;"/>
<stop offset="0.428401" stop-color="#00848E" style="stop-color:#00848E;stop-color:color(display-p3 0.0000 0.5176 0.5569);stop-opacity:1;"/>
<stop offset="0.499801" stop-color="#00888A" style="stop-color:#00888A;stop-color:color(display-p3 0.0000 0.5333 0.5412);stop-opacity:1;"/>
<stop offset="0.571201" stop-color="#008C87" style="stop-color:#008C87;stop-color:color(display-p3 0.0000 0.5490 0.5294);stop-opacity:1;"/>
<stop offset="0.642601" stop-color="#009083" style="stop-color:#009083;stop-color:color(display-p3 0.0000 0.5647 0.5137);stop-opacity:1;"/>
<stop offset="0.714001" stop-color="#00947F" style="stop-color:#00947F;stop-color:color(display-p3 0.0000 0.5804 0.4980);stop-opacity:1;"/>
<stop offset="0.785402" stop-color="#00987B" style="stop-color:#00987B;stop-color:color(display-p3 0.0000 0.5961 0.4824);stop-opacity:1;"/>
<stop offset="0.856802" stop-color="#009C76" style="stop-color:#009C76;stop-color:color(display-p3 0.0000 0.6118 0.4627);stop-opacity:1;"/>
<stop offset="0.928202" stop-color="#00A172" style="stop-color:#00A172;stop-color:color(display-p3 0.0000 0.6314 0.4471);stop-opacity:1;"/>
<stop offset="0.999602" stop-color="#00A56E" style="stop-color:#00A56E;stop-color:color(display-p3 0.0000 0.6471 0.4314);stop-opacity:1;"/>
</linearGradient>
<linearGradient id="paint11_linear_1_2" x1="182.635" y1="522.495" x2="-81.6931" y2="172.973" gradientUnits="userSpaceOnUse">
<stop stop-color="#0070A2" style="stop-color:#0070A2;stop-color:color(display-p3 0.0000 0.4392 0.6353);stop-opacity:1;"/>
<stop offset="0.0714" stop-color="#00739F" style="stop-color:#00739F;stop-color:color(display-p3 0.0000 0.4510 0.6235);stop-opacity:1;"/>
<stop offset="0.1428" stop-color="#00769C" style="stop-color:#00769C;stop-color:color(display-p3 0.0000 0.4627 0.6118);stop-opacity:1;"/>
<stop offset="0.2142" stop-color="#007999" style="stop-color:#007999;stop-color:color(display-p3 0.0000 0.4745 0.6000);stop-opacity:1;"/>
<stop offset="0.285601" stop-color="#007D96" style="stop-color:#007D96;stop-color:color(display-p3 0.0000 0.4902 0.5882);stop-opacity:1;"/>
<stop offset="0.357001" stop-color="#008092" style="stop-color:#008092;stop-color:color(display-p3 0.0000 0.5020 0.5725);stop-opacity:1;"/>
<stop offset="0.428401" stop-color="#00848E" style="stop-color:#00848E;stop-color:color(display-p3 0.0000 0.5176 0.5569);stop-opacity:1;"/>
<stop offset="0.499801" stop-color="#00888A" style="stop-color:#00888A;stop-color:color(display-p3 0.0000 0.5333 0.5412);stop-opacity:1;"/>
<stop offset="0.571201" stop-color="#008C87" style="stop-color:#008C87;stop-color:color(display-p3 0.0000 0.5490 0.5294);stop-opacity:1;"/>
<stop offset="0.642601" stop-color="#009083" style="stop-color:#009083;stop-color:color(display-p3 0.0000 0.5647 0.5137);stop-opacity:1;"/>
<stop offset="0.714001" stop-color="#00947F" style="stop-color:#00947F;stop-color:color(display-p3 0.0000 0.5804 0.4980);stop-opacity:1;"/>
<stop offset="0.785402" stop-color="#00987B" style="stop-color:#00987B;stop-color:color(display-p3 0.0000 0.5961 0.4824);stop-opacity:1;"/>
<stop offset="0.856802" stop-color="#009C76" style="stop-color:#009C76;stop-color:color(display-p3 0.0000 0.6118 0.4627);stop-opacity:1;"/>
<stop offset="0.928202" stop-color="#00A172" style="stop-color:#00A172;stop-color:color(display-p3 0.0000 0.6314 0.4471);stop-opacity:1;"/>
<stop offset="0.999602" stop-color="#00A56E" style="stop-color:#00A56E;stop-color:color(display-p3 0.0000 0.6471 0.4314);stop-opacity:1;"/>
</linearGradient>
<linearGradient id="paint12_linear_1_2" x1="213.387" y1="499.237" x2="-50.9406" y2="149.715" gradientUnits="userSpaceOnUse">
<stop stop-color="#0070A2" style="stop-color:#0070A2;stop-color:color(display-p3 0.0000 0.4392 0.6353);stop-opacity:1;"/>
<stop offset="0.0714" stop-color="#00739F" style="stop-color:#00739F;stop-color:color(display-p3 0.0000 0.4510 0.6235);stop-opacity:1;"/>
<stop offset="0.1428" stop-color="#00769C" style="stop-color:#00769C;stop-color:color(display-p3 0.0000 0.4627 0.6118);stop-opacity:1;"/>
<stop offset="0.2142" stop-color="#007999" style="stop-color:#007999;stop-color:color(display-p3 0.0000 0.4745 0.6000);stop-opacity:1;"/>
<stop offset="0.285601" stop-color="#007D96" style="stop-color:#007D96;stop-color:color(display-p3 0.0000 0.4902 0.5882);stop-opacity:1;"/>
<stop offset="0.357001" stop-color="#008092" style="stop-color:#008092;stop-color:color(display-p3 0.0000 0.5020 0.5725);stop-opacity:1;"/>
<stop offset="0.428401" stop-color="#00848E" style="stop-color:#00848E;stop-color:color(display-p3 0.0000 0.5176 0.5569);stop-opacity:1;"/>
<stop offset="0.499801" stop-color="#00888A" style="stop-color:#00888A;stop-color:color(display-p3 0.0000 0.5333 0.5412);stop-opacity:1;"/>
<stop offset="0.571201" stop-color="#008C87" style="stop-color:#008C87;stop-color:color(display-p3 0.0000 0.5490 0.5294);stop-opacity:1;"/>
<stop offset="0.642601" stop-color="#009083" style="stop-color:#009083;stop-color:color(display-p3 0.0000 0.5647 0.5137);stop-opacity:1;"/>
<stop offset="0.714001" stop-color="#00947F" style="stop-color:#00947F;stop-color:color(display-p3 0.0000 0.5804 0.4980);stop-opacity:1;"/>
<stop offset="0.785402" stop-color="#00987B" style="stop-color:#00987B;stop-color:color(display-p3 0.0000 0.5961 0.4824);stop-opacity:1;"/>
<stop offset="0.856802" stop-color="#009C76" style="stop-color:#009C76;stop-color:color(display-p3 0.0000 0.6118 0.4627);stop-opacity:1;"/>
<stop offset="0.928202" stop-color="#00A172" style="stop-color:#00A172;stop-color:color(display-p3 0.0000 0.6314 0.4471);stop-opacity:1;"/>
<stop offset="0.999602" stop-color="#00A56E" style="stop-color:#00A56E;stop-color:color(display-p3 0.0000 0.6471 0.4314);stop-opacity:1;"/>
</linearGradient>
<linearGradient id="paint13_linear_1_2" x1="210.898" y1="501.121" x2="-53.4303" y2="151.598" gradientUnits="userSpaceOnUse">
<stop stop-color="#0070A2" style="stop-color:#0070A2;stop-color:color(display-p3 0.0000 0.4392 0.6353);stop-opacity:1;"/>
<stop offset="0.0714" stop-color="#00739F" style="stop-color:#00739F;stop-color:color(display-p3 0.0000 0.4510 0.6235);stop-opacity:1;"/>
<stop offset="0.1428" stop-color="#00769C" style="stop-color:#00769C;stop-color:color(display-p3 0.0000 0.4627 0.6118);stop-opacity:1;"/>
<stop offset="0.2142" stop-color="#007999" style="stop-color:#007999;stop-color:color(display-p3 0.0000 0.4745 0.6000);stop-opacity:1;"/>
<stop offset="0.285601" stop-color="#007D96" style="stop-color:#007D96;stop-color:color(display-p3 0.0000 0.4902 0.5882);stop-opacity:1;"/>
<stop offset="0.357001" stop-color="#008092" style="stop-color:#008092;stop-color:color(display-p3 0.0000 0.5020 0.5725);stop-opacity:1;"/>
<stop offset="0.428401" stop-color="#00848E" style="stop-color:#00848E;stop-color:color(display-p3 0.0000 0.5176 0.5569);stop-opacity:1;"/>
<stop offset="0.499801" stop-color="#00888A" style="stop-color:#00888A;stop-color:color(display-p3 0.0000 0.5333 0.5412);stop-opacity:1;"/>
<stop offset="0.571201" stop-color="#008C87" style="stop-color:#008C87;stop-color:color(display-p3 0.0000 0.5490 0.5294);stop-opacity:1;"/>
<stop offset="0.642601" stop-color="#009083" style="stop-color:#009083;stop-color:color(display-p3 0.0000 0.5647 0.5137);stop-opacity:1;"/>
<stop offset="0.714001" stop-color="#00947F" style="stop-color:#00947F;stop-color:color(display-p3 0.0000 0.5804 0.4980);stop-opacity:1;"/>
<stop offset="0.785402" stop-color="#00987B" style="stop-color:#00987B;stop-color:color(display-p3 0.0000 0.5961 0.4824);stop-opacity:1;"/>
<stop offset="0.856802" stop-color="#009C76" style="stop-color:#009C76;stop-color:color(display-p3 0.0000 0.6118 0.4627);stop-opacity:1;"/>
<stop offset="0.928202" stop-color="#00A172" style="stop-color:#00A172;stop-color:color(display-p3 0.0000 0.6314 0.4471);stop-opacity:1;"/>
<stop offset="0.999602" stop-color="#00A56E" style="stop-color:#00A56E;stop-color:color(display-p3 0.0000 0.6471 0.4314);stop-opacity:1;"/>
</linearGradient>
<linearGradient id="paint14_linear_1_2" x1="405.267" y1="354.166" x2="140.939" y2="4.6441" gradientUnits="userSpaceOnUse">
<stop stop-color="#0070A2" style="stop-color:#0070A2;stop-color:color(display-p3 0.0000 0.4392 0.6353);stop-opacity:1;"/>
<stop offset="0.0714" stop-color="#00739F" style="stop-color:#00739F;stop-color:color(display-p3 0.0000 0.4510 0.6235);stop-opacity:1;"/>
<stop offset="0.1428" stop-color="#00769C" style="stop-color:#00769C;stop-color:color(display-p3 0.0000 0.4627 0.6118);stop-opacity:1;"/>
<stop offset="0.2142" stop-color="#007999" style="stop-color:#007999;stop-color:color(display-p3 0.0000 0.4745 0.6000);stop-opacity:1;"/>
<stop offset="0.285601" stop-color="#007D96" style="stop-color:#007D96;stop-color:color(display-p3 0.0000 0.4902 0.5882);stop-opacity:1;"/>
<stop offset="0.357001" stop-color="#008092" style="stop-color:#008092;stop-color:color(display-p3 0.0000 0.5020 0.5725);stop-opacity:1;"/>
<stop offset="0.428401" stop-color="#00848E" style="stop-color:#00848E;stop-color:color(display-p3 0.0000 0.5176 0.5569);stop-opacity:1;"/>
<stop offset="0.499801" stop-color="#00888A" style="stop-color:#00888A;stop-color:color(display-p3 0.0000 0.5333 0.5412);stop-opacity:1;"/>
<stop offset="0.571201" stop-color="#008C87" style="stop-color:#008C87;stop-color:color(display-p3 0.0000 0.5490 0.5294);stop-opacity:1;"/>
<stop offset="0.642601" stop-color="#009083" style="stop-color:#009083;stop-color:color(display-p3 0.0000 0.5647 0.5137);stop-opacity:1;"/>
<stop offset="0.714001" stop-color="#00947F" style="stop-color:#00947F;stop-color:color(display-p3 0.0000 0.5804 0.4980);stop-opacity:1;"/>
<stop offset="0.785402" stop-color="#00987B" style="stop-color:#00987B;stop-color:color(display-p3 0.0000 0.5961 0.4824);stop-opacity:1;"/>
<stop offset="0.856802" stop-color="#009C76" style="stop-color:#009C76;stop-color:color(display-p3 0.0000 0.6118 0.4627);stop-opacity:1;"/>
<stop offset="0.928202" stop-color="#00A172" style="stop-color:#00A172;stop-color:color(display-p3 0.0000 0.6314 0.4471);stop-opacity:1;"/>
<stop offset="0.999602" stop-color="#00A56E" style="stop-color:#00A56E;stop-color:color(display-p3 0.0000 0.6471 0.4314);stop-opacity:1;"/>
</linearGradient>
<linearGradient id="paint15_linear_1_2" x1="272.575" y1="454.431" x2="8.2472" y2="104.909" gradientUnits="userSpaceOnUse">
<stop stop-color="#0070A2" style="stop-color:#0070A2;stop-color:color(display-p3 0.0000 0.4392 0.6353);stop-opacity:1;"/>
<stop offset="0.0714" stop-color="#00739F" style="stop-color:#00739F;stop-color:color(display-p3 0.0000 0.4510 0.6235);stop-opacity:1;"/>
<stop offset="0.1428" stop-color="#00769C" style="stop-color:#00769C;stop-color:color(display-p3 0.0000 0.4627 0.6118);stop-opacity:1;"/>
<stop offset="0.2142" stop-color="#007999" style="stop-color:#007999;stop-color:color(display-p3 0.0000 0.4745 0.6000);stop-opacity:1;"/>
<stop offset="0.285601" stop-color="#007D96" style="stop-color:#007D96;stop-color:color(display-p3 0.0000 0.4902 0.5882);stop-opacity:1;"/>
<stop offset="0.357001" stop-color="#008092" style="stop-color:#008092;stop-color:color(display-p3 0.0000 0.5020 0.5725);stop-opacity:1;"/>
<stop offset="0.428401" stop-color="#00848E" style="stop-color:#00848E;stop-color:color(display-p3 0.0000 0.5176 0.5569);stop-opacity:1;"/>
<stop offset="0.499801" stop-color="#00888A" style="stop-color:#00888A;stop-color:color(display-p3 0.0000 0.5333 0.5412);stop-opacity:1;"/>
<stop offset="0.571201" stop-color="#008C87" style="stop-color:#008C87;stop-color:color(display-p3 0.0000 0.5490 0.5294);stop-opacity:1;"/>
<stop offset="0.642601" stop-color="#009083" style="stop-color:#009083;stop-color:color(display-p3 0.0000 0.5647 0.5137);stop-opacity:1;"/>
<stop offset="0.714001" stop-color="#00947F" style="stop-color:#00947F;stop-color:color(display-p3 0.0000 0.5804 0.4980);stop-opacity:1;"/>
<stop offset="0.785402" stop-color="#00987B" style="stop-color:#00987B;stop-color:color(display-p3 0.0000 0.5961 0.4824);stop-opacity:1;"/>
<stop offset="0.856802" stop-color="#009C76" style="stop-color:#009C76;stop-color:color(display-p3 0.0000 0.6118 0.4627);stop-opacity:1;"/>
<stop offset="0.928202" stop-color="#00A172" style="stop-color:#00A172;stop-color:color(display-p3 0.0000 0.6314 0.4471);stop-opacity:1;"/>
<stop offset="0.999602" stop-color="#00A56E" style="stop-color:#00A56E;stop-color:color(display-p3 0.0000 0.6471 0.4314);stop-opacity:1;"/>
</linearGradient>
<linearGradient id="paint16_linear_1_2" x1="222.696" y1="492.197" x2="-41.6315" y2="142.675" gradientUnits="userSpaceOnUse">
<stop stop-color="#0070A2" style="stop-color:#0070A2;stop-color:color(display-p3 0.0000 0.4392 0.6353);stop-opacity:1;"/>
<stop offset="0.0714" stop-color="#00739F" style="stop-color:#00739F;stop-color:color(display-p3 0.0000 0.4510 0.6235);stop-opacity:1;"/>
<stop offset="0.1428" stop-color="#00769C" style="stop-color:#00769C;stop-color:color(display-p3 0.0000 0.4627 0.6118);stop-opacity:1;"/>
<stop offset="0.2142" stop-color="#007999" style="stop-color:#007999;stop-color:color(display-p3 0.0000 0.4745 0.6000);stop-opacity:1;"/>
<stop offset="0.285601" stop-color="#007D96" style="stop-color:#007D96;stop-color:color(display-p3 0.0000 0.4902 0.5882);stop-opacity:1;"/>
<stop offset="0.357001" stop-color="#008092" style="stop-color:#008092;stop-color:color(display-p3 0.0000 0.5020 0.5725);stop-opacity:1;"/>
<stop offset="0.428401" stop-color="#00848E" style="stop-color:#00848E;stop-color:color(display-p3 0.0000 0.5176 0.5569);stop-opacity:1;"/>
<stop offset="0.499801" stop-color="#00888A" style="stop-color:#00888A;stop-color:color(display-p3 0.0000 0.5333 0.5412);stop-opacity:1;"/>
<stop offset="0.571201" stop-color="#008C87" style="stop-color:#008C87;stop-color:color(display-p3 0.0000 0.5490 0.5294);stop-opacity:1;"/>
<stop offset="0.642601" stop-color="#009083" style="stop-color:#009083;stop-color:color(display-p3 0.0000 0.5647 0.5137);stop-opacity:1;"/>
<stop offset="0.714001" stop-color="#00947F" style="stop-color:#00947F;stop-color:color(display-p3 0.0000 0.5804 0.4980);stop-opacity:1;"/>
<stop offset="0.785402" stop-color="#00987B" style="stop-color:#00987B;stop-color:color(display-p3 0.0000 0.5961 0.4824);stop-opacity:1;"/>
<stop offset="0.856802" stop-color="#009C76" style="stop-color:#009C76;stop-color:color(display-p3 0.0000 0.6118 0.4627);stop-opacity:1;"/>
<stop offset="0.928202" stop-color="#00A172" style="stop-color:#00A172;stop-color:color(display-p3 0.0000 0.6314 0.4471);stop-opacity:1;"/>
<stop offset="0.999602" stop-color="#00A56E" style="stop-color:#00A56E;stop-color:color(display-p3 0.0000 0.6471 0.4314);stop-opacity:1;"/>
</linearGradient>
</defs>
</svg>
