<svg xmlns="http://www.w3.org/2000/svg" width="155" height="54" viewBox="0 0 155 54" fill="#000000">
  <path d="M91.7643 30.0378V26.0933C91.3266 27.0454 88.5158 29.8111 85.7742 30.9673H88.2163V36.8162C88.2163 37.4963 88.3085 38.0857 88.4237 38.4711C88.5388 38.8792 88.7923 39.1965 89.1148 39.4912C89.3682 39.6953 89.6447 39.854 89.9903 39.9446C90.3128 40.058 90.6815 40.1033 91.0731 40.1033C91.6491 40.1033 92.179 39.99 92.7319 39.786C93.2618 39.5819 93.93 39.1739 94.6672 38.6525L94.552 38.4938C94.2986 38.5844 94.0912 38.6071 93.93 38.6525C93.7687 38.6978 93.6074 38.6978 93.4001 38.6978C92.778 38.6978 92.3633 38.5391 92.1099 38.2217C91.8565 37.9043 91.7413 37.3603 91.7413 36.6348V30.99H94.4368V30.0605L91.7643 30.0378Z" />
  <path d="M81.7883 37.3603C81.7883 37.8137 81.6732 38.1764 81.4658 38.4484C81.2584 38.6978 80.982 38.8565 80.5903 38.8565C80.2217 38.8565 79.9222 38.6978 79.7148 38.3804C79.4153 37.927 79.3001 36.8615 79.5536 36.0681C79.8991 34.9572 80.6594 34.7305 81.8114 34.3225L81.7883 37.3603ZM86.5344 38.6524C86.4192 38.6978 86.2809 38.6978 86.2118 38.6978C86.0506 38.6978 85.8893 38.6524 85.751 38.5844C85.6359 38.4938 85.5437 38.4257 85.4515 38.2897C85.3594 38.1764 85.3363 38.0404 85.3363 37.8817C85.3363 37.723 85.3363 32.5542 85.3363 32.5542C85.3363 31.9875 85.2903 31.5341 85.1751 31.2167C85.0599 30.8993 84.5069 29.8792 82.7329 29.8792C81.6271 29.8792 79.0237 30.2872 77.2036 31.3074C76.0056 31.9648 75.4526 32.6902 75.3835 33.5064C75.3374 34.0278 75.7291 34.8666 76.7428 34.8439C77.3188 34.8212 77.7796 34.6852 78.1943 34.3225C78.5629 33.9598 78.8163 33.461 78.8854 32.8716C79.0928 31.194 79.3232 30.854 79.784 30.6046C80.0143 30.4686 80.2678 30.4006 80.6134 30.4006C80.982 30.4006 81.2815 30.5592 81.5119 30.8766C81.6271 31.0353 81.6732 31.2847 81.7192 31.6021C81.7653 31.9195 81.7653 32.4635 81.7653 33.0983V34.1184C81.0741 34.3225 78.7702 34.9799 76.9041 35.9547C75.2914 36.7935 75.3374 37.7003 75.3374 37.995C75.2683 39.6726 77.0193 40.1487 78.1943 40.1487C79.0697 40.1487 79.6688 39.99 80.2217 39.6953C80.7977 39.4006 81.3045 38.9245 81.7883 38.2671C82.0418 39.5366 82.6869 40.126 83.8158 40.126C84.2996 40.126 84.8064 40.0126 85.3363 39.7633C85.8202 39.5139 86.4422 39.1058 87.1103 38.5391L86.9952 38.4257C86.7878 38.5391 86.6496 38.6071 86.5344 38.6524Z" />
  <path d="M42.4146 14.7128C42.2072 13.8514 41.8386 13.4433 41.1705 13.4433C40.6406 13.4433 40.2259 13.7607 39.9264 14.4181C39.6269 15.0756 39.4656 15.9597 39.4656 17.1839H42.5528C42.6219 15.8917 42.5067 14.9849 42.4146 14.7128ZM39.4886 17.4559C39.4886 19.8816 40.6406 21.0378 42.8754 21.0378C43.5665 21.0378 44.1886 20.9244 44.6954 20.6297C45.2023 20.335 45.64 19.9496 46.0547 19.3375L46.216 19.4282C45.2023 22.1713 43.5665 23.5315 41.1014 23.5315C37.8529 23.5315 36.5166 21.1285 36.2401 20.5164C35.9867 19.9043 35.8254 19.2468 35.8254 18.5214C35.8254 17.796 35.9406 17.0932 36.2401 16.4584C36.5396 15.801 36.9083 15.2343 37.3921 14.8035C37.8759 14.3275 38.4749 13.9421 39.12 13.67C39.7881 13.3753 40.4793 13.262 41.2166 13.262C44.0503 13.262 46.1239 15.3929 46.1239 17.4786L39.4886 17.4559Z" />
  <path d="M33.6829 20.6298C33.2221 20.8338 32.6922 20.9471 32.1162 20.9471C30.4344 20.9925 28.6373 19.5643 28.6834 17.0932C28.7295 15.529 29.3516 13.398 30.826 13.398C32.0471 13.398 32.3005 14.5995 31.8628 15.4383C31.2868 16.6172 31.8858 18.1814 33.3143 18.1134C34.7427 18.0454 34.9039 16.8892 34.927 16.3678C34.95 15.2796 33.752 13.1487 30.7109 13.1713C27.4854 13.194 25.1124 15.6877 25.1354 18.4988C25.1585 21.8313 27.5776 22.9194 28.1996 23.1688C28.8217 23.4182 29.4898 23.5315 30.227 23.5315C32.4618 23.5315 34.0976 22.262 35.2495 19.791L34.9961 19.6776C34.6275 20.063 34.1667 20.4257 33.6829 20.6298Z" />
  <path d="M118.558 23.2367V23.0327C118.351 23.0327 118.075 22.9873 117.913 22.9647C117.775 22.942 117.637 22.874 117.522 22.806C117.314 22.67 117.153 22.4659 117.084 22.2166L117.015 22.0125C116.992 21.9218 116.969 21.8538 116.969 21.7632C116.946 21.5365 116.946 21.0604 116.946 20.7203C116.946 20.7203 116.946 17.4332 116.946 17.1611C116.946 17.0251 116.969 16.8891 116.969 16.7531C116.969 16.2997 117.199 15.0755 117.936 15.0755C118.144 15.0755 118.351 15.1888 118.558 15.4836C119.249 16.5944 120.378 16.6851 121.116 15.9596C121.738 15.3475 121.576 14.4407 121.438 14.1234C121 13.1032 120.033 13.0579 119.779 13.0579C119.157 13.0579 118.581 13.3072 118.098 13.7833C117.614 14.2594 117.199 15.0528 116.784 16.0503V13.0805C115.932 13.4433 113.766 14.1687 111.67 14.5768L111.716 14.7808C112.038 14.8261 112.292 14.8715 112.499 14.9395C112.799 15.0528 113.398 15.2795 113.398 17.3652V23.214L118.558 23.2367Z" />
  <path d="M139.985 13.4206V13.602C140.031 13.602 140.054 13.6247 140.1 13.6473C140.261 13.6927 140.538 13.806 140.699 13.942C141.206 14.3274 141.321 15.2569 141.229 15.9823C141.183 16.3677 141.068 16.7985 140.975 17.0705C140.814 17.4786 140.63 17.9093 140.538 18.0906C140.33 18.4987 140.123 18.9748 139.847 19.5415L138.003 15.8917C137.704 15.3249 137.543 14.8262 137.543 14.4634C137.543 13.942 137.842 13.6473 138.418 13.602V13.3979H131.898V13.602C131.944 13.602 131.99 13.6246 132.059 13.6246C132.267 13.67 132.451 13.738 132.635 13.8287C132.912 13.9647 133.165 14.1687 133.35 14.4408C133.419 14.5315 133.488 14.6448 133.534 14.7355L137.865 23.3954C137.819 23.5088 137.681 23.7582 137.543 23.9849C137.358 24.3022 137.128 24.5969 136.898 24.8917C136.805 24.9823 136.736 25.073 136.69 25.1184C136.483 25.277 136.275 25.3224 136.068 25.3224C135.907 25.3224 135.746 25.277 135.607 25.1637C135.492 25.073 135.308 24.869 135.124 24.6423C134.824 24.2796 134.594 24.0302 134.34 23.9168C134.087 23.8035 133.81 23.7128 133.465 23.7128C132.981 23.7128 132.566 23.8715 132.221 24.1889C131.898 24.5063 131.737 24.9143 131.737 25.4131C131.737 25.9798 131.944 26.4786 132.405 26.8413C132.82 27.204 133.396 27.3627 134.087 27.3627C134.778 27.3627 135.446 27.1133 136.022 26.6826C136.299 26.4332 136.736 25.9345 137.082 25.4131C137.427 24.8917 137.681 24.3249 137.727 24.2569C138.349 23.0327 141.828 16.209 142.081 15.801C142.381 15.3476 142.657 14.9395 142.957 14.6221C143.21 14.3048 143.487 14.1007 143.74 13.942C143.994 13.7833 144.224 13.6927 144.523 13.6473V13.4433H139.985V13.4206Z" />
  <path d="M139.985 30.0378V30.2418C140.031 30.2418 140.054 30.2645 140.1 30.2871C140.261 30.3325 140.538 30.4458 140.699 30.5819C141.206 30.9672 141.321 31.8967 141.229 32.6222C141.183 33.0075 141.068 33.4383 140.975 33.7103C140.814 34.1184 140.63 34.5491 140.538 34.7305C140.33 35.1385 140.123 35.6146 139.846 36.1813L138.026 32.4861C137.727 31.9194 137.566 31.4206 137.566 31.0579C137.566 30.5365 137.865 30.2418 138.441 30.1965V29.9924H131.921V30.1965C131.967 30.1965 132.013 30.2191 132.082 30.2191C132.29 30.2645 132.474 30.3325 132.658 30.4232C132.935 30.5592 133.188 30.7632 133.372 31.0353C133.442 31.1259 133.511 31.2393 133.557 31.33L137.888 39.9899C137.842 40.1033 137.704 40.3526 137.566 40.5793C137.381 40.8967 137.151 41.1914 136.92 41.4861C136.828 41.5768 136.759 41.6675 136.713 41.7128C136.506 41.8715 136.298 41.9169 136.091 41.9169C135.93 41.9169 135.769 41.8715 135.63 41.7582C135.515 41.6675 135.331 41.4635 135.146 41.2368C134.847 40.874 134.617 40.6247 134.363 40.5113C134.11 40.398 133.833 40.3073 133.488 40.3073C133.004 40.3073 132.589 40.466 132.244 40.7834C131.898 41.1007 131.76 41.5088 131.76 42.0075C131.76 42.5743 131.967 43.073 132.428 43.4358C132.843 43.7985 133.419 43.9572 134.11 43.9572C134.801 43.9572 135.469 43.7078 136.045 43.2771C136.321 43.0277 136.759 42.529 137.105 42.0075C137.45 41.4861 137.704 40.9194 137.75 40.8514C138.372 39.6272 141.851 32.8035 142.104 32.3955C142.404 31.9421 142.68 31.534 142.98 31.2166C143.233 30.8992 143.51 30.6952 143.763 30.5365C144.016 30.3778 144.247 30.2871 144.546 30.2418V30.0378H139.985Z" />
  <path d="M70.8908 33.2569C70.6835 33.529 70.407 33.733 70.0154 33.869C69.6928 33.9824 69.232 34.073 68.7713 34.073H68.2874V27.0907H68.8173C69.7619 27.0907 70.4761 27.34 70.8908 27.8615C71.3056 28.3829 71.5129 29.2897 71.5129 30.4912C71.4668 31.1486 71.4438 32.5088 70.8908 33.2569ZM75.2222 28.995C74.9227 28.5416 74.531 28.1335 73.932 27.8161C73.4021 27.4987 72.6879 27.2494 71.9046 27.0907C71.1212 26.932 70.2458 26.8413 69.2551 26.8413H62.4586V27.0453C62.9194 27.0907 63.2419 27.136 63.4493 27.204C64.1635 27.4761 64.3478 28.2922 64.3478 29.1083C64.3478 29.403 64.3247 38.1083 64.3017 38.2897C64.3017 38.3803 64.2787 38.471 64.2556 38.539C64.2326 38.6524 64.1865 38.7431 64.1635 38.8564C64.1174 38.9698 63.9561 39.1738 63.9561 39.1738C63.9561 39.1738 63.6566 39.4912 63.4262 39.5819C63.2189 39.6725 62.8963 39.6952 62.4355 39.7406V39.9446H70.3149V39.7406C69.8311 39.6952 69.4394 39.6499 69.209 39.5819C69.0708 39.5365 68.9325 39.4232 68.8173 39.3325C68.7021 39.2418 68.61 39.1285 68.5409 39.0151C68.4718 38.9018 68.4257 38.7884 68.3796 38.6524L68.3335 38.5164C68.3105 38.4257 68.2874 38.3577 68.2874 38.267C68.2644 38.1083 68.2644 37.8589 68.2644 37.6549C68.2644 37.3602 68.2644 34.3224 68.2644 34.3224C68.2644 34.3224 69.9232 34.2997 70.3609 34.2771C72.6648 34.1637 73.8629 33.5516 74.7614 32.6902C75.0379 32.4408 75.2682 32.1234 75.4065 31.806C75.4065 31.806 75.4065 31.7834 75.4295 31.7834C75.6599 31.262 75.706 30.6952 75.6138 30.1285C75.5678 29.6751 75.4295 29.3123 75.2222 28.995Z" />
  <path d="M128.373 37.3603C128.373 37.8137 128.258 38.1764 128.051 38.4484C127.843 38.6978 127.567 38.8565 127.175 38.8565C126.807 38.8565 126.507 38.6978 126.3 38.3804C126.092 38.063 126 37.6096 126 37.0429C126 36.6802 126.046 36.3628 126.115 36.0681C126.208 35.7734 126.323 35.5467 126.484 35.3426C126.645 35.1386 126.899 34.9346 127.221 34.7759C127.521 34.6172 127.912 34.4585 128.373 34.3225V37.3603ZM133.58 38.4484C133.373 38.5618 133.257 38.6071 133.119 38.6524C132.981 38.6978 132.866 38.6978 132.797 38.6978C132.635 38.6978 132.474 38.6524 132.336 38.5844C132.221 38.4938 132.129 38.4257 132.036 38.2897C131.944 38.1537 131.921 38.0404 131.921 37.8817C131.921 37.723 131.921 37.4283 131.921 37.0655V32.5542C131.921 31.9875 131.875 31.5341 131.76 31.2167C131.645 30.8993 131.437 30.6046 131.138 30.4006C130.931 30.1965 130.654 30.0832 130.355 29.9925C130.055 29.9018 129.732 29.8792 129.318 29.8792C128.903 29.8792 128.442 29.9245 127.958 29.9925C127.475 30.0832 126.968 30.1512 126.507 30.2872C126.023 30.4006 125.562 30.5819 125.056 30.7406C124.595 30.8993 124.157 31.1033 123.765 31.3074C122.567 31.9648 121.945 32.6902 121.945 33.5064C121.945 33.9144 122.061 34.2318 122.314 34.4812C122.567 34.7305 122.89 34.8439 123.305 34.8439C123.881 34.8439 124.341 34.6852 124.756 34.3225C125.125 33.9598 125.378 33.461 125.447 32.8716C125.493 32.5542 125.539 32.3048 125.539 32.1462C125.585 31.9875 125.585 31.8288 125.632 31.6928C125.632 31.5794 125.678 31.4887 125.724 31.398C125.77 31.3074 125.816 31.2393 125.839 31.1487C125.954 30.8993 126.138 30.6953 126.369 30.5819C126.622 30.4686 126.853 30.3779 127.198 30.3779C127.567 30.3779 127.866 30.5366 128.097 30.854C128.212 31.0127 128.258 31.262 128.304 31.5794C128.35 31.8968 128.35 32.4409 128.35 33.0756V34.0958C127.659 34.2998 127.037 34.5038 126.461 34.6625C125.885 34.8666 125.355 35.0706 124.848 35.2746C124.318 35.4786 123.858 35.728 123.489 35.932C123.12 36.1361 122.821 36.3401 122.59 36.5441C122.383 36.7482 122.222 36.9975 122.107 37.2016C122.014 37.4509 121.945 37.6776 121.945 37.9723C121.945 38.6298 122.199 39.1512 122.729 39.5139C123.259 39.922 123.927 40.126 124.802 40.126C125.632 40.126 126.277 39.9673 126.83 39.6726C127.406 39.3779 127.912 38.9018 128.396 38.2444C128.65 39.5139 129.295 40.1033 130.424 40.1033C130.907 40.1033 131.414 39.99 131.944 39.7406C132.428 39.4912 133.05 39.0832 133.718 38.5164L133.58 38.4484Z" />
  <path d="M15.7587 34.4585C17.4405 33.8691 19.3758 34.4132 20.4356 35.7507C21.6336 37.4737 24.3752 40.0354 27.762 40.0354C28.1767 40.0354 28.5914 39.99 29.0291 39.922L35.6183 38.9925C36.8393 38.8112 38.0143 38.4711 39.1202 37.9724C39.3275 37.8817 43.6819 35.7281 45.0182 35.0706C46.2853 34.4359 47.7137 34.3905 48.6353 34.9573C51.7686 36.8616 56.1229 37.0656 59.3023 35.5694V30.8993C59.2102 30.9674 58.2886 31.6248 57.943 31.8515C56.3533 32.8943 53.22 33.1437 50.9161 31.7381C48.7044 30.4006 45.7093 30.3779 43.0829 31.6701C40.8711 32.7583 37.4844 34.4359 37.2771 34.5266C36.5629 34.8439 35.8026 35.0706 35.0192 35.184L28.2458 36.1361C26.0571 36.5669 23.9375 33.6651 23.9375 33.6424L23.8684 33.5517C21.7027 30.786 17.7861 29.6978 14.3533 30.8767L10.5979 32.1462C10.4136 32.2142 10.2063 32.2595 10.022 32.2822V36.1361C10.7131 36.1135 11.3813 36.0001 12.0494 35.7734L15.7587 34.4585Z" />
  <path d="M123.881 30.0378H119.273V30.2418C119.641 30.3551 119.941 30.5365 120.102 30.8086C120.263 31.0353 120.333 31.398 120.356 31.8967V31.874C120.356 31.874 120.356 31.9647 120.356 31.9421C120.356 31.9194 120.356 31.8967 120.356 31.8967C120.356 32.3501 120.263 32.8262 120.125 33.2569C119.987 33.7103 119.273 35.4786 118.996 36.0907C118.996 36.0907 117.499 32.7128 117.061 31.67C116.992 31.5113 116.946 31.3526 116.9 31.1713C116.9 31.1259 116.877 31.0806 116.877 31.0353C116.877 30.5592 117.176 30.3098 117.706 30.2191V30.0151H111.44V30.2191C111.555 30.2418 111.67 30.2645 111.762 30.2871C111.992 30.3325 112.223 30.4458 112.384 30.6045C112.407 30.6272 112.43 30.6725 112.453 30.6952C112.615 30.8539 112.776 31.1486 112.937 31.466C113.098 31.7834 113.352 32.2821 113.605 32.8489L112.085 36.0453L110.195 32.1007C109.896 31.4887 109.735 31.0806 109.735 30.8086C109.735 30.4458 109.942 30.2418 110.311 30.1965V29.9924H104.528C104.804 30.1058 105.035 30.2645 105.219 30.4912C105.703 31.0806 106.279 32.0327 106.509 32.4861L110.38 40.2846L113.836 33.0529L117.268 40.2846L119.941 34.7531C120.609 33.3703 121.3 32.3728 121.922 31.602C122.59 30.8312 123.212 30.3778 123.858 30.2191L123.881 30.0378Z" />
  <path d="M101.118 21.7179C101.118 21.5365 101.095 16.0051 101.095 16.0051C101.095 14.3501 100.75 13.7834 99.8049 13.33C99.4363 13.1486 98.1231 12.8993 96.8329 13.534C96.5334 13.6927 96.2569 13.8514 95.9574 14.1008C95.6579 14.3501 95.3353 14.6222 95.0128 14.9849V13.126C94.529 13.2847 91.0501 14.4182 89.783 14.6222L89.829 14.8262C89.9673 14.8489 90.1285 14.8716 90.2668 14.9169C90.4741 14.9622 90.6815 15.0529 90.8427 15.1889C91.004 15.325 91.1423 15.4836 91.2114 15.6877C91.3496 15.9824 91.4418 16.3224 91.4648 16.6398C91.4878 16.8892 91.4878 17.1612 91.4878 17.4106L91.4418 23.2141H95.9113V23.0101C95.8652 23.0101 95.7961 22.9874 95.704 22.9648C95.2662 22.8514 95.0589 22.534 95.0128 22.1486C95.0128 22.1486 95.0128 22.058 95.0128 22.0353C95.0128 21.5819 95.0128 15.2116 95.0128 15.2116C95.4966 14.8262 95.9574 14.6449 96.3721 14.6222C97.7084 14.5542 97.524 16.4585 97.524 17.3879V21.0831C97.524 21.5592 97.524 21.9446 97.524 22.1033C97.524 22.1713 97.5241 22.2393 97.501 22.3073C97.478 22.466 97.4089 22.602 97.2937 22.7154C97.2015 22.8287 97.0633 22.9194 96.902 22.9648C96.8098 22.9874 96.6946 23.0328 96.6025 23.0328V23.2368H102.293V23.0328C102.27 23.0328 102.132 22.9874 101.994 22.9648C101.464 22.8741 101.164 22.5567 101.118 21.7179Z" />
  <path d="M68.8864 21.7179C68.8864 21.5365 68.8634 16.0051 68.8634 16.0051C68.8634 14.3501 68.5178 13.7834 67.5732 13.33C67.2046 13.1486 65.8914 12.8993 64.6012 13.534C64.3017 13.6927 64.0252 13.8514 63.7257 14.1008C63.4262 14.3501 63.1037 14.6222 62.7811 14.9849V13.126C62.2973 13.2847 58.8184 14.4182 57.5513 14.6222L57.5973 14.8262C57.7356 14.8489 57.8969 14.8716 58.0351 14.9169C58.2424 14.9622 58.4498 15.0529 58.6111 15.1889C58.7723 15.325 58.9106 15.4836 58.9797 15.6877C59.1179 15.9824 59.2101 16.3224 59.2331 16.6398C59.2562 16.8892 59.2562 17.1612 59.2562 17.4106L59.2101 23.2141H63.6796V23.0101C63.6336 23.0101 63.5644 22.9874 63.4723 22.9648C63.0345 22.8514 62.8272 22.534 62.7811 22.1486C62.7811 22.1486 62.7811 22.058 62.7811 22.0353C62.7811 21.5819 62.7811 15.2116 62.7811 15.2116C63.2649 14.8262 63.7257 14.6449 64.1404 14.6222C65.4767 14.5542 65.2924 16.4585 65.2924 17.3879V21.0831C65.2924 21.5592 65.2924 21.9446 65.2924 22.1033C65.2924 22.1713 65.2924 22.2393 65.2693 22.3073C65.2463 22.466 65.1772 22.602 65.062 22.7154C64.9698 22.8287 64.8316 22.9194 64.6703 22.9648C64.5782 22.9874 64.463 23.0328 64.3708 23.0328V23.2368H70.0153V23.0328C69.9923 23.0328 69.8541 22.9874 69.7158 22.9648C69.2551 22.8741 68.9556 22.5567 68.8864 21.7179Z" />
  <path d="M53.197 20.6977C53.197 21.1511 53.0818 21.5138 52.8745 21.7858C52.6671 22.0352 52.3907 22.1939 51.999 22.1939C51.6304 22.1939 51.3309 22.0352 51.1235 21.7178C50.824 21.2644 50.7088 20.1989 50.9623 19.4055C51.3078 18.2946 52.0681 18.0679 53.2201 17.6599L53.197 20.6977ZM57.9431 21.9899C57.8279 22.0352 57.6896 22.0352 57.6205 22.0352C57.4592 22.0352 57.298 21.9899 57.1597 21.9218C57.0445 21.8312 56.9524 21.7632 56.8602 21.6271C56.7681 21.5138 56.745 21.3778 56.745 21.2191C56.745 21.0604 56.745 15.8916 56.745 15.8916C56.745 15.3249 56.699 14.8715 56.5838 14.5541C56.4686 14.2367 55.9156 13.2166 54.1416 13.2166C53.0358 13.2166 50.4324 13.6246 48.6123 14.6448C47.4143 15.3022 46.8613 16.0276 46.7922 16.8438C46.7461 17.3652 47.1378 18.204 48.1515 18.1813C48.7275 18.1586 49.1883 18.0226 49.603 17.6599C49.9716 17.2972 50.225 16.7984 50.2941 16.209C50.5015 14.5314 50.7319 14.1914 51.1926 13.942C51.423 13.806 51.6765 13.738 52.0221 13.738C52.3907 13.738 52.6902 13.8967 52.9206 14.214C53.0358 14.3727 53.0818 14.6221 53.1279 14.9395C53.174 15.2569 53.174 15.8009 53.174 16.4357V17.4558C52.4828 17.6599 50.1789 18.3173 48.3128 19.2921C46.7 20.1309 46.7461 21.0377 46.7461 21.3324C46.677 23.01 48.428 23.4861 49.603 23.4861C50.4784 23.4861 51.0775 23.3274 51.6304 23.0327C52.2064 22.738 52.7132 22.2619 53.197 21.6045C53.4505 22.874 54.0956 23.4634 55.2245 23.4634C55.7083 23.4634 56.2151 23.3501 56.745 23.1007C57.2289 22.8513 57.8509 22.4433 58.519 21.8765L58.4038 21.7632C58.1965 21.8765 58.0583 21.9445 57.9431 21.9899Z" />
  <path d="M108.468 14.7128C108.26 13.8514 107.892 13.4433 107.223 13.4433C106.694 13.4433 106.279 13.7607 105.979 14.4181C105.68 15.0756 105.519 15.9597 105.519 17.1839H108.606C108.675 15.8917 108.56 14.9849 108.468 14.7128ZM105.542 17.4559C105.542 19.8816 106.694 21.0378 108.928 21.0378C109.62 21.0378 110.242 20.9244 110.748 20.6297C111.255 20.335 111.693 19.9496 112.108 19.3375L112.269 19.4282C111.255 22.1713 109.62 23.5315 107.154 23.5315C103.906 23.5315 102.57 21.1285 102.293 20.5164C102.04 19.9043 101.878 19.2468 101.878 18.5214C101.878 17.796 101.994 17.0932 102.293 16.4584C102.593 15.801 102.961 15.2343 103.445 14.8035C103.929 14.3275 104.528 13.9421 105.173 13.67C105.841 13.3753 106.532 13.262 107.27 13.262C110.103 13.262 112.177 15.3929 112.177 17.4786L105.542 17.4559Z" />
  <path d="M105.081 38.4256C105.081 37.7002 105.058 32.7128 105.058 32.7128C105.058 31.0579 104.712 30.4911 103.768 30.0377C103.399 29.8563 102.086 29.607 100.796 30.2417C100.496 30.4004 100.22 30.5591 99.9201 30.8085C99.6205 31.0578 99.298 31.3299 98.9755 31.6926V25.0503C98.4916 25.209 95.0127 26.3425 93.7456 26.5465L93.7917 26.7505C93.9299 26.7732 94.0912 26.7959 94.2294 26.8412C94.4368 26.8866 94.6441 26.9772 94.8054 27.1133C94.9667 27.2493 95.1049 27.408 95.174 27.612C95.3123 27.9067 95.4044 28.2468 95.4275 28.5641C95.4505 28.8135 95.4505 29.0856 95.4505 29.3349L95.4044 39.9218H99.874V39.7178C99.8279 39.7178 99.7588 39.6951 99.6666 39.6725C99.2289 39.5591 99.0215 39.2417 98.9755 38.8563C98.9755 38.8563 98.9755 38.7657 98.9755 38.743C98.9755 38.2896 98.9755 31.9193 98.9755 31.9193C99.4593 31.5339 99.92 31.3526 100.335 31.3299C101.671 31.2619 101.487 33.1662 101.487 34.0956C101.487 34.0956 101.487 37.8815 101.487 38.811C101.487 38.879 101.487 38.947 101.464 39.015C101.441 39.1737 101.372 39.3097 101.256 39.4231C101.164 39.5364 101.026 39.6271 100.865 39.6725C100.772 39.6951 100.657 39.7405 100.565 39.7405V39.9445H106.21V39.7405C106.187 39.7405 106.048 39.6951 105.91 39.6725C105.426 39.5818 105.081 39.2644 105.081 38.4256Z" />
  <path d="M131.783 21.7406C131.622 21.3778 130.838 20.1083 128.396 20.0857C128.189 20.0857 124.618 20.1763 123.904 19.927C123.558 19.8136 123.374 19.4736 123.374 19.1108C123.374 18.9522 123.42 18.6801 123.742 18.4761C124.434 18.7255 125.24 18.8615 126.138 18.8615C128.719 18.8615 130.7 17.728 130.7 16.1184C130.7 15.597 130.493 15.0982 130.124 14.6902C130.101 14.6448 130.055 14.5995 130.032 14.5542C129.871 14.3501 129.802 14.1914 129.733 13.9874C129.663 13.7834 129.686 13.6247 129.756 13.466C129.756 13.4433 129.779 13.4433 129.779 13.4207C129.894 13.2166 130.078 13.1033 130.308 13.0579L130.493 13.0126C130.608 12.9899 130.746 12.9673 130.861 12.9219C131.046 12.8766 131.207 12.8086 131.345 12.6952C131.53 12.5592 131.668 12.4232 131.783 12.2418C131.806 12.1965 131.852 12.1285 131.875 12.0831C132.013 11.7204 132.013 11.3804 131.829 11.0403C131.668 10.7003 131.368 10.4509 130.977 10.2922C130.516 10.1108 130.055 10.1108 129.617 10.3375C129.203 10.5189 128.88 10.859 128.673 11.3577C128.465 11.8564 128.465 12.4232 128.673 12.9899C128.788 13.2846 128.972 13.602 129.203 13.9194C128.419 13.4887 127.406 13.2166 126.231 13.2166C123.65 13.2166 121.646 14.5088 121.646 16.1184C121.646 17.1385 122.406 17.9547 123.604 18.4307L123.535 18.4081C122.752 18.8161 122.13 19.2695 121.761 19.7003C121.392 20.1537 121.185 20.6297 121.185 21.1511C121.185 22.1713 121.922 22.8967 123.374 23.2141C121.968 23.6902 121.323 24.2343 121.323 24.9597C121.323 25.5265 121.738 26.0252 122.521 26.3426C123.305 26.7053 124.387 26.864 125.77 26.864C126.645 26.864 127.452 26.7733 128.235 26.5693C129.018 26.3652 129.686 26.0932 130.216 25.7532C130.792 25.3904 131.207 24.9824 131.53 24.529C132.013 23.8035 132.221 22.7154 131.783 21.7406ZM126.161 13.4207C126.876 13.4207 127.475 14.0554 127.475 15.9144C127.475 18.0907 126.899 18.4081 126.161 18.4081C125.424 18.4081 124.848 17.728 124.848 15.9144C124.848 13.9194 125.447 13.4207 126.161 13.4207ZM129.064 25.8665C128.488 26.2292 127.774 26.3879 126.876 26.3879C124.641 26.3879 123.696 25.3224 123.535 25.0957C122.982 24.2343 123.259 23.5542 123.835 23.2368C124.272 23.2368 128.534 23.1008 129.318 23.5542C129.709 23.7809 129.894 24.0756 129.894 24.529C129.871 25.0504 129.594 25.5038 129.064 25.8665Z" />
  <path d="M17.3943 9.88403C13.4086 9.88403 10.1831 12.9218 10.1831 16.685C10.1831 20.4483 13.4086 23.486 17.3943 23.486C21.38 23.486 24.6055 20.4483 24.6055 16.685C24.6055 12.9218 21.38 9.88403 17.3943 9.88403ZM20.3203 17.0024C20.3203 17.1611 20.3203 17.3198 20.2972 17.4785C20.1359 21.9898 18.8918 23.214 17.3943 23.214C15.8968 23.214 14.6757 21.9898 14.4914 17.4785C14.4684 17.3198 14.4684 17.1611 14.4684 17.0024C14.4684 16.8891 14.4684 16.7984 14.4684 16.685C14.4684 16.5717 14.4684 16.481 14.4684 16.3677C14.4684 16.209 14.4684 16.0503 14.4914 15.8916C14.6527 11.3803 15.8968 10.1561 17.3943 10.1561C18.8918 10.1561 20.1129 11.3803 20.2972 15.8916C20.3203 16.0503 20.3203 16.209 20.3203 16.3677C20.3203 16.481 20.3203 16.5717 20.3203 16.685C20.3203 16.7984 20.3203 16.9117 20.3203 17.0024Z" />
  <path d="M90.2436 17.5467C89.9441 18.3175 89.6216 18.9976 89.2529 19.587C88.8843 20.1538 87.8476 21.5366 85.8662 22.4661C85.1981 22.7608 84.553 22.9195 83.9309 22.9195C83.4702 22.9195 83.1476 22.8062 82.9863 22.5568C82.8251 22.3074 82.7329 21.8767 82.7329 21.1739V16.6172C83.6314 16.6172 84.4148 16.8666 85.0368 17.388C85.6589 17.9094 86.0736 18.6575 86.327 19.587H86.5343V13.5341H86.327C86.2348 14.3502 85.8662 14.985 85.2442 15.5291C84.576 16.0505 83.7697 16.3452 82.7329 16.4132V10.3603H83.3089C86.6726 10.3603 88.2392 13.058 88.8613 14.4863L89.0686 14.3956L88.2853 10.179H76.9501V10.383C77.1114 10.4057 77.2496 10.4283 77.3879 10.451C77.7104 10.4963 77.9869 10.6324 78.2403 10.8137C78.3555 10.9044 78.4707 11.0177 78.5398 11.1311C78.6089 11.2218 78.655 11.3351 78.6781 11.4485C78.7241 11.6072 78.7472 11.7659 78.7472 11.9472C78.7472 13.2847 78.7472 21.6273 78.7472 21.6273C78.7472 22.0127 78.5859 22.2394 78.5168 22.3301C78.4477 22.4434 78.3325 22.5568 78.2173 22.6475C77.9869 22.8062 77.7335 22.9195 77.48 22.9649C77.2957 22.9875 77.1114 23.0329 76.9041 23.0329V23.2369H90.3127V17.5467H90.2436Z" />
</svg>