<svg width="1440" height="746" viewBox="0 0 1440 746" fill="none" xmlns="http://www.w3.org/2000/svg">
<g clip-path="url(#clip0_4364_256)">
<path d="M0 154.797C121.915 162.653 162.887 130.812 215.85 94.8336C319.428 24.4726 370.743 50.8605 426.704 69.8489C482.665 88.8373 539.263 130.812 627.564 130.812C753.477 130.812 901.124 54.7649 968.328 35.8699C1125.22 -8.24207 1298.1 -0.10808 1353.06 1.8907C1397.03 3.48972 1429.34 9.21955 1440 11.8846" stroke="#F5F5F8"/>
<path d="M0 164.797C121.915 172.653 162.887 140.812 215.85 104.834C319.428 34.4726 370.743 60.8605 426.704 79.8489C482.665 98.8373 539.263 140.812 627.564 140.812C753.477 140.812 901.124 64.7649 968.328 45.8699C1125.22 1.75793 1298.1 9.89192 1353.06 11.8907C1397.03 13.4897 1429.34 19.2196 1440 21.8846" stroke="#F5F5F8"/>
<path d="M0 174.797C121.915 182.653 162.887 150.812 215.85 114.834C319.428 44.4726 370.743 70.8605 426.704 89.8489C482.665 108.837 539.263 150.812 627.564 150.812C753.477 150.812 901.124 74.7649 968.328 55.8699C1125.22 11.7579 1298.1 19.8919 1353.06 21.8907C1397.03 23.4897 1429.34 29.2196 1440 31.8846" stroke="#F5F5F8"/>
<path d="M0 184.797C121.915 192.653 162.887 160.812 215.85 124.834C319.428 54.4726 370.743 80.8605 426.704 99.8489C482.665 118.837 539.263 160.812 627.564 160.812C753.477 160.812 901.124 84.7649 968.328 65.8699C1125.22 21.7579 1298.1 29.8919 1353.06 31.8907C1397.03 33.4897 1429.34 39.2196 1440 41.8846" stroke="#F5F5F8"/>
<path d="M0 194.797C121.915 202.653 162.887 170.812 215.85 134.834C319.428 64.4726 370.743 90.8605 426.704 109.849C482.665 128.837 539.263 170.812 627.564 170.812C753.477 170.812 901.124 94.7649 968.328 75.8699C1125.22 31.7579 1298.1 39.8919 1353.06 41.8907C1397.03 43.4897 1429.34 49.2196 1440 51.8846" stroke="#F5F5F8"/>
<path d="M0 204.797C121.915 212.653 162.887 180.812 215.85 144.834C319.428 74.4726 370.743 100.86 426.704 119.849C482.665 138.837 539.263 180.812 627.564 180.812C753.477 180.812 901.124 104.765 968.328 85.8699C1125.22 41.7579 1298.1 49.8919 1353.06 51.8907C1397.03 53.4897 1429.34 59.2196 1440 61.8846" stroke="#F5F5F8"/>
<path d="M0 214.797C121.915 222.653 162.887 190.812 215.85 154.834C319.428 84.4726 370.743 110.86 426.704 129.849C482.665 148.837 539.263 190.812 627.564 190.812C753.477 190.812 901.124 114.765 968.328 95.8699C1125.22 51.7579 1298.1 59.8919 1353.06 61.8907C1397.03 63.4897 1429.34 69.2196 1440 71.8846" stroke="#F5F5F8"/>
<path d="M0 224.797C121.915 232.653 162.887 200.812 215.85 164.834C319.428 94.4726 370.743 120.86 426.704 139.849C482.665 158.837 539.263 200.812 627.564 200.812C753.477 200.812 901.124 124.765 968.328 105.87C1125.22 61.7579 1298.1 69.8919 1353.06 71.8907C1397.03 73.4897 1429.34 79.2196 1440 81.8846" stroke="#F5F5F8"/>
<path d="M0 234.797C121.915 242.653 162.887 210.812 215.85 174.834C319.428 104.473 370.743 130.86 426.704 149.849C482.665 168.837 539.263 210.812 627.564 210.812C753.477 210.812 901.124 134.765 968.328 115.87C1125.22 71.7579 1298.1 79.8919 1353.06 81.8907C1397.03 83.4897 1429.34 89.2196 1440 91.8846" stroke="#F5F5F8"/>
<path d="M0 244.797C121.915 252.653 162.887 220.812 215.85 184.834C319.428 114.473 370.743 140.86 426.704 159.849C482.665 178.837 539.263 220.812 627.564 220.812C753.477 220.812 901.124 144.765 968.328 125.87C1125.22 81.7579 1298.1 89.8919 1353.06 91.8907C1397.03 93.4897 1429.34 99.2196 1440 101.885" stroke="#F5F5F8"/>
<path d="M0 254.797C121.915 262.653 162.887 230.812 215.85 194.834C319.428 124.473 370.743 150.86 426.704 169.849C482.665 188.837 539.263 230.812 627.564 230.812C753.477 230.812 901.124 154.765 968.328 135.87C1125.22 91.7579 1298.1 99.8919 1353.06 101.891C1397.03 103.49 1429.34 109.22 1440 111.885" stroke="#F5F5F8"/>
<path d="M0 264.797C121.915 272.653 162.887 240.812 215.85 204.834C319.428 134.473 370.743 160.86 426.704 179.849C482.665 198.837 539.263 240.812 627.564 240.812C753.477 240.812 901.124 164.765 968.328 145.87C1125.22 101.758 1298.1 109.892 1353.06 111.891C1397.03 113.49 1429.34 119.22 1440 121.885" stroke="#F5F5F8"/>
<path d="M0 274.797C121.915 282.653 162.887 250.812 215.85 214.834C319.428 144.473 370.743 170.86 426.704 189.849C482.665 208.837 539.263 250.812 627.564 250.812C753.477 250.812 901.124 174.765 968.328 155.87C1125.22 111.758 1298.1 119.892 1353.06 121.891C1397.03 123.49 1429.34 129.22 1440 131.885" stroke="#F5F5F8"/>
<path d="M0 284.797C121.915 292.653 162.887 260.812 215.85 224.834C319.428 154.473 370.743 180.86 426.704 199.849C482.665 218.837 539.263 260.812 627.564 260.812C753.477 260.812 901.124 184.765 968.328 165.87C1125.22 121.758 1298.1 129.892 1353.06 131.891C1397.03 133.49 1429.34 139.22 1440 141.885" stroke="#F5F5F8"/>
<path d="M0 294.797C121.915 302.653 162.887 270.812 215.85 234.834C319.428 164.473 370.743 190.86 426.704 209.849C482.665 228.837 539.263 270.812 627.564 270.812C753.477 270.812 901.124 194.765 968.328 175.87C1125.22 131.758 1298.1 139.892 1353.06 141.891C1397.03 143.49 1429.34 149.22 1440 151.885" stroke="#F5F5F8"/>
<path d="M0 304.797C121.915 312.653 162.887 280.812 215.85 244.834C319.428 174.473 370.743 200.86 426.704 219.849C482.665 238.837 539.263 280.812 627.564 280.812C753.477 280.812 901.124 204.765 968.328 185.87C1125.22 141.758 1298.1 149.892 1353.06 151.891C1397.03 153.49 1429.34 159.22 1440 161.885" stroke="#F5F5F8"/>
<path d="M0 314.797C121.915 322.653 162.887 290.812 215.85 254.834C319.428 184.473 370.743 210.86 426.704 229.849C482.665 248.837 539.263 290.812 627.564 290.812C753.477 290.812 901.124 214.765 968.328 195.87C1125.22 151.758 1298.1 159.892 1353.06 161.891C1397.03 163.49 1429.34 169.22 1440 171.885" stroke="#F5F5F8"/>
<path d="M0 324.797C121.915 332.653 162.887 300.812 215.85 264.834C319.428 194.473 370.743 220.86 426.704 239.849C482.665 258.837 539.263 300.812 627.564 300.812C753.477 300.812 901.124 224.765 968.328 205.87C1125.22 161.758 1298.1 169.892 1353.06 171.891C1397.03 173.49 1429.34 179.22 1440 181.885" stroke="#F5F5F8"/>
<path d="M0 334.797C121.915 342.653 162.887 310.812 215.85 274.834C319.428 204.473 370.743 230.86 426.704 249.849C482.665 268.837 539.263 310.812 627.564 310.812C753.477 310.812 901.124 234.765 968.328 215.87C1125.22 171.758 1298.1 179.892 1353.06 181.891C1397.03 183.49 1429.34 189.22 1440 191.885" stroke="#F5F5F8"/>
<path d="M0 344.797C121.915 352.653 162.887 320.812 215.85 284.834C319.428 214.473 370.743 240.86 426.704 259.849C482.665 278.837 539.263 320.812 627.564 320.812C753.477 320.812 901.124 244.765 968.328 225.87C1125.22 181.758 1298.1 189.892 1353.06 191.891C1397.03 193.49 1429.34 199.22 1440 201.885" stroke="#F5F5F8"/>
<path d="M0 354.797C121.915 362.653 162.887 330.812 215.85 294.834C319.428 224.473 370.743 250.86 426.704 269.849C482.665 288.837 539.263 330.812 627.564 330.812C753.477 330.812 901.124 254.765 968.328 235.87C1125.22 191.758 1298.1 199.892 1353.06 201.891C1397.03 203.49 1429.34 209.22 1440 211.885" stroke="#F5F5F8"/>
<path d="M0 364.797C121.915 372.653 162.887 340.812 215.85 304.834C319.428 234.473 370.743 260.86 426.704 279.849C482.665 298.837 539.263 340.812 627.564 340.812C753.477 340.812 901.124 264.765 968.328 245.87C1125.22 201.758 1298.1 209.892 1353.06 211.891C1397.03 213.49 1429.34 219.22 1440 221.885" stroke="#F5F5F8"/>
<path d="M0 374.797C121.915 382.653 162.887 350.812 215.85 314.834C319.428 244.473 370.743 270.86 426.704 289.849C482.665 308.837 539.263 350.812 627.564 350.812C753.477 350.812 901.124 274.765 968.328 255.87C1125.22 211.758 1298.1 219.892 1353.06 221.891C1397.03 223.49 1429.34 229.22 1440 231.885" stroke="#F5F5F8"/>
<path d="M0 384.797C121.915 392.653 162.887 360.812 215.85 324.834C319.428 254.473 370.743 280.86 426.704 299.849C482.665 318.837 539.263 360.812 627.564 360.812C753.477 360.812 901.124 284.765 968.328 265.87C1125.22 221.758 1298.1 229.892 1353.06 231.891C1397.03 233.49 1429.34 239.22 1440 241.885" stroke="#F5F5F8"/>
<path d="M0 394.797C121.915 402.653 162.887 370.812 215.85 334.834C319.428 264.473 370.743 290.86 426.704 309.849C482.665 328.837 539.263 370.812 627.564 370.812C753.477 370.812 901.124 294.765 968.328 275.87C1125.22 231.758 1298.1 239.892 1353.06 241.891C1397.03 243.49 1429.34 249.22 1440 251.885" stroke="#F5F5F8"/>
<path d="M0 404.797C121.915 412.653 162.887 380.812 215.85 344.834C319.428 274.473 370.743 300.86 426.704 319.849C482.665 338.837 539.263 380.812 627.564 380.812C753.477 380.812 901.124 304.765 968.328 285.87C1125.22 241.758 1298.1 249.892 1353.06 251.891C1397.03 253.49 1429.34 259.22 1440 261.885" stroke="#F5F5F8"/>
<path d="M0 414.797C121.915 422.653 162.887 390.812 215.85 354.834C319.428 284.473 370.743 310.86 426.704 329.849C482.665 348.837 539.263 390.812 627.564 390.812C753.477 390.812 901.124 314.765 968.328 295.87C1125.22 251.758 1298.1 259.892 1353.06 261.891C1397.03 263.49 1429.34 269.22 1440 271.885" stroke="#F5F5F8"/>
<path d="M0 424.797C121.915 432.653 162.887 400.812 215.85 364.834C319.428 294.473 370.743 320.86 426.704 339.849C482.665 358.837 539.263 400.812 627.564 400.812C753.477 400.812 901.124 324.765 968.328 305.87C1125.22 261.758 1298.1 269.892 1353.06 271.891C1397.03 273.49 1429.34 279.22 1440 281.885" stroke="#F5F5F8"/>
<path d="M0 434.797C121.915 442.653 162.887 410.812 215.85 374.834C319.428 304.473 370.743 330.86 426.704 349.849C482.665 368.837 539.263 410.812 627.564 410.812C753.477 410.812 901.124 334.765 968.328 315.87C1125.22 271.758 1298.1 279.892 1353.06 281.891C1397.03 283.49 1429.34 289.22 1440 291.885" stroke="#F5F5F8"/>
<path d="M0 444.797C121.915 452.653 162.887 420.812 215.85 384.834C319.428 314.473 370.743 340.86 426.704 359.849C482.665 378.837 539.263 420.812 627.564 420.812C753.477 420.812 901.124 344.765 968.328 325.87C1125.22 281.758 1298.1 289.892 1353.06 291.891C1397.03 293.49 1429.34 299.22 1440 301.885" stroke="#F5F5F8"/>
<path d="M0 454.797C121.915 462.653 162.887 430.812 215.85 394.834C319.428 324.473 370.743 350.86 426.704 369.849C482.665 388.837 539.263 430.812 627.564 430.812C753.477 430.812 901.124 354.765 968.328 335.87C1125.22 291.758 1298.1 299.892 1353.06 301.891C1397.03 303.49 1429.34 309.22 1440 311.885" stroke="#F5F5F8"/>
<path d="M0 464.797C121.915 472.653 162.887 440.812 215.85 404.834C319.428 334.473 370.743 360.86 426.704 379.849C482.665 398.837 539.263 440.812 627.564 440.812C753.477 440.812 901.124 364.765 968.328 345.87C1125.22 301.758 1298.1 309.892 1353.06 311.891C1397.03 313.49 1429.34 319.22 1440 321.885" stroke="#F5F5F8"/>
<path d="M0 474.797C121.915 482.653 162.887 450.812 215.85 414.834C319.428 344.473 370.743 370.86 426.704 389.849C482.665 408.837 539.263 450.812 627.564 450.812C753.477 450.812 901.124 374.765 968.328 355.87C1125.22 311.758 1298.1 319.892 1353.06 321.891C1397.03 323.49 1429.34 329.22 1440 331.885" stroke="#F5F5F8"/>
<path d="M0 484.797C121.915 492.653 162.887 460.812 215.85 424.834C319.428 354.473 370.743 380.86 426.704 399.849C482.665 418.837 539.263 460.812 627.564 460.812C753.477 460.812 901.124 384.765 968.328 365.87C1125.22 321.758 1298.1 329.892 1353.06 331.891C1397.03 333.49 1429.34 339.22 1440 341.885" stroke="#F5F5F8"/>
<path d="M0 494.797C121.915 502.653 162.887 470.812 215.85 434.834C319.428 364.473 370.743 390.86 426.704 409.849C482.665 428.837 539.263 470.812 627.564 470.812C753.477 470.812 901.124 394.765 968.328 375.87C1125.22 331.758 1298.1 339.892 1353.06 341.891C1397.03 343.49 1429.34 349.22 1440 351.885" stroke="#F5F5F8"/>
<path d="M0 504.797C121.915 512.653 162.887 480.812 215.85 444.834C319.428 374.473 370.743 400.86 426.704 419.849C482.665 438.837 539.263 480.812 627.564 480.812C753.477 480.812 901.124 404.765 968.328 385.87C1125.22 341.758 1298.1 349.892 1353.06 351.891C1397.03 353.49 1429.34 359.22 1440 361.885" stroke="#F5F5F8"/>
<path d="M0 514.797C121.915 522.653 162.887 490.812 215.85 454.834C319.428 384.473 370.743 410.86 426.704 429.849C482.665 448.837 539.263 490.812 627.564 490.812C753.477 490.812 901.124 414.765 968.328 395.87C1125.22 351.758 1298.1 359.892 1353.06 361.891C1397.03 363.49 1429.34 369.22 1440 371.885" stroke="#F5F5F8"/>
<path d="M0 524.797C121.915 532.653 162.887 500.812 215.85 464.834C319.428 394.473 370.743 420.86 426.704 439.849C482.665 458.837 539.263 500.812 627.564 500.812C753.477 500.812 901.124 424.765 968.328 405.87C1125.22 361.758 1298.1 369.892 1353.06 371.891C1397.03 373.49 1429.34 379.22 1440 381.885" stroke="#F5F5F8"/>
<path d="M0 534.797C121.915 542.653 162.887 510.812 215.85 474.834C319.428 404.473 370.743 430.86 426.704 449.849C482.665 468.837 539.263 510.812 627.564 510.812C753.477 510.812 901.124 434.765 968.328 415.87C1125.22 371.758 1298.1 379.892 1353.06 381.891C1397.03 383.49 1429.34 389.22 1440 391.885" stroke="#F5F5F8"/>
<path d="M0 544.797C121.915 552.653 162.887 520.812 215.85 484.834C319.428 414.473 370.743 440.86 426.704 459.849C482.665 478.837 539.263 520.812 627.564 520.812C753.477 520.812 901.124 444.765 968.328 425.87C1125.22 381.758 1298.1 389.892 1353.06 391.891C1397.03 393.49 1429.34 399.22 1440 401.885" stroke="#F5F5F8"/>
<path d="M0 554.797C121.915 562.653 162.887 530.812 215.85 494.834C319.428 424.473 370.743 450.86 426.704 469.849C482.665 488.837 539.263 530.812 627.564 530.812C753.477 530.812 901.124 454.765 968.328 435.87C1125.22 391.758 1298.1 399.892 1353.06 401.891C1397.03 403.49 1429.34 409.22 1440 411.885" stroke="#F5F5F8"/>
<path d="M0 564.797C121.915 572.653 162.887 540.812 215.85 504.834C319.428 434.473 370.743 460.86 426.704 479.849C482.665 498.837 539.263 540.812 627.564 540.812C753.477 540.812 901.124 464.765 968.328 445.87C1125.22 401.758 1298.1 409.892 1353.06 411.891C1397.03 413.49 1429.34 419.22 1440 421.885" stroke="#F5F5F8"/>
<path d="M0 574.797C121.915 582.653 162.887 550.812 215.85 514.834C319.428 444.473 370.743 470.86 426.704 489.849C482.665 508.837 539.263 550.812 627.564 550.812C753.477 550.812 901.124 474.765 968.328 455.87C1125.22 411.758 1298.1 419.892 1353.06 421.891C1397.03 423.49 1429.34 429.22 1440 431.885" stroke="#F5F5F8"/>
<path d="M0 584.797C121.915 592.653 162.887 560.812 215.85 524.834C319.428 454.473 370.743 480.86 426.704 499.849C482.665 518.837 539.263 560.812 627.564 560.812C753.477 560.812 901.124 484.765 968.328 465.87C1125.22 421.758 1298.1 429.892 1353.06 431.891C1397.03 433.49 1429.34 439.22 1440 441.885" stroke="#F5F5F8"/>
<path d="M0 594.797C121.915 602.653 162.887 570.812 215.85 534.834C319.428 464.473 370.743 490.86 426.704 509.849C482.665 528.837 539.263 570.812 627.564 570.812C753.477 570.812 901.124 494.765 968.328 475.87C1125.22 431.758 1298.1 439.892 1353.06 441.891C1397.03 443.49 1429.34 449.22 1440 451.885" stroke="#F5F5F8"/>
<path d="M0 604.797C121.915 612.653 162.887 580.812 215.85 544.834C319.428 474.473 370.743 500.86 426.704 519.849C482.665 538.837 539.263 580.812 627.564 580.812C753.477 580.812 901.124 504.765 968.328 485.87C1125.22 441.758 1298.1 449.892 1353.06 451.891C1397.03 453.49 1429.34 459.22 1440 461.885" stroke="#F5F5F8"/>
<path d="M0 614.797C121.915 622.653 162.887 590.812 215.85 554.834C319.428 484.473 370.743 510.86 426.704 529.849C482.665 548.837 539.263 590.812 627.564 590.812C753.477 590.812 901.124 514.765 968.328 495.87C1125.22 451.758 1298.1 459.892 1353.06 461.891C1397.03 463.49 1429.34 469.22 1440 471.885" stroke="#F5F5F8"/>
<path d="M0 624.797C121.915 632.653 162.887 600.812 215.85 564.834C319.428 494.473 370.743 520.86 426.704 539.849C482.665 558.837 539.263 600.812 627.564 600.812C753.477 600.812 901.124 524.765 968.328 505.87C1125.22 461.758 1298.1 469.892 1353.06 471.891C1397.03 473.49 1429.34 479.22 1440 481.885" stroke="#F5F5F8"/>
<path d="M0 634.797C121.915 642.653 162.887 610.812 215.85 574.834C319.428 504.473 370.743 530.86 426.704 549.849C482.665 568.837 539.263 610.812 627.564 610.812C753.477 610.812 901.124 534.765 968.328 515.87C1125.22 471.758 1298.1 479.892 1353.06 481.891C1397.03 483.49 1429.34 489.22 1440 491.885" stroke="#F5F5F8"/>
<path d="M0 644.797C121.915 652.653 162.887 620.812 215.85 584.834C319.428 514.473 370.743 540.86 426.704 559.849C482.665 578.837 539.263 620.812 627.564 620.812C753.477 620.812 901.124 544.765 968.328 525.87C1125.22 481.758 1298.1 489.892 1353.06 491.891C1397.03 493.49 1429.34 499.22 1440 501.885" stroke="#F5F5F8"/>
<path d="M0 654.797C121.915 662.653 162.887 630.812 215.85 594.834C319.428 524.473 370.743 550.86 426.704 569.849C482.665 588.837 539.263 630.812 627.564 630.812C753.477 630.812 901.124 554.765 968.328 535.87C1125.22 491.758 1298.1 499.892 1353.06 501.891C1397.03 503.49 1429.34 509.22 1440 511.885" stroke="#F5F5F8"/>
<path d="M0 664.797C121.915 672.653 162.887 640.812 215.85 604.834C319.428 534.473 370.743 560.86 426.704 579.849C482.665 598.837 539.263 640.812 627.564 640.812C753.477 640.812 901.124 564.765 968.328 545.87C1125.22 501.758 1298.1 509.892 1353.06 511.891C1397.03 513.49 1429.34 519.22 1440 521.885" stroke="#F5F5F8"/>
<path d="M0 674.797C121.915 682.653 162.887 650.812 215.85 614.834C319.428 544.473 370.743 570.86 426.704 589.849C482.665 608.837 539.263 650.812 627.564 650.812C753.477 650.812 901.124 574.765 968.328 555.87C1125.22 511.758 1298.1 519.892 1353.06 521.891C1397.03 523.49 1429.34 529.22 1440 531.885" stroke="#F5F5F8"/>
<path d="M0 684.797C121.915 692.653 162.887 660.812 215.85 624.834C319.428 554.473 370.743 580.86 426.704 599.849C482.665 618.837 539.263 660.812 627.564 660.812C753.477 660.812 901.124 584.765 968.328 565.87C1125.22 521.758 1298.1 529.892 1353.06 531.891C1397.03 533.49 1429.34 539.22 1440 541.885" stroke="#F5F5F8"/>
<path d="M0 694.797C121.915 702.653 162.887 670.812 215.85 634.834C319.428 564.473 370.743 590.86 426.704 609.849C482.665 628.837 539.263 670.812 627.564 670.812C753.477 670.812 901.124 594.765 968.328 575.87C1125.22 531.758 1298.1 539.892 1353.06 541.891C1397.03 543.49 1429.34 549.22 1440 551.885" stroke="#F5F5F8"/>
<path d="M0 704.797C121.915 712.653 162.887 680.812 215.85 644.834C319.428 574.473 370.743 600.86 426.704 619.849C482.665 638.837 539.263 680.812 627.564 680.812C753.477 680.812 901.124 604.765 968.328 585.87C1125.22 541.758 1298.1 549.892 1353.06 551.891C1397.03 553.49 1429.34 559.22 1440 561.885" stroke="#F5F5F8"/>
<path d="M0 714.797C121.915 722.653 162.887 690.812 215.85 654.834C319.428 584.473 370.743 610.86 426.704 629.849C482.665 648.837 539.263 690.812 627.564 690.812C753.477 690.812 901.124 614.765 968.328 595.87C1125.22 551.758 1298.1 559.892 1353.06 561.891C1397.03 563.49 1429.34 569.22 1440 571.885" stroke="#F5F5F8"/>
<path d="M0 724.797C121.915 732.653 162.887 700.812 215.85 664.834C319.428 594.473 370.743 620.86 426.704 639.849C482.665 658.837 539.263 700.812 627.564 700.812C753.477 700.812 901.124 624.765 968.328 605.87C1125.22 561.758 1298.1 569.892 1353.06 571.891C1397.03 573.49 1429.34 579.22 1440 581.885" stroke="#F5F5F8"/>
<path d="M0 734.797C121.915 742.653 162.887 710.812 215.85 674.834C319.428 604.473 370.743 630.86 426.704 649.849C482.665 668.837 539.263 710.812 627.564 710.812C753.477 710.812 901.124 634.765 968.328 615.87C1125.22 571.758 1298.1 579.892 1353.06 581.891C1397.03 583.49 1429.34 589.22 1440 591.885" stroke="#F5F5F8"/>
<path d="M0 744.797C121.915 752.653 162.887 720.812 215.85 684.834C319.428 614.473 370.743 640.86 426.704 659.849C482.665 678.837 539.263 720.812 627.564 720.812C753.477 720.812 901.124 644.765 968.328 625.87C1125.22 581.758 1298.1 589.892 1353.06 591.891C1397.03 593.49 1429.34 599.22 1440 601.885" stroke="#F5F5F8"/>
</g>
<defs>
<clipPath id="clip0_4364_256">
<rect width="1440" height="746" fill="white"/>
</clipPath>
</defs>
</svg>
