<svg width="326" height="1150" viewBox="0 0 326 1150" fill="none" xmlns="http://www.w3.org/2000/svg">
<g clip-path="url(#clip0_997_569)">
<path d="M114 -216L0.608643 -268.606L114 -216ZM1259 228.5L1196.77 336.909L1259 228.5ZM1840 360.351L1924.43 452.525C1961.33 418.731 1974.51 366.194 1957.96 318.982C1941.4 271.771 1898.28 238.979 1848.37 235.631L1840 360.351ZM1497 942.851L1577.85 847.517L1497 942.851ZM-514.469 262.059C-408.261 254.794 -262.254 224.172 -125.155 160.932C10.8011 98.2188 153.407 -3.92184 227.391 -163.394L0.608643 -268.606C-38.6069 -184.078 -121.918 -115.876 -229.87 -66.0808C-336.679 -16.8125 -452.572 7.24091 -531.531 12.6422L-514.469 262.059ZM227.391 -163.394C237.254 -184.652 245.267 -190.048 247.046 -191.15C248.638 -192.135 254.258 -195.359 270.457 -194.745C309.928 -193.251 374.782 -170.999 472.932 -117.072C567.506 -65.1096 675.55 6.03537 799.055 87.2761C920.795 167.356 1055.37 255.74 1196.77 336.909L1321.23 120.091C1187.38 43.2604 1058.89 -41.0425 936.445 -121.588C815.762 -200.972 698.494 -278.39 593.317 -336.178C491.718 -392 382.385 -440.686 279.918 -444.566C225.148 -446.64 167.862 -436.161 115.446 -403.709C63.2176 -371.373 26.1213 -323.598 0.608643 -268.606L227.391 -163.394ZM1196.77 336.909C1313.38 403.846 1455.58 438.404 1571.28 457.553C1689.04 477.044 1791.93 482.407 1831.63 485.071L1848.37 235.631C1806.07 232.795 1715.71 228.057 1612.1 210.908C1506.42 193.419 1399.12 164.802 1321.23 120.091L1196.77 336.909ZM1755.57 268.177C1660.68 355.092 1530.93 478.224 1443.12 598.221C1400.03 657.116 1358.59 726.339 1342.25 797.924C1324.27 876.651 1335.82 970.061 1416.15 1038.18L1577.85 847.517C1577.82 847.496 1578.18 847.792 1578.76 848.454C1579.35 849.121 1580.08 850.059 1580.85 851.266C1582.49 853.84 1583.63 856.598 1584.26 859.021C1585.47 863.658 1583.83 862.957 1585.97 853.575C1590.91 831.956 1608.35 795.774 1644.88 745.856C1716.32 648.228 1828.82 540.11 1924.43 452.525L1755.57 268.177ZM1416.15 1038.18C1483.68 1095.46 1568.09 1098.74 1630.51 1090.98C1695.73 1082.88 1763.61 1059.69 1825.25 1032.99C1949.44 979.212 2074.91 899.388 2153.14 842.359L2005.86 640.343C1937.09 690.481 1827.91 759.406 1725.9 803.583C1674.44 825.869 1631.33 838.958 1599.69 842.891C1565.25 847.171 1566.92 838.246 1577.85 847.517L1416.15 1038.18Z" fill="#FF4F58"/>
</g>
<defs>
<clipPath id="clip0_997_569">
<rect width="326" height="1150" fill="white"/>
</clipPath>
</defs>
</svg>
