<svg width="1728" height="1023" viewBox="0 0 1728 1023" fill="none" xmlns="http://www.w3.org/2000/svg">
<path opacity="0.2" d="M-462.456 33.3131L-284.975 60.3568C-190.001 74.8413 -90.4436 55.8648 -21.9633 10.3946C66.4102 -48.4599 203.829 -61.3859 313.838 -21.1412L398.544 9.84457C481.509 40.1886 582.35 40.8303 666.232 11.5864L909.259 -73.1202C937.219 -82.8376 967.38 -89.4381 998.641 -92.555L1182.45 -110.798L1366.25 -129.041C1469.75 -139.309 1573.44 -110.89 1634.95 -55.3355L1662.45 -30.4919C1736.25 36.2466 1868.81 62.557 1986.61 33.8631L2156.39 -7.48177C2243.11 -28.5667 2340.47 -8.49017 2393.27 41.2887M-462.456 39.7302L-284.975 66.774C-190.001 81.2584 -90.4436 62.282 -21.9633 16.8118C66.4102 -42.0428 203.829 -54.9688 313.838 -14.724L398.544 16.2617C481.509 46.6058 582.35 47.2475 666.232 18.0035L909.259 -66.703C937.219 -76.4205 967.38 -83.021 998.641 -86.1379L1366.16 -122.716C1469.66 -132.983 1573.34 -104.564 1634.86 -49.01L1662.36 -24.1664C1736.16 42.5721 1868.72 68.8825 1986.52 40.1886L2156.3 -1.15629C2243.02 -22.2413 2340.38 -2.16469 2393.18 47.6142M-462.456 46.2391L-284.975 73.2828C-190.001 87.7673 -90.4436 68.7908 -21.9633 23.3206C66.4102 -35.5339 203.829 -48.4599 313.838 -8.21515L398.453 22.7706C481.417 53.1146 582.259 53.7563 666.14 24.5124L909.167 -60.1942C937.128 -69.9116 967.289 -76.5121 998.549 -79.629L1366.07 -116.207C1469.57 -126.474 1573.25 -98.0555 1634.77 -42.5012L1662.27 -17.6576C1736.06 49.081 1868.62 75.3913 1986.43 46.6974L2156.21 5.35256C2242.93 -15.7324 2340.29 4.34416 2393.09 54.123M-462.456 52.7479L-284.975 79.7917C-190.001 94.2761 -90.4436 75.2997 -21.9633 29.8295C66.4102 -29.0251 203.829 -41.9511 313.838 -1.70633L398.453 29.1877C481.417 59.5318 582.259 60.1735 666.14 30.9295L909.167 -53.777C937.128 -63.4944 967.289 -70.095 998.549 -73.2119L1366.07 -109.79C1469.57 -120.057 1573.25 -91.6383 1634.77 -36.084L1662.27 -11.2404C1736.06 55.4981 1868.62 81.8085 1986.43 53.1146L2156.21 11.7697C2242.93 -9.31525 2340.29 10.7613 2393.09 60.5402M-462.456 59.1651L-284.975 86.2088C-190.001 100.693 -90.4436 81.7168 -21.9633 36.2466C66.4102 -22.6079 203.829 -35.534 313.838 4.71083L398.544 35.6966C481.509 66.0406 582.35 66.6823 666.232 37.4384L909.259 -47.2682C937.219 -56.9856 967.38 -63.5861 998.641 -66.703L1366.16 -103.281C1469.66 -113.548 1573.34 -85.1295 1634.86 -29.5752L1662.36 -4.73156C1736.16 62.007 1868.72 88.3173 1986.52 59.6234L2156.3 18.2786C2243.02 -2.8064 2340.38 17.2701 2393.18 67.049M-462.456 65.6739L-284.975 92.7177C-190.001 107.202 -90.4436 88.2256 -21.9633 42.7554C66.4102 -16.0991 203.829 -29.0251 313.838 11.2197L398.544 42.2054C481.509 72.5494 582.35 73.1912 666.232 43.9472L909.259 -40.7593C937.219 -50.4768 967.38 -57.0773 998.641 -60.1942L1366.16 -96.772C1469.66 -107.039 1573.34 -78.6206 1634.86 -23.0663L1662.36 1.77729C1736.16 68.5158 1868.72 94.8262 1986.52 66.1323L2156.3 24.7874C2243.02 3.70244 2340.38 23.779 2393.18 73.5578M-462.456 72.1827L-284.975 99.2265C-190.001 113.711 -90.4436 94.7345 -21.9633 49.2643C66.4102 -9.59027 203.829 -22.5163 313.838 17.7285L398.544 48.7142C481.509 79.0583 582.35 79.7 666.232 50.4561L909.259 -34.2505C937.219 -43.9679 967.38 -50.5684 998.641 -53.6853L1366.16 -90.2632C1469.66 -100.531 1573.34 -72.1118 1634.86 -16.5575L1662.36 8.28613C1736.16 75.0246 1868.72 101.335 1986.52 72.6411L2156.3 31.2962C2243.02 10.2113 2340.38 30.2878 2393.18 80.0667M-462.456 78.5999L-284.975 105.644C-190.001 120.128 -90.4436 101.152 -21.9633 55.6815C66.4102 -3.17311 203.829 -16.0991 313.838 24.1457L398.544 55.1314C481.509 85.4754 582.35 86.1172 666.232 56.8732L909.259 -27.8334C937.219 -37.5508 967.38 -44.1513 998.641 -47.2682L1366.16 -83.846C1469.66 -94.1135 1573.34 -65.6946 1634.86 -10.1403L1662.36 14.7033C1736.16 81.4418 1868.72 107.752 1986.52 79.0583L2156.3 37.7134C2243.02 16.6284 2340.38 36.705 2393.18 86.4839M-462.456 85.1087L-284.975 112.152C-190.001 126.637 -90.4436 107.66 -21.9633 62.1903C66.4102 3.33574 203.829 -9.59026 313.838 30.6545L398.544 61.6403C481.509 91.9843 582.35 92.626 666.232 63.382L909.259 -21.3245C937.219 -31.0419 967.38 -37.6424 998.641 -40.7593L1366.16 -77.3372C1469.66 -87.6047 1573.34 -59.1858 1634.86 -3.63146L1662.36 21.2121C1736.16 87.9506 1868.72 114.261 1986.52 85.5671L2156.3 44.2222C2243.02 23.1373 2340.38 43.2138 2393.18 92.9927M-462.456 91.5259L-284.975 118.57C-190.001 133.054 -90.4436 114.078 -21.9633 68.6075C66.4102 9.7529 203.829 -3.1731 313.838 37.0717L398.544 68.0574C481.509 98.4014 582.35 99.0431 666.232 69.7992L909.259 -14.9073C937.219 -24.6248 967.38 -31.2253 998.641 -34.3422L1366.16 -70.92C1469.66 -81.1875 1573.34 -52.7686 1634.86 2.7857L1662.36 27.6293C1736.16 94.3678 1868.72 120.678 1986.52 91.9843L2156.3 50.6394C2243.02 29.5544 2340.38 49.631 2393.18 99.4099M-462.456 98.0348L-284.975 125.079C-190.001 139.563 -90.4436 120.587 -21.9633 75.1163C66.4102 16.2617 203.829 3.33574 313.838 43.5805L398.544 74.5663C481.509 104.91 582.35 105.552 666.232 76.3081L909.167 -8.39851C937.128 -18.1159 967.289 -24.7164 998.549 -27.8334L1366.07 -64.4112C1469.57 -74.6786 1573.25 -46.2598 1634.77 9.29452L1662.27 34.1381C1736.06 100.877 1868.62 127.187 1986.43 98.4931L2156.21 57.1482C2242.93 36.0633 2340.29 56.1398 2393.09 105.919M-462.456 104.544L-284.975 131.587C-190.001 146.072 -90.4436 127.095 -21.9633 81.6252C66.4102 22.7706 203.829 9.84456 313.838 50.0894L398.544 81.0751C481.509 111.419 582.35 112.061 666.232 82.8169L909.167 -1.98134C937.128 -11.6988 967.289 -18.2993 998.549 -21.4162L1366.07 -57.994C1469.57 -68.2615 1573.25 -39.8426 1634.77 15.7117L1662.27 40.5553C1736.06 107.294 1868.62 133.604 1986.43 104.91L2156.21 63.5654C2242.93 42.4804 2340.29 62.557 2393.09 112.336M-462.456 110.961L-284.975 138.005C-190.001 152.489 -90.4436 133.513 -21.9633 88.0423C66.4102 29.1878 203.829 16.2617 313.838 56.5065L398.544 87.4923C481.509 117.836 582.35 118.478 666.232 89.2341L909.259 4.5275C937.219 -5.18992 967.38 -11.7904 998.641 -14.9073L1366.16 -51.4852C1469.66 -61.7526 1573.34 -33.3338 1634.86 22.2205L1662.36 47.0641C1736.16 113.803 1868.72 140.113 1986.52 111.419L2156.3 70.0743C2243.02 48.9893 2340.38 69.0659 2393.18 118.845M-462.456 117.47L-284.975 144.513C-190.001 158.998 -90.4436 140.021 -21.9633 94.5511C66.4102 35.6966 203.829 22.7706 313.838 63.0154L398.544 94.0011C481.509 124.345 582.35 124.987 666.232 95.7429L909.259 11.0363C937.219 1.31892 967.38 -5.2816 998.641 -8.39851L1366.16 -44.9763C1469.66 -55.2438 1573.34 -26.8249 1634.86 28.7294L1662.36 53.573C1736.16 120.311 1868.72 146.622 1986.52 117.928L2156.3 76.5831C2243.02 55.4981 2340.38 75.5747 2393.18 125.354M-462.456 123.978L-284.975 151.022C-190.001 165.507 -90.4436 146.53 -21.9633 101.06C66.4102 42.2054 203.829 29.2794 313.838 69.5242L398.544 100.51C481.509 130.854 582.35 131.496 666.232 102.252L909.259 17.5452C937.219 7.82774 967.38 1.22724 998.641 -1.88967L1366.16 -38.4675C1469.66 -48.735 1573.34 -20.3161 1634.86 35.2382L1662.36 60.0818C1736.16 126.82 1868.72 153.131 1986.52 124.437L2156.3 83.0919C2243.02 62.0069 2340.38 82.0835 2393.18 131.862M-462.456 130.396L-284.975 157.439C-190.001 171.924 -90.4436 152.947 -21.9633 107.477C66.4102 48.6226 203.829 35.6966 313.838 75.9414L398.544 106.927C481.509 137.271 582.35 137.913 666.232 108.669L909.259 23.9623C937.219 14.2449 967.38 7.64441 998.641 4.5275L1366.16 -32.0503C1469.66 -42.3178 1573.34 -13.8989 1634.86 41.6554L1662.36 66.499C1736.16 133.237 1868.72 159.548 1986.52 130.854L2156.3 89.5091C2243.02 68.4241 2340.38 88.5006 2393.18 138.28M-462.456 136.904L-284.975 163.948C-190.001 178.433 -90.4436 159.456 -21.9633 113.986C66.4102 55.1314 203.829 42.2054 313.838 82.4502L398.544 113.436C481.509 143.78 582.35 144.422 666.232 115.178L909.259 30.4712C937.219 20.7537 967.38 14.1533 998.641 11.0363L1366.16 -25.5415C1469.66 -35.809 1573.34 -7.39008 1634.86 48.1642L1662.36 73.0078C1736.16 139.746 1868.72 166.057 1986.52 137.363L2156.3 96.0179C2243.02 74.933 2340.38 95.0095 2393.18 144.788M-462.456 143.413L-284.975 170.457C-190.001 184.941 -90.4436 165.965 -21.9633 120.495C66.4102 61.6403 203.829 48.7143 313.838 88.9591L398.544 119.945C481.509 150.289 582.35 150.931 666.232 121.687L909.259 36.98C937.219 27.2626 967.38 20.6621 998.641 17.5452L1366.16 -19.0327C1469.66 -29.3001 1573.34 -0.881269 1634.86 54.673L1662.36 79.5166C1736.16 146.255 1868.72 172.566 1986.52 143.872L2156.3 102.527C2243.02 81.4418 2340.38 101.518 2393.18 151.297M-462.456 149.83L-284.975 176.874C-190.001 191.359 -90.4436 172.382 -21.9633 126.912C66.4102 68.0574 203.829 55.1314 313.838 95.3762L398.453 126.362C481.417 156.706 582.259 157.348 666.14 128.104L909.167 43.3972C937.128 33.6798 967.289 27.0792 998.549 23.9623L1366.07 -12.6155C1469.57 -22.883 1573.25 5.5359 1634.77 61.0902L1662.27 85.9338C1736.06 152.672 1868.62 178.983 1986.43 150.289L2156.21 108.944C2242.93 87.8589 2340.29 107.936 2393.09 157.714M-462.456 156.339L-284.975 183.383C-190.001 197.867 -90.4436 178.891 -21.9633 133.421C66.4102 74.5662 203.829 61.6402 313.838 101.885L398.453 132.779C481.417 163.123 582.259 163.765 666.14 134.521L909.167 49.8143C937.128 40.0969 967.289 33.4964 998.549 30.3795L1366.07 -6.19834C1469.57 -16.4658 1573.25 11.9531 1634.77 67.5074L1662.27 92.351C1736.06 159.089 1868.62 185.4 1986.43 156.706L2156.21 115.361C2242.93 94.2761 2340.29 114.353 2393.09 164.132M-462.456 162.756L-284.975 189.8C-190.001 204.285 -90.4436 185.308 -21.9633 139.838C66.4102 80.9834 203.829 68.0574 313.838 108.302L398.544 139.288C481.509 169.632 582.35 170.274 666.232 141.03L909.259 56.3232C937.219 46.6058 967.38 40.0052 998.641 36.8883L1366.16 0.3105C1469.66 -9.95696 1573.34 18.4619 1634.86 74.0162L1662.36 98.8598C1736.16 165.598 1868.72 191.909 1986.52 163.215L2156.3 121.87C2243.02 100.785 2340.38 120.862 2393.18 170.64M-462.456 169.265L-284.975 196.309C-190.001 210.794 -90.4436 191.817 -21.9633 146.347C66.4102 87.4923 203.829 74.5663 313.838 114.811L398.544 145.797C481.509 176.141 582.35 176.783 666.232 147.539L909.259 62.832C937.219 53.1146 967.38 46.5141 998.641 43.3972L1366.16 6.81934C1469.66 -3.44812 1573.34 24.9707 1634.86 80.5251L1662.36 105.369C1736.16 172.107 1868.72 198.418 1986.52 169.724L2156.3 128.379C2243.02 107.294 2340.38 127.37 2393.18 177.149M-462.456 175.774L-284.975 202.818C-190.001 217.302 -90.4436 198.326 -21.9633 152.856C66.4102 94.0011 203.829 81.0751 313.838 121.32L398.544 152.306C481.509 182.65 582.35 183.291 666.232 154.047L909.259 69.3408C937.219 59.6234 967.38 53.0229 998.641 49.906L1366.16 13.3282C1469.66 3.06072 1573.34 31.4796 1634.86 87.0339L1662.36 111.877C1736.16 178.616 1868.72 204.926 1986.52 176.232L2156.3 134.888C2243.02 113.803 2340.38 133.879 2393.18 183.658M-462.456 182.191L-284.975 209.235C-190.001 223.719 -90.4436 204.743 -21.9633 159.273C66.4102 100.418 203.829 87.4922 313.838 127.737L398.544 158.723C481.509 189.067 582.35 189.709 666.232 160.465L909.259 75.758C937.219 66.0406 967.38 59.4401 998.641 56.3232L1366.16 19.7454C1469.66 9.47789 1573.34 37.8968 1634.86 93.4511L1662.36 118.295C1736.16 185.033 1868.72 211.344 1986.52 182.65L2156.3 141.305C2243.02 120.22 2340.38 140.296 2393.18 190.075M-462.456 188.7L-284.975 215.744C-190.001 230.228 -90.4436 211.252 -21.9633 165.782C66.4102 106.927 203.829 94.0011 313.838 134.246L398.544 165.232C481.509 195.576 582.35 196.217 666.232 166.973L909.259 82.2669C937.219 72.5494 967.38 65.9489 998.641 62.832L1366.16 26.2542C1469.66 15.9867 1573.34 44.4056 1634.86 99.9599L1662.36 124.804C1736.16 191.542 1868.72 217.852 1986.52 189.158L2156.3 147.814C2243.02 126.729 2340.38 146.805 2393.18 196.584M-462.456 195.209L-284.975 222.253C-190.001 236.737 -90.4436 217.761 -21.9633 172.291C66.4102 113.436 203.829 100.51 313.838 140.755L398.544 171.74C481.509 202.084 582.35 202.726 666.232 173.482L909.259 88.7757C937.219 79.0583 967.38 72.4578 998.641 69.3408L1366.16 32.763C1469.66 22.4955 1573.34 50.9144 1634.86 106.469L1662.36 131.312C1736.16 198.051 1868.72 224.361 1986.52 195.667L2156.3 154.322C2243.02 133.237 2340.38 153.314 2393.18 203.093M-462.456 201.626L-284.975 228.67C-190.001 243.154 -90.4436 224.178 -21.9633 178.708C66.4102 119.853 203.829 106.927 313.838 147.172L398.544 178.158C481.509 208.502 582.35 209.143 666.232 179.899L909.167 95.1929C937.128 85.4754 967.289 78.8749 998.549 75.758L1366.07 39.1802C1469.57 28.9127 1573.25 57.3316 1634.77 112.886L1662.27 137.729C1736.06 204.468 1868.62 230.778 1986.43 202.084L2156.21 160.74C2242.93 139.655 2340.29 159.731 2393.09 209.51M-462.456 208.135L-284.975 235.179C-190.001 249.663 -90.4436 230.687 -21.9633 185.216C66.4102 126.362 203.829 113.436 313.838 153.681L398.544 184.666C481.509 215.01 582.35 215.652 666.232 186.408L909.167 101.61C937.128 91.8926 967.289 85.2921 998.549 82.1752L1366.07 45.5973C1469.57 35.3299 1573.25 63.7488 1634.77 119.303L1662.27 144.147C1736.06 210.885 1868.62 237.196 1986.43 208.502L2156.21 167.157C2242.93 146.072 2340.29 166.148 2393.09 215.927M-462.456 214.552L-284.975 241.596C-190.001 256.08 -90.4436 237.104 -21.9633 191.634C66.4102 132.779 203.829 119.853 313.838 160.098L398.544 191.084C481.509 221.428 582.35 222.069 666.232 192.825L909.259 108.119C937.219 98.4014 967.38 91.8009 998.641 88.684L1366.16 52.1062C1469.66 41.8387 1573.34 70.2576 1634.86 125.812L1662.36 150.655C1736.16 217.394 1868.72 243.704 1986.52 215.01L2156.3 173.666C2243.02 152.581 2340.38 172.657 2393.18 222.436M-462.456 221.061L-284.975 248.105C-190.001 262.589 -90.4436 243.613 -21.9633 198.143C66.4102 139.288 203.829 126.362 313.838 166.607L398.544 197.592C481.509 227.936 582.35 228.578 666.232 199.334L909.259 114.628C937.219 104.91 967.38 98.3098 998.641 95.1929L1366.16 58.615C1469.66 48.3476 1573.34 76.7664 1634.86 132.321L1662.36 157.164C1736.16 223.903 1868.72 250.213 1986.52 221.519L2156.3 180.174C2243.02 159.089 2340.38 179.166 2393.18 228.945M-462.456 227.57L-284.975 254.614C-190.001 269.098 -90.4436 250.122 -21.9633 204.651C66.4102 145.797 203.829 132.871 313.838 173.116L398.544 204.101C481.509 234.445 582.35 235.087 666.232 205.843L909.259 121.137C937.219 111.419 967.38 104.819 998.641 101.702L1366.16 65.1239C1469.66 54.8564 1573.34 83.2753 1634.86 138.83L1662.36 163.673C1736.16 230.412 1868.72 256.722 1986.52 228.028L2156.3 186.683C2243.02 165.598 2340.38 185.675 2393.18 235.454M-462.456 233.987L-284.975 261.031C-190.001 275.515 -90.4436 256.539 -21.9633 211.069C66.4102 152.214 203.829 139.288 313.838 179.533L398.544 210.518C481.509 240.863 582.35 241.504 666.232 212.26L909.259 127.554C937.219 117.836 967.38 111.236 998.641 108.119L1366.16 71.541C1469.66 61.2736 1573.34 89.6924 1634.86 145.247L1662.36 170.09C1736.16 236.829 1868.72 263.139 1986.52 234.445L2156.3 193.1C2243.02 172.016 2340.38 192.092 2393.18 241.871M-462.456 240.496L-284.975 267.54C-190.001 282.024 -90.4436 263.048 -21.9633 217.577C66.4102 158.723 203.829 145.797 313.838 186.042L398.544 217.027C481.509 247.371 582.35 248.013 666.232 218.769L909.259 134.063C937.219 124.345 967.38 117.745 998.641 114.628L1366.16 78.0499C1469.66 67.7824 1573.34 96.2013 1634.86 151.756L1662.36 176.599C1736.16 243.338 1868.72 269.648 1986.52 240.954L2156.3 199.609C2243.02 178.524 2340.38 198.601 2393.18 248.38M-462.456 247.005L-284.975 274.048C-190.001 288.533 -90.4436 269.556 -21.9633 224.086C66.4102 165.232 203.829 152.306 313.838 192.55L398.544 223.536C481.509 253.88 582.35 254.522 666.232 225.278L909.259 140.571C937.219 130.854 967.38 124.253 998.641 121.137L1366.16 84.5587C1469.66 74.2912 1573.34 102.71 1634.86 158.264L1662.36 183.108C1736.16 249.847 1868.72 276.157 1986.52 247.463L2156.3 206.118C2243.02 185.033 2340.38 205.11 2393.18 254.889M-462.456 253.422L-284.975 280.466C-190.001 294.95 -90.4436 275.974 -21.9633 230.503C66.4102 171.649 203.829 158.723 313.838 198.968L398.453 229.953C481.417 260.297 582.259 260.939 666.14 231.695L909.167 146.989C937.128 137.271 967.289 130.671 998.549 127.554L1366.07 90.9759C1469.57 80.7084 1573.25 109.127 1634.77 164.682L1662.27 189.525C1736.06 256.264 1868.62 282.574 1986.43 253.88L2156.21 212.535C2242.93 191.45 2340.29 211.527 2393.09 261.306M-462.456 259.931L-284.975 286.974C-190.001 301.459 -90.4436 282.482 -21.9633 237.012C66.4102 178.158 203.829 165.232 313.838 205.476L398.453 236.37C481.417 266.714 582.259 267.356 666.14 238.112L909.167 153.406C937.128 143.688 967.289 137.088 998.549 133.971L1366.07 97.393C1469.57 87.1256 1573.25 115.544 1634.77 171.099L1662.27 195.942C1736.06 262.681 1868.62 288.991 1986.43 260.297L2156.21 218.952C2242.93 197.867 2340.29 217.944 2393.09 267.723M-462.456 266.439L-284.975 293.483C-190.001 307.968 -90.4436 288.991 -21.9633 243.521C66.4102 184.666 203.829 171.74 313.838 211.985L398.544 242.971C481.509 273.315 582.35 273.957 666.232 244.713L909.259 160.006C937.219 150.289 967.38 143.688 998.641 140.571L1366.16 103.994C1469.66 93.7261 1573.34 122.145 1634.86 177.699L1662.36 202.543C1736.16 269.281 1868.72 295.592 1986.52 266.898L2156.3 225.553C2243.02 204.468 2340.38 224.545 2393.18 274.323M-462.456 272.857L-284.975 299.9C-190.001 314.385 -90.4436 295.408 -21.9633 249.938C66.4102 191.084 203.829 178.158 313.838 218.402L398.544 249.388C481.509 279.732 582.35 280.374 666.232 251.13L909.259 166.423C937.219 156.706 967.38 150.105 998.641 146.989L1366.16 110.411C1469.66 100.143 1573.34 128.562 1634.86 184.116L1662.36 208.96C1736.16 275.699 1868.72 302.009 1986.52 273.315L2156.3 231.97C2243.02 210.885 2340.38 230.962 2393.18 280.741M-462.456 279.365L-284.975 306.409C-190.001 320.894 -90.4436 301.917 -21.9633 256.447C66.4102 197.592 203.829 184.666 313.838 224.911L398.544 255.897C481.509 286.241 582.35 286.883 666.232 257.639L909.259 172.932C937.219 163.215 967.38 156.614 998.641 153.497L1366.16 116.92C1469.66 106.652 1573.34 135.071 1634.86 190.625L1662.36 215.469C1736.16 282.207 1868.72 308.518 1986.52 279.824L2156.3 238.479C2243.02 217.394 2340.38 237.471 2393.18 287.249M-462.456 285.783L-284.975 312.826C-190.001 327.311 -90.4436 308.334 -21.9633 262.864C66.4102 204.01 203.829 191.084 313.838 231.328L398.544 262.314C481.509 292.658 582.35 293.3 666.232 264.056L909.259 179.349C937.219 169.632 967.38 163.031 998.641 159.915L1366.16 123.337C1469.66 113.069 1573.34 141.488 1634.86 197.042L1662.36 221.886C1736.16 288.625 1868.72 314.935 1986.52 286.241L2156.3 244.896C2243.02 223.811 2340.38 243.888 2393.18 293.667M-462.456 292.291L-284.975 319.335C-190.001 333.82 -90.4436 314.843 -21.9633 269.373C66.4102 210.518 203.829 197.592 313.838 237.837L398.544 268.823C481.509 299.167 582.35 299.809 666.232 270.565L909.259 185.858C937.219 176.141 967.38 169.54 998.641 166.423L1366.16 129.846C1469.66 119.578 1573.34 147.997 1634.86 203.551L1662.36 228.395C1736.16 295.133 1868.72 321.444 1986.52 292.75L2156.3 251.405C2243.02 230.32 2340.38 250.397 2393.18 300.175M-462.456 298.8L-284.975 325.844C-190.001 340.329 -90.4436 321.352 -21.9633 275.882C66.4102 217.027 203.829 204.101 313.838 244.346L398.544 275.332C481.509 305.676 582.35 306.318 666.232 277.074L909.259 192.367C937.219 182.65 967.38 176.049 998.641 172.932L1366.16 136.354C1469.66 126.087 1573.34 154.506 1634.86 210.06L1662.36 234.904C1736.16 301.642 1868.72 327.953 1986.52 299.259L2156.3 257.914C2243.02 236.829 2340.38 256.905 2393.18 306.684M-462.456 305.217L-284.975 332.261C-190.001 346.746 -90.4436 327.769 -21.9633 282.299C66.4102 223.444 203.829 210.518 313.838 250.763L398.544 281.749C481.509 312.093 582.35 312.735 666.232 283.491L909.167 198.784C937.128 189.067 967.289 182.466 998.549 179.349L1366.07 142.772C1469.57 132.504 1573.25 160.923 1634.77 216.477L1662.27 241.321C1736.06 308.059 1868.62 334.37 1986.43 305.676L2156.21 264.331C2242.93 243.246 2340.29 263.323 2393.09 313.101M-462.456 311.726L-284.975 338.77C-190.001 353.255 -90.4436 334.278 -21.9633 288.808C66.4102 229.953 203.829 217.027 313.838 257.272L398.544 288.258C481.509 318.602 582.35 319.244 666.232 290L909.167 205.201C937.128 195.484 967.289 188.883 998.549 185.767L1366.07 149.189C1469.57 138.921 1573.25 167.34 1634.77 222.894L1662.27 247.738C1736.06 314.477 1868.62 340.787 1986.43 312.093L2156.21 270.748C2242.93 249.663 2340.29 269.74 2393.09 319.519M-462.456 318.235L-284.975 345.279C-190.001 359.763 -90.4436 340.787 -21.9633 295.317C66.4102 236.462 203.829 223.536 313.838 263.781L398.544 294.767C481.509 325.111 582.35 325.752 666.232 296.508L909.259 211.802C937.219 202.084 967.38 195.484 998.641 192.367L1366.16 155.789C1469.66 145.522 1573.34 173.941 1634.86 229.495L1662.36 254.339C1736.16 321.077 1868.72 347.387 1986.52 318.694L2156.3 277.349C2243.02 256.264 2340.38 276.34 2393.18 326.119M-462.456 324.652L-284.975 351.696C-190.001 366.181 -90.4436 347.204 -21.9633 301.734C66.4102 242.879 203.829 229.953 313.838 270.198L398.544 301.184C481.509 331.528 582.35 332.17 666.232 302.926L909.259 218.219C937.219 208.502 967.38 201.901 998.641 198.784L1366.16 162.206C1469.66 151.939 1573.34 180.358 1634.86 235.912L1662.36 260.756C1736.16 327.494 1868.72 353.805 1986.52 325.111L2156.3 283.766C2243.02 262.681 2340.38 282.757 2393.18 332.536M-462.456 331.161L-284.975 358.205C-190.001 372.689 -90.4436 353.713 -21.9633 308.243C66.4102 249.388 203.829 236.462 313.838 276.707L398.544 307.693C481.509 338.037 582.35 338.678 666.232 309.434L909.259 224.728C937.219 215.011 967.38 208.41 998.641 205.293L1366.16 168.715C1469.66 158.448 1573.34 186.867 1634.86 242.421L1662.36 267.265C1736.16 334.003 1868.72 360.313 1986.52 331.62L2156.3 290.275C2243.02 269.19 2340.38 289.266 2393.18 339.045M-462.456 957.751L-284.975 984.795C-190.001 999.28 -90.4436 980.395 -21.9633 934.833C66.4102 875.978 203.829 863.052 313.838 903.297L398.544 934.283C481.509 964.627 582.35 965.269 666.232 936.025L909.259 851.318C937.219 841.601 967.38 835 998.641 831.883L1366.16 795.306C1469.66 785.038 1573.34 813.457 1634.86 869.103L1662.36 893.947C1736.16 960.685 1868.72 986.995 1986.52 958.301L2156.3 916.957C2243.02 895.872 2340.38 915.948 2393.18 965.727M-462.456 964.26L-284.975 991.396C-190.001 1005.88 -90.4436 986.904 -21.9633 941.433C66.4102 882.579 203.829 869.653 313.838 909.898L398.544 940.883C481.509 971.227 582.35 971.869 666.232 942.625L909.259 857.919C937.219 848.201 967.38 841.601 998.641 838.484L1366.16 801.906C1469.66 791.639 1573.34 820.057 1634.86 875.612L1662.36 900.455C1736.16 967.194 1868.72 993.504 1986.52 964.81L2156.3 923.465C2243.02 902.38 2340.38 922.457 2393.18 972.236M-462.456 970.769L-284.975 997.813C-190.001 1012.3 -90.4436 993.413 -21.9633 947.851C66.4102 888.996 203.829 876.07 313.838 916.315L398.544 947.301C481.509 977.645 582.35 978.286 666.232 949.042L909.259 864.336C937.219 854.618 967.38 848.018 998.641 844.901L1366.16 808.323C1469.66 798.056 1573.34 826.475 1634.86 882.029L1662.36 906.873C1736.16 973.611 1868.72 999.921 1986.52 971.227L2156.3 929.883C2243.02 908.798 2340.38 928.874 2393.18 978.653M-462.456 977.186L-284.975 1004.32C-190.001 1018.81 -90.4436 999.83 -21.9633 954.36C66.4102 895.505 203.829 882.579 313.838 922.824L398.544 953.809C481.509 984.153 582.35 984.795 666.232 955.551L909.259 870.845C937.219 861.127 967.38 854.527 998.641 851.41L1366.16 814.832C1469.66 804.565 1573.34 832.983 1634.86 888.538L1662.36 913.381C1736.16 980.12 1868.72 1006.43 1986.52 977.736L2156.3 936.391C2243.02 915.306 2340.38 935.291 2393.18 985.162M-462.456 983.695L-284.975 1010.74C-190.001 1025.22 -90.4436 1006.34 -21.9633 960.777C66.4102 901.922 203.829 888.996 313.838 929.241L398.544 960.227C481.509 990.571 582.35 991.212 666.232 961.968L909.259 877.262C937.219 867.544 967.38 860.944 998.641 857.827L1366.16 821.249C1469.66 810.982 1573.34 839.401 1634.86 894.955L1662.36 919.799C1736.16 986.537 1868.72 1012.85 1986.52 984.154L2156.3 942.809C2243.02 921.724 2340.47 941.8 2393.18 991.579M-462.456 990.112L-284.975 1017.16C-190.001 1031.64 -90.4436 1012.76 -21.9633 967.194C66.4102 908.339 203.829 895.413 313.838 935.658L398.544 966.644C481.509 996.988 582.35 997.63 666.232 968.386L909.259 883.679C937.219 873.962 967.38 867.361 998.641 864.244L1366.16 827.666C1469.66 817.399 1573.34 845.818 1634.86 901.372L1662.36 926.216C1736.16 992.954 1868.72 1019.26 1986.52 990.571L2156.3 949.226C2243.02 928.141 2340.47 948.126 2393.18 997.996M-462.456 337.212L-284.975 364.255C-190.001 378.74 -90.4436 359.763 -21.9633 314.293C66.4102 255.439 203.829 242.513 313.838 282.757L398.544 313.743C481.509 344.087 582.35 344.729 666.232 315.485L909.259 230.778C937.219 221.061 967.38 214.46 998.641 211.344L1366.16 174.766C1469.66 164.498 1573.34 192.917 1634.86 248.471L1662.36 273.315C1736.16 340.054 1868.72 366.364 1986.52 337.67L2156.3 296.325C2243.02 275.24 2340.38 295.317 2393.18 345.096M-462.456 343.629L-284.975 370.673C-190.001 385.157 -90.4436 366.181 -21.9633 320.71C66.4102 261.856 203.829 248.93 313.838 289.175L398.544 320.16C481.509 350.504 582.35 351.146 666.232 321.902L909.259 237.196C937.219 227.478 967.38 220.878 998.641 217.761L1366.16 181.183C1469.66 170.915 1573.34 199.334 1634.86 254.889L1662.36 279.732C1736.16 346.471 1868.72 372.781 1986.52 344.087L2156.3 302.742C2243.02 281.657 2340.38 301.734 2393.18 351.513M-462.456 350.138L-284.975 377.181C-190.001 391.666 -90.4436 372.689 -21.9633 327.219C66.4102 268.365 203.829 255.439 313.838 295.683L398.544 326.669C481.509 357.013 582.35 357.655 666.232 328.411L909.259 243.704C937.219 233.987 967.38 227.386 998.641 224.27L1366.16 187.692C1469.66 177.424 1573.34 205.843 1634.86 261.397L1662.36 286.241C1736.16 352.98 1868.72 379.29 1986.52 350.596L2156.3 309.251C2243.02 288.166 2340.38 308.243 2393.18 358.022M-462.456 356.555L-284.975 383.599C-190.001 398.083 -90.4436 379.107 -21.9633 333.636C66.4102 274.782 203.829 261.856 313.838 302.101L398.544 333.086C481.509 363.43 582.35 364.072 666.232 334.828L909.167 250.122C937.128 240.404 967.289 233.804 998.549 230.687L1366.07 194.109C1469.57 183.841 1573.25 212.26 1634.77 267.815L1662.27 292.658C1736.06 359.397 1868.62 385.707 1986.43 357.013L2156.21 315.668C2242.93 294.583 2340.29 314.66 2393.09 364.439M-462.456 363.064L-284.975 390.107C-190.001 404.592 -90.4436 385.615 -21.9633 340.145C66.4102 281.291 203.829 268.365 313.838 308.609L398.544 339.595C481.509 369.939 582.35 370.581 666.232 341.337L909.259 256.63C937.219 246.913 967.38 240.312 998.641 237.196L1366.16 200.618C1469.66 190.35 1573.34 218.769 1634.86 274.323L1662.36 299.167C1736.16 365.906 1868.72 392.216 1986.52 363.522L2156.3 322.177C2243.02 301.092 2340.38 321.169 2393.18 370.948M-462.456 369.573L-284.975 396.616C-190.001 411.101 -90.4436 392.124 -21.9633 346.654C66.4102 287.8 203.829 274.873 313.838 315.118L398.544 346.104C481.509 376.448 582.35 377.09 666.232 347.846L909.259 263.139C937.219 253.422 967.38 246.821 998.641 243.704L1366.16 207.127C1469.66 196.859 1573.34 225.278 1634.86 280.832L1662.36 305.676C1736.16 372.414 1868.72 398.725 1986.52 370.031L2156.3 328.686C2243.02 307.601 2340.38 327.678 2393.18 377.456M-462.456 375.99L-284.975 403.033C-190.001 417.518 -90.4436 398.541 -21.9633 353.071C66.4102 294.217 203.829 281.291 313.838 321.535L398.544 352.521C481.509 382.865 582.35 383.507 666.232 354.263L909.259 269.556C937.219 259.839 967.38 253.238 998.641 250.122L1366.16 213.544C1469.66 203.276 1573.34 231.695 1634.86 287.249L1662.36 312.093C1736.16 378.832 1868.72 405.142 1986.52 376.448L2156.3 335.103C2243.02 314.018 2340.38 334.095 2393.18 383.874M-462.456 382.499L-284.975 409.542C-190.001 424.027 -90.4436 405.05 -21.9633 359.58C66.4102 300.726 203.829 287.799 313.838 328.044L398.544 359.03C481.509 389.374 582.35 390.016 666.232 360.772L909.259 276.065C937.219 266.348 967.38 259.747 998.641 256.63L1366.16 220.053C1469.66 209.785 1573.34 238.204 1634.86 293.758L1662.36 318.602C1736.16 385.34 1868.72 411.651 1986.52 382.957L2156.3 341.612C2243.02 320.527 2340.38 340.604 2393.18 390.382M-462.456 389.007L-284.975 416.051C-190.001 430.536 -90.4436 411.559 -21.9633 366.089C66.4102 307.234 203.829 294.308 313.838 334.553L398.544 365.539C481.509 395.883 582.35 396.525 666.232 367.281L909.259 282.574C937.219 272.857 967.38 266.256 998.641 263.139L1366.16 226.561C1469.66 216.294 1573.34 244.713 1634.86 300.267L1662.36 325.111C1736.16 391.849 1868.72 418.16 1986.52 389.466L2156.3 348.121C2243.02 327.036 2340.38 347.112 2393.18 396.891M-462.456 395.424L-284.975 422.468C-190.001 436.953 -90.4436 417.976 -21.9633 372.506C66.4102 313.651 203.829 300.726 313.838 340.97L398.544 371.956C481.509 402.3 582.35 402.942 666.232 373.698L909.259 288.991C937.219 279.274 967.38 272.673 998.641 269.556L1366.16 232.979C1469.66 222.711 1573.34 251.13 1634.86 306.684L1662.36 331.528C1736.16 398.266 1868.72 424.577 1986.52 395.883L2156.3 354.538C2243.02 333.453 2340.38 353.53 2393.18 403.308M-462.456 401.933L-284.975 428.977C-190.001 443.462 -90.4436 424.485 -21.9633 379.015C66.4102 320.16 203.829 307.234 313.838 347.479L398.544 378.465C481.509 408.809 582.35 409.451 666.232 380.207L909.259 295.5C937.219 285.783 967.38 279.182 998.641 276.065L1366.16 239.487C1469.66 229.22 1573.34 257.639 1634.86 313.193L1662.36 338.037C1736.16 404.775 1868.72 431.086 1986.52 402.392L2156.3 361.047C2243.02 339.962 2340.38 360.038 2393.18 409.817M-462.456 408.351L-284.975 435.394C-190.001 449.879 -90.4436 430.902 -21.9633 385.432C66.4102 326.578 203.829 313.651 313.838 353.896L398.453 384.882C481.417 415.226 582.259 415.868 666.14 386.624L909.167 301.917C937.128 292.2 967.289 285.599 998.549 282.482L1366.07 245.905C1469.57 235.637 1573.25 264.056 1634.77 319.61L1662.27 344.454C1736.06 411.192 1868.62 437.503 1986.43 408.809L2156.21 367.464C2242.93 346.379 2340.29 366.456 2393.09 416.234M-462.456 414.859L-284.975 441.903C-190.001 456.388 -90.4436 437.411 -21.9633 391.941C66.4102 333.086 203.829 320.16 313.838 360.405L398.544 391.391C481.509 421.735 582.35 422.377 666.232 393.133L909.259 308.426C937.219 298.709 967.38 292.108 998.641 288.991L1366.16 252.413C1469.66 242.146 1573.34 270.565 1634.86 326.119L1662.36 350.963C1736.16 417.701 1868.72 444.012 1986.52 415.318L2156.3 373.973C2243.02 352.888 2340.38 372.964 2393.18 422.743M-462.456 421.368L-284.975 448.412C-190.001 462.896 -90.4436 443.92 -21.9633 398.45C66.4102 339.595 203.829 326.669 313.838 366.914L398.544 397.9C481.509 428.244 582.35 428.885 666.232 399.642L909.259 314.935C937.219 305.217 967.38 298.617 998.641 295.5L1366.16 258.922C1469.66 248.655 1573.34 277.074 1634.86 332.628L1662.36 357.472C1736.16 424.21 1868.72 450.52 1986.52 421.827L2156.3 380.482C2243.02 359.397 2340.38 379.473 2393.18 429.252M-462.456 427.785L-284.975 454.829C-190.001 469.314 -90.4436 450.337 -21.9633 404.867C66.4102 346.012 203.829 333.086 313.838 373.331L398.544 404.317C481.509 434.661 582.35 435.303 666.232 406.059L909.259 321.352C937.219 311.635 967.38 305.034 998.641 301.917L1366.16 265.339C1469.66 255.072 1573.34 283.491 1634.86 339.045L1662.36 363.889C1736.16 430.627 1868.72 456.938 1986.52 428.244L2156.3 386.899C2243.02 365.814 2340.38 385.89 2393.18 435.669M-462.456 434.294L-284.975 461.338C-190.001 475.822 -90.4436 456.846 -21.9633 411.376C66.4102 352.521 203.829 339.595 313.838 379.84L398.544 410.826C481.509 441.17 582.35 441.811 666.232 412.567L909.259 327.861C937.219 318.144 967.38 311.543 998.641 308.426L1366.16 271.848C1469.66 261.581 1573.34 290 1634.86 345.554L1662.36 370.398C1736.16 437.136 1868.72 463.446 1986.52 434.753L2156.3 393.408C2243.02 372.323 2340.38 392.399 2393.18 442.178M-462.456 440.803L-284.975 467.847C-190.001 482.331 -90.4436 463.355 -21.9633 417.885C66.4102 359.03 203.829 346.104 313.838 386.349L398.544 417.335C481.509 447.679 582.35 448.32 666.232 419.076L909.259 334.37C937.219 324.652 967.38 318.052 998.641 314.935L1366.16 278.357C1469.66 268.09 1573.34 296.508 1634.86 352.063L1662.36 376.906C1736.16 443.645 1868.72 469.955 1986.52 441.261L2156.3 399.917C2243.02 378.832 2340.38 398.908 2393.18 448.687M-462.456 447.22L-284.975 474.264C-190.001 488.748 -90.4436 469.772 -21.9633 424.302C66.4102 365.447 203.829 352.521 313.838 392.766L398.544 423.752C481.509 454.096 582.35 454.737 666.232 425.494L909.259 340.787C937.219 331.07 967.38 324.469 998.641 321.352L1366.16 284.774C1469.66 274.507 1573.34 302.926 1634.86 358.48L1662.36 383.324C1736.16 450.062 1868.72 476.372 1986.52 447.679L2156.3 406.334C2243.02 385.249 2340.38 405.325 2393.18 455.104M-462.456 453.729L-284.975 480.773C-190.001 495.257 -90.4436 476.281 -21.9633 430.811C66.4102 371.956 203.829 359.03 313.838 399.275L398.544 430.261C481.509 460.605 582.35 461.246 666.232 432.002L909.259 347.296C937.219 337.578 967.38 330.978 998.641 327.861L1366.16 291.283C1469.66 281.016 1573.34 309.435 1634.86 364.989L1662.36 389.832C1736.16 456.571 1868.72 482.881 1986.52 454.187L2156.3 412.843C2243.02 391.758 2340.38 411.834 2393.18 461.613M-462.456 460.146L-284.975 487.19C-190.001 501.674 -90.4436 482.698 -21.9633 437.228C66.4102 378.373 203.829 365.447 313.838 405.692L398.544 436.678C481.509 467.022 582.35 467.663 666.232 438.42L909.167 353.713C937.128 343.995 967.289 337.395 998.549 334.278L1366.07 297.7C1469.57 287.433 1573.25 315.852 1634.77 371.406L1662.27 396.25C1736.06 462.988 1868.62 489.298 1986.43 460.605L2156.21 419.26C2242.93 398.175 2340.29 418.251 2393.09 468.03M-462.456 466.655L-284.975 493.699C-190.001 508.183 -90.4436 489.207 -21.9633 443.737C66.4102 384.882 203.829 371.956 313.838 412.201L398.544 443.187C481.509 473.531 582.35 474.172 666.232 444.928L909.259 360.222C937.219 350.504 967.38 343.904 998.641 340.787L1366.16 304.209C1469.66 293.942 1573.34 322.361 1634.86 377.915L1662.36 402.758C1736.16 469.497 1868.72 495.807 1986.52 467.113L2156.3 425.769C2243.02 404.684 2340.38 424.76 2393.18 474.539M-462.456 473.164L-284.975 500.208C-190.001 514.692 -90.4436 495.716 -21.9633 450.245C66.4102 391.391 203.829 378.465 313.838 418.71L398.544 449.695C481.509 480.039 582.35 480.681 666.232 451.437L909.259 366.731C937.219 357.013 967.38 350.413 998.641 347.296L1366.16 310.718C1469.66 300.45 1573.34 328.869 1634.86 384.424L1662.36 409.267C1736.16 476.006 1868.72 502.316 1986.52 473.622L2156.3 432.277C2243.02 411.192 2340.38 431.269 2393.18 481.048M-462.456 479.581L-284.975 506.625C-190.001 521.109 -90.4436 502.133 -21.9633 456.663C66.4102 397.808 203.829 384.882 313.838 425.127L398.544 456.113C481.509 486.457 582.35 487.098 666.232 457.854L909.259 373.148C937.219 363.43 967.38 356.83 998.641 353.713L1366.16 317.135C1469.66 306.868 1573.34 335.286 1634.86 390.841L1662.36 415.684C1736.16 482.423 1868.72 508.733 1986.52 480.039L2156.3 438.695C2243.02 417.61 2340.38 437.686 2393.18 487.465M-462.456 486.09L-284.975 513.134C-190.001 527.618 -90.4436 508.642 -21.9633 463.171C66.4102 404.317 203.829 391.391 313.838 431.636L398.544 462.621C481.509 492.965 582.35 493.607 666.232 464.363L909.259 379.657C937.219 369.939 967.38 363.339 998.641 360.222L1366.16 323.644C1469.66 313.376 1573.34 341.795 1634.86 397.35L1662.36 422.193C1736.16 488.932 1868.72 515.242 1986.52 486.548L2156.3 445.203C2243.02 424.118 2340.38 444.195 2393.18 493.974M-462.456 492.507L-284.975 519.551C-190.001 534.035 -90.4436 515.059 -21.9633 469.589C66.4102 410.734 203.829 397.808 313.838 438.053L398.544 469.039C481.509 499.383 582.35 500.024 666.232 470.78L909.259 386.074C937.219 376.356 967.38 369.756 998.641 366.639L1366.16 330.061C1469.66 319.794 1573.34 348.213 1634.86 403.767L1662.36 428.61C1736.16 495.349 1868.72 521.659 1986.52 492.965L2156.3 451.621C2243.02 430.536 2340.38 450.612 2393.18 500.391M-462.456 499.016L-284.975 526.06C-190.001 540.544 -90.4436 521.568 -21.9633 476.097C66.4102 417.243 203.829 404.317 313.838 444.562L398.544 475.547C481.509 505.891 582.35 506.533 666.232 477.289L909.259 392.583C937.219 382.865 967.38 376.265 998.641 373.148L1366.16 336.57C1469.66 326.302 1573.34 354.721 1634.86 410.276L1662.36 435.119C1736.16 501.858 1868.72 528.168 1986.52 499.474L2156.3 458.129C2243.02 437.044 2340.38 457.121 2393.18 506.9M-462.456 505.525L-284.975 532.568C-190.001 547.053 -90.4436 528.076 -21.9633 482.606C66.4102 423.752 203.829 410.826 313.838 451.07L398.544 482.056C481.509 512.4 582.35 513.042 666.232 483.798L909.259 399.091C937.219 389.374 967.38 382.774 998.641 379.657L1366.16 343.079C1469.66 332.811 1573.34 361.23 1634.86 416.785L1662.36 441.628C1736.16 508.367 1868.72 534.677 1986.52 505.983L2156.3 464.638C2243.02 443.553 2340.38 463.63 2393.18 513.409M-462.456 511.942L-284.975 538.986C-190.001 553.47 -90.4436 534.494 -21.9633 489.023C66.4102 430.169 203.829 417.243 313.838 457.488L398.453 488.473C481.417 518.817 582.259 519.459 666.14 490.215L909.167 405.509C937.128 395.791 967.289 389.191 998.549 386.074L1366.07 349.496C1469.57 339.228 1573.25 367.647 1634.77 423.202L1662.27 448.045C1736.06 514.784 1868.62 541.094 1986.43 512.4L2156.21 471.055C2242.93 449.97 2340.29 470.047 2393.09 519.826M-462.456 518.451L-284.975 545.494C-190.001 559.979 -90.4436 541.002 -21.9633 495.532C66.4102 436.678 203.829 423.752 313.838 463.997L398.453 494.891C481.417 525.235 582.259 525.876 666.14 496.632L909.167 411.926C937.128 402.208 967.289 395.608 998.549 392.491L1366.07 355.913C1469.57 345.646 1573.25 374.065 1634.77 429.619L1662.27 454.462C1736.06 521.201 1868.62 547.511 1986.43 518.817L2156.21 477.473C2242.93 456.388 2340.29 476.464 2393.09 526.243M-462.456 524.96L-284.975 552.003C-190.001 566.488 -90.4436 547.511 -21.9633 502.041C66.4102 443.187 203.829 430.261 313.838 470.505L398.544 501.491C481.509 531.835 582.35 532.477 666.232 503.233L909.259 418.526C937.219 408.809 967.38 402.208 998.641 399.091L1366.16 362.514C1469.66 352.246 1573.34 380.665 1634.86 436.219L1662.36 461.063C1736.16 527.801 1868.72 554.112 1986.52 525.418L2156.3 484.073C2243.02 462.988 2340.38 483.065 2393.18 532.844M-462.456 531.377L-284.975 558.421C-190.001 572.905 -90.4436 553.928 -21.9633 508.458C66.4102 449.604 203.829 436.678 313.838 476.923L398.544 507.908C481.509 538.252 582.35 538.894 666.232 509.65L909.259 424.943C937.219 415.226 967.38 408.626 998.641 405.509L1366.16 368.931C1469.66 358.663 1573.34 387.082 1634.86 442.636L1662.36 467.48C1736.16 534.219 1868.72 560.529 1986.52 531.835L2156.3 490.49C2243.02 469.405 2340.38 489.482 2393.18 539.261M-462.456 537.886L-284.975 564.929C-190.001 579.414 -90.4436 560.437 -21.9633 514.967C66.4102 456.113 203.829 443.187 313.838 483.431L398.544 514.417C481.509 544.761 582.35 545.403 666.232 516.159L909.259 431.452C937.219 421.735 967.38 415.134 998.641 412.017L1366.16 375.44C1469.66 365.172 1573.34 393.591 1634.86 449.145L1662.36 473.989C1736.16 540.727 1868.72 567.038 1986.52 538.344L2156.3 496.999C2243.02 475.914 2340.38 495.991 2393.18 545.769M-462.456 544.303L-284.975 571.346C-190.001 585.831 -90.4436 566.854 -21.9633 521.384C66.4102 462.53 203.829 449.604 313.838 489.848L398.544 520.834C481.509 551.178 582.35 551.82 666.232 522.576L909.259 437.869C937.219 428.152 967.38 421.552 998.641 418.435L1366.16 381.857C1469.66 371.589 1573.34 400.008 1634.86 455.563L1662.36 480.406C1736.16 547.145 1868.72 573.455 1986.52 544.761L2156.3 503.416C2243.02 482.331 2340.38 502.408 2393.18 552.187M-462.456 550.812L-284.975 577.855C-190.001 592.34 -90.4436 573.363 -21.9633 527.893C66.4102 469.039 203.829 456.113 313.838 496.357L398.544 527.343C481.509 557.687 582.35 558.329 666.232 529.085L909.259 444.378C937.219 434.661 967.38 428.06 998.641 424.943L1366.16 388.366C1469.66 378.098 1573.34 406.517 1634.86 462.071L1662.36 486.915C1736.16 553.653 1868.72 579.964 1986.52 551.27L2156.3 509.925C2243.02 488.84 2340.38 508.917 2393.18 558.696M-462.456 557.32L-284.975 584.364C-190.001 598.849 -90.4436 579.872 -21.9633 534.402C66.4102 475.547 203.829 462.621 313.838 502.866L398.544 533.852C481.509 564.196 582.35 564.838 666.232 535.594L909.259 450.887C937.219 441.17 967.38 434.569 998.641 431.452L1366.16 394.874C1469.66 384.607 1573.34 413.026 1634.86 468.58L1662.36 493.424C1736.16 560.162 1868.72 586.473 1986.52 557.779L2156.3 516.434C2243.02 495.349 2340.38 515.425 2393.18 565.204M-462.456 563.738L-284.975 590.781C-190.001 605.266 -90.4436 586.289 -21.9633 540.819C66.4102 481.965 203.829 469.039 313.838 509.283L398.544 540.269C481.509 570.613 582.35 571.255 666.232 542.011L909.167 457.304C937.128 447.587 967.289 440.986 998.549 437.869L1366.07 401.292C1469.57 391.024 1573.25 419.443 1634.77 474.997L1662.27 499.841C1736.06 566.579 1868.62 592.89 1986.43 564.196L2156.21 522.851C2242.93 501.766 2340.29 521.843 2393.09 571.622M-462.456 570.246L-284.975 597.29C-190.001 611.775 -90.4436 592.798 -21.9633 547.328C66.4102 488.473 203.829 475.547 313.838 515.792L398.544 546.778C481.509 577.122 582.35 577.764 666.232 548.52L909.167 463.721C937.128 454.004 967.289 447.404 998.549 444.287L1366.07 407.709C1469.57 397.441 1573.25 425.86 1634.77 481.415L1662.27 506.258C1736.06 572.997 1868.62 599.307 1986.43 570.613L2156.21 529.268C2242.93 508.183 2340.29 528.26 2393.09 578.039M-462.456 576.664L-284.975 603.707C-190.001 618.192 -90.4436 599.215 -21.9633 553.745C66.4102 494.891 203.829 481.965 313.838 522.209L398.544 553.195C481.509 583.539 582.35 584.181 666.232 554.937L909.259 470.23C937.219 460.513 967.38 453.912 998.641 450.795L1366.16 414.218C1469.66 403.95 1573.34 432.369 1634.86 487.923L1662.36 512.767C1736.16 579.505 1868.72 605.816 1986.52 577.122L2156.3 535.777C2243.02 514.692 2340.38 534.769 2393.18 584.548M-462.456 583.172L-284.975 610.216C-190.001 624.701 -90.4436 605.724 -21.9633 560.254C66.4102 501.399 203.829 488.473 313.838 528.718L398.544 559.704C481.509 590.048 582.35 590.69 666.232 561.446L909.259 476.739C937.219 467.022 967.38 460.421 998.641 457.304L1366.16 420.726C1469.66 410.459 1573.34 438.878 1634.86 494.432L1662.36 519.276C1736.16 586.014 1868.72 612.325 1986.52 583.631L2156.3 542.286C2243.02 521.201 2340.38 541.277 2393.18 591.056M-462.456 589.681L-284.975 616.725C-190.001 631.209 -90.4436 612.233 -21.9633 566.763C66.4102 507.908 203.829 494.982 313.838 535.227L398.544 566.213C481.509 596.557 582.35 597.198 666.232 567.955L909.259 483.248C937.219 473.531 967.38 466.93 998.641 463.813L1366.16 427.235C1469.66 416.968 1573.34 445.387 1634.86 500.941L1662.36 525.785C1736.16 592.523 1868.72 618.834 1986.52 590.14L2156.3 548.795C2243.02 527.71 2340.38 547.786 2393.18 597.565M-462.456 596.098L-284.975 623.142C-190.001 637.627 -90.4436 618.65 -21.9633 573.18C66.4102 514.325 203.829 501.399 313.838 541.644L398.544 572.63C481.509 602.974 582.35 603.616 666.232 574.372L909.259 489.665C937.219 479.948 967.38 473.347 998.641 470.23L1366.16 433.652C1469.66 423.385 1573.34 451.804 1634.86 507.358L1662.36 532.202C1736.16 598.94 1868.72 625.251 1986.52 596.557L2156.3 555.212C2243.02 534.127 2340.38 554.203 2393.18 603.982M-462.456 602.607L-284.975 629.651C-190.001 644.135 -90.4436 625.159 -21.9633 579.689C66.4102 520.834 203.829 507.908 313.838 548.153L398.544 579.139C481.509 609.483 582.35 610.125 666.232 580.881L909.259 496.174C937.219 486.457 967.38 479.856 998.641 476.739L1366.16 440.161C1469.66 429.894 1573.34 458.313 1634.86 513.867L1662.36 538.711C1736.16 605.449 1868.72 631.759 1986.52 603.066L2156.3 561.721C2243.02 540.636 2340.38 560.712 2393.18 610.491M-462.456 609.116L-284.975 636.16C-190.001 650.644 -90.4436 631.668 -21.9633 586.198C66.4102 527.343 203.829 514.417 313.838 554.662L398.544 585.648C481.509 615.992 582.35 616.633 666.232 587.389L909.259 502.683C937.219 492.965 967.38 486.365 998.641 483.248L1366.16 446.67C1469.66 436.403 1573.34 464.822 1634.86 520.376L1662.36 545.219C1736.16 611.958 1868.72 638.268 1986.52 609.574L2156.3 568.23C2243.02 547.145 2340.38 567.221 2393.18 617M-462.456 615.533L-284.975 642.577C-190.001 657.061 -90.4436 638.085 -21.9633 592.615C66.4102 533.76 203.829 520.834 313.838 561.079L398.453 592.065C481.417 622.409 582.259 623.051 666.14 593.807L909.167 509.1C937.128 499.383 967.289 492.782 998.549 489.665L1366.07 453.087C1469.57 442.82 1573.25 471.239 1634.77 526.793L1662.27 551.637C1736.06 618.375 1868.62 644.685 1986.43 615.992L2156.21 574.647C2242.93 553.562 2340.29 573.638 2393.09 623.417M-462.456 622.042L-284.975 649.086C-190.001 663.57 -90.4436 644.594 -21.9633 599.124C66.4102 540.269 203.829 527.343 313.838 567.588L398.453 598.482C481.417 628.826 582.259 629.468 666.14 600.224L909.167 515.517C937.128 505.8 967.289 499.199 998.549 496.082L1366.07 459.504C1469.57 449.237 1573.25 477.656 1634.77 533.21L1662.27 558.054C1736.06 624.792 1868.62 651.103 1986.43 622.409L2156.21 581.064C2242.93 559.979 2340.29 580.056 2393.09 629.834M-462.456 628.459L-284.975 655.503C-190.001 669.988 -90.4436 651.011 -21.9633 605.541C66.4102 546.686 203.829 533.76 313.838 574.005L398.544 604.991C481.509 635.335 582.35 635.976 666.232 606.733L909.259 522.026C937.219 512.309 967.38 505.708 998.641 502.591L1366.16 466.013C1469.66 455.746 1573.34 484.165 1634.86 539.719L1662.36 564.563C1736.16 631.301 1868.72 657.612 1986.52 628.918L2156.3 587.573C2243.02 566.488 2340.38 586.564 2393.18 636.343M-462.456 634.968L-284.975 662.012C-190.001 676.496 -90.4436 657.52 -21.9633 612.05C66.4102 553.195 203.829 540.269 313.838 580.514L398.544 611.5C481.509 641.844 582.35 642.485 666.232 613.241L909.259 528.535C937.219 518.817 967.38 512.217 998.641 509.1L1366.16 472.522C1469.66 462.255 1573.34 490.674 1634.86 546.228L1662.36 571.071C1736.16 637.81 1868.72 664.12 1986.52 635.426L2156.3 594.082C2243.02 572.997 2340.38 593.073 2393.18 642.852M-462.456 641.477L-284.975 668.521C-190.001 683.005 -90.4436 664.029 -21.9633 618.558C66.4102 559.704 203.829 546.778 313.838 587.023L398.544 618.008C481.509 648.352 582.35 648.994 666.232 619.75L909.259 535.044C937.219 525.326 967.38 518.726 998.641 515.609L1366.16 479.031C1469.66 468.764 1573.34 497.182 1634.86 552.737L1662.36 577.58C1736.16 644.319 1868.72 670.629 1986.52 641.935L2156.3 600.59C2243.02 579.505 2340.38 599.582 2393.18 649.361M-462.456 647.894L-284.975 674.938C-190.001 689.422 -90.4436 670.446 -21.9633 624.976C66.4102 566.121 203.829 553.195 313.838 593.44L398.544 624.426C481.509 654.77 582.35 655.411 666.232 626.167L909.259 541.461C937.219 531.743 967.38 525.143 998.641 522.026L1366.16 485.448C1469.66 475.181 1573.34 503.6 1634.86 559.154L1662.36 583.998C1736.16 650.736 1868.72 677.046 1986.52 648.352L2156.3 607.008C2243.02 585.923 2340.38 605.999 2393.18 655.778M-462.456 654.403L-284.975 681.447C-190.001 695.931 -90.4436 676.955 -21.9633 631.484C66.4102 572.63 203.829 559.704 313.838 599.949L398.544 630.934C481.509 661.278 582.35 661.92 666.232 632.676L909.259 547.97C937.219 538.252 967.38 531.652 998.641 528.535L1366.16 491.957C1469.66 481.69 1573.34 510.108 1634.86 565.663L1662.36 590.506C1736.16 657.245 1868.72 683.555 1986.52 654.861L2156.3 613.516C2243.02 592.431 2340.38 612.508 2393.18 662.287M-462.456 660.82L-284.975 687.864C-190.001 702.348 -90.4436 683.372 -21.9633 637.902C66.4102 579.047 203.829 566.121 313.838 606.366L398.544 637.352C481.509 667.696 582.35 668.337 666.232 639.093L909.259 554.387C937.219 544.669 967.38 538.069 998.641 534.952L1366.16 498.374C1469.66 488.107 1573.34 516.526 1634.86 572.08L1662.36 596.924C1736.16 663.662 1868.72 689.972 1986.52 661.278L2156.3 619.934C2243.02 598.849 2340.38 618.925 2393.18 668.704M-462.456 667.329L-284.975 694.373C-190.001 708.857 -90.4436 689.881 -21.9633 644.41C66.4102 585.556 203.829 572.63 313.838 612.875L398.544 643.86C481.509 674.204 582.35 674.846 666.232 645.602L909.167 560.896C937.128 551.178 967.289 544.578 998.549 541.461L1366.07 504.883C1469.57 494.616 1573.25 523.034 1634.77 578.589L1662.27 603.432C1736.06 670.171 1868.62 696.481 1986.43 667.787L2156.21 626.442C2242.93 605.357 2340.29 625.434 2393.09 675.213M-462.456 673.838L-284.975 700.882C-190.001 715.366 -90.4436 696.39 -21.9633 650.919C66.4102 592.065 203.829 579.139 313.838 619.384L398.544 650.369C481.509 680.713 582.35 681.355 666.232 652.111L909.167 567.313C937.128 557.595 967.289 550.995 998.549 547.878L1366.07 511.3C1469.57 501.033 1573.25 529.452 1634.77 585.006L1662.27 609.849C1736.06 676.588 1868.62 702.898 1986.43 674.204L2156.21 632.86C2242.93 611.775 2340.29 631.851 2393.09 681.63M-462.456 680.255L-284.975 707.299C-190.001 721.783 -90.4436 702.807 -21.9633 657.337C66.4102 598.482 203.829 585.556 313.838 625.801L398.544 656.786C481.509 687.13 582.35 687.772 666.232 658.528L909.259 573.822C937.219 564.104 967.38 557.504 998.641 554.387L1366.16 517.809C1469.66 507.542 1573.34 535.96 1634.86 591.515L1662.36 616.358C1736.16 683.097 1868.72 709.407 1986.52 680.713L2156.3 639.368C2243.02 618.283 2340.38 638.36 2393.18 688.139M-462.456 686.764L-284.975 713.808C-190.001 728.292 -90.4436 709.316 -21.9633 663.845C66.4102 604.991 203.829 592.065 313.838 632.31L398.544 663.295C481.509 693.639 582.35 694.281 666.232 665.037L909.259 580.331C937.219 570.613 967.38 564.013 998.641 560.896L1366.16 524.318C1469.66 514.05 1573.34 542.469 1634.86 598.024L1662.36 622.867C1736.16 689.606 1868.72 715.916 1986.52 687.222L2156.3 645.877C2243.02 624.792 2340.38 644.869 2393.18 694.648M-462.456 693.273L-284.975 720.316C-190.001 734.801 -90.4436 715.824 -21.9633 670.354C66.4102 611.5 203.829 598.574 313.838 638.818L398.544 669.804C481.509 700.148 582.35 700.79 666.232 671.546L909.259 586.839C937.219 577.122 967.38 570.521 998.641 567.405L1366.16 530.827C1469.66 520.559 1573.34 548.978 1634.86 604.532L1662.36 629.376C1736.16 696.115 1868.72 722.425 1986.52 693.731L2156.3 652.386C2243.02 631.301 2340.38 651.378 2393.18 701.157M-462.456 699.69L-284.975 726.734C-190.001 741.218 -90.4436 722.242 -21.9633 676.771C66.4102 617.917 203.829 604.991 313.838 645.236L398.544 676.221C481.509 706.565 582.35 707.207 666.232 677.963L909.259 593.257C937.219 583.539 967.38 576.939 998.641 573.822L1366.16 537.244C1469.66 526.976 1573.34 555.395 1634.86 610.95L1662.36 635.793C1736.16 702.532 1868.72 728.842 1986.52 700.148L2156.3 658.803C2243.02 637.718 2340.38 657.795 2393.18 707.574M-462.456 706.199L-284.975 733.242C-190.001 747.727 -90.4436 728.75 -21.9633 683.28C66.4102 624.426 203.829 611.5 313.838 651.744L398.544 682.73C481.509 713.074 582.35 713.716 666.232 684.472L909.259 599.765C937.219 590.048 967.38 583.447 998.641 580.331L1366.16 543.753C1469.66 533.485 1573.34 561.904 1634.86 617.458L1662.36 642.302C1736.16 709.041 1868.72 735.351 1986.52 706.657L2156.3 665.312C2243.02 644.227 2340.38 664.304 2393.18 714.083M-462.456 712.616L-284.975 739.66C-190.001 754.144 -90.4436 735.168 -21.9633 689.697C66.4102 630.843 203.829 617.917 313.838 658.162L398.544 689.147C481.509 719.491 582.35 720.133 666.232 690.889L909.259 606.183C937.219 596.465 967.38 589.865 998.641 586.748L1366.16 550.17C1469.66 539.902 1573.34 568.321 1634.86 623.876L1662.36 648.719C1736.16 715.458 1868.72 741.768 1986.52 713.074L2156.3 671.729C2243.02 650.644 2340.38 670.721 2393.18 720.5M-462.456 719.125L-284.975 746.168C-190.001 760.653 -90.4436 741.676 -21.9633 696.206C66.4102 637.352 203.829 624.426 313.838 664.67L398.453 695.656C481.417 726 582.259 726.642 666.14 697.398L909.167 612.691C937.128 602.974 967.289 596.373 998.549 593.257L1366.07 556.679C1469.57 546.411 1573.25 574.83 1634.77 630.384L1662.27 655.228C1736.06 721.967 1868.62 748.277 1986.43 719.583L2156.21 678.238C2242.93 657.153 2340.29 677.23 2393.09 727.009M-462.456 725.634L-284.975 752.677C-190.001 767.162 -90.4436 748.277 -21.9633 702.715C66.4102 643.861 203.829 630.934 313.838 671.179L398.453 702.073C481.417 732.417 582.259 733.059 666.14 703.815L909.167 619.109C937.128 609.391 967.289 602.791 998.549 599.674L1366.07 563.096C1469.57 552.828 1573.25 581.247 1634.77 636.802L1662.27 661.645C1736.06 728.384 1868.62 754.694 1986.43 726L2156.21 684.655C2242.93 663.57 2340.29 683.647 2393.09 733.426M-462.456 732.051L-284.975 759.094C-190.001 773.579 -90.4436 754.694 -21.9633 709.132C66.4102 650.278 203.829 637.352 313.838 677.596L398.544 708.582C481.509 738.926 582.35 739.568 666.232 710.324L909.259 625.617C937.219 615.9 967.38 609.299 998.641 606.183L1366.16 569.605C1469.66 559.337 1573.34 587.756 1634.86 643.31L1662.36 668.154C1736.16 734.892 1868.72 761.203 1986.52 732.509L2156.3 691.164C2243.02 670.079 2340.38 690.156 2393.18 739.935M-462.456 738.559L-284.975 765.603C-190.001 780.088 -90.4436 761.203 -21.9633 715.641C66.4102 656.786 203.829 643.86 313.838 684.105L398.544 715.091C481.509 745.435 582.35 746.077 666.232 716.833L909.259 632.126C937.219 622.409 967.38 615.808 998.641 612.691L1366.16 576.113C1469.66 565.846 1573.34 594.265 1634.86 649.819L1662.36 674.663C1736.16 741.401 1868.72 767.712 1986.52 739.018L2156.3 697.673C2243.02 676.588 2340.38 696.665 2393.18 746.443M-462.456 744.977L-284.975 772.02C-190.001 786.505 -90.4436 767.62 -21.9633 722.058C66.4102 663.204 203.829 650.278 313.838 690.522L398.544 721.508C481.509 751.852 582.35 752.494 666.232 723.25L909.259 638.543C937.219 628.826 967.38 622.225 998.641 619.109L1366.16 582.531C1469.66 572.263 1573.34 600.682 1634.86 656.236L1662.36 681.08C1736.16 747.818 1868.72 774.129 1986.52 745.435L2156.3 704.09C2243.02 683.005 2340.38 703.082 2393.18 752.861M-462.456 751.485L-284.975 778.529C-190.001 793.014 -90.4436 774.037 -21.9633 728.567C66.4102 669.712 203.829 656.786 313.838 697.031L398.544 728.017C481.509 758.361 582.35 759.003 666.232 729.759L909.259 645.052C937.219 635.335 967.38 628.734 998.641 625.617L1366.16 589.04C1469.66 578.772 1573.34 607.191 1634.86 662.745L1662.36 687.589C1736.16 754.327 1868.72 780.638 1986.52 751.944L2156.3 710.599C2243.02 689.514 2340.38 709.591 2393.18 759.369M-462.456 757.994L-284.975 785.13C-190.001 799.614 -90.4436 780.729 -21.9633 735.167C66.4102 676.313 203.829 663.387 313.838 703.632L398.544 734.617C481.509 764.961 582.35 765.603 666.232 736.359L909.259 651.653C937.219 641.935 967.38 635.335 998.641 632.218L1366.16 595.64C1469.66 585.373 1573.34 613.791 1634.86 669.346L1662.36 694.189C1736.16 760.928 1868.72 787.238 1986.52 758.544L2156.3 717.199C2243.02 696.114 2340.38 716.191 2393.18 765.97M-462.456 764.411L-284.975 791.455C-190.001 805.94 -90.4436 787.055 -21.9633 741.493C66.4102 682.638 203.829 669.712 313.838 709.957L398.544 740.943C481.509 771.287 582.35 771.929 666.232 742.685L909.259 657.978C937.219 648.261 967.38 641.66 998.641 638.543L1366.16 601.966C1469.66 591.698 1573.34 620.117 1634.86 675.671L1662.36 700.515C1736.16 767.253 1868.72 793.564 1986.52 764.87L2156.3 723.525C2243.02 702.44 2340.38 722.517 2393.18 772.295M-462.456 770.92L-284.975 798.056C-190.001 812.54 -90.4436 793.564 -21.9633 748.094C66.4102 689.239 203.829 676.313 313.838 716.558L398.544 747.543C481.509 777.887 582.35 778.529 666.232 749.285L909.167 664.487C937.128 654.77 967.289 648.169 998.549 645.052L1366.07 608.474C1469.57 598.207 1573.25 626.626 1634.77 682.18L1662.27 707.024C1736.06 773.762 1868.62 800.073 1986.43 771.379L2156.21 730.034C2242.93 708.949 2340.29 729.025 2393.09 778.804M-462.456 777.429L-284.975 804.473C-190.001 818.957 -90.4436 800.073 -21.9633 754.511C66.4102 695.656 203.829 682.73 313.838 722.975L398.544 753.961C481.509 784.305 582.35 784.946 666.232 755.702L909.167 670.904C937.128 661.187 967.289 654.586 998.549 651.469L1366.07 614.892C1469.57 604.624 1573.25 633.043 1634.77 688.597L1662.27 713.441C1736.06 780.179 1868.62 806.49 1986.43 777.796L2156.21 736.451C2242.93 715.366 2340.29 735.351 2393.09 785.221M-462.456 783.846L-284.975 810.89C-190.001 825.375 -90.4436 806.49 -21.9633 760.928C66.4102 702.073 203.829 689.147 313.838 729.392L398.544 760.378C481.509 790.722 582.35 791.364 666.232 762.12L909.259 677.413C937.219 667.696 967.38 661.095 998.641 657.978L1366.16 621.4C1469.66 611.133 1573.34 639.552 1634.86 695.106L1662.36 719.95C1736.16 786.688 1868.72 812.999 1986.52 784.305L2156.3 742.96C2243.02 721.875 2340.38 741.86 2393.18 791.73M-462.456 790.355L-284.975 817.399C-190.001 831.883 -90.4436 812.999 -21.9633 767.437C66.4102 708.582 203.829 695.656 313.838 735.901L398.544 766.887C481.509 797.231 582.35 797.872 666.232 768.628L909.259 683.922C937.219 674.205 967.38 667.604 998.641 664.487L1366.16 627.909C1469.66 617.642 1573.34 646.061 1634.86 701.615L1662.36 726.458C1736.16 793.197 1868.72 819.507 1986.52 790.814L2156.3 749.469C2243.02 728.384 2340.38 748.369 2393.18 798.239M-462.456 796.772L-284.975 823.816C-190.001 838.301 -90.4436 819.416 -21.9633 773.854C66.4102 714.999 203.829 702.073 313.838 742.318L398.544 773.304C481.509 803.648 582.35 804.29 666.232 775.046L909.259 690.339C937.219 680.622 967.38 674.021 998.641 670.904L1366.16 634.326C1469.66 624.059 1573.34 652.478 1634.86 708.032L1662.36 732.876C1736.16 799.614 1868.72 825.925 1986.52 797.231L2156.3 755.886C2243.02 734.801 2340.38 754.786 2393.18 804.656M-462.456 803.281L-284.975 830.325C-190.001 844.809 -90.4436 825.925 -21.9633 780.363C66.4102 721.508 203.829 708.582 313.838 748.827L398.544 779.813C481.509 810.157 582.35 810.798 666.232 781.555L909.259 696.848C937.219 687.131 967.38 680.53 998.641 677.413L1366.16 640.835C1469.66 630.568 1573.34 658.987 1634.86 714.541L1662.36 739.385C1736.16 806.123 1868.72 832.433 1986.52 803.74L2156.3 762.395C2243.02 741.31 2340.38 761.386 2393.18 811.165M-462.456 809.79L-284.975 836.834C-190.001 851.318 -90.4436 832.433 -21.9633 786.872C66.4102 728.017 203.829 715.091 313.838 755.336L398.544 786.322C481.509 816.666 582.35 817.307 666.232 788.063L909.259 703.357C937.219 693.639 967.38 687.039 998.641 683.922L1366.16 647.344C1469.66 637.077 1573.34 665.496 1634.86 721.05L1662.36 745.893C1736.16 812.632 1868.72 838.942 1986.52 810.248L2156.3 768.903C2243.02 747.819 2340.38 767.803 2393.18 817.674M-462.456 816.207L-284.975 843.251C-190.001 857.735 -90.4436 838.851 -21.9633 793.289C66.4102 734.434 203.829 721.508 313.838 761.753L398.544 792.739C481.509 823.083 582.35 823.724 666.232 794.48L909.259 709.774C937.219 700.056 967.38 693.456 998.641 690.339L1366.16 653.761C1469.66 643.494 1573.34 671.913 1634.86 727.467L1662.36 752.311C1736.16 819.049 1868.72 845.359 1986.52 816.666L2156.3 775.321C2243.02 754.236 2340.38 774.221 2393.18 824.091M-462.456 822.716L-284.975 849.851C-190.001 864.336 -90.4436 845.451 -21.9633 799.889C66.4102 741.035 203.829 728.109 313.838 768.353L398.544 799.339C481.509 829.683 582.35 830.325 666.232 801.081L909.259 716.374C937.219 706.657 967.38 700.056 998.641 696.94L1366.16 660.362C1469.66 650.094 1573.34 678.513 1634.86 734.067L1662.36 758.911C1736.16 825.65 1868.72 851.96 1986.52 823.266L2156.3 781.921C2243.02 760.836 2340.38 780.913 2393.18 830.692M-462.456 829.225L-284.975 856.269C-190.001 870.753 -90.4436 851.868 -21.9633 806.306C66.4102 747.452 203.829 734.526 313.838 774.771L398.453 805.665C481.417 836.009 582.259 836.65 666.14 807.406L909.167 722.7C937.128 712.982 967.289 706.382 998.549 703.265L1366.07 666.687C1469.57 656.42 1573.25 684.839 1634.77 740.393L1662.27 765.237C1736.06 831.975 1868.62 858.285 1986.43 829.591L2156.21 788.247C2242.93 767.162 2340.29 787.147 2393.09 837.017M-462.456 835.642L-284.975 862.777C-190.001 877.262 -90.4436 858.285 -21.9633 812.815C66.4102 753.961 203.829 741.035 313.838 781.279L398.544 812.265C481.509 842.609 582.35 843.251 666.232 814.007L909.259 729.3C937.219 719.583 967.38 712.982 998.641 709.866L1366.16 673.288C1469.66 663.02 1573.34 691.439 1634.86 746.993L1662.36 771.837C1736.16 838.576 1868.72 864.886 1986.52 836.192L2156.3 794.847C2243.02 773.762 2340.38 793.747 2393.18 843.618M-462.456 842.151L-284.975 869.195C-190.001 883.679 -90.4436 864.794 -21.9633 819.232C66.4102 760.378 203.829 747.452 313.838 787.697L398.544 818.682C481.509 849.026 582.35 849.668 666.232 820.424L909.259 735.718C937.219 726 967.38 719.4 998.641 716.283L1366.16 679.705C1469.66 669.437 1573.34 697.856 1634.86 753.411L1662.36 778.254C1736.16 844.993 1868.72 871.303 1986.52 842.609L2156.3 801.264C2243.02 780.179 2340.38 800.256 2393.18 850.035M-462.456 848.66L-284.975 875.703C-190.001 890.188 -90.4436 871.303 -21.9633 825.741C66.4102 766.887 203.829 753.961 313.838 794.205L398.544 825.191C481.509 855.535 582.35 856.177 666.232 826.933L909.259 742.226C937.219 732.509 967.38 725.908 998.641 722.792L1366.16 686.214C1469.66 675.946 1573.34 704.365 1634.86 759.919L1662.36 784.763C1736.16 851.502 1868.72 877.812 1986.52 849.118L2156.3 807.773C2243.02 786.688 2340.38 806.673 2393.18 856.544M-462.456 855.077L-284.975 882.121C-190.001 896.605 -90.4436 877.629 -21.9633 832.158C66.4102 773.304 203.829 760.378 313.838 800.623L398.544 831.608C481.509 861.952 582.35 862.594 666.232 833.35L909.259 748.644C937.219 738.926 967.38 732.326 998.641 729.209L1366.16 692.631C1469.66 682.363 1573.34 710.782 1634.86 766.337L1662.36 791.18C1736.16 857.919 1868.72 884.229 1986.52 855.535L2156.3 814.19C2243.02 793.105 2340.38 813.182 2393.18 862.961M-462.456 861.586L-284.975 888.629C-190.001 903.114 -90.4436 884.229 -21.9633 838.667C66.4102 779.813 203.829 766.887 313.838 807.131L398.544 838.117C481.509 868.461 582.35 869.103 666.232 839.859L909.259 755.152C937.219 745.435 967.38 738.835 998.641 735.718L1366.16 699.14C1469.66 688.872 1573.34 717.291 1634.86 772.846L1662.36 797.689C1736.16 864.428 1868.72 890.738 1986.52 862.044L2156.3 820.699C2243.02 799.614 2340.38 819.599 2393.18 869.47M-462.456 868.094L-284.975 895.138C-190.001 909.623 -90.4436 890.738 -21.9633 845.176C66.4102 786.321 203.829 773.396 313.838 813.64L398.544 844.626C481.509 874.97 582.35 875.612 666.232 846.368L909.259 761.661C937.219 751.944 967.38 745.343 998.641 742.226L1366.16 705.649C1469.66 695.381 1573.34 723.8 1634.86 779.354L1662.36 804.198C1736.16 870.936 1868.72 897.247 1986.52 868.553L2156.3 827.208C2243.02 806.123 2340.38 826.2 2393.18 875.979M-462.456 874.512L-284.975 901.555C-190.001 916.04 -90.4436 897.155 -21.9633 851.593C66.4102 792.739 203.829 779.813 313.838 820.058L398.544 851.043C481.509 881.387 582.35 882.029 666.232 852.785L909.259 768.078C937.219 758.361 967.38 751.761 998.641 748.644L1366.16 712.066C1469.66 701.798 1573.34 730.217 1634.86 785.771L1662.36 810.615C1736.16 877.354 1868.72 903.664 1986.52 874.97L2156.3 833.625C2243.02 812.54 2340.38 832.525 2393.18 882.396M-462.456 881.021L-284.975 908.064C-190.001 922.549 -90.4436 903.664 -21.9633 858.102C66.4102 799.248 203.829 786.322 313.838 826.566L398.544 857.552C481.509 887.896 582.35 888.538 666.232 859.294L909.259 774.587C937.219 764.87 967.38 758.269 998.641 755.152L1366.16 718.575C1469.66 708.307 1573.34 736.726 1634.86 792.28L1662.36 817.124C1736.16 883.862 1868.72 910.173 1986.52 881.479L2156.3 840.134C2243.02 819.049 2340.38 839.034 2393.18 888.904M-462.456 887.438L-284.975 914.573C-190.001 929.058 -90.4436 910.173 -21.9633 864.611C66.4102 805.756 203.829 792.83 313.838 833.075L398.544 864.061C481.509 894.405 582.35 895.047 666.232 865.803L909.259 781.096C937.219 771.379 967.38 764.778 998.641 761.661L1366.16 725.083C1469.66 714.816 1573.34 743.235 1634.86 798.789L1662.36 823.633C1736.16 890.371 1868.72 916.682 1986.52 887.988L2156.3 846.643C2243.02 825.558 2340.38 845.634 2393.18 895.413M-462.456 893.947L-284.975 920.99C-190.001 935.475 -90.4436 916.59 -21.9633 871.028C66.4102 812.174 203.829 799.248 313.838 839.492L398.544 870.478C481.509 900.822 582.35 901.464 666.232 872.22L909.259 787.513C937.219 777.796 967.38 771.195 998.641 768.078L1366.16 731.501C1469.66 721.233 1573.34 749.652 1634.86 805.206L1662.36 830.05C1736.16 896.788 1868.72 923.099 1986.52 894.405L2156.3 853.06C2243.02 831.975 2340.38 852.052 2393.18 901.83M-462.456 900.455L-284.975 927.499C-190.001 941.984 -90.4436 923.099 -21.9633 877.537C66.4102 818.682 203.829 805.756 313.838 846.001L398.544 876.987C481.509 907.331 582.35 907.973 666.232 878.729L909.259 794.022C937.219 784.305 967.38 777.704 998.641 774.587L1366.16 738.009C1469.66 727.742 1573.34 756.161 1634.86 811.715L1662.36 836.559C1736.16 903.297 1868.72 929.608 1986.52 900.914L2156.3 859.569C2243.02 838.484 2340.38 858.469 2393.18 908.339M-462.456 906.873L-284.975 933.916C-190.001 948.401 -90.4436 929.516 -21.9633 883.954C66.4102 825.1 203.829 812.173 313.838 852.418L398.544 883.404C481.509 913.748 582.35 914.39 666.232 885.146L909.259 800.439C937.219 790.722 967.38 784.121 998.641 781.004L1366.16 744.427C1469.66 734.159 1573.34 762.578 1634.86 818.132L1662.36 842.976C1736.16 909.714 1868.72 936.025 1986.52 907.331L2156.3 865.986C2243.02 844.901 2340.38 864.978 2393.18 914.756M-462.456 913.381L-284.975 940.425C-190.001 954.91 -90.4436 936.025 -21.9633 890.463C66.4102 831.608 203.829 818.682 313.838 858.927L398.544 889.913C481.509 920.257 582.35 920.899 666.232 891.655L909.259 806.948C937.219 797.231 967.38 790.63 998.641 787.513L1366.16 750.935C1469.66 740.668 1573.34 769.087 1634.86 824.641L1662.36 849.485C1736.16 916.223 1868.72 942.534 1986.52 913.84L2156.3 872.495C2243.02 851.41 2340.38 871.395 2393.18 921.265M-462.456 919.89L-284.975 946.934C-190.001 961.418 -90.4436 942.534 -21.9633 896.972C66.4102 838.117 203.829 825.191 313.838 865.436L398.544 896.422C481.509 926.766 582.35 927.407 666.232 898.164L909.259 813.457C937.219 803.74 967.38 797.139 998.641 794.022L1366.16 757.444C1469.66 747.177 1573.34 775.596 1634.86 831.242L1662.36 856.085C1736.16 922.824 1868.72 949.134 1986.52 920.44L2156.3 879.095C2243.02 858.01 2340.38 878.087 2393.18 927.866M-462.456 926.307L-284.975 953.443C-190.001 967.927 -90.4436 949.043 -21.9633 903.481C66.4102 844.626 203.829 831.7 313.838 871.945L398.453 902.839C481.417 933.183 582.259 933.825 666.14 904.581L909.167 819.874C937.128 810.157 967.289 803.556 998.549 800.439L1366.07 763.861C1469.57 753.594 1573.25 782.013 1634.77 837.567L1662.27 862.411C1736.06 929.149 1868.62 955.46 1986.43 926.766L2156.21 885.421C2242.93 864.336 2340.29 884.321 2393.09 934.191M-462.456 932.816L-284.975 959.86C-190.001 974.344 -90.4436 955.46 -21.9633 909.898C66.4102 851.043 203.829 838.117 313.838 878.362L398.453 909.256C481.417 939.6 582.259 940.242 666.14 910.998L909.167 826.291C937.128 816.574 967.289 809.973 998.549 806.856L1366.07 770.279C1469.57 760.011 1573.25 788.43 1634.77 844.076L1662.27 868.92C1736.06 935.658 1868.62 961.969 1986.43 933.275L2156.21 891.93C2242.93 870.845 2340.29 890.921 2393.09 940.7M-462.456 939.233L-284.975 966.369C-190.001 980.853 -90.4436 961.877 -21.9633 916.407C66.4102 857.552 203.829 844.626 313.838 884.871L398.544 915.857C481.509 946.201 582.35 946.842 666.232 917.598L909.259 832.892C937.219 823.174 967.38 816.574 998.641 813.457L1366.16 776.879C1469.66 766.612 1573.34 795.03 1634.86 850.585L1662.36 875.428C1736.16 942.167 1868.72 968.477 1986.52 939.783L2156.3 898.439C2243.02 877.354 2340.38 897.338 2393.18 947.209M-462.456 945.742L-284.975 972.786C-190.001 987.27 -90.4436 968.386 -21.9633 922.824C66.4102 863.969 203.829 851.043 313.838 891.288L398.544 922.274C481.509 952.618 582.35 953.259 666.232 924.015L909.259 839.309C937.219 829.592 967.38 822.991 998.641 819.874L1366.16 783.296C1469.66 773.029 1573.34 801.448 1634.86 857.094L1662.36 881.937C1736.16 948.676 1868.72 974.986 1986.52 946.292L2156.3 904.947C2243.02 883.862 2340.38 903.939 2393.18 953.718M-462.456 952.251L-284.975 979.386C-190.001 993.871 -90.4436 974.894 -21.9633 929.424C66.4102 870.57 203.829 857.644 313.838 897.888L398.544 928.874C481.509 959.218 582.35 959.86 666.232 930.616L909.259 845.909C937.219 836.192 967.38 829.592 998.641 826.475L1366.16 789.897C1469.66 779.629 1573.34 808.048 1634.86 863.603L1662.36 888.446C1736.16 955.185 1868.72 981.495 1986.52 952.801L2156.3 911.456C2243.02 890.371 2340.38 910.448 2393.18 960.227" stroke="#CECEDB" stroke-miterlimit="10"/>
</svg>
