<svg width="1402" height="1095" viewBox="0 0 1402 1095" fill="none" xmlns="http://www.w3.org/2000/svg">
<path d="M-212 -216L-325.391 -268.606L-212 -216ZM933 228.5L870.771 336.909L933 228.5ZM1514 360.351L1598.43 452.525C1635.33 418.731 1648.51 366.194 1631.96 318.982C1615.4 271.771 1572.28 238.979 1522.37 235.631L1514 360.351ZM1171 942.851L1251.85 847.517L1171 942.851ZM-840.469 262.059C-734.261 254.794 -588.254 224.172 -451.155 160.932C-315.199 98.2188 -172.593 -3.92184 -98.6086 -163.394L-325.391 -268.606C-364.607 -184.078 -447.918 -115.876 -555.87 -66.0808C-662.679 -16.8125 -778.572 7.24091 -857.531 12.6422L-840.469 262.059ZM-98.6086 -163.394C-88.7463 -184.652 -80.7332 -190.048 -78.9538 -191.15C-77.3621 -192.135 -71.7419 -195.359 -55.5428 -194.745C-16.0723 -193.251 48.7822 -170.999 146.932 -117.072C241.506 -65.1096 349.55 6.03537 473.055 87.2761C594.795 167.356 729.367 255.74 870.771 336.909L995.229 120.091C861.383 43.2604 732.892 -41.0425 610.445 -121.588C489.762 -200.972 372.494 -278.39 267.317 -336.178C165.718 -392 56.3847 -440.686 -46.0823 -444.566C-100.852 -446.64 -158.138 -436.161 -210.554 -403.709C-262.782 -371.373 -299.879 -323.598 -325.391 -268.606L-98.6086 -163.394ZM870.771 336.909C987.38 403.846 1129.58 438.404 1245.28 457.553C1363.04 477.044 1465.93 482.407 1505.63 485.071L1522.37 235.631C1480.07 232.795 1389.71 228.057 1286.1 210.908C1180.42 193.419 1073.12 164.802 995.229 120.091L870.771 336.909ZM1429.57 268.177C1334.68 355.092 1204.93 478.224 1117.12 598.221C1074.03 657.116 1032.59 726.339 1016.25 797.924C998.27 876.651 1009.82 970.061 1090.15 1038.18L1251.85 847.517C1251.82 847.496 1252.18 847.792 1252.76 848.454C1253.35 849.121 1254.08 850.059 1254.85 851.266C1256.49 853.84 1257.63 856.598 1258.26 859.021C1259.47 863.658 1257.83 862.957 1259.97 853.575C1264.91 831.956 1282.35 795.774 1318.88 745.856C1390.32 648.228 1502.82 540.11 1598.43 452.525L1429.57 268.177ZM1090.15 1038.18C1157.68 1095.46 1242.09 1098.74 1304.51 1090.98C1369.73 1082.88 1437.61 1059.69 1499.25 1032.99C1623.44 979.212 1748.91 899.388 1827.14 842.359L1679.86 640.343C1611.09 690.481 1501.91 759.406 1399.9 803.583C1348.44 825.869 1305.33 838.958 1273.69 842.891C1239.25 847.171 1240.92 838.246 1251.85 847.517L1090.15 1038.18Z" fill="#FF4F58"/>
</svg>
