<svg width="1440" height="750" viewBox="0 0 1440 750" fill="none" xmlns="http://www.w3.org/2000/svg">
  <mask id="mask0_4126_851" style="mask-type:alpha" maskUnits="userSpaceOnUse" x="89" y="0"
    width="1231" height="685">
    <path fill-rule="evenodd" clip-rule="evenodd"
      d="M772.71 38.8725C929.857 40.3043 1105.4 -36.9525 1226.13 31.8712C1348.63 101.698 1322.55 233.659 1304.53 342.033C1288.89 436.07 1242.79 530.783 1133.51 588.838C1033.74 641.846 897.938 613.184 772.71 624.581C609.496 639.435 442.097 722.831 301.167 664.589C147.807 601.211 87.8915 464.595 89.0155 342.033C90.1332 220.156 157.536 89.7926 307.047 23.4975C442.608 -36.6121 611.174 37.4008 772.71 38.8725Z"
      fill="url(#paint0_linear_4126_851)" />
  </mask>
  <g mask="url(#mask0_4126_851)">
    <g style="mix-blend-mode:multiply">
      <path
        d="M0 287.797C121.915 295.653 162.887 263.812 215.85 227.834C319.428 157.473 370.743 183.86 426.704 202.849C482.665 221.837 539.263 263.812 627.564 263.812C753.477 263.812 901.124 187.765 968.328 168.87C1125.22 124.758 1298.1 132.892 1353.06 134.891C1397.03 136.49 1429.34 142.22 1440 144.885"
        stroke="#131363" />
      <path
        d="M0 297.797C121.915 305.653 162.887 273.812 215.85 237.834C319.428 167.473 370.743 193.86 426.704 212.849C482.665 231.837 539.263 273.812 627.564 273.812C753.477 273.812 901.124 197.765 968.328 178.87C1125.22 134.758 1298.1 142.892 1353.06 144.891C1397.03 146.49 1429.34 152.22 1440 154.885"
        stroke="#131363" />
      <path
        d="M0 307.797C121.915 315.653 162.887 283.812 215.85 247.834C319.428 177.473 370.743 203.86 426.704 222.849C482.665 241.837 539.263 283.812 627.564 283.812C753.477 283.812 901.124 207.765 968.328 188.87C1125.22 144.758 1298.1 152.892 1353.06 154.891C1397.03 156.49 1429.34 162.22 1440 164.885"
        stroke="#131363" />
      <path
        d="M0 317.797C121.915 325.653 162.887 293.812 215.85 257.834C319.428 187.473 370.743 213.86 426.704 232.849C482.665 251.837 539.263 293.812 627.564 293.812C753.477 293.812 901.124 217.765 968.328 198.87C1125.22 154.758 1298.1 162.892 1353.06 164.891C1397.03 166.49 1429.34 172.22 1440 174.885"
        stroke="#131363" />
      <path
        d="M0 327.797C121.915 335.653 162.887 303.812 215.85 267.834C319.428 197.473 370.743 223.86 426.704 242.849C482.665 261.837 539.263 303.812 627.564 303.812C753.477 303.812 901.124 227.765 968.328 208.87C1125.22 164.758 1298.1 172.892 1353.06 174.891C1397.03 176.49 1429.34 182.22 1440 184.885"
        stroke="#131363" />
      <path
        d="M0 337.797C121.915 345.653 162.887 313.812 215.85 277.834C319.428 207.473 370.743 233.86 426.704 252.849C482.665 271.837 539.263 313.812 627.564 313.812C753.477 313.812 901.124 237.765 968.328 218.87C1125.22 174.758 1298.1 182.892 1353.06 184.891C1397.03 186.49 1429.34 192.22 1440 194.885"
        stroke="#131363" />
      <path
        d="M0 347.797C121.915 355.653 162.887 323.812 215.85 287.834C319.428 217.473 370.743 243.86 426.704 262.849C482.665 281.837 539.263 323.812 627.564 323.812C753.477 323.812 901.124 247.765 968.328 228.87C1125.22 184.758 1298.1 192.892 1353.06 194.891C1397.03 196.49 1429.34 202.22 1440 204.885"
        stroke="#131363" />
      <path
        d="M0 357.797C121.915 365.653 162.887 333.812 215.85 297.834C319.428 227.473 370.743 253.86 426.704 272.849C482.665 291.837 539.263 333.812 627.564 333.812C753.477 333.812 901.124 257.765 968.328 238.87C1125.22 194.758 1298.1 202.892 1353.06 204.891C1397.03 206.49 1429.34 212.22 1440 214.885"
        stroke="#131363" />
      <path
        d="M0 367.797C121.915 375.653 162.887 343.812 215.85 307.834C319.428 237.473 370.743 263.86 426.704 282.849C482.665 301.837 539.263 343.812 627.564 343.812C753.477 343.812 901.124 267.765 968.328 248.87C1125.22 204.758 1298.1 212.892 1353.06 214.891C1397.03 216.49 1429.34 222.22 1440 224.885"
        stroke="#131363" />
      <path
        d="M0 377.797C121.915 385.653 162.887 353.812 215.85 317.834C319.428 247.473 370.743 273.86 426.704 292.849C482.665 311.837 539.263 353.812 627.564 353.812C753.477 353.812 901.124 277.765 968.328 258.87C1125.22 214.758 1298.1 222.892 1353.06 224.891C1397.03 226.49 1429.34 232.22 1440 234.885"
        stroke="#131363" />
      <path
        d="M0 387.797C121.915 395.653 162.887 363.812 215.85 327.834C319.428 257.473 370.743 283.86 426.704 302.849C482.665 321.837 539.263 363.812 627.564 363.812C753.477 363.812 901.124 287.765 968.328 268.87C1125.22 224.758 1298.1 232.892 1353.06 234.891C1397.03 236.49 1429.34 242.22 1440 244.885"
        stroke="#131363" />
      <path
        d="M0 397.797C121.915 405.653 162.887 373.812 215.85 337.834C319.428 267.473 370.743 293.86 426.704 312.849C482.665 331.837 539.263 373.812 627.564 373.812C753.477 373.812 901.124 297.765 968.328 278.87C1125.22 234.758 1298.1 242.892 1353.06 244.891C1397.03 246.49 1429.34 252.22 1440 254.885"
        stroke="#131363" />
      <path
        d="M0 407.797C121.915 415.653 162.887 383.812 215.85 347.834C319.428 277.473 370.743 303.86 426.704 322.849C482.665 341.837 539.263 383.812 627.564 383.812C753.477 383.812 901.124 307.765 968.328 288.87C1125.22 244.758 1298.1 252.892 1353.06 254.891C1397.03 256.49 1429.34 262.22 1440 264.885"
        stroke="#131363" />
      <path
        d="M0 417.797C121.915 425.653 162.887 393.812 215.85 357.834C319.428 287.473 370.743 313.86 426.704 332.849C482.665 351.837 539.263 393.812 627.564 393.812C753.477 393.812 901.124 317.765 968.328 298.87C1125.22 254.758 1298.1 262.892 1353.06 264.891C1397.03 266.49 1429.34 272.22 1440 274.885"
        stroke="#131363" />
      <path
        d="M0 427.797C121.915 435.653 162.887 403.812 215.85 367.834C319.428 297.473 370.743 323.86 426.704 342.849C482.665 361.837 539.263 403.812 627.564 403.812C753.477 403.812 901.124 327.765 968.328 308.87C1125.22 264.758 1298.1 272.892 1353.06 274.891C1397.03 276.49 1429.34 282.22 1440 284.885"
        stroke="#131363" />
      <path
        d="M0 437.797C121.915 445.653 162.887 413.812 215.85 377.834C319.428 307.473 370.743 333.86 426.704 352.849C482.665 371.837 539.263 413.812 627.564 413.812C753.477 413.812 901.124 337.765 968.328 318.87C1125.22 274.758 1298.1 282.892 1353.06 284.891C1397.03 286.49 1429.34 292.22 1440 294.885"
        stroke="#131363" />
      <path
        d="M0 447.797C121.915 455.653 162.887 423.812 215.85 387.834C319.428 317.473 370.743 343.86 426.704 362.849C482.665 381.837 539.263 423.812 627.564 423.812C753.477 423.812 901.124 347.765 968.328 328.87C1125.22 284.758 1298.1 292.892 1353.06 294.891C1397.03 296.49 1429.34 302.22 1440 304.885"
        stroke="#131363" />
      <path
        d="M0 457.797C121.915 465.653 162.887 433.812 215.85 397.834C319.428 327.473 370.743 353.86 426.704 372.849C482.665 391.837 539.263 433.812 627.564 433.812C753.477 433.812 901.124 357.765 968.328 338.87C1125.22 294.758 1298.1 302.892 1353.06 304.891C1397.03 306.49 1429.34 312.22 1440 314.885"
        stroke="#131363" />
      <path
        d="M0 467.797C121.915 475.653 162.887 443.812 215.85 407.834C319.428 337.473 370.743 363.86 426.704 382.849C482.665 401.837 539.263 443.812 627.564 443.812C753.477 443.812 901.124 367.765 968.328 348.87C1125.22 304.758 1298.1 312.892 1353.06 314.891C1397.03 316.49 1429.34 322.22 1440 324.885"
        stroke="#131363" />
      <path
        d="M0 477.797C121.915 485.653 162.887 453.812 215.85 417.834C319.428 347.473 370.743 373.86 426.704 392.849C482.665 411.837 539.263 453.812 627.564 453.812C753.477 453.812 901.124 377.765 968.328 358.87C1125.22 314.758 1298.1 322.892 1353.06 324.891C1397.03 326.49 1429.34 332.22 1440 334.885"
        stroke="#131363" />
      <path
        d="M0 487.797C121.915 495.653 162.887 463.812 215.85 427.834C319.428 357.473 370.743 383.86 426.704 402.849C482.665 421.837 539.263 463.812 627.564 463.812C753.477 463.812 901.124 387.765 968.328 368.87C1125.22 324.758 1298.1 332.892 1353.06 334.891C1397.03 336.49 1429.34 342.22 1440 344.885"
        stroke="#131363" />
      <path
        d="M0 497.797C121.915 505.653 162.887 473.812 215.85 437.834C319.428 367.473 370.743 393.86 426.704 412.849C482.665 431.837 539.263 473.812 627.564 473.812C753.477 473.812 901.124 397.765 968.328 378.87C1125.22 334.758 1298.1 342.892 1353.06 344.891C1397.03 346.49 1429.34 352.22 1440 354.885"
        stroke="#131363" />
      <path
        d="M0 507.797C121.915 515.653 162.887 483.812 215.85 447.834C319.428 377.473 370.743 403.86 426.704 422.849C482.665 441.837 539.263 483.812 627.564 483.812C753.477 483.812 901.124 407.765 968.328 388.87C1125.22 344.758 1298.1 352.892 1353.06 354.891C1397.03 356.49 1429.34 362.22 1440 364.885"
        stroke="#131363" />
      <path
        d="M0 517.797C121.915 525.653 162.887 493.812 215.85 457.834C319.428 387.473 370.743 413.86 426.704 432.849C482.665 451.837 539.263 493.812 627.564 493.812C753.477 493.812 901.124 417.765 968.328 398.87C1125.22 354.758 1298.1 362.892 1353.06 364.891C1397.03 366.49 1429.34 372.22 1440 374.885"
        stroke="#131363" />
      <path
        d="M0 527.797C121.915 535.653 162.887 503.812 215.85 467.834C319.428 397.473 370.743 423.86 426.704 442.849C482.665 461.837 539.263 503.812 627.564 503.812C753.477 503.812 901.124 427.765 968.328 408.87C1125.22 364.758 1298.1 372.892 1353.06 374.891C1397.03 376.49 1429.34 382.22 1440 384.885"
        stroke="#131363" />
      <path
        d="M0 537.797C121.915 545.653 162.887 513.812 215.85 477.834C319.428 407.473 370.743 433.86 426.704 452.849C482.665 471.837 539.263 513.812 627.564 513.812C753.477 513.812 901.124 437.765 968.328 418.87C1125.22 374.758 1298.1 382.892 1353.06 384.891C1397.03 386.49 1429.34 392.22 1440 394.885"
        stroke="#131363" />
      <path
        d="M0 547.797C121.915 555.653 162.887 523.812 215.85 487.834C319.428 417.473 370.743 443.86 426.704 462.849C482.665 481.837 539.263 523.812 627.564 523.812C753.477 523.812 901.124 447.765 968.328 428.87C1125.22 384.758 1298.1 392.892 1353.06 394.891C1397.03 396.49 1429.34 402.22 1440 404.885"
        stroke="#131363" />
      <path
        d="M0 557.797C121.915 565.653 162.887 533.812 215.85 497.834C319.428 427.473 370.743 453.86 426.704 472.849C482.665 491.837 539.263 533.812 627.564 533.812C753.477 533.812 901.124 457.765 968.328 438.87C1125.22 394.758 1298.1 402.892 1353.06 404.891C1397.03 406.49 1429.34 412.22 1440 414.885"
        stroke="#131363" />
      <path
        d="M0 567.797C121.915 575.653 162.887 543.812 215.85 507.834C319.428 437.473 370.743 463.86 426.704 482.849C482.665 501.837 539.263 543.812 627.564 543.812C753.477 543.812 901.124 467.765 968.328 448.87C1125.22 404.758 1298.1 412.892 1353.06 414.891C1397.03 416.49 1429.34 422.22 1440 424.885"
        stroke="#131363" />
      <path
        d="M0 577.797C121.915 585.653 162.887 553.812 215.85 517.834C319.428 447.473 370.743 473.86 426.704 492.849C482.665 511.837 539.263 553.812 627.564 553.812C753.477 553.812 901.124 477.765 968.328 458.87C1125.22 414.758 1298.1 422.892 1353.06 424.891C1397.03 426.49 1429.34 432.22 1440 434.885"
        stroke="#131363" />
      <path
        d="M0 587.797C121.915 595.653 162.887 563.812 215.85 527.834C319.428 457.473 370.743 483.86 426.704 502.849C482.665 521.837 539.263 563.812 627.564 563.812C753.477 563.812 901.124 487.765 968.328 468.87C1125.22 424.758 1298.1 432.892 1353.06 434.891C1397.03 436.49 1429.34 442.22 1440 444.885"
        stroke="#131363" />
      <path
        d="M0 597.797C121.915 605.653 162.887 573.812 215.85 537.834C319.428 467.473 370.743 493.86 426.704 512.849C482.665 531.837 539.263 573.812 627.564 573.812C753.477 573.812 901.124 497.765 968.328 478.87C1125.22 434.758 1298.1 442.892 1353.06 444.891C1397.03 446.49 1429.34 452.22 1440 454.885"
        stroke="#131363" />
      <path
        d="M0 607.797C121.915 615.653 162.887 583.812 215.85 547.834C319.428 477.473 370.743 503.86 426.704 522.849C482.665 541.837 539.263 583.812 627.564 583.812C753.477 583.812 901.124 507.765 968.328 488.87C1125.22 444.758 1298.1 452.892 1353.06 454.891C1397.03 456.49 1429.34 462.22 1440 464.885"
        stroke="#131363" />
      <path
        d="M0 617.797C121.915 625.653 162.887 593.812 215.85 557.834C319.428 487.473 370.743 513.86 426.704 532.849C482.665 551.837 539.263 593.812 627.564 593.812C753.477 593.812 901.124 517.765 968.328 498.87C1125.22 454.758 1298.1 462.892 1353.06 464.891C1397.03 466.49 1429.34 472.22 1440 474.885"
        stroke="#131363" />
      <path
        d="M0 627.797C121.915 635.653 162.887 603.812 215.85 567.834C319.428 497.473 370.743 523.86 426.704 542.849C482.665 561.837 539.263 603.812 627.564 603.812C753.477 603.812 901.124 527.765 968.328 508.87C1125.22 464.758 1298.1 472.892 1353.06 474.891C1397.03 476.49 1429.34 482.22 1440 484.885"
        stroke="#131363" />
      <path
        d="M0 637.797C121.915 645.653 162.887 613.812 215.85 577.834C319.428 507.473 370.743 533.86 426.704 552.849C482.665 571.837 539.263 613.812 627.564 613.812C753.477 613.812 901.124 537.765 968.328 518.87C1125.22 474.758 1298.1 482.892 1353.06 484.891C1397.03 486.49 1429.34 492.22 1440 494.885"
        stroke="#131363" />
      <path
        d="M0 647.797C121.915 655.653 162.887 623.812 215.85 587.834C319.428 517.473 370.743 543.86 426.704 562.849C482.665 581.837 539.263 623.812 627.564 623.812C753.477 623.812 901.124 547.765 968.328 528.87C1125.22 484.758 1298.1 492.892 1353.06 494.891C1397.03 496.49 1429.34 502.22 1440 504.885"
        stroke="#131363" />
      <path
        d="M0 657.797C121.915 665.653 162.887 633.812 215.85 597.834C319.428 527.473 370.743 553.86 426.704 572.849C482.665 591.837 539.263 633.812 627.564 633.812C753.477 633.812 901.124 557.765 968.328 538.87C1125.22 494.758 1298.1 502.892 1353.06 504.891C1397.03 506.49 1429.34 512.22 1440 514.885"
        stroke="#131363" />
      <path
        d="M0 667.797C121.915 675.653 162.887 643.812 215.85 607.834C319.428 537.473 370.743 563.86 426.704 582.849C482.665 601.837 539.263 643.812 627.564 643.812C753.477 643.812 901.124 567.765 968.328 548.87C1125.22 504.758 1298.1 512.892 1353.06 514.891C1397.03 516.49 1429.34 522.22 1440 524.885"
        stroke="#131363" />
      <path
        d="M0 677.797C121.915 685.653 162.887 653.812 215.85 617.834C319.428 547.473 370.743 573.86 426.704 592.849C482.665 611.837 539.263 653.812 627.564 653.812C753.477 653.812 901.124 577.765 968.328 558.87C1125.22 514.758 1298.1 522.892 1353.06 524.891C1397.03 526.49 1429.34 532.22 1440 534.885"
        stroke="#131363" />
      <path
        d="M0 687.797C121.915 695.653 162.887 663.812 215.85 627.834C319.428 557.473 370.743 583.86 426.704 602.849C482.665 621.837 539.263 663.812 627.564 663.812C753.477 663.812 901.124 587.765 968.328 568.87C1125.22 524.758 1298.1 532.892 1353.06 534.891C1397.03 536.49 1429.34 542.22 1440 544.885"
        stroke="#131363" />
      <path
        d="M0 697.797C121.915 705.653 162.887 673.812 215.85 637.834C319.428 567.473 370.743 593.86 426.704 612.849C482.665 631.837 539.263 673.812 627.564 673.812C753.477 673.812 901.124 597.765 968.328 578.87C1125.22 534.758 1298.1 542.892 1353.06 544.891C1397.03 546.49 1429.34 552.22 1440 554.885"
        stroke="#131363" />
      <path
        d="M0 707.797C121.915 715.653 162.887 683.812 215.85 647.834C319.428 577.473 370.743 603.86 426.704 622.849C482.665 641.837 539.263 683.812 627.564 683.812C753.477 683.812 901.124 607.765 968.328 588.87C1125.22 544.758 1298.1 552.892 1353.06 554.891C1397.03 556.49 1429.34 562.22 1440 564.885"
        stroke="#131363" />
      <path
        d="M0 717.797C121.915 725.653 162.887 693.812 215.85 657.834C319.428 587.473 370.743 613.86 426.704 632.849C482.665 651.837 539.263 693.812 627.564 693.812C753.477 693.812 901.124 617.765 968.328 598.87C1125.22 554.758 1298.1 562.892 1353.06 564.891C1397.03 566.49 1429.34 572.22 1440 574.885"
        stroke="#131363" />
      <path
        d="M0 727.797C121.915 735.653 162.887 703.812 215.85 667.834C319.428 597.473 370.743 623.86 426.704 642.849C482.665 661.837 539.263 703.812 627.564 703.812C753.477 703.812 901.124 627.765 968.328 608.87C1125.22 564.758 1298.1 572.892 1353.06 574.891C1397.03 576.49 1429.34 582.22 1440 584.885"
        stroke="#131363" />
      <path
        d="M0 737.797C121.915 745.653 162.887 713.812 215.85 677.834C319.428 607.473 370.743 633.86 426.704 652.849C482.665 671.837 539.263 713.812 627.564 713.812C753.477 713.812 901.124 637.765 968.328 618.87C1125.22 574.758 1298.1 582.892 1353.06 584.891C1397.03 586.49 1429.34 592.22 1440 594.885"
        stroke="#131363" />
      <path
        d="M0 747.797C121.915 755.653 162.887 723.812 215.85 687.834C319.428 617.473 370.743 643.86 426.704 662.849C482.665 681.837 539.263 723.812 627.564 723.812C753.477 723.812 901.124 647.765 968.328 628.87C1125.22 584.758 1298.1 592.892 1353.06 594.891C1397.03 596.49 1429.34 602.22 1440 604.885"
        stroke="#131363" />
      <path
        d="M0 757.797C121.915 765.653 162.887 733.812 215.85 697.834C319.428 627.473 370.743 653.86 426.704 672.849C482.665 691.837 539.263 733.812 627.564 733.812C753.477 733.812 901.124 657.765 968.328 638.87C1125.22 594.758 1298.1 602.892 1353.06 604.891C1397.03 606.49 1429.34 612.22 1440 614.885"
        stroke="#131363" />
      <path
        d="M0 767.797C121.915 775.653 162.887 743.812 215.85 707.834C319.428 637.473 370.743 663.86 426.704 682.849C482.665 701.837 539.263 743.812 627.564 743.812C753.477 743.812 901.124 667.765 968.328 648.87C1125.22 604.758 1298.1 612.892 1353.06 614.891C1397.03 616.49 1429.34 622.22 1440 624.885"
        stroke="#131363" />
      <path
        d="M0 777.797C121.915 785.653 162.887 753.812 215.85 717.834C319.428 647.473 370.743 673.86 426.704 692.849C482.665 711.837 539.263 753.812 627.564 753.812C753.477 753.812 901.124 677.765 968.328 658.87C1125.22 614.758 1298.1 622.892 1353.06 624.891C1397.03 626.49 1429.34 632.22 1440 634.885"
        stroke="#131363" />
      <path
        d="M0 787.797C121.915 795.653 162.887 763.812 215.85 727.834C319.428 657.473 370.743 683.86 426.704 702.849C482.665 721.837 539.263 763.812 627.564 763.812C753.477 763.812 901.124 687.765 968.328 668.87C1125.22 624.758 1298.1 632.892 1353.06 634.891C1397.03 636.49 1429.34 642.22 1440 644.885"
        stroke="#131363" />
      <path
        d="M0 797.797C121.915 805.653 162.887 773.812 215.85 737.834C319.428 667.473 370.743 693.86 426.704 712.849C482.665 731.837 539.263 773.812 627.564 773.812C753.477 773.812 901.124 697.765 968.328 678.87C1125.22 634.758 1298.1 642.892 1353.06 644.891C1397.03 646.49 1429.34 652.22 1440 654.885"
        stroke="#131363" />
      <path
        d="M0 807.797C121.915 815.653 162.887 783.812 215.85 747.834C319.428 677.473 370.743 703.86 426.704 722.849C482.665 741.837 539.263 783.812 627.564 783.812C753.477 783.812 901.124 707.765 968.328 688.87C1125.22 644.758 1298.1 652.892 1353.06 654.891C1397.03 656.49 1429.34 662.22 1440 664.885"
        stroke="#131363" />
      <path
        d="M0 817.797C121.915 825.653 162.887 793.812 215.85 757.834C319.428 687.473 370.743 713.86 426.704 732.849C482.665 751.837 539.263 793.812 627.564 793.812C753.477 793.812 901.124 717.765 968.328 698.87C1125.22 654.758 1298.1 662.892 1353.06 664.891C1397.03 666.49 1429.34 672.22 1440 674.885"
        stroke="#131363" />
      <path
        d="M0 827.797C121.915 835.653 162.887 803.812 215.85 767.834C319.428 697.473 370.743 723.86 426.704 742.849C482.665 761.837 539.263 803.812 627.564 803.812C753.477 803.812 901.124 727.765 968.328 708.87C1125.22 664.758 1298.1 672.892 1353.06 674.891C1397.03 676.49 1429.34 682.22 1440 684.885"
        stroke="#131363" />
      <path
        d="M0 837.797C121.915 845.653 162.887 813.812 215.85 777.834C319.428 707.473 370.743 733.86 426.704 752.849C482.665 771.837 539.263 813.812 627.564 813.812C753.477 813.812 901.124 737.765 968.328 718.87C1125.22 674.758 1298.1 682.892 1353.06 684.891C1397.03 686.49 1429.34 692.22 1440 694.885"
        stroke="#131363" />
      <path
        d="M0 847.797C121.915 855.653 162.887 823.812 215.85 787.834C319.428 717.473 370.743 743.86 426.704 762.849C482.665 781.837 539.263 823.812 627.564 823.812C753.477 823.812 901.124 747.765 968.328 728.87C1125.22 684.758 1298.1 692.892 1353.06 694.891C1397.03 696.49 1429.34 702.22 1440 704.885"
        stroke="#131363" />
    </g>
  </g>
  <defs>
    <linearGradient id="paint0_linear_4126_851" x1="1259" y1="103" x2="325" y2="606"
      gradientUnits="userSpaceOnUse">
      <stop stop-color="white" />
      <stop offset="1" />
    </linearGradient>
  </defs>
</svg>