<svg width="1728" height="232" viewBox="0 0 1728 232" fill="none" xmlns="http://www.w3.org/2000/svg">
  <g clip-path="url(#clip0_8268_103)">
    <path
      d="M284.73 107.263L0 34V266H1728V33.5L1619.84 107.263L1491.56 44.1053L1251.61 107.263L919.588 44.1053L775.21 107.263L594.613 34L284.73 107.263Z"
      fill="#CFD0D7" />
    <path d="M593.777 38.074L775.377 112.074" stroke="black" stroke-width="2" />
    <path d="M774.596 112.085L919.596 48.0851" stroke="black" stroke-width="2" />
    <path d="M919.039 48.2183L1251.95 112.2" stroke="black" stroke-width="2" />
    <path d="M1251.54 112.235L1491.54 47.235" stroke="black" stroke-width="2" />
    <path d="M1490.94 46.9039L1620.44 111.104" stroke="black" stroke-width="2" />
    <path d="M1619 111L1728 37" stroke="black" stroke-width="2" />
    <path d="M0.252197 37.0323L284.252 111.032" stroke="black" stroke-width="2" />
    <path d="M283.771 111.027L594.428 38.1071" stroke="black" stroke-width="2" />
    <path
      d="M284 116C286.761 116 289 113.761 289 111C289 108.239 286.761 106 284 106C281.239 106 279 108.239 279 111C279 113.761 281.239 116 284 116Z"
      fill="#B33C3F" />
    <path
      d="M595 44C597.761 44 600 41.7614 600 39C600 36.2386 597.761 34 595 34C592.239 34 590 36.2386 590 39C590 41.7614 592.239 44 595 44Z"
      fill="#B33C3F" />
    <path
      d="M775 116C777.761 116 780 113.761 780 111C780 108.239 777.761 106 775 106C772.239 106 770 108.239 770 111C770 113.761 772.239 116 775 116Z"
      fill="#B33C3F" />
    <path
      d="M919 54C921.761 54 924 51.7614 924 49C924 46.2386 921.761 44 919 44C916.239 44 914 46.2386 914 49C914 51.7614 916.239 54 919 54Z"
      fill="#B33C3F" />
    <path
      d="M1252 116C1254.76 116 1257 113.761 1257 111C1257 108.239 1254.76 106 1252 106C1249.24 106 1247 108.239 1247 111C1247 113.761 1249.24 116 1252 116Z"
      fill="#B33C3F" />
    <path
      d="M1491 53C1493.76 53 1496 50.7614 1496 48C1496 45.2386 1493.76 43 1491 43C1488.24 43 1486 45.2386 1486 48C1486 50.7614 1488.24 53 1491 53Z"
      fill="#B33C3F" />
    <path
      d="M1620 116C1622.76 116 1625 113.761 1625 111C1625 108.239 1622.76 106 1620 106C1617.24 106 1615 108.239 1615 111C1615 113.761 1617.24 116 1620 116Z"
      fill="#B33C3F" />
    <path
      d="M0 39C2.76142 39 5 36.7614 5 34C5 31.2386 2.76142 29 0 29C-2.76142 29 -5 31.2386 -5 34C-5 36.7614 -2.76142 39 0 39Z"
      fill="#B33C3F" />
    <path
      d="M1728 39C1730.76 39 1733 36.7614 1733 34C1733 31.2386 1730.76 29 1728 29C1725.24 29 1723 31.2386 1723 34C1723 36.7614 1725.24 39 1728 39Z"
      fill="#B33C3F" />
  </g>
  <defs>
    <clipPath id="clip0_8268_103">
      <rect width="1728" height="232" fill="white" />
    </clipPath>
  </defs>
</svg>