<svg width="190" height="29" viewBox="0 0 190 29" fill="none" xmlns="http://www.w3.org/2000/svg">
<path d="M7.30373 3.24751C6.70274 3.24751 6.14797 3.3613 5.63944 3.5889C5.1309 3.8165 4.68638 4.12588 4.30942 4.51351C3.93247 4.90113 3.6373 5.35988 3.42749 5.87908C3.21767 6.40184 3.11455 6.96016 3.11455 7.56116C3.11455 8.16216 3.22479 8.74182 3.44527 9.26813C3.66575 9.79445 3.96803 10.2496 4.3521 10.6337C4.73617 11.0178 5.1878 11.3201 5.71056 11.5405C6.23332 11.7646 6.79876 11.8748 7.41042 11.8748C8.23901 11.8748 8.94314 11.7041 9.53347 11.3627C10.1202 11.0213 10.6003 10.6088 10.9702 10.1323L12.6416 11.6259C12.0797 12.3442 11.3471 12.9274 10.4474 13.3684C9.54769 13.8129 8.51639 14.0334 7.35352 14.0334C6.37201 14.0334 5.4723 13.8663 4.65793 13.5284C3.84356 13.1942 3.143 12.7354 2.55622 12.1522C1.96945 11.5725 1.5107 10.8862 1.17998 10.0932C0.849253 9.30369 0.685669 8.45732 0.685669 7.5576C0.685669 6.65789 0.849255 5.81507 1.17287 5.02204C1.49648 4.23257 1.94812 3.54623 2.53133 2.96301C3.11455 2.3798 3.81156 1.9246 4.62593 1.58677C5.44029 1.24893 6.34001 1.08179 7.32152 1.08179C8.30302 1.08179 9.11383 1.24537 9.89264 1.56898C10.6714 1.8926 11.3507 2.33001 11.9232 2.88122L10.3585 4.53485C9.97443 4.15078 9.52635 3.84139 9.0107 3.59957C8.49506 3.3613 7.92607 3.24039 7.30373 3.24039V3.24751Z" fill="white"/>
<path d="M16.3364 13.8592H14V1.09247H16.3364V13.8592Z" fill="white"/>
<path d="M19 2.04552C19 1.62589 19.1494 1.27383 19.4481 0.98578C19.7468 0.697728 20.106 0.555481 20.5256 0.555481C20.9452 0.555481 21.3044 0.697728 21.6067 0.98578C21.9054 1.27383 22.0548 1.62589 22.0548 2.04552C22.0548 2.46515 21.9054 2.82077 21.6067 3.10527C21.308 3.39332 20.9452 3.53912 20.5256 3.53912C20.106 3.53912 19.7468 3.39332 19.4481 3.10527C19.1494 2.81722 19 2.46515 19 2.04552ZM21.6956 13.8592H19.3592V5.13585H21.6956V13.8556V13.8592Z" fill="white"/>
<path d="M24.4197 13.8592V5.13583H26.6672V5.8364C27.0122 5.52701 27.3891 5.29942 27.791 5.16073C28.1928 5.02204 28.6018 4.95447 29.0214 4.95447C29.6224 4.95447 30.1701 5.07538 30.675 5.32431C31.18 5.56969 31.6032 5.90397 31.9517 6.3236C32.3002 5.9502 32.7412 5.63014 33.2746 5.35987C33.808 5.0896 34.3984 4.95447 35.0456 4.95447C35.6573 4.95447 36.2334 5.07893 36.7703 5.33142C37.3073 5.58391 37.7519 5.92531 38.1004 6.35561C38.3777 6.70411 38.5911 7.10952 38.7476 7.56827C38.9041 8.03057 38.9823 8.58534 38.9823 9.23256V13.8521H36.6459V9.1401C36.6459 8.74536 36.6068 8.43598 36.5285 8.21549C36.4503 7.99501 36.3472 7.80653 36.212 7.65006C36.0307 7.44736 35.8244 7.30511 35.5897 7.22687C35.355 7.14864 35.1238 7.10952 34.8998 7.10952C34.6473 7.10952 34.4126 7.14864 34.1886 7.22687C33.9645 7.30511 33.7654 7.40113 33.5876 7.51492C33.4098 7.62872 33.2497 7.75319 33.111 7.89188C32.9723 8.03057 32.8692 8.15148 32.7945 8.26172C32.8194 8.40753 32.8372 8.56044 32.8479 8.72047C32.8585 8.8805 32.8657 9.0512 32.8657 9.23256V13.8521H30.5292V9.1401C30.5292 8.74536 30.4901 8.43598 30.4119 8.21549C30.3336 7.99501 30.2305 7.80653 30.0954 7.65006C29.9176 7.44736 29.7113 7.30511 29.4766 7.22687C29.2419 7.14864 29.0107 7.10952 28.7831 7.10952C28.5307 7.10952 28.2995 7.14508 28.0897 7.2162C27.8799 7.28733 27.6878 7.37979 27.5136 7.48647C27.3393 7.59316 27.19 7.71051 27.0655 7.83854C26.941 7.96656 26.8344 8.08036 26.749 8.1906V13.8556H24.4126L24.4197 13.8592Z" fill="white"/>
<path d="M49.8642 13.8592H47.6167V13.1586C47.2576 13.4716 46.8735 13.6956 46.4645 13.8343C46.0591 13.973 45.6324 14.0406 45.1879 14.0406C44.5406 14.0406 43.9254 13.909 43.3458 13.6458C42.7661 13.3827 42.2824 13.0235 41.8984 12.5683C41.5499 12.1736 41.276 11.7148 41.0805 11.1921C40.8813 10.6729 40.7817 10.111 40.7817 9.50999C40.7817 8.86276 40.892 8.26177 41.1125 7.71056C41.3365 7.15935 41.6388 6.67926 42.03 6.27386C42.4176 5.8649 42.8728 5.54484 43.3884 5.31013C43.9041 5.07542 44.4624 4.95807 45.0598 4.95807C45.5648 4.95807 46.0271 5.0363 46.4539 5.19278C46.8806 5.34925 47.2647 5.56618 47.6132 5.84V5.13943H49.8607V13.8592H49.8642ZM47.5278 8.1942C47.2896 7.87059 46.9802 7.61099 46.6103 7.41184C46.2369 7.21269 45.8244 7.11312 45.3692 7.11312C45.0207 7.11312 44.7113 7.18069 44.4339 7.31227C44.1566 7.44384 43.9254 7.62165 43.7334 7.84214C43.5413 8.06262 43.392 8.31867 43.2853 8.60672C43.1786 8.89477 43.1217 9.19349 43.1217 9.50643C43.1217 9.85494 43.1786 10.1714 43.2924 10.4595C43.4062 10.7475 43.5698 10.9965 43.7796 11.2063C43.9894 11.4161 44.2348 11.5797 44.5157 11.7006C44.7967 11.8215 45.1025 11.882 45.4261 11.882C45.8671 11.882 46.2725 11.7824 46.6388 11.5832C47.0051 11.3841 47.3002 11.1245 47.5278 10.8009V8.1942Z" fill="white"/>
<path d="M59.1245 13.8592C58.968 13.9196 58.744 13.9623 58.4488 13.9943C58.1537 14.0227 57.8941 14.037 57.6665 14.037C56.9588 14.037 56.3542 13.9267 55.8493 13.7062C55.3478 13.4858 54.9424 13.1764 54.6473 12.7816C54.4197 12.4829 54.2561 12.1273 54.153 11.7219C54.0498 11.3129 54 10.8008 54 10.1749V7.11663H51.5712V5.13939H54V2.71051H56.3365V5.13939H59.2134V7.11663H56.3365V10.4417C56.3365 10.719 56.3614 10.9395 56.4076 11.1067C56.4538 11.2738 56.5285 11.4196 56.6245 11.5405C56.7454 11.6721 56.8983 11.7788 57.0904 11.8535C57.2824 11.9317 57.5207 11.9708 57.8087 11.9708C57.9759 11.9708 58.1572 11.9602 58.3493 11.9424C58.5413 11.9246 58.68 11.9033 58.7618 11.8784L59.121 13.8556L59.1245 13.8592Z" fill="white"/>
<path d="M68.616 12.4722C68.1963 12.9772 67.6665 13.3613 67.0263 13.6316C66.3827 13.9018 65.7212 14.037 65.0384 14.037C64.3912 14.037 63.7902 13.9303 63.2319 13.7134C62.6736 13.4964 62.1899 13.1906 61.7845 12.7959C61.3791 12.4011 61.0555 11.9246 60.8244 11.3663C60.5897 10.808 60.4723 10.1892 60.4723 9.50639C60.4723 8.89472 60.5719 8.31506 60.771 7.77097C60.9666 7.22687 61.2511 6.74323 61.6245 6.3236C61.9943 5.90397 62.4424 5.57324 62.9616 5.32431C63.4844 5.07893 64.0676 4.95447 64.7148 4.95447C65.3123 4.95447 65.8635 5.07538 66.3685 5.31364C66.8699 5.55191 67.3073 5.87552 67.6736 6.27381C68.0399 6.67566 68.3208 7.14508 68.5271 7.68562C68.7298 8.22616 68.8329 8.80226 68.8329 9.41037C68.8329 9.66286 68.8151 9.88334 68.7795 10.0754H62.7376C62.7731 10.3883 62.8585 10.6693 62.9901 10.9218C63.1217 11.1742 63.2924 11.3876 63.5022 11.569C63.712 11.7468 63.9538 11.889 64.2205 11.9922C64.4908 12.0953 64.7824 12.1451 65.0918 12.1451C65.5932 12.1451 66.0342 12.0348 66.4147 11.8144C66.7916 11.5939 67.0832 11.3663 67.2859 11.1387L68.616 12.4687V12.4722ZM66.4396 8.37196C66.4147 8.17993 66.3578 7.99145 66.2689 7.80653C66.18 7.62161 66.0591 7.45447 65.9097 7.31222C65.7603 7.16997 65.5825 7.05617 65.3798 6.97083C65.1771 6.88548 64.9531 6.84636 64.7148 6.84636C64.2205 6.84636 63.8009 7.00283 63.4559 7.31222C63.1074 7.62516 62.9047 7.97723 62.8443 8.37196H66.4396Z" fill="white"/>
<path d="M81.4751 3.24751C80.8741 3.24751 80.3194 3.3613 79.8108 3.5889C79.3023 3.8165 78.8578 4.12588 78.4808 4.51351C78.1039 4.90113 77.8087 5.35988 77.5989 5.87908C77.3891 6.40184 77.2859 6.96016 77.2859 7.56116C77.2859 8.16216 77.3962 8.74182 77.6166 9.26813C77.8371 9.79445 78.1394 10.2496 78.5235 10.6337C78.9076 11.0178 79.3592 11.3201 79.882 11.5405C80.4047 11.7646 80.9701 11.8748 81.5818 11.8748C82.4104 11.8748 83.1145 11.7041 83.7049 11.3627C84.2916 11.0213 84.7717 10.6088 85.1415 10.1323L86.813 11.6259C86.2511 12.3442 85.5185 12.9274 84.6188 13.3684C83.7191 13.8129 82.6878 14.0334 81.5249 14.0334C80.5434 14.0334 79.6437 13.8663 78.8293 13.5284C78.0149 13.1942 77.3144 12.7354 76.7276 12.1522C76.1408 11.5725 75.6821 10.8862 75.3514 10.0932C75.0206 9.30369 74.8571 8.45732 74.8571 7.5576C74.8571 6.65789 75.0206 5.81507 75.3443 5.02204C75.6679 4.23257 76.1195 3.54623 76.7027 2.96301C77.2859 2.3798 77.9829 1.9246 78.7973 1.58677C79.6117 1.25248 80.5114 1.08179 81.4929 1.08179C82.4744 1.08179 83.2852 1.24537 84.064 1.56898C84.8428 1.8926 85.5221 2.33001 86.0946 2.88122L84.5299 4.53485C84.1458 4.15078 83.6977 3.84139 83.1821 3.59957C82.6664 3.35775 82.0974 3.24039 81.4751 3.24039V3.24751Z" fill="white"/>
<path d="M90.8599 13.8592H88.5234V1.09247H90.8599V5.76886C91.1835 5.51637 91.5462 5.32078 91.948 5.17497C92.3499 5.03272 92.7802 4.95804 93.2354 4.95804C93.847 4.95804 94.4125 5.08251 94.9352 5.335C95.4544 5.58749 95.8954 5.92888 96.2546 6.35918C96.5426 6.70769 96.7631 7.11309 96.9196 7.58251C97.0761 8.05193 97.1543 8.66004 97.1543 9.4175V13.8592H94.8179V9.23969C94.8179 8.8094 94.7717 8.468 94.6828 8.22262C94.5939 7.97725 94.4623 7.77099 94.2951 7.60385C93.9715 7.28023 93.5341 7.11665 92.9829 7.11665C92.7304 7.11665 92.4957 7.15221 92.2717 7.22334C92.0476 7.29446 91.8485 7.38692 91.6707 7.49361C91.4929 7.60029 91.3328 7.71765 91.1941 7.84567C91.0554 7.97369 90.9452 8.08749 90.8599 8.19773V13.8627V13.8592Z" fill="white"/>
<path d="M108.033 13.8592H105.785V13.1586C105.426 13.4716 105.042 13.6956 104.633 13.8343C104.228 13.973 103.801 14.0406 103.356 14.0406C102.709 14.0406 102.094 13.909 101.514 13.6458C100.935 13.3827 100.451 13.0235 100.067 12.5683C99.7183 12.1736 99.4445 11.7148 99.2489 11.1921C99.0498 10.6729 98.9502 10.111 98.9502 9.50999C98.9502 8.86276 99.0604 8.26177 99.2809 7.71056C99.505 7.15935 99.8072 6.67926 100.198 6.27386C100.586 5.8649 101.041 5.54484 101.557 5.31013C102.073 5.07542 102.631 4.95807 103.228 4.95807C103.733 4.95807 104.196 5.0363 104.622 5.19278C105.049 5.34925 105.433 5.56618 105.782 5.84V5.13943H108.029V13.8592H108.033ZM105.696 8.1942C105.458 7.87059 105.149 7.61099 104.779 7.41184C104.405 7.21269 103.993 7.11312 103.538 7.11312C103.189 7.11312 102.88 7.18069 102.602 7.31227C102.325 7.44384 102.094 7.62165 101.902 7.84214C101.71 8.06262 101.56 8.31867 101.454 8.60672C101.347 8.89477 101.29 9.19349 101.29 9.50643C101.29 9.85494 101.347 10.1714 101.461 10.4595C101.575 10.7475 101.738 10.9965 101.948 11.2063C102.158 11.4161 102.403 11.5797 102.684 11.7006C102.965 11.8215 103.271 11.882 103.595 11.882C104.036 11.882 104.441 11.7824 104.807 11.5832C105.174 11.3841 105.469 11.1245 105.696 10.8009V8.1942Z" fill="white"/>
<path d="M110.728 13.8592V5.13583H112.976V5.8364C113.31 5.56258 113.683 5.34565 114.092 5.18918C114.498 5.0327 114.949 4.95447 115.44 4.95447C116.052 4.95447 116.617 5.07893 117.14 5.33142C117.659 5.58391 118.1 5.92531 118.459 6.35561C118.747 6.70411 118.968 7.10952 119.124 7.57893C119.281 8.04835 119.359 8.65646 119.359 9.41393V13.8556H117.023V9.23612C117.023 8.80582 116.976 8.46443 116.888 8.21905C116.799 7.97367 116.667 7.76741 116.5 7.60027C116.176 7.27666 115.739 7.11307 115.188 7.11307C114.935 7.11307 114.701 7.14864 114.476 7.21976C114.252 7.29088 114.053 7.38334 113.875 7.49003C113.698 7.59672 113.538 7.71407 113.399 7.84209C113.26 7.97012 113.15 8.08391 113.065 8.19415V13.8592H110.728Z" fill="white"/>
<path d="M130.238 13.372C130.238 14.1615 130.174 14.8087 130.042 15.3065C129.91 15.8044 129.711 16.2383 129.448 16.6117C129.053 17.1629 128.52 17.5932 127.848 17.8955C127.176 18.2013 126.422 18.3542 125.582 18.3542C125.152 18.3542 124.733 18.308 124.324 18.2191C123.918 18.1302 123.534 18.0021 123.175 17.8421C122.816 17.6821 122.481 17.49 122.176 17.266C121.87 17.042 121.607 16.8073 121.393 16.5548L122.866 15.0256C122.986 15.1572 123.129 15.2959 123.289 15.4381C123.449 15.5804 123.641 15.7155 123.865 15.8435C124.089 15.968 124.338 16.0747 124.622 16.1565C124.907 16.2383 125.223 16.2809 125.582 16.2809C125.967 16.2809 126.308 16.224 126.607 16.1102C126.905 15.9964 127.158 15.8186 127.364 15.5804C127.542 15.3777 127.677 15.1252 127.77 14.8265C127.858 14.5277 127.905 14.0939 127.905 13.532V13.244C127.222 13.7703 126.443 14.0334 125.565 14.0334C124.917 14.0334 124.302 13.9019 123.712 13.6387C123.125 13.3755 122.638 13.0164 122.254 12.5612C121.905 12.1664 121.639 11.7077 121.443 11.1849C121.251 10.6657 121.155 10.1038 121.155 9.50285C121.155 8.85562 121.265 8.25463 121.486 7.70342C121.71 7.15221 122.012 6.67212 122.403 6.26672C122.791 5.85776 123.246 5.5377 123.762 5.30299C124.277 5.06828 124.836 4.95093 125.433 4.95093C125.938 4.95093 126.4 5.02916 126.827 5.18564C127.254 5.34211 127.638 5.55904 127.986 5.83286V5.13229H130.234V13.3684L130.238 13.372ZM127.901 8.19417C127.663 7.87056 127.353 7.61096 126.984 7.41181C126.61 7.21266 126.198 7.11309 125.743 7.11309C125.394 7.11309 125.085 7.18066 124.807 7.31224C124.53 7.44382 124.299 7.62162 124.107 7.84211C123.915 8.06259 123.765 8.31864 123.659 8.60669C123.552 8.89474 123.495 9.19346 123.495 9.5064C123.495 9.85491 123.552 10.1714 123.666 10.4595C123.779 10.7475 123.943 10.9964 124.153 11.2063C124.363 11.4161 124.608 11.5797 124.889 11.7006C125.17 11.8215 125.476 11.8819 125.799 11.8819C126.24 11.8819 126.646 11.7824 127.012 11.5832C127.378 11.3841 127.674 11.1245 127.901 10.8009V8.19417Z" fill="white"/>
<path d="M140.362 12.4722C139.942 12.9772 139.413 13.3613 138.772 13.6316C138.129 13.9018 137.467 14.037 136.785 14.037C136.137 14.037 135.536 13.9303 134.978 13.7134C134.42 13.4964 133.936 13.1906 133.531 12.7959C133.125 12.4011 132.802 11.9246 132.57 11.3663C132.336 10.808 132.218 10.1892 132.218 9.50639C132.218 8.89472 132.318 8.31506 132.517 7.77097C132.713 7.22687 132.997 6.74323 133.371 6.3236C133.74 5.90397 134.189 5.57324 134.708 5.32431C135.23 5.07893 135.814 4.95447 136.461 4.95447C137.058 4.95447 137.61 5.07538 138.115 5.31364C138.616 5.55191 139.053 5.87552 139.42 6.27381C139.786 6.67566 140.067 7.14508 140.273 7.68562C140.476 8.22616 140.579 8.80226 140.579 9.41037C140.579 9.66286 140.561 9.88334 140.526 10.0754H134.484C134.519 10.3883 134.605 10.6693 134.736 10.9218C134.868 11.1742 135.038 11.3876 135.248 11.569C135.458 11.7468 135.7 11.889 135.967 11.9922C136.237 12.0953 136.528 12.1451 136.838 12.1451C137.339 12.1451 137.78 12.0348 138.161 11.8144C138.538 11.5939 138.829 11.3663 139.032 11.1387L140.362 12.4687V12.4722ZM138.186 8.37196C138.161 8.17993 138.104 7.99145 138.015 7.80653C137.926 7.62161 137.805 7.45447 137.656 7.31222C137.506 7.16997 137.329 7.05617 137.126 6.97083C136.923 6.88548 136.699 6.84636 136.461 6.84636C135.967 6.84636 135.547 7.00283 135.202 7.31222C134.854 7.62516 134.651 7.97723 134.59 8.37196H138.186Z" fill="white"/>
<path d="M147.499 1.27026H149.925V11.7006H155.23V13.8592H147.499V1.27026Z" fill="white"/>
<path d="M165.213 13.8592H162.965V13.1586C162.606 13.4716 162.222 13.6956 161.813 13.8343C161.408 13.973 160.981 14.0406 160.536 14.0406C159.889 14.0406 159.274 13.909 158.694 13.6458C158.114 13.3827 157.631 13.0235 157.247 12.5683C156.898 12.1736 156.624 11.7148 156.429 11.1921C156.23 10.6729 156.13 10.111 156.13 9.50999C156.13 8.86276 156.24 8.26177 156.461 7.71056C156.685 7.15935 156.987 6.67926 157.378 6.27386C157.766 5.8649 158.221 5.54484 158.737 5.31013C159.252 5.07542 159.811 4.95807 160.408 4.95807C160.913 4.95807 161.376 5.0363 161.802 5.19278C162.229 5.34925 162.613 5.56618 162.962 5.84V5.13943H165.209V13.8592H165.213ZM162.876 8.1942C162.638 7.87059 162.329 7.61099 161.959 7.41184C161.585 7.21269 161.173 7.11312 160.718 7.11312C160.369 7.11312 160.06 7.18069 159.782 7.31227C159.505 7.44384 159.274 7.62165 159.082 7.84214C158.89 8.06262 158.74 8.31867 158.634 8.60672C158.527 8.89477 158.47 9.19349 158.47 9.50643C158.47 9.85494 158.527 10.1714 158.641 10.4595C158.755 10.7475 158.918 10.9965 159.128 11.2063C159.338 11.4161 159.583 11.5797 159.864 11.7006C160.145 11.8215 160.451 11.882 160.775 11.882C161.215 11.882 161.621 11.7824 161.987 11.5832C162.353 11.3841 162.649 11.1245 162.876 10.8009V8.1942Z" fill="white"/>
<path d="M172.019 13.8592H170.405L166.742 5.1394H169.078L171.205 10.2283L173.403 5.1394H175.024L177.204 10.2283L179.349 5.1394H181.685L178.022 13.8592H176.404L174.213 8.78805L172.023 13.8592H172.019Z" fill="white"/>
<path d="M183.499 11.1956C183.797 11.473 184.16 11.6828 184.587 11.8357C185.014 11.9851 185.447 12.0598 185.892 12.0598C186.205 12.0598 186.468 11.9922 186.681 11.8535C186.898 11.7148 187.005 11.5406 187.005 11.3236C187.005 11.1067 186.902 10.9325 186.692 10.7938C186.482 10.6551 186.223 10.5306 185.91 10.4168C185.6 10.303 185.259 10.1821 184.893 10.0576C184.526 9.93318 184.189 9.76959 183.879 9.57044C183.566 9.3713 183.307 9.12592 183.097 8.82364C182.887 8.52493 182.784 8.14086 182.784 7.67144C182.784 7.25181 182.876 6.87485 183.061 6.54057C183.246 6.20629 183.495 5.91824 183.808 5.68709C184.117 5.45238 184.477 5.27457 184.878 5.14655C185.28 5.02208 185.696 4.95807 186.127 4.95807C186.415 4.95807 186.703 4.98296 186.991 5.02919C187.279 5.07542 187.553 5.14299 187.809 5.22834C188.065 5.31369 188.307 5.40615 188.527 5.51639C188.748 5.62308 188.932 5.73332 189.075 5.84L187.979 7.52919C187.752 7.36205 187.492 7.2198 187.208 7.10601C186.92 6.99221 186.621 6.93531 186.308 6.93531C185.995 6.93531 185.707 6.99576 185.472 7.11312C185.238 7.23403 185.12 7.40828 185.12 7.63588C185.12 7.82791 185.227 7.98083 185.437 8.09463C185.647 8.20842 185.906 8.31867 186.219 8.42891C186.532 8.53559 186.87 8.65295 187.236 8.78097C187.602 8.90899 187.94 9.07969 188.253 9.29306C188.563 9.50999 188.826 9.78026 189.036 10.1039C189.245 10.4275 189.352 10.84 189.352 11.345C189.352 11.7646 189.256 12.138 189.064 12.4687C188.872 12.7995 188.62 13.0804 188.299 13.3151C187.983 13.5498 187.613 13.7276 187.194 13.8557C186.774 13.9801 186.336 14.0441 185.881 14.0441C185.27 14.0441 184.661 13.9446 184.057 13.749C183.452 13.5534 182.891 13.2618 182.375 12.8777L183.509 11.2063L183.499 11.1956Z" fill="white"/>
<path d="M0.781738 24.6664C0.781738 24.1757 0.867085 23.7205 1.04134 23.2973C1.21559 22.8741 1.45741 22.5078 1.76324 22.1949C2.06908 21.8855 2.43181 21.6436 2.85144 21.4694C3.27107 21.2951 3.7227 21.2062 4.21346 21.2062C4.70421 21.2062 5.1594 21.2951 5.57903 21.4694C5.99866 21.6436 6.36139 21.8855 6.66723 22.1949C6.97306 22.5042 7.21488 22.8741 7.38558 23.2973C7.55983 23.7205 7.64873 24.1792 7.64873 24.6664C7.64873 25.1536 7.55983 25.6266 7.38558 26.0427C7.21132 26.4623 6.97306 26.825 6.66723 27.138C6.36139 27.4473 5.99866 27.6927 5.57903 27.8634C5.1594 28.0377 4.70421 28.1266 4.21346 28.1266C3.7227 28.1266 3.27107 28.0377 2.85144 27.8634C2.43181 27.6892 2.06908 27.4473 1.76324 27.138C1.45741 26.8286 1.21559 26.4623 1.04134 26.0427C0.867085 25.623 0.781738 25.1643 0.781738 24.6664ZM2.12242 24.6664C2.12242 24.9687 2.17576 25.2532 2.27889 25.5199C2.38202 25.7902 2.52783 26.0213 2.71275 26.2205C2.89411 26.4196 3.1146 26.5725 3.36709 26.6863C3.62313 26.8001 3.90407 26.857 4.21346 26.857C4.52285 26.857 4.80734 26.8001 5.06339 26.6863C5.31587 26.5725 5.53636 26.4196 5.71773 26.2205C5.90265 26.0213 6.04489 25.7902 6.14802 25.5199C6.25115 25.2532 6.3045 24.9651 6.3045 24.6664C6.3045 24.3677 6.25115 24.0796 6.14802 23.8129C6.04489 23.5427 5.90265 23.3115 5.71773 23.1124C5.53636 22.9132 5.31587 22.7603 5.06339 22.6465C4.80734 22.5327 4.5264 22.4758 4.21346 22.4758C3.90051 22.4758 3.61957 22.5327 3.36709 22.6465C3.1146 22.7603 2.89411 22.9132 2.71275 23.1124C2.52783 23.3115 2.38558 23.5427 2.27889 23.8129C2.17576 24.0796 2.12242 24.3677 2.12242 24.6664Z" fill="white"/>
<path d="M13.2995 19.1437C13.2533 19.1259 13.1821 19.1117 13.0861 19.101C12.9901 19.0903 12.8976 19.0868 12.8052 19.0868C12.6167 19.0868 12.4282 19.1259 12.2397 19.2077C12.0513 19.2895 11.9019 19.4033 11.7881 19.5526C11.6921 19.6735 11.6281 19.8265 11.589 20.0114C11.5534 20.1963 11.5321 20.4381 11.5321 20.7404V21.3485H13.5804V22.5505H11.5321V27.9915H10.1914V22.5505H8.63733V21.3485H10.1914V20.7831C10.1914 20.3314 10.2234 19.9616 10.291 19.6735C10.3585 19.3855 10.4652 19.133 10.6146 18.9161C10.8599 18.5676 11.1693 18.2973 11.5463 18.1053C11.9232 17.9132 12.3358 17.8137 12.791 17.8137C12.9332 17.8137 13.0754 17.8243 13.2248 17.8421C13.3706 17.8599 13.4915 17.8848 13.584 17.9132L13.303 19.1437H13.2995Z" fill="white"/>
<path d="M22.8336 27.9879C22.702 28.0341 22.542 28.0697 22.3535 28.0946C22.165 28.1195 21.9766 28.1301 21.7881 28.1301C21.3649 28.1301 20.9986 28.0626 20.6928 27.9239C20.3869 27.7888 20.1238 27.5967 19.9104 27.3513C19.7148 27.1344 19.5726 26.8748 19.4943 26.5725C19.4125 26.2703 19.3734 25.9395 19.3734 25.5839V22.5469H17.6771V21.3449H19.3734V19.5099H20.7141V21.3449H22.8336V22.5469H20.7141V25.655C20.7141 25.8328 20.7248 25.9929 20.7497 26.1351C20.7746 26.2774 20.8279 26.3983 20.9133 26.5014C21.0057 26.6152 21.1373 26.7006 21.308 26.7646C21.4787 26.825 21.6529 26.857 21.8308 26.857C21.9339 26.857 22.0583 26.8499 22.197 26.8357C22.3357 26.8215 22.4602 26.8001 22.5633 26.7717L22.83 27.9879H22.8336Z" fill="white"/>
<path d="M26.0128 21.9246C26.2013 21.7646 26.4573 21.6046 26.7845 21.4445C27.1081 21.2845 27.5028 21.2027 27.9652 21.2027C28.4559 21.2027 28.9111 21.3094 29.3307 21.5192C29.7504 21.729 30.1024 22.0171 30.3834 22.3727C30.6003 22.6465 30.7603 22.963 30.8706 23.3258C30.9772 23.6885 31.0341 24.1579 31.0341 24.7305V27.9808H29.6935V24.6593C29.6935 24.2361 29.6579 23.909 29.5868 23.6849C29.5156 23.4573 29.4196 23.2689 29.2952 23.1195C29.1351 22.9204 28.936 22.7639 28.6942 22.6465C28.4559 22.5292 28.1963 22.4687 27.9225 22.4687C27.4815 22.4687 27.101 22.5647 26.7845 22.7568C26.468 22.9488 26.2119 23.1693 26.0128 23.4147V27.9773H24.6721V17.9453H26.0128V21.914V21.9246Z" fill="white"/>
<path d="M34.025 24.9474C34.0427 25.2283 34.1139 25.4915 34.2277 25.7297C34.345 25.968 34.4979 26.1814 34.6864 26.3663C34.8749 26.5512 35.0954 26.6935 35.3479 26.7966C35.6039 26.8997 35.8742 26.9531 36.1658 26.9531C36.6565 26.9531 37.0513 26.8571 37.3464 26.6615C37.6452 26.4694 37.887 26.2632 38.0755 26.0462L38.9503 26.8784C38.7049 27.1984 38.3493 27.4865 37.8763 27.739C37.4033 27.9915 36.8308 28.1195 36.1516 28.1195C35.6715 28.1195 35.2234 28.0306 34.8038 27.8563C34.3841 27.6821 34.0214 27.4438 33.7085 27.138C33.3955 26.8322 33.1537 26.4659 32.9794 26.0427C32.8052 25.6195 32.7198 25.1572 32.7198 24.6593C32.7198 24.1615 32.7981 23.6992 32.9581 23.276C33.1181 22.8528 33.3422 22.4865 33.6302 22.1807C33.9183 21.8748 34.2597 21.6366 34.6544 21.4623C35.0492 21.2881 35.483 21.1992 35.9524 21.1992C36.4218 21.1992 36.8379 21.2881 37.2291 21.4623C37.6203 21.6366 37.9581 21.8784 38.2391 22.1878C38.52 22.4972 38.744 22.867 38.9005 23.2902C39.0605 23.7134 39.1423 24.1721 39.1423 24.6593V24.7731C39.1423 24.8194 39.1388 24.8763 39.1281 24.9438H34.0143L34.025 24.9474ZM36.0022 22.3763C35.5684 22.3763 35.1772 22.5078 34.8287 22.771C34.4802 23.0342 34.249 23.3827 34.1352 23.8165H37.7519C37.7056 23.6103 37.6238 23.4147 37.5065 23.2369C37.3891 23.059 37.2504 22.9061 37.0975 22.7781C36.941 22.6501 36.7703 22.5505 36.5819 22.4829C36.3934 22.4118 36.2014 22.3763 36.0022 22.3763Z" fill="white"/>
<path d="M49.5654 21.345L51.3862 25.8791L53.2105 21.345H54.5939L51.8947 27.9844H50.963L49.096 23.3222L47.2325 27.9844H46.3008L43.6017 21.345H44.9886L46.8129 25.8791L48.6337 21.345H49.5654Z" fill="white"/>
<path d="M55.3727 24.6664C55.3727 24.1757 55.458 23.7205 55.6323 23.2973C55.8065 22.8741 56.0484 22.5078 56.3542 22.1949C56.66 21.8855 57.0228 21.6436 57.4424 21.4694C57.862 21.2951 58.3136 21.2062 58.8044 21.2062C59.2952 21.2062 59.7503 21.2951 60.17 21.4694C60.5896 21.6436 60.9523 21.8855 61.2582 22.1949C61.564 22.5042 61.8058 22.8741 61.9765 23.2973C62.1508 23.7205 62.2397 24.1792 62.2397 24.6664C62.2397 25.1536 62.1508 25.6266 61.9765 26.0427C61.8023 26.4623 61.564 26.825 61.2582 27.138C60.9523 27.4473 60.5896 27.6927 60.17 27.8634C59.7503 28.0377 59.2952 28.1266 58.8044 28.1266C58.3136 28.1266 57.862 28.0377 57.4424 27.8634C57.0228 27.6892 56.66 27.4473 56.3542 27.138C56.0484 26.8286 55.8065 26.4623 55.6323 26.0427C55.458 25.623 55.3727 25.1643 55.3727 24.6664ZM56.7134 24.6664C56.7134 24.9687 56.7667 25.2532 56.8698 25.5199C56.973 25.7902 57.1188 26.0213 57.3037 26.2205C57.4851 26.4196 57.7055 26.5725 57.958 26.6863C58.2141 26.8001 58.495 26.857 58.8044 26.857C59.1138 26.857 59.3983 26.8001 59.6543 26.6863C59.9068 26.5725 60.1273 26.4196 60.3087 26.2205C60.4936 26.0213 60.6358 25.7902 60.739 25.5199C60.8421 25.2532 60.8954 24.9651 60.8954 24.6664C60.8954 24.3677 60.8421 24.0796 60.739 23.8129C60.6358 23.5427 60.4936 23.3115 60.3087 23.1124C60.1273 22.9132 59.9068 22.7603 59.6543 22.6465C59.3983 22.5327 59.1173 22.4758 58.8044 22.4758C58.4915 22.4758 58.2105 22.5327 57.958 22.6465C57.7055 22.7603 57.4851 22.9132 57.3037 23.1124C57.1188 23.3115 56.9765 23.5427 56.8698 23.8129C56.7667 24.0796 56.7134 24.3677 56.7134 24.6664Z" fill="white"/>
<path d="M67.734 22.5327C67.5918 22.4972 67.4175 22.4758 67.2113 22.4758C66.8628 22.4758 66.5249 22.5825 66.1942 22.7923C65.8635 23.0057 65.6074 23.2689 65.4154 23.5889V27.9808H64.0747V21.3414H65.3727V22.106C65.5327 21.8784 65.7817 21.6721 66.1231 21.4837C66.4645 21.2952 66.877 21.1992 67.3677 21.1992C67.4424 21.1992 67.5313 21.1992 67.6309 21.2063C67.7305 21.2098 67.8158 21.2241 67.894 21.2418L67.7376 22.5256L67.734 22.5327Z" fill="white"/>
<path d="M69.5156 17.9559H70.8563V27.9879H69.5156V17.9559Z" fill="white"/>
<path d="M78.1039 27.3798C77.8301 27.6252 77.5207 27.8101 77.1722 27.9382C76.8237 28.0662 76.4503 28.1302 76.0556 28.1302C75.7533 28.1302 75.4581 28.0911 75.1665 28.0093C74.8749 27.931 74.6153 27.8244 74.3877 27.6928C73.8792 27.3905 73.4702 26.978 73.1573 26.4552C72.8479 25.9325 72.6914 25.335 72.6914 24.6665C72.6914 23.9979 72.8479 23.4005 73.1644 22.8706C73.4809 22.3443 73.8934 21.9282 74.4019 21.6259C74.6295 21.4943 74.8785 21.3912 75.1523 21.3165C75.4261 21.2419 75.7177 21.2027 76.0271 21.2027C76.3863 21.2027 76.7383 21.2632 77.0868 21.3805C77.4354 21.4979 77.759 21.6793 78.0612 21.9246V17.9559H79.4055V27.9879H78.1039V27.3798ZM78.0612 23.4253C77.855 23.1515 77.5883 22.9275 77.2647 22.7461C76.941 22.5683 76.5748 22.4794 76.1694 22.4794C75.8493 22.4794 75.5577 22.5399 75.2945 22.6572C75.0314 22.7746 74.8073 22.9346 74.626 23.1373C74.4411 23.34 74.2988 23.5747 74.1921 23.8379C74.089 24.101 74.0356 24.3784 74.0356 24.67C74.0356 24.9616 74.089 25.2532 74.1992 25.5164C74.3059 25.7795 74.4624 26.0107 74.658 26.2098C74.8536 26.409 75.0883 26.5655 75.355 26.6828C75.6253 26.8002 75.9169 26.8606 76.2405 26.8606C76.5783 26.8606 76.909 26.7788 77.2362 26.6153C77.5634 26.4517 77.8372 26.217 78.0612 25.9147V23.4289V23.4253Z" fill="white"/>
</svg>
