<svg width="166" height="48" viewBox="0 0 166 48" fill="none" xmlns="http://www.w3.org/2000/svg">
<path d="M70.4581 21.0241C70.4581 21.7921 70.8527 22.1761 71.6324 22.1761C72.412 22.1761 72.8067 21.7921 72.8067 21.0241V16.6465H74.1446V20.9953C74.1446 21.8017 73.9328 22.3873 73.5189 22.7713C73.105 23.1457 72.4698 23.3377 71.6324 23.3377C70.7949 23.3377 70.1693 23.1457 69.7458 22.7713C69.3319 22.3969 69.1201 21.8017 69.1201 20.9953V16.6465H70.4581V21.0241Z" fill="#087CC1" style="fill:#087CC1;fill:color(display-p3 0.0314 0.4863 0.7569);fill-opacity:1;"/>
<path d="M76.2814 23.2223H74.9819V18.3935H76.2717V18.6623C76.7145 18.4031 77.1188 18.2783 77.4845 18.2783C78.1294 18.2783 78.5722 18.4703 78.8225 18.8447C79.0727 19.2287 79.1882 19.8143 79.1882 20.6015V23.2223H77.8888V20.6399C77.8888 20.2271 77.8407 19.9199 77.7444 19.7279C77.6482 19.5359 77.4557 19.4303 77.1669 19.4303C76.8974 19.4303 76.6471 19.4783 76.4065 19.5647L76.291 19.6031V23.2127L76.2814 23.2223Z" fill="#087CC1" style="fill:#087CC1;fill:color(display-p3 0.0314 0.4863 0.7569);fill-opacity:1;"/>
<path d="M80.0449 18.3842H81.3444V23.213H80.0449V18.3842ZM80.0449 16.4546H81.3444V17.7698H80.0449V16.4546Z" fill="#087CC1" style="fill:#087CC1;fill:color(display-p3 0.0314 0.4863 0.7569);fill-opacity:1;"/>
<path d="M85.3197 19.4882H84.1261V21.4658C84.1261 21.6578 84.1261 21.7922 84.1454 21.8786C84.1454 21.9554 84.1935 22.0322 84.2513 22.0898C84.309 22.1474 84.4053 22.1762 84.54 22.1762L85.2715 22.157L85.3293 23.1938C84.8962 23.2898 84.5689 23.3378 84.3379 23.3378C83.7604 23.3378 83.3561 23.2034 83.1443 22.9442C82.9326 22.685 82.8267 22.205 82.8267 21.5042V19.4978H82.2588V18.3938H82.8267V17.0498H84.1261V18.3938H85.3197V19.4978V19.4882Z" fill="#087CC1" style="fill:#087CC1;fill:color(display-p3 0.0314 0.4863 0.7569);fill-opacity:1;"/>
<path d="M88.9389 20.3716C88.9389 19.9876 88.8811 19.7188 88.756 19.5652C88.6308 19.4116 88.4191 19.3348 88.1111 19.3348C87.8031 19.3348 87.5913 19.4116 87.4662 19.5748C87.341 19.7284 87.2737 19.9972 87.264 20.3716H88.9389ZM87.5047 21.994C87.6587 22.1284 87.8704 22.1956 88.1592 22.1956C88.756 22.1956 89.295 22.1764 89.7666 22.138L90.0362 22.1092L90.0554 23.0692C89.3142 23.2516 88.6405 23.338 88.0437 23.338C87.3122 23.338 86.7828 23.146 86.4555 22.762C86.1282 22.378 85.9646 21.7444 85.9646 20.8804C85.9646 19.1428 86.6769 18.2788 88.1014 18.2788C89.526 18.2788 90.2094 19.0084 90.2094 20.4676L90.1132 21.37H87.264C87.264 21.6676 87.3507 21.8788 87.5047 22.0132" fill="#087CC1" style="fill:#087CC1;fill:color(display-p3 0.0314 0.4863 0.7569);fill-opacity:1;"/>
<path d="M93.8188 22.061L93.9536 22.0322V19.4882C93.5975 19.421 93.2798 19.3922 93.0007 19.3922C92.4809 19.3922 92.2114 19.853 92.2114 20.7842C92.2114 21.2834 92.2692 21.6482 92.3847 21.8594C92.5002 22.0706 92.6927 22.1762 92.9622 22.1762C93.2317 22.1762 93.5108 22.1378 93.8092 22.061M95.253 16.4546V23.2226H93.9632V23.021C93.5108 23.2322 93.1162 23.3378 92.7889 23.3378C92.0863 23.3378 91.5954 23.1362 91.3162 22.733C91.0371 22.3298 90.9023 21.6866 90.9023 20.8034C90.9023 19.9202 91.066 19.2866 91.4029 18.8834C91.7398 18.4802 92.2403 18.2786 92.9141 18.2786C93.1162 18.2786 93.405 18.3074 93.7803 18.3746L93.9632 18.413V16.4642H95.2627L95.253 16.4546Z" fill="#087CC1" style="fill:#087CC1;fill:color(display-p3 0.0314 0.4863 0.7569);fill-opacity:1;"/>
<path d="M98.9011 23.2225V16.6465H101.153L102.742 22.0609H102.838V16.6465H104.176V23.2225H101.981L100.335 17.8081H100.239V23.2225H98.9011Z" fill="#087CC1" style="fill:#087CC1;fill:color(display-p3 0.0314 0.4863 0.7569);fill-opacity:1;"/>
<path d="M106.823 21.1684C106.457 21.1972 106.284 21.3988 106.284 21.7444C106.284 22.09 106.438 22.2724 106.756 22.2724C106.996 22.2724 107.266 22.234 107.564 22.1572L107.708 22.1188V21.082L106.823 21.1588V21.1684ZM109.008 19.9012V21.9076C109.018 22.0612 109.046 22.1668 109.085 22.234C109.123 22.2916 109.2 22.3396 109.326 22.3684L109.287 23.3476C108.96 23.3476 108.69 23.3284 108.498 23.2804C108.296 23.2324 108.103 23.146 107.901 23.0116C107.439 23.2324 106.958 23.3476 106.476 23.3476C105.475 23.3476 104.975 22.8196 104.975 21.7636C104.975 21.2452 105.11 20.8804 105.389 20.6692C105.668 20.458 106.091 20.3236 106.669 20.2852L107.708 20.2084V19.9108C107.708 19.7092 107.66 19.5748 107.574 19.498C107.487 19.4212 107.343 19.3828 107.141 19.3828L105.321 19.4596L105.283 18.5572C105.976 18.3748 106.63 18.2788 107.256 18.2788C107.882 18.2788 108.325 18.4036 108.604 18.6628C108.883 18.922 109.018 19.3348 109.018 19.9012" fill="#087CC1" style="fill:#087CC1;fill:color(display-p3 0.0314 0.4863 0.7569);fill-opacity:1;"/>
<path d="M112.868 19.4882H111.674V21.4658C111.674 21.6578 111.674 21.7922 111.693 21.8786C111.693 21.9554 111.742 22.0322 111.799 22.0898C111.857 22.1474 111.953 22.1762 112.088 22.1762L112.82 22.157L112.877 23.1938C112.444 23.2898 112.117 23.3378 111.886 23.3378C111.308 23.3378 110.904 23.2034 110.692 22.9442C110.481 22.685 110.375 22.205 110.375 21.5042V19.4978H109.807V18.3938H110.375V17.0498H111.674V18.3938H112.868V19.4978V19.4882Z" fill="#087CC1" style="fill:#087CC1;fill:color(display-p3 0.0314 0.4863 0.7569);fill-opacity:1;"/>
<path d="M113.753 18.3842H115.053V23.213H113.753V18.3842ZM113.753 16.4546H115.053V17.7698H113.753V16.4546Z" fill="#087CC1" style="fill:#087CC1;fill:color(display-p3 0.0314 0.4863 0.7569);fill-opacity:1;"/>
<path d="M117.353 21.8882C117.488 22.1186 117.719 22.2338 118.066 22.2338C118.412 22.2338 118.643 22.1186 118.778 21.8882C118.913 21.6578 118.98 21.293 118.98 20.7938C118.98 20.2946 118.913 19.9394 118.778 19.709C118.643 19.4786 118.412 19.373 118.066 19.373C117.719 19.373 117.488 19.4882 117.353 19.709C117.219 19.9394 117.151 20.2946 117.151 20.7938C117.151 21.293 117.219 21.6578 117.353 21.8882ZM116.352 18.9314C116.699 18.4898 117.267 18.269 118.066 18.269C118.865 18.269 119.442 18.4898 119.779 18.9314C120.125 19.373 120.289 19.997 120.289 20.7938C120.289 22.493 119.548 23.3378 118.056 23.3378C116.564 23.3378 115.833 22.493 115.833 20.7938C115.833 19.997 116.006 19.373 116.343 18.9314" fill="#087CC1" style="fill:#087CC1;fill:color(display-p3 0.0314 0.4863 0.7569);fill-opacity:1;"/>
<path d="M122.359 23.2228H121.059V18.394H122.349V18.6628C122.792 18.4036 123.196 18.2788 123.562 18.2788C124.207 18.2788 124.649 18.4708 124.9 18.8452C125.15 19.2292 125.265 19.8148 125.265 20.602V23.2228H123.966V20.6404C123.966 20.2276 123.918 19.9204 123.822 19.7284C123.725 19.5364 123.533 19.4308 123.244 19.4308C122.975 19.4308 122.724 19.4788 122.484 19.5652L122.368 19.6036V23.2132L122.359 23.2228Z" fill="#087CC1" style="fill:#087CC1;fill:color(display-p3 0.0314 0.4863 0.7569);fill-opacity:1;"/>
<path d="M129.876 19.594C129.077 19.4884 128.519 19.4404 128.191 19.4404C127.864 19.4404 127.662 19.4692 127.575 19.5268C127.479 19.5844 127.431 19.6804 127.431 19.8052C127.431 19.93 127.498 20.0164 127.624 20.0644C127.749 20.1124 128.076 20.1796 128.596 20.2756C129.116 20.3716 129.481 20.5252 129.703 20.7364C129.924 20.9476 130.03 21.2932 130.03 21.7732C130.03 22.8196 129.385 23.338 128.086 23.338C127.662 23.338 127.142 23.2804 126.536 23.1652L126.228 23.1076L126.266 22.0228C127.065 22.1284 127.624 22.1764 127.941 22.1764C128.259 22.1764 128.471 22.1476 128.576 22.0804C128.692 22.0228 128.75 21.9268 128.75 21.802C128.75 21.6772 128.692 21.5908 128.567 21.5332C128.451 21.4756 128.134 21.4084 127.633 21.322C127.133 21.2356 126.757 21.1012 126.517 20.8996C126.266 20.698 126.151 20.3428 126.151 19.834C126.151 19.3252 126.324 18.9316 126.671 18.6724C127.017 18.4132 127.47 18.2788 128.018 18.2788C128.403 18.2788 128.923 18.3364 129.578 18.4612L129.895 18.5188L129.876 19.594Z" fill="#087CC1" style="fill:#087CC1;fill:color(display-p3 0.0314 0.4863 0.7569);fill-opacity:1;"/>
<path d="M72.8164 33.8306C72.2196 33.9554 71.7095 34.013 71.286 34.013C70.8624 34.013 70.5256 33.965 70.2657 33.8786C70.0058 33.7922 69.8037 33.6674 69.64 33.5042C69.4764 33.341 69.3513 33.1298 69.255 32.8706C69.0817 32.4002 68.9951 31.757 68.9951 30.941C68.9951 29.6354 69.2069 28.7714 69.6208 28.3586C69.9577 28.0034 70.4871 27.8306 71.1801 27.8306C71.6614 27.8306 72.2004 27.8882 72.8068 28.013L72.7779 28.4834C72.1811 28.3778 71.6902 28.3202 71.3341 28.3202C70.978 28.3202 70.6892 28.3586 70.4871 28.4354C70.2849 28.5122 70.1213 28.6178 70.0058 28.7426C69.8903 28.8674 69.7844 29.0498 69.7267 29.2802C69.6111 29.6738 69.5534 30.1634 69.5534 30.749C69.5534 31.3346 69.5726 31.7762 69.6111 32.0642C69.6496 32.3522 69.7266 32.621 69.8422 32.8514C69.9577 33.0914 70.1309 33.2546 70.3523 33.3602C70.5737 33.4658 70.8913 33.5138 71.286 33.5138C71.6806 33.5138 72.1811 33.4562 72.7779 33.3506L72.8068 33.821L72.8164 33.8306Z" fill="#087CC1" style="fill:#087CC1;fill:color(display-p3 0.0314 0.4863 0.7569);fill-opacity:1;"/>
<path d="M74.1159 31.7472C74.1159 32.4288 74.1929 32.8992 74.3566 33.168C74.5202 33.4272 74.8667 33.5616 75.3961 33.5616C75.9255 33.5616 76.2816 33.4272 76.4453 33.168C76.6089 32.9088 76.6859 32.4288 76.6859 31.7568C76.6859 31.0848 76.5993 30.6144 76.4164 30.3648C76.2335 30.1152 75.8966 29.9904 75.4057 29.9904C74.9148 29.9904 74.5779 30.1152 74.3951 30.3648C74.2122 30.6144 74.1256 31.0752 74.1256 31.7568M73.5769 31.7568C73.5769 30.9408 73.7117 30.3648 73.9908 30.0288C74.2603 29.6928 74.732 29.52 75.3961 29.52C76.0603 29.52 76.5223 29.6928 76.8014 30.0288C77.0806 30.3648 77.2153 30.9504 77.2153 31.7568C77.2153 32.5632 77.0902 33.1488 76.8399 33.4944C76.5897 33.84 76.1084 34.0128 75.4057 34.0128C74.7031 34.0128 74.2218 33.84 73.9715 33.4944C73.7213 33.1488 73.5865 32.5728 73.5865 31.7568" fill="#087CC1" style="fill:#087CC1;fill:color(display-p3 0.0314 0.4863 0.7569);fill-opacity:1;"/>
<path d="M78.5531 33.9264H78.043V29.6064H78.5531V29.9232C79.0344 29.6544 79.506 29.52 79.9681 29.52C80.5456 29.52 80.9306 29.6736 81.1231 29.9808C81.3156 30.288 81.4119 30.8448 81.4119 31.6608V33.936H80.8921V31.6896C80.8921 31.0272 80.8247 30.576 80.6996 30.3456C80.5744 30.1152 80.3049 30 79.8814 30C79.6793 30 79.4675 30.0288 79.2461 30.0864C79.0248 30.144 78.8515 30.2112 78.7264 30.2688L78.5435 30.3552V33.936L78.5531 33.9264Z" fill="#087CC1" style="fill:#087CC1;fill:color(display-p3 0.0314 0.4863 0.7569);fill-opacity:1;"/>
<path d="M81.9604 29.6064H82.538L83.616 33.4752H83.9625L85.0983 29.6064H85.6277L84.3668 33.9264H83.231L81.9604 29.6064Z" fill="#087CC1" style="fill:#087CC1;fill:color(display-p3 0.0314 0.4863 0.7569);fill-opacity:1;"/>
<path d="M86.5421 31.5455H88.9869C88.9869 30.9791 88.8907 30.5663 88.7078 30.3263C88.5153 30.0863 88.2169 29.9615 87.803 29.9615C87.3891 29.9615 87.0715 30.0863 86.8597 30.3359C86.648 30.5855 86.5421 30.9887 86.5421 31.5455ZM89.0736 33.4943L89.3335 33.4655L89.3527 33.8879C88.6982 33.9647 88.1495 34.0127 87.6971 34.0127C87.0715 34.0127 86.6383 33.8207 86.3881 33.4559C86.1378 33.0911 86.0127 32.5343 86.0127 31.7759C86.0127 30.2687 86.6095 29.5103 87.803 29.5103C88.3709 29.5103 88.8041 29.6735 89.0832 29.9999C89.3623 30.3263 89.5067 30.8447 89.5067 31.5647L89.4875 31.9775H86.5421C86.5421 32.5055 86.6287 32.8991 86.8116 33.1583C86.9945 33.4175 87.3025 33.5423 87.7453 33.5423C88.188 33.5423 88.6308 33.5231 89.064 33.4943" fill="#087CC1" style="fill:#087CC1;fill:color(display-p3 0.0314 0.4863 0.7569);fill-opacity:1;"/>
<path d="M90.8446 33.9264H90.3345V29.6064H90.8446V29.9232C91.3259 29.6544 91.7975 29.52 92.2596 29.52C92.8371 29.52 93.2221 29.6736 93.4146 29.9808C93.6071 30.288 93.7034 30.8448 93.7034 31.6608V33.936H93.1836V31.6896C93.1836 31.0272 93.1162 30.576 92.9911 30.3456C92.866 30.1152 92.5964 30 92.1729 30C91.9708 30 91.759 30.0288 91.5377 30.0864C91.3163 30.144 91.143 30.2112 91.0179 30.2688L90.835 30.3552V33.936L90.8446 33.9264Z" fill="#087CC1" style="fill:#087CC1;fill:color(display-p3 0.0314 0.4863 0.7569);fill-opacity:1;"/>
<path d="M96.9376 30.0576H95.4938V32.1984C95.4938 32.7552 95.5323 33.12 95.6189 33.2928C95.6959 33.4656 95.8884 33.552 96.1868 33.552L96.9857 33.4944L97.0242 33.936C96.6392 33.9936 96.3504 34.0224 96.1483 34.0224C95.7055 34.0224 95.4072 33.9168 95.2339 33.696C95.0606 33.4848 94.974 33.0624 94.974 32.4576V30.0576H94.3291V29.5968H94.974V28.2432H95.4938V29.5968H96.9376V30.0576Z" fill="#087CC1" style="fill:#087CC1;fill:color(display-p3 0.0314 0.4863 0.7569);fill-opacity:1;"/>
<path d="M97.9097 33.9263H98.4198V29.6063H97.9097V33.9263ZM97.9097 28.5215H98.4198V27.8687H97.9097V28.5215Z" fill="#087CC1" style="fill:#087CC1;fill:color(display-p3 0.0314 0.4863 0.7569);fill-opacity:1;"/>
<path d="M99.7866 31.7472C99.7866 32.4288 99.8636 32.8992 100.027 33.168C100.191 33.4272 100.537 33.5616 101.067 33.5616C101.596 33.5616 101.952 33.4272 102.116 33.168C102.28 32.9088 102.357 32.4288 102.357 31.7568C102.357 31.0848 102.27 30.6144 102.087 30.3648C101.904 30.1152 101.567 29.9904 101.076 29.9904C100.585 29.9904 100.249 30.1152 100.066 30.3648C99.8828 30.6144 99.7962 31.0752 99.7962 31.7568M99.2476 31.7568C99.2476 30.9408 99.3823 30.3648 99.6615 30.0288C99.9406 29.6928 100.403 29.52 101.067 29.52C101.731 29.52 102.193 29.6928 102.472 30.0288C102.751 30.3648 102.886 30.9504 102.886 31.7568C102.886 32.5632 102.761 33.1488 102.511 33.4944C102.26 33.84 101.779 34.0128 101.076 34.0128C100.374 34.0128 99.8925 33.84 99.6326 33.4944C99.3823 33.1488 99.2476 32.5728 99.2476 31.7568Z" fill="#087CC1" style="fill:#087CC1;fill:color(display-p3 0.0314 0.4863 0.7569);fill-opacity:1;"/>
<path d="M104.147 33.9264H103.637V29.6064H104.147V29.9232C104.628 29.6544 105.1 29.52 105.562 29.52C106.139 29.52 106.524 29.6736 106.717 29.9808C106.909 30.288 107.006 30.8448 107.006 31.6608V33.936H106.486V31.6896C106.486 31.0272 106.418 30.576 106.293 30.3456C106.168 30.1152 105.899 30 105.475 30C105.273 30 105.061 30.0288 104.84 30.0864C104.619 30.144 104.445 30.2112 104.32 30.2688L104.137 30.3552V33.936L104.147 33.9264Z" fill="#087CC1" style="fill:#087CC1;fill:color(display-p3 0.0314 0.4863 0.7569);fill-opacity:1;"/>
<path d="M112.473 30.0576H111.029V32.1984C111.029 32.7552 111.068 33.12 111.154 33.2928C111.231 33.4656 111.424 33.552 111.722 33.552L112.521 33.4944L112.56 33.936C112.175 33.9936 111.886 34.0224 111.684 34.0224C111.241 34.0224 110.943 33.9168 110.769 33.696C110.596 33.4848 110.509 33.0624 110.509 32.4576V30.0576H109.865V29.5968H110.509V28.2432H111.029V29.5968H112.473V30.0576Z" fill="#087CC1" style="fill:#087CC1;fill:color(display-p3 0.0314 0.4863 0.7569);fill-opacity:1;"/>
<path d="M113.705 31.7472C113.705 32.4288 113.782 32.8992 113.946 33.168C114.109 33.4272 114.456 33.5616 114.985 33.5616C115.515 33.5616 115.871 33.4272 116.034 33.168C116.198 32.8992 116.275 32.4288 116.275 31.7568C116.275 31.0848 116.188 30.6144 116.006 30.3648C115.823 30.1152 115.486 29.9904 114.995 29.9904C114.504 29.9904 114.167 30.1152 113.984 30.3648C113.801 30.6144 113.715 31.0752 113.715 31.7568M113.166 31.7568C113.166 30.9408 113.301 30.3648 113.58 30.0288C113.859 29.6928 114.321 29.52 114.985 29.52C115.649 29.52 116.111 29.6928 116.391 30.0288C116.66 30.3648 116.804 30.9504 116.804 31.7568C116.804 32.5632 116.679 33.1488 116.429 33.4944C116.179 33.84 115.698 34.0128 114.995 34.0128C114.292 34.0128 113.811 33.84 113.551 33.4944C113.301 33.1488 113.166 32.5728 113.166 31.7568Z" fill="#087CC1" style="fill:#087CC1;fill:color(display-p3 0.0314 0.4863 0.7569);fill-opacity:1;"/>
<path d="M123.562 33.8301C122.965 33.9549 122.455 34.0125 122.031 34.0125C121.608 34.0125 121.271 33.9645 121.011 33.8781C120.751 33.7917 120.549 33.6669 120.385 33.5037C120.222 33.3405 120.096 33.1293 120 32.8701C119.827 32.3997 119.74 31.7565 119.74 30.9405C119.74 29.6349 119.952 28.7709 120.366 28.3581C120.703 28.0029 121.232 27.8301 121.925 27.8301C122.406 27.8301 122.945 27.8877 123.552 28.0125L123.523 28.4829C122.926 28.3773 122.435 28.3197 122.079 28.3197C121.723 28.3197 121.434 28.3581 121.232 28.4349C121.03 28.5117 120.866 28.6173 120.751 28.7421C120.626 28.8765 120.53 29.0493 120.472 29.2797C120.356 29.6733 120.299 30.1629 120.299 30.7485C120.299 31.3341 120.318 31.7757 120.356 32.0637C120.395 32.3517 120.472 32.6205 120.587 32.8509C120.703 33.0909 120.876 33.2541 121.097 33.3597C121.319 33.4653 121.636 33.5133 122.031 33.5133C122.426 33.5133 122.926 33.4557 123.523 33.3501L123.552 33.8205L123.562 33.8301Z" fill="#087CC1" style="fill:#087CC1;fill:color(display-p3 0.0314 0.4863 0.7569);fill-opacity:1;"/>
<path d="M124.861 31.7472C124.861 32.4288 124.938 32.8992 125.101 33.168C125.265 33.4272 125.612 33.5616 126.141 33.5616C126.67 33.5616 127.027 33.4272 127.19 33.168C127.354 32.9088 127.431 32.4288 127.431 31.7568C127.431 31.0848 127.344 30.6144 127.161 30.3648C126.978 30.1152 126.641 29.9904 126.151 29.9904C125.66 29.9904 125.323 30.1152 125.14 30.3648C124.957 30.6144 124.87 31.0752 124.87 31.7568M124.322 31.7568C124.322 30.9408 124.457 30.3648 124.736 30.0288C125.015 29.6928 125.477 29.52 126.141 29.52C126.805 29.52 127.267 29.6928 127.546 30.0288C127.825 30.3648 127.96 30.9504 127.96 31.7568C127.96 32.5632 127.835 33.1488 127.585 33.4944C127.335 33.84 126.853 34.0128 126.151 34.0128C125.448 34.0128 124.967 33.84 124.707 33.4944C124.457 33.1488 124.322 32.5728 124.322 31.7568Z" fill="#087CC1" style="fill:#087CC1;fill:color(display-p3 0.0314 0.4863 0.7569);fill-opacity:1;"/>
<path d="M129.385 33.9264H128.875V29.6064H129.385V29.9232C129.828 29.6544 130.29 29.52 130.79 29.52C131.291 29.52 131.637 29.6736 131.849 29.9808C132.061 29.856 132.311 29.7504 132.609 29.6544C132.908 29.568 133.177 29.52 133.408 29.52C133.986 29.52 134.371 29.6736 134.563 29.9712C134.756 30.2688 134.852 30.8352 134.852 31.6512V33.9264H134.342V31.68C134.342 31.0176 134.284 30.5664 134.159 30.336C134.034 30.1056 133.764 29.9904 133.351 29.9904C133.139 29.9904 132.927 30.0192 132.706 30.0768C132.484 30.1344 132.321 30.2016 132.205 30.2592L132.032 30.3456C132.119 30.5664 132.167 31.008 132.167 31.68V33.9264H131.647V31.6992C131.647 31.0272 131.589 30.5664 131.464 30.336C131.339 30.1056 131.069 29.9904 130.665 29.9904C130.463 29.9904 130.261 30.0192 130.049 30.0768C129.837 30.1344 129.674 30.2016 129.568 30.2592L129.404 30.3456V33.9264H129.385Z" fill="#087CC1" style="fill:#087CC1;fill:color(display-p3 0.0314 0.4863 0.7569);fill-opacity:1;"/>
<path d="M136.402 33.4942C136.806 33.5326 137.133 33.5422 137.374 33.5422C137.615 33.5422 137.836 33.5038 138.038 33.4366C138.231 33.3694 138.385 33.2542 138.49 33.091C138.596 32.9278 138.664 32.7358 138.702 32.5246C138.741 32.3134 138.75 32.035 138.75 31.6894C138.75 31.075 138.673 30.643 138.529 30.3742C138.385 30.1054 138.105 29.9806 137.701 29.9806C137.509 29.9806 137.297 30.0094 137.075 30.0574C136.854 30.1054 136.681 30.1534 136.565 30.211L136.392 30.2782V33.4942H136.402ZM137.749 29.5198C138.327 29.5198 138.731 29.683 138.952 30.019C139.174 30.355 139.289 30.931 139.289 31.7566C139.289 32.5822 139.145 33.1582 138.856 33.5038C138.567 33.8494 138.038 34.0222 137.258 34.0222C136.931 34.0222 136.546 34.003 136.094 33.955L135.872 33.9358V27.6958H136.392V29.8462C136.844 29.635 137.297 29.5294 137.749 29.5294" fill="#087CC1" style="fill:#087CC1;fill:color(display-p3 0.0314 0.4863 0.7569);fill-opacity:1;"/>
<path d="M140.598 32.6973C140.598 33.2829 140.839 33.5709 141.32 33.5709C141.532 33.5709 141.754 33.5421 142.004 33.4941C142.254 33.4461 142.447 33.3981 142.591 33.3405L142.812 33.2637V31.6989L141.397 31.8429C141.118 31.8621 140.907 31.9485 140.791 32.0829C140.666 32.2173 140.608 32.4189 140.608 32.6877M143.322 30.8925V33.2061C143.342 33.4173 143.534 33.5421 143.89 33.5901L143.862 34.0029C143.419 34.0029 143.091 33.8877 142.88 33.6573C142.341 33.8973 141.792 34.0125 141.253 34.0125C140.868 34.0125 140.57 33.8973 140.367 33.6765C140.165 33.4557 140.069 33.1389 140.069 32.7261C140.069 32.3133 140.175 32.0061 140.377 31.8141C140.579 31.6125 140.906 31.4973 141.34 31.4493L142.812 31.3053V30.9021C142.812 30.5757 142.745 30.3453 142.601 30.2013C142.456 30.0573 142.273 29.9901 142.033 29.9901C141.667 29.9901 141.186 30.0285 140.589 30.0957L140.319 30.1245L140.29 29.7117C140.926 29.5869 141.484 29.5293 141.956 29.5293C142.427 29.5293 142.774 29.6445 142.995 29.8653C143.207 30.0861 143.313 30.4317 143.313 30.9021" fill="#087CC1" style="fill:#087CC1;fill:color(display-p3 0.0314 0.4863 0.7569);fill-opacity:1;"/>
<path d="M146.874 30.0576H145.43V32.1984C145.43 32.7552 145.469 33.12 145.555 33.2928C145.632 33.4656 145.825 33.552 146.123 33.552L146.922 33.4944L146.961 33.936C146.576 33.9936 146.287 34.0224 146.085 34.0224C145.642 34.0224 145.344 33.9168 145.17 33.696C144.997 33.4848 144.911 33.0624 144.911 32.4576V30.0576H144.266V29.5968H144.911V28.2432H145.43V29.5968H146.874V30.0576Z" fill="#087CC1" style="fill:#087CC1;fill:color(display-p3 0.0314 0.4863 0.7569);fill-opacity:1;"/>
<path d="M72.9991 39.9549C72.9991 38.3325 72.4697 37.5165 71.4109 37.5165H69.7553V42.5661H71.4109C72.4697 42.5661 72.9991 41.6925 72.9991 39.9549ZM71.4109 43.0365H69.2163V37.0269H71.4109C72.8355 37.0269 73.5477 38.0061 73.5477 39.9453C73.5477 41.9997 72.8355 43.0365 71.4109 43.0365Z" fill="#087CC1" style="fill:#087CC1;fill:color(display-p3 0.0314 0.4863 0.7569);fill-opacity:1;"/>
<path d="M74.7799 40.6654H77.2247C77.2247 40.099 77.1285 39.6862 76.9456 39.4462C76.7531 39.2062 76.4547 39.0814 76.0408 39.0814C75.6269 39.0814 75.3093 39.2062 75.0975 39.4558C74.8858 39.7054 74.7799 40.1086 74.7799 40.6654ZM77.3114 42.6046L77.5713 42.5758L77.5905 42.9982C76.936 43.075 76.3873 43.123 75.9349 43.123C75.3093 43.123 74.8761 42.931 74.6259 42.5662C74.3756 42.2014 74.2505 41.6446 74.2505 40.8862C74.2505 39.379 74.8473 38.6206 76.0408 38.6206C76.6087 38.6206 77.0419 38.7838 77.321 39.1102C77.6001 39.4366 77.7445 39.955 77.7445 40.675L77.7253 41.0878H74.7799C74.7799 41.6158 74.8665 42.0094 75.0494 42.2686C75.2323 42.5278 75.5403 42.6526 75.9831 42.6526C76.4258 42.6526 76.8686 42.6334 77.3017 42.6046" fill="#087CC1" style="fill:#087CC1;fill:color(display-p3 0.0314 0.4863 0.7569);fill-opacity:1;"/>
<path d="M80.122 39.1104C79.4386 39.1104 79.1017 39.36 79.1017 39.8496C79.1017 40.0704 79.1787 40.2336 79.3231 40.3296C79.4771 40.4256 79.8139 40.512 80.3433 40.5984C80.8727 40.6848 81.2481 40.8096 81.4599 40.9632C81.6813 41.1168 81.7872 41.4144 81.7872 41.856C81.7872 42.2976 81.6428 42.624 81.3636 42.8256C81.0845 43.0272 80.661 43.1328 80.1123 43.1328C79.7947 43.1328 79.3808 43.0944 78.8803 43.008L78.63 42.9696L78.6685 42.5088C79.3134 42.6048 79.8139 42.6528 80.1605 42.6528C80.507 42.6528 80.7765 42.5952 80.969 42.4704C81.1615 42.3456 81.2578 42.144 81.2578 41.856C81.2578 41.568 81.1808 41.376 81.0171 41.28C80.8535 41.184 80.5166 41.0976 79.9968 41.0208C79.4771 40.944 79.1017 40.8288 78.8899 40.6752C78.6781 40.5216 78.5723 40.2432 78.5723 39.8304C78.5723 39.4176 78.7166 39.1104 79.015 38.9184C79.3134 38.7264 79.6696 38.6304 80.1123 38.6304C80.4589 38.6304 80.892 38.6688 81.4118 38.7456L81.6428 38.784L81.6235 39.2448C81.0075 39.1488 80.507 39.1104 80.122 39.1104Z" fill="#087CC1" style="fill:#087CC1;fill:color(display-p3 0.0314 0.4863 0.7569);fill-opacity:1;"/>
<path d="M83.1058 40.6654H85.5507C85.5507 40.099 85.4544 39.6862 85.2715 39.4462C85.079 39.2062 84.7806 39.0814 84.3667 39.0814C83.9529 39.0814 83.6352 39.2062 83.4235 39.4558C83.2117 39.7054 83.1058 40.1086 83.1058 40.6654ZM85.6373 42.6046L85.8972 42.5758L85.9164 42.9982C85.2619 43.075 84.7133 43.123 84.2609 43.123C83.6352 43.123 83.2021 42.931 82.9518 42.5662C82.7015 42.2014 82.5764 41.6446 82.5764 40.8862C82.5764 39.379 83.1732 38.6206 84.3667 38.6206C84.9346 38.6206 85.3678 38.7838 85.6469 39.1102C85.9261 39.4366 86.0704 39.955 86.0704 40.675L86.0512 41.0878H83.1058C83.1058 41.6158 83.1924 42.0094 83.3753 42.2686C83.5582 42.5278 83.8662 42.6526 84.309 42.6526C84.7518 42.6526 85.1945 42.6334 85.6277 42.6046" fill="#087CC1" style="fill:#087CC1;fill:color(display-p3 0.0314 0.4863 0.7569);fill-opacity:1;"/>
<path d="M87.1582 43.0368V38.7168H87.6683V39.3408C87.8801 39.1872 88.14 39.0432 88.4576 38.9088C88.7656 38.7744 89.0544 38.6784 89.3143 38.6304V39.1488C89.064 39.1968 88.8042 39.2832 88.5346 39.3888C88.2651 39.4944 88.0534 39.5904 87.8994 39.6672L87.678 39.8016V43.0464H87.1678L87.1582 43.0368Z" fill="#087CC1" style="fill:#087CC1;fill:color(display-p3 0.0314 0.4863 0.7569);fill-opacity:1;"/>
<path d="M92.4327 39.1772H90.9889V41.318C90.9889 41.8748 91.0274 42.2396 91.114 42.4124C91.191 42.5852 91.3835 42.6716 91.6819 42.6716L92.4808 42.614L92.5193 43.0556C92.1343 43.1132 91.8456 43.142 91.6434 43.142C91.2007 43.142 90.9023 43.0364 90.729 42.8156C90.5558 42.5948 90.4691 42.182 90.4691 41.5772V39.1772H89.8242V38.7164H90.4691V37.3628H90.9889V38.7164H92.4327V39.1772Z" fill="#087CC1" style="fill:#087CC1;fill:color(display-p3 0.0314 0.4863 0.7569);fill-opacity:1;"/>
<path d="M93.3569 43.0366H93.8671V38.7166H93.3569V43.0366ZM93.3569 37.6318H93.8671V36.979H93.3569V37.6318Z" fill="#087CC1" style="fill:#087CC1;fill:color(display-p3 0.0314 0.4863 0.7569);fill-opacity:1;"/>
<path d="M95.8885 39.1776V43.0464H95.3687V39.1776H94.8008V38.7168H95.3687V38.2752C95.3687 37.6608 95.4553 37.248 95.6189 37.0368C95.7826 36.8256 96.081 36.7104 96.5141 36.7104L97.3515 36.7488V37.1904C97.0146 37.1808 96.7547 37.1712 96.5911 37.1712C96.3216 37.1712 96.1387 37.248 96.0328 37.392C95.9366 37.5456 95.8885 37.8336 95.8885 38.2752V38.7072H97.1975V39.168H95.8885V39.1776Z" fill="#087CC1" style="fill:#087CC1;fill:color(display-p3 0.0314 0.4863 0.7569);fill-opacity:1;"/>
<path d="M98.0637 43.0366H98.5739V38.7166H98.0637V43.0366ZM98.0637 37.6318H98.5739V36.979H98.0637V37.6318Z" fill="#087CC1" style="fill:#087CC1;fill:color(display-p3 0.0314 0.4863 0.7569);fill-opacity:1;"/>
<path d="M101.385 38.6304C101.644 38.6304 101.952 38.6592 102.309 38.7168L102.511 38.7456L102.482 39.1872C102.029 39.1296 101.683 39.1008 101.471 39.1008C100.961 39.1008 100.605 39.2256 100.412 39.4752C100.22 39.7248 100.124 40.1856 100.124 40.8576C100.124 41.5296 100.21 42 100.384 42.2592C100.557 42.528 100.913 42.6528 101.471 42.6528L102.501 42.576L102.52 43.0176C102.01 43.0848 101.625 43.1232 101.375 43.1232C100.692 43.1232 100.22 42.9504 99.9696 42.6144C99.7194 42.2784 99.5942 41.6928 99.5942 40.8576C99.5942 40.0224 99.729 39.4464 100.008 39.12C100.287 38.7936 100.74 38.6304 101.394 38.6304" fill="#087CC1" style="fill:#087CC1;fill:color(display-p3 0.0314 0.4863 0.7569);fill-opacity:1;"/>
<path d="M103.82 41.8081C103.82 42.3937 104.06 42.6817 104.542 42.6817C104.753 42.6817 104.975 42.6529 105.225 42.6049C105.475 42.5569 105.668 42.5089 105.812 42.4513L106.034 42.3745V40.8097L104.619 40.9537C104.339 40.9729 104.128 41.0593 104.012 41.1937C103.887 41.3281 103.829 41.5297 103.829 41.7985M106.544 40.0033V42.3169C106.563 42.5281 106.755 42.6529 107.112 42.7009L107.083 43.1137C106.64 43.1137 106.313 42.9985 106.101 42.7681C105.562 43.0081 105.013 43.1233 104.474 43.1233C104.089 43.1233 103.791 43.0081 103.589 42.7873C103.387 42.5665 103.29 42.2497 103.29 41.8369C103.29 41.4241 103.396 41.1169 103.598 40.9249C103.8 40.7233 104.128 40.6081 104.561 40.5601L106.034 40.4161V40.0129C106.034 39.6865 105.966 39.4561 105.822 39.3121C105.677 39.1681 105.495 39.1009 105.254 39.1009C104.888 39.1009 104.407 39.1393 103.81 39.2065L103.541 39.2353L103.512 38.8225C104.147 38.6977 104.705 38.6401 105.177 38.6401C105.649 38.6401 105.995 38.7553 106.216 38.9761C106.428 39.1969 106.534 39.5425 106.534 40.0129" fill="#087CC1" style="fill:#087CC1;fill:color(display-p3 0.0314 0.4863 0.7569);fill-opacity:1;"/>
<path d="M110.144 39.1777H108.7V41.3185C108.7 41.8753 108.738 42.2401 108.825 42.4129C108.902 42.5857 109.094 42.6721 109.393 42.6721L110.192 42.6145L110.23 43.0561C109.845 43.1137 109.556 43.1425 109.354 43.1425C108.912 43.1425 108.613 43.0369 108.44 42.8161C108.267 42.5953 108.18 42.1825 108.18 41.5777V39.1777H107.535V38.7169H108.18V37.3633H108.7V38.7169H110.144V39.1777Z" fill="#087CC1" style="fill:#087CC1;fill:color(display-p3 0.0314 0.4863 0.7569);fill-opacity:1;"/>
<path d="M111.077 43.0366H111.588V38.7166H111.077V43.0366ZM111.077 37.6318H111.588V36.979H111.077V37.6318Z" fill="#087CC1" style="fill:#087CC1;fill:color(display-p3 0.0314 0.4863 0.7569);fill-opacity:1;"/>
<path d="M113.137 40.8576C113.137 41.5392 113.214 42.0096 113.378 42.2784C113.541 42.5376 113.888 42.672 114.417 42.672C114.947 42.672 115.303 42.5376 115.467 42.2784C115.63 42.0096 115.707 41.5392 115.707 40.8672C115.707 40.1952 115.621 39.7248 115.438 39.4752C115.255 39.2256 114.918 39.1008 114.427 39.1008C113.936 39.1008 113.599 39.2256 113.416 39.4752C113.233 39.7248 113.147 40.1856 113.147 40.8672M112.598 40.8672C112.598 40.0512 112.733 39.4752 113.012 39.1392C113.291 38.8032 113.753 38.6304 114.417 38.6304C115.082 38.6304 115.544 38.8032 115.823 39.1392C116.092 39.4752 116.237 40.0512 116.237 40.8672C116.237 41.6832 116.111 42.2592 115.861 42.6048C115.611 42.9504 115.13 43.1232 114.427 43.1232C113.724 43.1232 113.243 42.9504 112.983 42.6048C112.733 42.2592 112.598 41.6832 112.598 40.8672Z" fill="#087CC1" style="fill:#087CC1;fill:color(display-p3 0.0314 0.4863 0.7569);fill-opacity:1;"/>
<path d="M117.7 43.0368H117.189V38.7168H117.7V39.0336C118.181 38.7648 118.653 38.6304 119.115 38.6304C119.692 38.6304 120.077 38.784 120.27 39.0912C120.462 39.3984 120.558 39.9552 120.558 40.7712V43.0464H120.039V40.8C120.039 40.1376 119.971 39.6864 119.846 39.456C119.721 39.2256 119.451 39.1104 119.028 39.1104C118.826 39.1104 118.614 39.1392 118.393 39.1968C118.171 39.2544 117.998 39.3216 117.873 39.3792L117.69 39.4656V43.0464L117.7 43.0368Z" fill="#087CC1" style="fill:#087CC1;fill:color(display-p3 0.0314 0.4863 0.7569);fill-opacity:1;"/>
<path d="M53.4982 24.0288C53.3827 24.0864 53.2672 24.1344 53.1421 24.2016C52.9014 24.3264 52.6512 24.4608 52.3913 24.6144C52.1121 24.7776 51.8137 24.96 51.5154 25.1424C48.1561 27.2928 43.9883 30.9888 43.9883 30.9888C43.9883 30.9888 46.3273 31.7184 48.416 30.9888C48.416 30.9888 51.6405 27.8016 53.6618 26.8032C53.6618 26.8032 53.6811 26.8032 53.6907 26.7936C53.6907 26.6496 53.7003 26.5056 53.7003 26.3616C53.7003 26.112 53.7003 25.872 53.6811 25.6224C53.6618 25.248 53.6233 24.8736 53.5752 24.4992" fill="#087CC1" style="fill:#087CC1;fill:color(display-p3 0.0314 0.4863 0.7569);fill-opacity:1;"/>
<path d="M53.3344 23.1842C53.3344 23.1842 53.3248 23.1362 53.3151 23.117C53.3151 23.0786 53.2959 23.0498 53.2863 23.0114C53.267 22.9442 53.2478 22.877 53.2285 22.8098C53.1996 22.6946 53.1611 22.5698 53.1323 22.4546C53.113 22.3874 53.0938 22.3202 53.0745 22.253C53.0649 22.2146 53.0553 22.1762 53.036 22.1378C52.9879 21.9842 52.9301 21.8306 52.882 21.677C52.882 21.6578 52.8724 21.6482 52.8627 21.629C52.8242 21.5234 52.7857 21.4178 52.7376 21.3122C52.6991 21.2258 52.6702 21.1394 52.6317 21.0434C52.6029 20.9858 52.5836 20.9282 52.5547 20.8706C51.3227 18.0386 49.1377 15.677 46.3175 14.2658C44.4694 13.3154 42.3614 12.7778 40.1379 12.7778C33.2269 12.7778 27.5383 17.9426 26.7009 24.605V24.6242C26.6816 24.797 26.6623 24.9794 26.6431 25.1618C26.6431 25.1906 26.6431 25.229 26.6335 25.2578C26.6238 25.3826 26.6142 25.5074 26.6046 25.6322C26.6046 25.709 26.595 25.7954 26.595 25.8722C26.595 25.8914 26.595 25.9106 26.595 25.9298C26.595 26.0642 26.595 26.2082 26.595 26.3426C26.595 33.8114 32.659 39.8594 40.1476 39.8594C47.0875 39.8594 52.805 34.6562 53.6039 27.9458C53.3248 28.061 53.0456 28.1858 52.7761 28.3394C51.5441 29.0402 50.4468 30.0098 49.4746 31.0754C47.9057 32.8034 46.3271 34.1282 44.1132 34.7618C41.5914 35.4818 38.4535 35.4338 36.0953 34.0898C35.6717 33.8498 35.2578 33.5522 34.8921 33.2162C34.7477 33.0818 34.4782 32.8706 34.4493 32.6498C34.3531 31.9202 36.6054 32.6402 36.8749 32.7074C38.0011 32.9954 39.1273 33.389 40.1957 33.8306C41.8128 34.5122 43.5838 34.6082 45.1913 33.8498C45.8843 33.5234 46.5292 33.053 47.0971 32.5154C47.2222 32.4002 47.5784 32.045 47.7035 31.8146C42.8042 32.4002 44.4116 31.6706 33.0151 26.573C31.2248 25.7762 29.4922 25.373 27.8463 25.2674C28.3564 18.941 33.6889 13.9394 40.1668 13.9394C45.5378 13.9394 50.1195 17.3762 51.8232 22.1666C50.6681 22.3106 49.5805 22.7042 48.8874 23.0882C47.5784 23.8082 40.6481 29.4818 40.6481 29.4818L43.2854 30.6818C43.2854 30.6818 44.2961 29.5874 46.818 27.677C48.8682 26.1218 50.3986 25.0466 51.5344 24.2882C51.8039 24.1058 52.0446 23.9522 52.2756 23.8082C52.6991 23.5394 53.0553 23.3282 53.344 23.1554" fill="#087CC1" style="fill:#087CC1;fill:color(display-p3 0.0314 0.4863 0.7569);fill-opacity:1;"/>
<path d="M42.939 24.3649C39.1851 26.9281 37.7124 28.1089 37.7124 28.1089C37.7124 28.1089 39.4354 28.9537 39.9744 29.2129L45.509 24.5953C45.509 24.5953 47.6651 23.0113 48.5314 22.5601C48.5314 22.5601 46.1443 22.1761 42.939 24.3649Z" fill="#087CC1" style="fill:#087CC1;fill:color(display-p3 0.0314 0.4863 0.7569);fill-opacity:1;"/>
<path d="M37.7701 22.0127C37.7027 22.0415 37.6353 22.0703 37.5679 22.0991C37.3369 22.1951 37.0963 22.2911 36.8653 22.3967L36.7305 22.4543C36.7594 23.4431 36.7016 25.2863 36.0471 27.0143L37 27.5039C37.7893 25.4399 37.8086 23.1071 37.7701 22.0223" fill="#087CC1" style="fill:#087CC1;fill:color(display-p3 0.0314 0.4863 0.7569);fill-opacity:1;"/>
<path d="M36.7113 21.8208C37.0482 21.6672 37.3947 21.5328 37.7412 21.3888C38.338 21.1392 38.9251 20.8608 39.4449 20.4576C40.2438 19.8336 40.8406 19.0656 41.1582 18.1152C41.4277 17.3376 41.6395 16.5504 41.8801 15.7728C41.8512 15.7632 41.8224 15.744 41.8031 15.7344C36.1337 17.4624 36.6824 21.84 36.6824 21.84C36.692 21.84 36.7016 21.84 36.7113 21.8304" fill="#087CC1" style="fill:#087CC1;fill:color(display-p3 0.0314 0.4863 0.7569);fill-opacity:1;"/>
<path d="M36.0761 21.7343C35.8547 20.9663 35.4408 20.2847 34.7767 19.6991C34.2473 19.2287 33.6794 18.7679 33.1307 18.3071C33.1115 18.3167 33.0922 18.3359 33.073 18.3455C32.4762 22.7231 36.2205 24.0671 36.2205 24.0671C36.2109 23.2799 36.3071 22.5215 36.0761 21.7343Z" fill="#087CC1" style="fill:#087CC1;fill:color(display-p3 0.0314 0.4863 0.7569);fill-opacity:1;"/>
<path d="M39.0888 42.6914C38.4343 42.605 37.7701 42.5954 37.1156 42.653C36.076 42.749 35.1327 43.0658 34.2087 43.5362C33.2365 44.0258 32.2162 44.4098 31.1671 44.6978C29.9254 45.0434 28.549 44.8994 27.3843 44.3522C27.3169 44.3234 27.2495 44.4098 27.3073 44.4674C27.8848 45.0626 28.6837 45.5618 29.9254 45.9746C31.3692 46.4546 32.5628 46.2146 33.4098 45.9746C34.4686 45.677 35.4119 44.9474 36.3263 44.3522C36.9231 43.9682 37.4813 43.4498 38.184 43.2866C38.5016 43.2098 38.8482 43.2194 39.1947 43.2866C39.5219 43.1522 39.8588 43.0274 40.2053 42.9314C39.8492 42.8258 39.4738 42.749 39.0984 42.701" fill="#087CC1" style="fill:#087CC1;fill:color(display-p3 0.0314 0.4863 0.7569);fill-opacity:1;"/>
<path d="M40.446 43.6319C41.7165 44.1311 42.8234 45.1199 43.8149 46.0319C43.9304 46.1375 45.0662 47.2415 45.3068 47.5199C45.3357 47.5487 45.3838 47.5487 45.4127 47.5199L46.202 46.7327C46.202 46.7327 46.2308 46.6559 46.202 46.6271C45.8843 46.3391 44.2576 44.8895 42.5347 43.9199C42.1015 43.6799 41.6684 43.4591 41.2256 43.2671C40.8791 43.3151 40.5326 43.4111 40.2053 43.5263C40.292 43.5551 40.3786 43.5935 40.4556 43.6223" fill="#087CC1" style="fill:#087CC1;fill:color(display-p3 0.0314 0.4863 0.7569);fill-opacity:1;"/>
<path d="M30.272 43.8146C32.1393 43.6994 34.2569 43.0466 34.9596 42.8162C35.0269 42.797 35.0269 42.701 34.9596 42.6818C32.3607 42.0386 31.0324 40.493 30.2816 39.6194C29.4538 38.669 28.5683 38.0546 28.1833 37.8146C28.1255 37.7762 28.0485 37.8338 28.0774 37.901C28.3277 38.4962 29.1073 40.2626 29.8003 41.0498C30.3009 41.6162 30.9554 42.0098 31.4174 42.2402C31.4944 42.2786 31.4559 42.3842 31.3693 42.3746C29.425 42.0386 28.6549 42.221 26.7972 42.0002C25.286 41.8178 24.1598 41.117 23.6882 40.7618C23.6208 40.7138 23.5438 40.7906 23.5823 40.8578C23.746 41.117 24.0828 41.5682 24.7566 42.2402C25.9598 43.4402 27.548 43.9682 30.2816 43.7954" fill="#087CC1" style="fill:#087CC1;fill:color(display-p3 0.0314 0.4863 0.7569);fill-opacity:1;"/>
<path d="M29.2614 41.5775C29.3287 41.5967 29.3769 41.5103 29.3287 41.4623C28.5587 40.7039 27.8175 39.3311 27.1534 37.2287C26.5951 35.4719 25.4689 34.0799 24.9877 33.5231C24.9395 33.4655 24.8433 33.5231 24.8625 33.5903C25.055 34.2911 25.2091 35.7023 25.4689 37.1039C25.777 38.7647 27.2881 40.1855 27.548 40.4063C27.3363 40.2239 26.2101 39.3023 23.7845 38.1791C21.6862 37.2095 20.4926 36.0287 20.021 35.4911C19.9728 35.4335 19.8766 35.4911 19.9054 35.5679C20.0883 36.0383 20.5215 36.9311 21.4648 38.1887C22.9086 40.1087 24.8722 40.9439 26.2005 41.0591C27.2304 41.1551 28.6838 41.4527 29.271 41.5775" fill="#087CC1" style="fill:#087CC1;fill:color(display-p3 0.0314 0.4863 0.7569);fill-opacity:1;"/>
<path d="M22.1866 36.4032C23.1299 36.816 24.4293 37.6992 24.978 38.0736C25.0357 38.112 25.1127 38.0448 25.0838 37.9872C24.5737 36.9792 24.0924 35.2608 24.1309 33.0816C24.1694 31.2768 23.64 29.6448 23.3801 28.9536C23.3513 28.8864 23.2454 28.896 23.2454 28.9728C23.1973 29.7024 22.9181 31.0848 22.6967 32.4672C22.5042 33.648 22.8507 34.7328 23.178 35.4336C23.5341 35.9616 23.64 36.2592 23.64 36.2592C23.64 36.2592 23.409 35.952 23.178 35.4336C22.7834 34.848 22.0711 33.984 20.8487 32.9088C19.1835 31.4496 18.6059 30.0192 18.4038 29.3088C18.3845 29.232 18.269 29.2416 18.269 29.328C18.269 29.856 18.3364 30.8064 18.8081 32.2176C19.5589 34.4928 20.993 35.8656 22.2058 36.3936" fill="#087CC1" style="fill:#087CC1;fill:color(display-p3 0.0314 0.4863 0.7569);fill-opacity:1;"/>
<path d="M23.1587 35.4336C23.3993 35.9424 23.6207 36.2592 23.6207 36.2592C23.6207 36.2592 23.5148 35.9616 23.1587 35.4336Z" fill="#087CC1" style="fill:#087CC1;fill:color(display-p3 0.0314 0.4863 0.7569);fill-opacity:1;"/>
<path d="M21.9171 33.1295C21.9171 33.1295 22.0422 33.1295 22.0326 33.0719C21.9941 32.5247 21.9556 30.7391 22.7641 28.7903C23.5149 26.9663 23.563 24.9023 23.5534 24.1919C23.5534 24.1247 23.4571 24.0959 23.4186 24.1535C23.0818 24.7295 22.1962 26.2751 22.0037 26.5727C21.7631 26.9279 21.3973 27.7535 21.224 28.5599C21.1182 29.0207 21.1085 29.5391 21.1278 29.9711C21.1278 30.0575 21.0123 30.0767 20.9834 29.9903C20.8005 29.2703 20.5599 28.3199 20.3866 27.8015C20.1556 27.0911 19.6647 26.2367 19.3663 25.3535C19.0776 24.4991 18.8754 23.9039 18.7888 23.3279C18.7792 23.2511 18.6637 23.2415 18.6444 23.3279C18.423 24.4127 17.9707 27.3887 19.1161 29.4527C20.3578 31.6703 21.5128 32.7935 21.8978 33.1295" fill="#087CC1" style="fill:#087CC1;fill:color(display-p3 0.0314 0.4863 0.7569);fill-opacity:1;"/>
<path d="M20.531 26.1985C20.6176 26.4961 20.7043 26.9377 20.7716 27.3121C20.7813 27.3793 20.8775 27.3889 20.9064 27.3217C21.4358 25.9681 22.8989 23.8369 22.947 23.7697C24.3812 21.9553 24.6892 20.5249 24.7469 19.9297C24.7469 19.8529 24.6603 19.8241 24.6122 19.8817C24.3908 20.2273 23.8807 20.8993 22.8989 21.6577C21.9267 22.3969 21.4262 23.5009 21.1952 24.1441C21.1663 24.2209 21.0508 24.2017 21.0604 24.1153C21.0797 23.3089 21.0797 21.7441 20.8679 20.3521C20.685 19.1233 20.8679 18.2209 21.0219 17.7025C21.0412 17.6257 20.9449 17.5777 20.8968 17.6353C20.7043 17.8945 20.454 18.2401 20.2807 18.5281C19.8765 19.1905 19.6647 20.0161 19.5396 20.7745C19.4145 21.5329 19.3952 22.3201 19.5492 23.0785C19.7706 24.1537 20.2422 25.1329 20.5406 26.1889" fill="#087CC1" style="fill:#087CC1;fill:color(display-p3 0.0314 0.4863 0.7569);fill-opacity:1;"/>
<path d="M21.4551 22.0702C21.4551 22.1374 21.5417 22.1662 21.5802 22.1182C21.8401 21.811 22.5043 21.043 23.4476 20.2366C24.6219 19.219 26.5085 18.0094 26.624 16.051C26.624 15.9838 26.5373 15.9454 26.4892 16.003C26.2678 16.3102 25.7673 16.915 24.8433 17.5678C23.746 18.3454 23.0337 19.0078 22.5524 19.7662C22.5139 19.8334 22.408 19.795 22.4273 19.7086C22.6294 18.883 23.0048 17.3278 23.1107 16.8478C23.2647 16.1758 23.515 15.1966 24.1599 14.5438C24.2176 14.4862 24.1599 14.3998 24.0828 14.4286C23.5631 14.6302 22.6005 15.1102 22.0519 16.0414C21.2915 17.347 21.4166 19.3822 21.4166 19.6702C21.4166 19.9102 21.4455 21.4942 21.4551 22.051" fill="#087CC1" style="fill:#087CC1;fill:color(display-p3 0.0314 0.4863 0.7569);fill-opacity:1;"/>
<path d="M23.64 17.8081C24.4197 17.0785 25.9501 15.9457 26.6624 14.9569C27.4613 13.8433 28.3083 12.7009 28.6164 12.2881C28.6549 12.2305 28.6067 12.1537 28.5393 12.1825C28.1447 12.3073 27.2014 12.6625 25.7769 13.6033C24.1694 14.6689 23.6496 17.0305 23.5245 17.7505C23.5149 17.8177 23.5919 17.8657 23.64 17.8177" fill="#087CC1" style="fill:#087CC1;fill:color(display-p3 0.0314 0.4863 0.7569);fill-opacity:1;"/>
<path d="M52.9399 44.3712C51.7656 44.9184 50.3891 45.0624 49.1474 44.7168C48.0983 44.4288 47.078 44.0352 46.1058 43.5552C45.1721 43.0944 44.2385 42.7776 43.1989 42.672C42.5444 42.6144 41.8803 42.624 41.2257 42.7104C40.8696 42.7584 40.5231 42.8256 40.1958 42.9216C40.5423 43.0176 40.8792 43.1424 41.2065 43.2864C41.5241 43.2384 41.8417 43.2384 42.1401 43.3056C42.8524 43.4688 43.4107 43.9872 43.9978 44.3712C44.9123 44.9664 45.8556 45.6864 46.9143 45.9936C47.7518 46.2336 48.9549 46.4736 50.3987 45.9936C51.6404 45.5808 52.4393 45.0816 53.0169 44.4864C53.0746 44.4288 53.0072 44.3424 52.9399 44.3712Z" fill="#087CC1" style="fill:#087CC1;fill:color(display-p3 0.0314 0.4863 0.7569);fill-opacity:1;"/>
<path d="M37.7991 43.9586C36.0761 44.9282 34.4494 46.3778 34.1318 46.6658C34.1029 46.6946 34.1029 46.7426 34.1318 46.7714L34.921 47.5586C34.921 47.5586 34.9981 47.5874 35.0269 47.5586C35.2676 47.2802 36.4034 46.1762 36.5189 46.0706C37.5103 45.1586 38.6172 44.1698 39.8878 43.6706C39.984 43.6322 40.0899 43.5938 40.2054 43.5554C39.8878 43.4402 39.5509 43.3442 39.2044 43.2866C38.7327 43.4786 38.2707 43.7186 37.8087 43.9682" fill="#087CC1" style="fill:#087CC1;fill:color(display-p3 0.0314 0.4863 0.7569);fill-opacity:1;"/>
<path d="M39.1851 43.2766C39.5316 43.3342 39.8781 43.4302 40.1861 43.5454C40.5037 43.4302 40.8599 43.3342 41.2064 43.2862C40.8791 43.1422 40.5422 43.027 40.1957 42.9214C39.8492 43.0174 39.5123 43.1326 39.1851 43.2766Z" fill="#087CC1" style="fill:#087CC1;fill:color(display-p3 0.0314 0.4863 0.7569);fill-opacity:1;"/>
<path d="M56.6359 40.8096C56.1642 41.1648 55.0381 41.8656 53.5269 42.048C51.6595 42.2688 50.8991 42.0864 48.9548 42.4224C48.8778 42.432 48.8393 42.3264 48.9067 42.288C49.3687 42.0576 50.0328 41.6544 50.5237 41.0976C51.2168 40.3104 51.9868 38.544 52.2467 37.9488C52.2756 37.8816 52.1986 37.824 52.1408 37.8624C51.7654 38.1024 50.8702 38.7168 50.0425 39.6672C49.2821 40.5408 47.9634 42.0864 45.3645 42.72C45.2971 42.7392 45.2875 42.8352 45.3645 42.8544C46.0672 43.0848 48.1751 43.7376 50.0521 43.8528C52.7857 44.0256 54.3739 43.4976 55.5771 42.2976C56.2509 41.6256 56.5877 41.1744 56.7514 40.9152C56.7899 40.848 56.7129 40.7712 56.6455 40.8192" fill="#087CC1" style="fill:#087CC1;fill:color(display-p3 0.0314 0.4863 0.7569);fill-opacity:1;"/>
<path d="M60.2936 35.5198C59.8219 36.067 58.6284 37.2382 56.53 38.2078C54.114 39.3214 52.9782 40.2526 52.7665 40.435C53.0167 40.2046 54.5376 38.7934 54.8456 37.1326C55.1055 35.731 55.2691 34.3198 55.452 33.619C55.4712 33.5422 55.3846 33.4942 55.3268 33.5518C54.8456 34.099 53.7194 35.5006 53.1611 37.2574C52.497 39.3598 51.7558 40.723 50.9858 41.491C50.9377 41.539 50.9858 41.6254 51.0532 41.6062C51.6307 41.4814 53.0841 41.1838 54.1237 41.0878C55.4424 40.9726 57.4156 40.1278 58.8594 38.2174C59.8027 36.9598 60.2358 36.067 60.4187 35.5966C60.4476 35.5198 60.3513 35.4622 60.3032 35.5198" fill="#087CC1" style="fill:#087CC1;fill:color(display-p3 0.0314 0.4863 0.7569);fill-opacity:1;"/>
<path d="M62.0744 29.3471C62.0744 29.2607 61.9589 29.2511 61.9301 29.3279C61.7279 30.0383 61.1504 31.4687 59.4852 32.9279C58.2532 34.0031 57.5505 34.8671 57.1559 35.4527C56.9152 35.9615 56.6938 36.2783 56.6938 36.2783C56.6938 36.2783 56.7997 35.9807 57.1559 35.4527C57.4831 34.7519 57.8296 33.6671 57.6371 32.4863C57.4061 31.1039 57.1366 29.7311 57.0885 28.9919C57.0885 28.9151 56.9826 28.8959 56.9537 28.9727C56.6938 29.6639 56.1644 31.2959 56.2029 33.1007C56.2511 35.2799 55.7698 36.9983 55.25 38.0063C55.2212 38.0735 55.2885 38.1407 55.3559 38.0927C55.8949 37.7183 57.204 36.8351 58.1473 36.4223C59.3601 35.8847 60.7943 34.5215 61.5451 32.2463C62.0071 30.8351 62.0841 29.8751 62.0841 29.3567" fill="#087CC1" style="fill:#087CC1;fill:color(display-p3 0.0314 0.4863 0.7569);fill-opacity:1;"/>
<path d="M57.1559 35.4526C56.7901 35.9806 56.6938 36.2782 56.6938 36.2782C56.6938 36.2782 56.9249 35.971 57.1559 35.4526Z" fill="#087CC1" style="fill:#087CC1;fill:color(display-p3 0.0314 0.4863 0.7569);fill-opacity:1;"/>
<path d="M59.331 30.0096C59.3117 30.096 59.1866 30.0768 59.1866 29.9904C59.2058 29.5584 59.1866 29.04 59.0903 28.5792C58.9171 27.7824 58.5513 26.9568 58.3107 26.592C58.1182 26.304 57.223 24.7584 56.8957 24.1728C56.8572 24.1056 56.761 24.1344 56.761 24.2112C56.761 24.9216 56.7995 26.9856 57.5503 28.8096C58.3588 30.7584 58.3203 32.544 58.2818 33.0912C58.2818 33.1584 58.3492 33.1872 58.3973 33.1488C58.7823 32.8128 59.9374 31.6896 61.1791 29.472C62.3341 27.408 61.8817 24.432 61.6507 23.3472C61.6315 23.2704 61.5256 23.2704 61.5063 23.3472C61.4197 23.9136 61.2079 24.5088 60.9288 25.3728C60.6304 26.256 60.1395 27.1104 59.9085 27.8208C59.7352 28.3488 59.4946 29.2896 59.3117 30.0096" fill="#087CC1" style="fill:#087CC1;fill:color(display-p3 0.0314 0.4863 0.7569);fill-opacity:1;"/>
<path d="M57.4252 21.6865C56.4434 20.9377 55.9333 20.2657 55.7119 19.9105C55.6734 19.8433 55.5771 19.8817 55.5771 19.9585C55.6445 20.5537 55.9429 21.9841 57.3771 23.7985C57.4252 23.8657 58.8787 25.9969 59.4177 27.3505C59.4466 27.4177 59.5428 27.4081 59.5524 27.3409C59.6198 26.9569 59.7065 26.5153 59.7931 26.2273C60.0915 25.1713 60.5631 24.1921 60.7845 23.1169C60.9385 22.3585 60.9193 21.5713 60.7941 20.8129C60.669 20.0545 60.4572 19.2289 60.053 18.5665C59.8797 18.2785 59.6294 17.9329 59.4369 17.6737C59.3888 17.6065 59.2926 17.6641 59.3118 17.7409C59.4754 18.2497 59.6487 19.1617 59.4562 20.3905C59.2444 21.7921 59.2444 23.3569 59.2637 24.1537C59.2637 24.2305 59.1482 24.2593 59.1289 24.1825C58.8979 23.5393 58.3878 22.4353 57.4252 21.6961" fill="#087CC1" style="fill:#087CC1;fill:color(display-p3 0.0314 0.4863 0.7569);fill-opacity:1;"/>
<path d="M57.2135 16.8767C57.3194 17.3567 57.6947 18.9215 57.8969 19.7375C57.9161 19.8143 57.8102 19.8623 57.7717 19.7951C57.2905 19.0367 56.5782 18.3743 55.4809 17.5967C54.5569 16.9439 54.0563 16.3295 53.835 16.0223C53.7964 15.9647 53.7002 15.9935 53.7002 16.0703C53.8157 18.0383 55.6927 19.2383 56.8766 20.2559C57.8199 21.0623 58.484 21.8207 58.7439 22.1375C58.7824 22.1855 58.869 22.1567 58.869 22.0895C58.8787 21.5327 58.9075 19.9487 58.9075 19.7087C58.9075 19.4111 59.0327 17.3855 58.2723 16.0799C57.7332 15.1487 56.7611 14.6687 56.2413 14.4671C56.1739 14.4383 56.1065 14.5247 56.1643 14.5823C56.8092 15.2351 57.0595 16.2143 57.2135 16.8863" fill="#087CC1" style="fill:#087CC1;fill:color(display-p3 0.0314 0.4863 0.7569);fill-opacity:1;"/>
<path d="M53.652 14.976C54.3643 15.9648 55.8947 17.0976 56.6744 17.8272C56.7225 17.8752 56.8091 17.8272 56.7899 17.76C56.6647 17.0496 56.145 14.688 54.5375 13.6128C53.113 12.6624 52.16 12.3072 51.775 12.192C51.7076 12.1728 51.6595 12.2496 51.698 12.2976C52.006 12.7104 52.8531 13.8528 53.652 14.9664" fill="#087CC1" style="fill:#087CC1;fill:color(display-p3 0.0314 0.4863 0.7569);fill-opacity:1;"/>
</svg>
