<svg width="187" height="48" viewBox="0 0 187 48" fill="none" xmlns="http://www.w3.org/2000/svg">
<path d="M48.7734 43.6513C46.6349 42.7201 44.41 41.5393 41.8208 42.1057C41.5427 42.1057 41.303 42.2689 41.0344 42.2785C40.7659 42.2689 40.5262 42.1057 40.2481 42.1057C37.6684 41.5393 35.4436 42.7201 33.2955 43.6513C31.6269 44.3137 29.7377 44.1505 28.2034 43.2097C30.1884 45.5809 33.6695 46.0033 36.1724 44.1793C37.4383 43.4689 38.5315 42.0673 40.2001 42.5953C38.4644 43.4209 36.8821 44.5441 35.5491 45.9265L36.4314 46.6465C37.4767 45.3025 38.7425 44.1697 40.1905 43.2769C40.4495 43.0945 40.7372 42.9697 41.044 42.8929C41.3509 42.9697 41.6386 43.0945 41.8975 43.2769C43.3456 44.1697 44.6114 45.3025 45.6567 46.6465L46.5294 45.9265C45.1868 44.5441 43.6141 43.4209 41.8783 42.5953C43.547 42.0673 44.6402 43.4689 45.906 44.1793C48.3994 46.0033 51.89 45.5809 53.8751 43.2097C52.3408 44.1505 50.4516 44.3137 48.783 43.6513" fill="#4D91CD" style="fill:#4D91CD;fill:color(display-p3 0.3020 0.5686 0.8039);fill-opacity:1;"/>
<path d="M24.9717 22.2432C25.3073 21.504 25.5375 20.7168 25.643 19.9104C25.4991 20.256 25.2881 20.5632 25.0292 20.832C23.8209 21.936 22.4496 23.0688 22.1811 24.6528C22.1523 24.8832 22.1139 25.1136 22.0564 25.3344C22.0085 25.3536 22.0085 25.296 21.9797 25.2864L22.1235 23.3088C22.1715 21.3792 21.2509 19.2384 22.3633 17.5488C22.3249 17.5488 22.3057 17.568 22.277 17.5872C21.2029 18.816 20.5988 20.3904 20.5892 22.032C20.4453 24.1632 21.8167 25.6704 21.9701 27.6768C22.2866 25.5744 24.0223 24.0768 24.9525 22.2336" fill="#4D91CD" style="fill:#4D91CD;fill:color(display-p3 0.3020 0.5686 0.8039);fill-opacity:1;"/>
<path d="M26.1703 37.7949C25.969 37.2765 25.6525 36.7869 25.4991 36.2493C24.9045 33.7533 25.2306 30.8925 24.1661 28.5981C24.3675 29.9037 23.84 31.0557 23.725 32.3037C23.6099 33.2829 23.7729 34.2813 24.2045 35.1741C24.2908 35.4333 24.5305 35.6541 24.588 35.9133C24.2332 35.5485 23.9263 35.1357 23.677 34.7037C22.4687 32.6973 19.8603 31.4109 19.6877 28.9821C19.5534 30.0573 19.6877 31.1517 20.0521 32.1693C21.0207 34.8957 23.9935 36.3165 26.1703 37.8045" fill="#4D91CD" style="fill:#4D91CD;fill:color(display-p3 0.3020 0.5686 0.8039);fill-opacity:1;"/>
<path d="M22.5838 22.6272C22.9962 21.8784 23.5428 21.2256 24.2045 20.688C25.7676 19.584 27.3979 18.048 27.417 16.08C26.9088 17.4912 25.384 18.0864 24.3579 19.0368C23.8401 19.536 23.4373 20.1312 23.1688 20.7936L23.1304 20.7648C23.2551 20.1984 23.514 19.6992 23.6579 19.1424C24.1182 17.6544 24.0223 15.8592 25.4703 14.8608C24.7031 15.072 24.0223 15.5232 23.5428 16.1664C22.3345 17.4336 22.4591 19.392 22.6318 21.1008C22.6701 21.6288 22.555 22.128 22.5934 22.6176" fill="#4D91CD" style="fill:#4D91CD;fill:color(display-p3 0.3020 0.5686 0.8039);fill-opacity:1;"/>
<path d="M22.9866 32.9186L23.0921 33.005C22.9387 32.1986 22.9483 31.373 23.1401 30.5762C23.4853 29.3474 23.8785 28.1474 24.147 26.8898C24.3579 25.8914 24.4443 24.8642 24.4059 23.8466C24.2908 24.3554 24.1086 24.845 23.8593 25.3058C22.7661 26.957 21.6824 28.9154 22.44 31.037C22.4208 31.0562 22.4016 31.085 22.3633 31.0754C22.1331 30.3458 21.9413 29.597 21.7975 28.8386C21.2892 26.8514 19.7549 25.2002 20.2056 22.9058C19.9946 23.4242 19.8508 23.9618 19.7549 24.509C19.5535 25.9106 19.6782 27.341 20.1385 28.685C20.6084 30.2978 22.1907 31.4594 22.9866 32.9282" fill="#4D91CD" style="fill:#4D91CD;fill:color(display-p3 0.3020 0.5686 0.8039);fill-opacity:1;"/>
<path d="M24.3484 18.3743C25.1635 17.6159 26.0745 17.0207 26.7938 16.1375C27.5418 14.9567 28.4144 13.8623 29.4118 12.8735C27.9445 13.4495 26.3047 13.9871 25.4224 15.5327C24.7991 16.3679 24.7895 17.4527 24.3484 18.3647" fill="#4D91CD" style="fill:#4D91CD;fill:color(display-p3 0.3020 0.5686 0.8039);fill-opacity:1;"/>
<path d="M59.955 23.3088L60.0988 25.2864C60.0988 25.2864 60.0797 25.3632 60.0221 25.3344C59.955 25.1136 59.9454 24.8736 59.8974 24.6528C59.6385 23.0592 58.2576 21.9264 57.0493 20.832C56.7904 20.5632 56.5794 20.256 56.4355 19.9104C56.541 20.7168 56.7712 21.504 57.1068 22.2432C58.0466 24.0768 59.7728 25.584 60.0892 27.6864C60.2427 25.68 61.614 24.1728 61.4702 22.032C61.4702 20.4 60.866 18.816 59.792 17.5872C59.7632 17.568 59.744 17.5392 59.7056 17.5488C60.8181 19.2384 59.8974 21.3792 59.9454 23.3088" fill="#4D91CD" style="fill:#4D91CD;fill:color(display-p3 0.3020 0.5686 0.8039);fill-opacity:1;"/>
<path d="M60.2715 28.8288C60.1276 29.5872 59.9454 30.336 59.7057 31.0656C59.6769 31.0848 59.6577 31.056 59.6386 31.0272C60.3962 28.9152 59.3125 26.9472 58.2193 25.296C57.97 24.8352 57.7877 24.3456 57.6727 23.8368C57.6343 24.864 57.7206 25.8816 57.9316 26.8896C58.1905 28.1472 58.5933 29.3472 58.9289 30.576C59.1207 31.3728 59.1399 32.1984 58.9769 33.0048L59.092 32.9184C59.8879 31.4496 61.4702 30.288 61.9401 28.6752C62.3908 27.3312 62.5251 25.9008 62.3237 24.4992C62.2278 23.952 62.0744 23.4144 61.873 22.896C62.3141 25.1904 60.7797 26.8416 60.2811 28.8288" fill="#4D91CD" style="fill:#4D91CD;fill:color(display-p3 0.3020 0.5686 0.8039);fill-opacity:1;"/>
<path d="M58.4303 19.1519C58.5742 19.7087 58.8331 20.2079 58.9578 20.7743L58.9194 20.8031C58.6509 20.1407 58.2481 19.5359 57.7303 19.0463C56.6946 18.0863 55.1698 17.4911 54.6711 16.0895C54.6903 18.0479 56.3206 19.5935 57.8837 20.6975C58.5454 21.2351 59.092 21.8879 59.5044 22.6367C59.5427 22.1471 59.4277 21.6479 59.466 21.1199C59.6386 19.4111 59.7633 17.4527 58.555 16.1855C58.0755 15.5519 57.3946 15.0911 56.6275 14.8799C58.0755 15.8783 57.9796 17.6735 58.4399 19.1615" fill="#4D91CD" style="fill:#4D91CD;fill:color(display-p3 0.3020 0.5686 0.8039);fill-opacity:1;"/>
<path d="M55.2848 16.1375C56.004 17.0303 56.915 17.6159 57.7301 18.3743C57.289 17.4623 57.2794 16.3775 56.6561 15.5423C55.7738 13.9967 54.134 13.4495 52.6667 12.8735C53.6641 13.8527 54.5463 14.9471 55.2848 16.1375Z" fill="#4D91CD" style="fill:#4D91CD;fill:color(display-p3 0.3020 0.5686 0.8039);fill-opacity:1;"/>
<path d="M54.7956 39.2254C54.4983 39.4942 54.1627 39.7342 53.8079 39.9358C53.7407 39.9742 53.6736 40.0126 53.5969 40.0414L53.5777 40.0222C53.5777 40.0222 53.6448 39.9646 53.6736 39.9358C54.1531 39.5326 54.5655 39.0718 54.9203 38.5534C56.1094 36.883 55.697 34.5502 56.5889 32.7646C55.7738 33.6958 55.0833 34.7422 54.5463 35.8654C53.9997 37.219 53.7024 38.6974 52.8873 39.9262C52.5996 40.3582 52.2543 40.7518 51.8516 41.0782C53.4147 40.5694 55.208 40.6078 56.6944 39.9358C56.9533 39.8206 57.2026 39.6766 57.4328 39.5134C59.1973 38.4286 60.77 36.5854 61.0961 34.5598C59.8782 37.315 56.8382 37.5454 54.7956 39.2254Z" fill="#4D91CD" style="fill:#4D91CD;fill:color(display-p3 0.3020 0.5686 0.8039);fill-opacity:1;"/>
<path d="M62.3908 28.9729C62.2182 31.4017 59.6098 32.6881 58.4015 34.6945C58.1425 35.1361 57.8357 35.5393 57.4904 35.9041C57.548 35.6449 57.7877 35.4241 57.8836 35.1649C58.3056 34.2721 58.4782 33.2737 58.3631 32.2945C58.248 31.0465 57.7302 29.9041 57.922 28.5889C56.8575 30.8833 57.1836 33.7441 56.589 36.2401C56.3876 36.7681 56.1671 37.2865 55.9177 37.7857C58.0946 36.2977 61.0674 34.8769 62.036 32.1505C62.41 31.1329 62.5346 30.0385 62.4004 28.9633" fill="#4D91CD" style="fill:#4D91CD;fill:color(display-p3 0.3020 0.5686 0.8039);fill-opacity:1;"/>
<path d="M50.2407 41.7598C49.8858 41.8558 49.5214 41.9038 49.1474 41.9038C49.4543 41.7022 49.8858 41.731 50.2215 41.5486C51.0174 41.251 51.6887 40.675 52.1107 39.9262C52.6765 39.0238 53.0409 37.9582 53.6642 37.123C52.5038 37.9582 51.4202 38.8895 50.4325 39.9167C50.2119 40.1279 49.9913 40.339 49.7612 40.5598C48.8214 41.3182 47.6994 41.8174 46.5103 42.0094C46.7979 42.115 47.1719 42.0862 47.4788 42.163C49.6077 42.691 51.9764 43.555 54.2396 42.7774C55.7452 42.2878 57.0206 41.2798 57.8357 39.9262C57.8741 39.8494 57.922 39.7726 57.9604 39.6958C57.8933 39.7726 57.8262 39.8494 57.7494 39.9262C55.7835 41.8654 52.734 41.203 50.2311 41.7598" fill="#4D91CD" style="fill:#4D91CD;fill:color(display-p3 0.3020 0.5686 0.8039);fill-opacity:1;"/>
<path d="M34.5996 42.1632C34.9065 42.0864 35.2805 42.1152 35.5682 42.0096C34.3791 41.8272 33.2571 41.328 32.3173 40.56C32.0871 40.3488 31.8666 40.128 31.646 39.9264C30.6583 38.8992 29.5746 37.9584 28.4143 37.1328C29.0376 37.968 29.402 39.0336 29.9582 39.9264C30.3802 40.6752 31.0514 41.2512 31.8474 41.5488C32.183 41.7216 32.6146 41.7024 32.9214 41.904C32.557 41.904 32.183 41.8656 31.8282 41.7696C29.3253 41.2128 26.2662 41.8848 24.3099 39.936C24.2427 39.8592 24.166 39.7824 24.0989 39.7056C24.1372 39.7824 24.1756 39.8592 24.2235 39.936C25.0483 41.2896 26.3237 42.2976 27.8293 42.7872C30.0925 43.5552 32.4611 42.7008 34.5901 42.1728" fill="#4D91CD" style="fill:#4D91CD;fill:color(display-p3 0.3020 0.5686 0.8039);fill-opacity:1;"/>
<path d="M25.3936 39.9266C26.8896 40.6082 28.6733 40.5602 30.2365 41.069C29.8337 40.7426 29.4789 40.3586 29.2008 39.9266C28.3856 38.6882 28.0884 37.2098 27.5417 35.8562C27.0047 34.733 26.3238 33.6962 25.4991 32.7554C26.391 34.5506 25.9786 36.8834 27.1677 38.5442C27.513 39.0626 27.9349 39.5234 28.4144 39.917C28.4144 39.917 28.4719 39.9746 28.5103 40.0034L28.4911 40.0226C28.424 39.9938 28.3473 39.9554 28.2801 39.917H28.2897C27.9349 39.725 27.5993 39.485 27.2924 39.2162C25.2498 37.5362 22.2098 37.3058 20.9919 34.5506C21.318 36.5762 22.8907 38.4194 24.6552 39.5042C24.8854 39.6674 25.1347 39.8114 25.3936 39.9266Z" fill="#4D91CD" style="fill:#4D91CD;fill:color(display-p3 0.3020 0.5686 0.8039);fill-opacity:1;"/>
<path d="M41.0344 38.9856C45.9827 38.9856 50.4899 36.1152 52.5805 31.6224L49.694 30.2784C47.4596 35.0688 41.7824 37.1328 36.9972 34.9056C32.2119 32.6688 30.1405 26.9856 32.3749 22.1952C34.6093 17.4048 40.2864 15.3312 45.0717 17.568C47.1047 18.5184 48.7446 20.16 49.694 22.1952L52.5805 20.8512C49.6077 14.4672 42.0318 11.7024 35.6546 14.6784C29.2774 17.6544 26.5156 25.2384 29.4884 31.6224C31.579 36.1152 36.0861 38.9856 41.0344 38.9856Z" fill="#4D91CD" style="fill:#4D91CD;fill:color(display-p3 0.3020 0.5686 0.8039);fill-opacity:1;"/>
<path d="M41.0344 22.0895C42.3865 22.0895 43.6524 22.7519 44.4292 23.8559L46.7786 22.2143C44.5634 19.0367 40.1905 18.2687 37.0163 20.4863C33.8421 22.7039 33.0749 27.0815 35.2901 30.2591C37.5054 33.4367 41.8783 34.2047 45.0525 31.9871C45.7238 31.5167 46.3087 30.9311 46.7786 30.2591L44.4292 28.6175C43.1154 30.4895 40.5357 30.9503 38.6657 29.6351C36.7957 28.3199 36.3354 25.7375 37.6492 23.8655C38.426 22.7615 39.6918 22.0991 41.044 22.0991" fill="#4D91CD" style="fill:#4D91CD;fill:color(display-p3 0.3020 0.5686 0.8039);fill-opacity:1;"/>
<path d="M73.1313 15.5425V19.0753C73.1313 20.2849 73.3519 20.7265 74.2725 20.7265C75.1931 20.7265 75.3849 20.2849 75.3849 19.0753V15.5521H76.5357V19.0273C76.5357 20.8513 75.9507 21.6385 74.2245 21.6385C72.4984 21.6385 71.9709 20.9377 71.9709 19.1137V15.5617H73.1313V15.5425Z" fill="black" style="fill:black;fill-opacity:1;"/>
<path d="M77.6578 17.2414H78.588L78.6551 17.6734C79.0962 17.3566 79.6237 17.1838 80.1607 17.1646C81.0525 17.1646 81.4457 17.587 81.4457 18.5662V21.5038H80.3045V18.8062C80.3045 18.2494 80.1319 18.0958 79.7771 18.0958C79.4223 18.1246 79.0771 18.259 78.7894 18.4798V21.5038H77.6482V17.251L77.6578 17.2414Z" fill="black" style="fill:black;fill-opacity:1;"/>
<path d="M82.6252 17.2414H83.7664V21.4942H82.6252V17.2414ZM83.1814 16.5022C82.6731 16.5022 82.5293 16.3678 82.5293 15.8878C82.5293 15.4078 82.6731 15.2734 83.1814 15.2734C83.6897 15.2734 83.8335 15.3982 83.8335 15.8878C83.8335 16.3774 83.6992 16.5022 83.1814 16.5022Z" fill="black" style="fill:black;fill-opacity:1;"/>
<path d="M85.0993 17.2415V16.0511L86.2405 15.8975V17.2415H87.1611V18.0863H86.2405V20.1215C86.2405 20.5631 86.3651 20.7071 86.672 20.7071C86.8446 20.7071 87.0076 20.6783 87.1707 20.6303L87.2666 21.4463C86.9597 21.5327 86.6528 21.5807 86.3363 21.5711C85.4157 21.5711 85.1089 21.2255 85.1089 20.4095V18.0863H84.4951V17.2415H85.1089H85.0993Z" fill="black" style="fill:black;fill-opacity:1;"/>
<path d="M90.4216 18.9793C90.4216 18.1825 90.2106 17.9809 89.712 17.9809C89.2133 17.9809 88.9736 18.1825 88.9448 18.9793H90.4216ZM91.2271 21.4177C90.7477 21.5329 90.249 21.5905 89.7503 21.5905C88.4941 21.5905 87.7844 21.2161 87.7844 19.4017C87.7844 17.5873 88.5516 17.1265 89.7311 17.1265C90.9107 17.1265 91.4189 17.5297 91.4189 19.0561C91.4189 19.2673 91.3998 19.4881 91.3902 19.7089H88.9352C88.964 20.5729 89.2133 20.7169 89.9517 20.7169C90.3545 20.7169 90.7477 20.6593 91.1312 20.5729L91.2176 21.4177H91.2271Z" fill="black" style="fill:black;fill-opacity:1;"/>
<path d="M94.8616 18.2593C94.6602 18.1249 94.4204 18.0481 94.1711 18.0481C93.73 18.0481 93.3272 18.3265 93.3272 19.4017C93.3272 20.4769 93.567 20.6593 93.9985 20.6593C94.315 20.6209 94.6218 20.4961 94.8616 20.2849V18.2593ZM94.9958 21.0817C94.6122 21.3889 94.1423 21.5617 93.6533 21.5809C92.7614 21.5809 92.186 21.0817 92.186 19.4401C92.186 17.7985 92.9724 17.1745 93.9793 17.1745C94.3054 17.1745 94.6218 17.2513 94.9095 17.3953C94.8808 17.0977 94.8616 16.8001 94.8616 16.5121V15.1777H96.0028V21.5137H95.0725L95.0054 21.0913L94.9958 21.0817Z" fill="black" style="fill:black;fill-opacity:1;"/>
<path d="M99.5991 15.5425H101.076L102.706 18.6817C102.984 19.2097 103.186 19.6897 103.435 20.2753H103.454C103.387 19.7473 103.358 19.2097 103.349 18.6817V15.5425H104.356V21.5041H102.869L101.249 18.3649C100.98 17.8369 100.759 17.3569 100.529 16.7713H100.51C100.558 17.3665 100.606 17.9041 100.606 18.3649V21.5041H99.5991V15.5425Z" fill="black" style="fill:black;fill-opacity:1;"/>
<path d="M108.028 18.2591C107.827 18.1247 107.587 18.0479 107.338 18.0479C106.897 18.0479 106.494 18.3263 106.494 19.4015C106.494 20.4767 106.734 20.6591 107.165 20.6591C107.482 20.6207 107.789 20.4959 108.028 20.2847V18.2591ZM108.163 21.0815C107.779 21.3887 107.309 21.5615 106.82 21.5807C105.928 21.5807 105.353 21.0815 105.353 19.4399C105.353 17.7983 106.139 17.1743 107.146 17.1743C107.51 17.1743 107.875 17.2703 108.191 17.4527L108.23 17.2511H109.169V21.5039H108.23L108.163 21.0815Z" fill="black" style="fill:black;fill-opacity:1;"/>
<path d="M110.512 17.2415V16.0511L111.653 15.8975V17.2415H112.574V18.0863H111.653V20.1215C111.653 20.5631 111.788 20.7071 112.085 20.7071C112.257 20.7071 112.42 20.6783 112.583 20.6303L112.679 21.4463C112.373 21.5327 112.056 21.5807 111.749 21.5711C110.829 21.5711 110.522 21.2255 110.522 20.4095V18.0863H109.908V17.2415H110.522H110.512Z" fill="black" style="fill:black;fill-opacity:1;"/>
<path d="M113.447 17.2414H114.588V21.4942H113.447V17.2414ZM114.022 16.5022C113.514 16.5022 113.37 16.3678 113.37 15.8878C113.37 15.4078 113.514 15.2734 114.022 15.2734C114.53 15.2734 114.674 15.3982 114.674 15.8878C114.674 16.3774 114.54 16.5022 114.022 16.5022Z" fill="black" style="fill:black;fill-opacity:1;"/>
<path d="M117.541 17.9905C116.966 17.9905 116.726 18.2401 116.726 19.3633C116.726 20.4865 116.966 20.7553 117.541 20.7553C118.117 20.7553 118.366 20.5057 118.366 19.3729C118.366 18.2401 118.117 17.9905 117.541 17.9905ZM117.522 21.6193C116.266 21.6193 115.575 21.1585 115.575 19.4017C115.575 17.6449 116.314 17.1265 117.561 17.1265C118.807 17.1265 119.517 17.5777 119.517 19.3441C119.517 21.1105 118.769 21.6193 117.522 21.6193Z" fill="black" style="fill:black;fill-opacity:1;"/>
<path d="M120.505 17.2414H121.435L121.502 17.6734C121.943 17.3566 122.471 17.1838 123.008 17.1646C123.899 17.1646 124.293 17.587 124.293 18.5662V21.5038H123.151V18.8062C123.151 18.2494 122.979 18.0958 122.624 18.0958C122.26 18.1246 121.924 18.259 121.636 18.4798V21.5038H120.495V17.251L120.505 17.2414Z" fill="black" style="fill:black;fill-opacity:1;"/>
<path d="M125.309 20.5921C125.683 20.6881 126.057 20.7457 126.441 20.7553C126.958 20.7553 127.198 20.6113 127.198 20.3329C127.198 20.0737 127.026 19.9969 126.306 19.7089C125.52 19.3825 125.213 19.1329 125.213 18.4609C125.213 17.5873 125.808 17.1553 127.006 17.1553C127.352 17.1553 127.697 17.2033 128.033 17.2897L127.917 18.1153C127.601 18.0385 127.285 17.9905 126.958 17.9905C126.508 17.9905 126.268 18.1057 126.268 18.3745C126.268 18.5761 126.431 18.6721 127.102 18.9409C127.937 19.2769 128.263 19.5169 128.263 20.2561C128.263 21.1009 127.735 21.5905 126.393 21.5905C125.99 21.5905 125.597 21.5329 125.213 21.4273L125.319 20.5921H125.309Z" fill="black" style="fill:black;fill-opacity:1;"/>
<path d="M72.3066 26.4961H75.3178V26.9185H72.8341V29.1553H75.0877V29.5681H72.8341V32.4577H72.3066V26.4961Z" fill="black" style="fill:black;fill-opacity:1;"/>
<path d="M76.2576 28.2721H76.6796L76.7084 28.7617C77.0248 28.4545 77.4276 28.2433 77.8687 28.1665C77.9838 28.1665 78.0893 28.1857 78.1852 28.2337L78.0893 28.7329C77.9838 28.6849 77.8687 28.6657 77.744 28.6657C77.3796 28.7425 77.044 28.9057 76.7563 29.1553V32.4577H76.248V28.2721H76.2576Z" fill="black" style="fill:black;fill-opacity:1;"/>
<path d="M81.5319 28.9343C81.2154 28.7231 80.8414 28.6079 80.4578 28.5887C79.8057 28.5887 79.1632 28.9535 79.1632 30.3839C79.1632 31.8143 79.566 32.1311 80.2373 32.1311C80.7072 32.0831 81.1483 31.9007 81.5223 31.6031V28.9343H81.5319ZM81.5798 32.0159C81.1579 32.3231 80.6688 32.5055 80.151 32.5535C79.2303 32.5535 78.6646 32.0927 78.6646 30.4127C78.6646 28.7327 79.5084 28.1855 80.4387 28.1855C80.851 28.1951 81.2442 28.3103 81.599 28.5215L81.6278 28.2719H82.0497V32.4575H81.6278L81.5894 32.0063L81.5798 32.0159Z" fill="black" style="fill:black;fill-opacity:1;"/>
<path d="M83.6801 28.2721H84.102L84.1308 28.7329C84.6007 28.4161 85.1377 28.2241 85.6939 28.1857C86.135 28.1473 86.557 28.3873 86.7488 28.7905C87.2379 28.4449 87.8037 28.2337 88.3982 28.1857C89.1942 28.1857 89.5874 28.5889 89.5874 29.5681V32.4577H89.0791V29.6353C89.0791 28.8673 88.8106 28.5985 88.2831 28.5985C87.7557 28.6561 87.257 28.8481 86.8351 29.1649C86.8639 29.3089 86.883 29.4625 86.883 29.6065V32.4577H86.3748V29.6353C86.3748 28.8673 86.0967 28.5985 85.5788 28.5985C85.0706 28.6561 84.5911 28.8385 84.1691 29.1361V32.4577H83.6609V28.2721H83.6801Z" fill="black" style="fill:black;fill-opacity:1;"/>
<path d="M93.6342 30.0575C93.615 28.8095 93.2986 28.5599 92.5889 28.5599C91.8793 28.5599 91.4573 28.8479 91.419 30.0575H93.6342ZM93.9027 32.3711C93.4808 32.4767 93.0588 32.5247 92.6273 32.5343C91.582 32.5343 90.9011 32.2175 90.9011 30.3743C90.9011 28.5311 91.582 28.1567 92.6273 28.1567C93.6726 28.1567 94.1137 28.5599 94.1137 30.1247C94.1137 30.2303 94.1137 30.3071 94.1137 30.4319H91.419C91.4381 31.9295 91.8793 32.1407 92.7424 32.1407C93.1259 32.1407 93.4999 32.0831 93.8644 31.9871L93.9123 32.3807L93.9027 32.3711Z" fill="black" style="fill:black;fill-opacity:1;"/>
<path d="M94.8616 28.272H95.3891L96.1083 30.6528C96.2713 31.1616 96.3672 31.584 96.5015 32.0736C96.6166 31.6224 96.7412 31.1424 96.8755 30.6528L97.5659 28.272H98.2468L98.9565 30.6528C99.1003 31.1424 99.225 31.584 99.3496 32.0736H99.3688C99.4935 31.5648 99.599 31.1424 99.7332 30.6528L100.433 28.272H100.942L99.6949 32.4576H99.014L98.2756 30.0672C98.1413 29.5968 98.0167 29.136 97.9016 28.656C97.7865 29.1456 97.6714 29.5872 97.5372 30.0576L96.8275 32.4576H96.1467L94.8521 28.272H94.8616Z" fill="black" style="fill:black;fill-opacity:1;"/>
<path d="M103.435 28.5599C102.639 28.5599 102.188 28.8383 102.188 30.3551C102.188 31.8719 102.648 32.1695 103.454 32.1695C104.26 32.1695 104.71 31.8911 104.71 30.3743C104.71 28.8575 104.25 28.5695 103.444 28.5695M103.435 32.5727C102.313 32.5727 101.68 32.1599 101.68 30.3743C101.68 28.5887 102.351 28.1567 103.454 28.1567C104.557 28.1567 105.209 28.5791 105.209 30.3551C105.209 32.1311 104.547 32.5727 103.435 32.5727Z" fill="black" style="fill:black;fill-opacity:1;"/>
<path d="M106.58 28.2721H107.002L107.041 28.7617C107.357 28.4545 107.76 28.2433 108.201 28.1665C108.306 28.1665 108.422 28.1857 108.517 28.2337L108.422 28.7329C108.316 28.6849 108.201 28.6657 108.076 28.6657C107.712 28.7425 107.367 28.9057 107.089 29.1553V32.4577H106.58V28.2721Z" fill="black" style="fill:black;fill-opacity:1;"/>
<path d="M109.371 26.1216H109.879V30.1344L111.644 28.272H112.258L110.388 30.192L112.325 32.4576H111.701L109.879 30.3264V32.4576H109.371V26.1216Z" fill="black" style="fill:black;fill-opacity:1;"/>
<path d="M118.875 32.3521C118.453 32.4673 118.011 32.5345 117.57 32.5441C116.065 32.5441 115.336 32.0449 115.336 29.4913C115.336 26.9377 116.161 26.4097 117.618 26.4097C118.04 26.4097 118.462 26.4673 118.865 26.5825L118.798 26.9857C118.414 26.8801 118.021 26.8225 117.628 26.8225C116.477 26.8225 115.844 27.2257 115.844 29.4625C115.844 31.6993 116.429 32.1313 117.628 32.1313C118.021 32.1217 118.424 32.0641 118.798 31.9585L118.865 32.3617L118.875 32.3521Z" fill="black" style="fill:black;fill-opacity:1;"/>
<path d="M121.377 28.5599C120.582 28.5599 120.131 28.8383 120.131 30.3551C120.131 31.8719 120.591 32.1695 121.397 32.1695C122.202 32.1695 122.653 31.8911 122.653 30.3743C122.653 28.8575 122.193 28.5695 121.387 28.5695M121.377 32.5727C120.255 32.5727 119.623 32.1599 119.623 30.3743C119.623 28.5887 120.294 28.1567 121.397 28.1567C122.499 28.1567 123.152 28.5791 123.152 30.3551C123.152 32.1311 122.49 32.5727 121.377 32.5727Z" fill="black" style="fill:black;fill-opacity:1;"/>
<path d="M124.523 28.2719H124.945L124.974 28.7327C125.463 28.4063 126.028 28.2143 126.623 28.1855C127.486 28.1855 127.889 28.5887 127.889 29.5679V32.4575H127.381V29.6351C127.381 28.8671 127.102 28.5983 126.508 28.5983C125.971 28.6463 125.463 28.8287 125.021 29.1359V32.4575H124.513V28.2719H124.523Z" fill="black" style="fill:black;fill-opacity:1;"/>
<path d="M128.733 28.272H129.26L130.104 30.6528C130.296 31.2096 130.401 31.5456 130.574 32.0736C130.737 31.536 130.852 31.1808 131.034 30.6528L131.878 28.272H132.386L130.89 32.4576H130.21L128.714 28.272H128.733Z" fill="black" style="fill:black;fill-opacity:1;"/>
<path d="M135.781 30.0575C135.762 28.8095 135.446 28.5599 134.736 28.5599C134.026 28.5599 133.604 28.8479 133.566 30.0575H135.781ZM136.04 32.3711C135.618 32.4767 135.196 32.5247 134.765 32.5343C133.719 32.5343 133.039 32.2175 133.039 30.3743C133.039 28.5311 133.71 28.1567 134.765 28.1567C135.82 28.1567 136.261 28.5599 136.261 30.1247C136.261 30.2303 136.261 30.3071 136.261 30.4319H133.556C133.576 31.9295 134.026 32.1407 134.88 32.1407C135.263 32.1407 135.637 32.0831 136.002 31.9871L136.05 32.3807L136.04 32.3711Z" fill="black" style="fill:black;fill-opacity:1;"/>
<path d="M137.632 28.2719H138.054L138.092 28.7327C138.581 28.4063 139.147 28.2143 139.742 28.1855C140.605 28.1855 141.008 28.5887 141.008 29.5679V32.4575H140.499V29.6351C140.499 28.8671 140.221 28.5983 139.627 28.5983C139.09 28.6463 138.581 28.8287 138.14 29.1359V32.4575H137.632V28.2719Z" fill="black" style="fill:black;fill-opacity:1;"/>
<path d="M142.609 28.2721V26.9953L143.117 26.9185V28.2721H144.105V28.6657H143.117V31.5265C143.117 31.9777 143.261 32.1121 143.587 32.1121C143.76 32.1121 143.933 32.0833 144.105 32.0353L144.153 32.4097C143.942 32.4769 143.722 32.5153 143.491 32.5249C142.849 32.5249 142.609 32.2657 142.609 31.6513V28.6657H141.957V28.2721H142.609Z" fill="black" style="fill:black;fill-opacity:1;"/>
<path d="M145.208 28.2719H145.716V32.4575H145.208V28.2719ZM145.457 27.2063C145.17 27.2063 145.083 27.1295 145.083 26.8415C145.083 26.5535 145.16 26.4863 145.457 26.4863C145.755 26.4863 145.812 26.5631 145.812 26.8415C145.812 27.1199 145.735 27.2063 145.457 27.2063Z" fill="black" style="fill:black;fill-opacity:1;"/>
<path d="M148.833 28.5599C148.037 28.5599 147.586 28.8383 147.586 30.3551C147.586 31.8719 148.046 32.1695 148.852 32.1695C149.658 32.1695 150.099 31.8911 150.099 30.3743C150.099 28.8575 149.638 28.5695 148.833 28.5695M148.833 32.5727C147.711 32.5727 147.078 32.1599 147.078 30.3743C147.078 28.5887 147.749 28.1567 148.852 28.1567C149.955 28.1567 150.607 28.5791 150.607 30.3551C150.607 32.1311 149.945 32.5727 148.833 32.5727Z" fill="black" style="fill:black;fill-opacity:1;"/>
<path d="M151.978 28.2719H152.4L152.429 28.7327C152.918 28.4063 153.484 28.2143 154.078 28.1855C154.942 28.1855 155.344 28.5887 155.344 29.5679V32.4575H154.836V29.6351C154.836 28.8671 154.558 28.5983 153.963 28.5983C153.426 28.6463 152.918 28.8287 152.477 29.1359V32.4575H151.969V28.2719H151.978Z" fill="black" style="fill:black;fill-opacity:1;"/>
<path d="M160.647 28.5599C159.851 28.5599 159.391 28.8383 159.391 30.3551C159.391 31.8719 159.851 32.1695 160.657 32.1695C161.462 32.1695 161.904 31.8911 161.904 30.3743C161.904 28.8575 161.443 28.5695 160.638 28.5695M160.647 32.5727C159.525 32.5727 158.892 32.1599 158.892 30.3743C158.892 28.5887 159.564 28.1567 160.666 28.1567C161.769 28.1567 162.421 28.5791 162.421 30.3551C162.421 32.1311 161.76 32.5727 160.647 32.5727Z" fill="black" style="fill:black;fill-opacity:1;"/>
<path d="M163.793 28.2719H164.215L164.253 28.7327C164.742 28.4063 165.308 28.2143 165.902 28.1855C166.766 28.1855 167.168 28.5887 167.168 29.5679V32.4575H166.66V29.6351C166.66 28.8671 166.382 28.5983 165.787 28.5983C165.25 28.6463 164.742 28.8287 164.301 29.1359V32.4575H163.793V28.2719Z" fill="black" style="fill:black;fill-opacity:1;"/>
<path d="M75.6055 43.3154C75.1836 43.4306 74.7424 43.4978 74.3013 43.5074C72.7957 43.5074 72.0669 43.0082 72.0669 40.4546C72.0669 37.901 72.8916 37.373 74.3588 37.373C74.7808 37.373 75.2027 37.4306 75.6055 37.5458L75.5384 37.949C75.1548 37.8434 74.7616 37.7858 74.3684 37.7858C73.2177 37.7858 72.5847 38.189 72.5847 40.4258C72.5847 42.6626 73.1697 43.0946 74.3684 43.0946C74.7616 43.085 75.1644 43.0178 75.5384 42.9122L75.6055 43.3154Z" fill="black" style="fill:black;fill-opacity:1;"/>
<path d="M77.1014 37.3247H76.7083V43.4207H77.1014V37.3247Z" fill="black" style="fill:black;fill-opacity:1;"/>
<path d="M78.8852 39.2254H79.3934V43.411H78.8852V39.2254ZM79.1345 38.1694C78.8468 38.1694 78.7605 38.0926 78.7605 37.8142C78.7605 37.5358 78.8372 37.459 79.1345 37.459C79.4318 37.459 79.4989 37.5358 79.4989 37.8142C79.4989 38.0926 79.4222 38.1694 79.1345 38.1694Z" fill="black" style="fill:black;fill-opacity:1;"/>
<path d="M80.8511 39.2257H81.2731L81.3019 39.6865C81.7718 39.3697 82.3088 39.1777 82.8746 39.1393C83.3157 39.1009 83.7376 39.3409 83.9294 39.7441C84.4185 39.3985 84.9843 39.1873 85.5885 39.1393C86.3844 39.1393 86.7776 39.5425 86.7776 40.5217V43.4113H86.2693V40.5889C86.2693 39.8305 86.0008 39.5521 85.4734 39.5521C84.946 39.6097 84.4473 39.8017 84.0253 40.1185C84.0541 40.2625 84.0733 40.4161 84.0637 40.5601V43.4113H83.5554V40.5889C83.5554 39.8305 83.2773 39.5521 82.7595 39.5521C82.2512 39.6097 81.7622 39.7921 81.3498 40.0897V43.4113H80.8416V39.2257H80.8511Z" fill="black" style="fill:black;fill-opacity:1;"/>
<path d="M90.9203 39.888C90.6038 39.6768 90.2299 39.5616 89.8463 39.5424C89.1942 39.5424 88.5516 39.9072 88.5516 41.3376C88.5516 42.768 88.9544 43.0752 89.6257 43.0752C90.0956 43.0272 90.5367 42.8448 90.9107 42.5472V39.8784L90.9203 39.888ZM90.9683 42.9696C90.5463 43.2768 90.0572 43.4592 89.5394 43.4976C88.6188 43.4976 88.053 43.0368 88.053 41.3664C88.053 39.696 88.8969 39.1392 89.8271 39.1392C90.2298 39.1488 90.6326 39.264 90.9874 39.4752L91.0162 39.2256H91.4382V43.4112H91.0162L90.9779 42.96L90.9683 42.9696Z" fill="black" style="fill:black;fill-opacity:1;"/>
<path d="M93.1165 39.2257V37.9489L93.6247 37.8721V39.2257H94.6125V39.6193H93.6247V42.4801C93.6247 42.9217 93.7686 43.0657 94.0946 43.0657C94.2672 43.0657 94.4398 43.0369 94.6125 42.9889L94.6604 43.3633C94.4494 43.4305 94.2289 43.4689 93.9987 43.4785C93.3562 43.4785 93.1165 43.2193 93.1165 42.6049V39.6193H92.4644V39.2257H93.1165Z" fill="black" style="fill:black;fill-opacity:1;"/>
<path d="M98.1799 41.011C98.1607 39.763 97.8442 39.5134 97.1346 39.5134C96.4249 39.5134 96.003 39.8014 95.9646 41.011H98.1799ZM98.4484 43.3246C98.036 43.4302 97.6045 43.4782 97.1729 43.4878C96.1277 43.4878 95.4468 43.171 95.4468 41.3278C95.4468 39.4846 96.1277 39.1006 97.1729 39.1006C98.2182 39.1006 98.6593 39.5038 98.6593 41.0686C98.6593 41.1742 98.6593 41.251 98.6593 41.3758H95.9646C95.9838 42.8734 96.4249 43.0846 97.288 43.0846C97.6716 43.0846 98.0456 43.027 98.41 42.931L98.458 43.3246H98.4484Z" fill="black" style="fill:black;fill-opacity:1;"/>
<path d="M105.094 43.315C104.672 43.4302 104.231 43.4974 103.79 43.507C102.284 43.507 101.555 43.0078 101.555 40.4542C101.555 37.9006 102.38 37.3726 103.847 37.3726C104.269 37.3726 104.691 37.4302 105.104 37.5454L105.036 37.9486C104.653 37.843 104.26 37.7854 103.867 37.7854C102.716 37.7854 102.083 38.1886 102.083 40.4254C102.083 42.6622 102.668 43.0942 103.867 43.0942C104.26 43.0846 104.662 43.0174 105.036 42.9118L105.104 43.315H105.094Z" fill="black" style="fill:black;fill-opacity:1;"/>
<path d="M106.225 37.0848H106.734V38.5824C106.734 38.9088 106.715 39.264 106.695 39.6672C107.175 39.36 107.741 39.1776 108.316 39.1392C109.179 39.1392 109.582 39.5424 109.582 40.5216V43.4112H109.074V40.5888C109.074 39.8304 108.796 39.552 108.201 39.552C107.664 39.6 107.156 39.7824 106.715 40.0896V43.4112H106.206V37.0752L106.225 37.0848Z" fill="black" style="fill:black;fill-opacity:1;"/>
<path d="M113.734 39.888C113.418 39.6768 113.044 39.5616 112.66 39.5424C112.008 39.5424 111.366 39.9072 111.366 41.3376C111.366 42.768 111.768 43.0752 112.449 43.0752C112.919 43.0272 113.36 42.8448 113.734 42.5472V39.8784V39.888ZM113.782 42.9696C113.36 43.2768 112.871 43.4592 112.353 43.4976C111.433 43.4976 110.876 43.0368 110.876 41.3664C110.876 39.696 111.72 39.1392 112.651 39.1392C113.053 39.1488 113.456 39.264 113.811 39.4752L113.84 39.2256H114.262V43.4112H113.84L113.792 42.96L113.782 42.9696Z" fill="black" style="fill:black;fill-opacity:1;"/>
<path d="M115.71 39.2256H116.132L116.17 39.6864C116.659 39.36 117.225 39.1776 117.819 39.1392C118.683 39.1392 119.085 39.5424 119.085 40.5216V43.4112H118.577V40.5888C118.577 39.8304 118.299 39.552 117.704 39.552C117.167 39.6 116.659 39.7824 116.218 40.0896V43.4112H115.71V39.2256Z" fill="black" style="fill:black;fill-opacity:1;"/>
<path d="M123.219 39.8881C122.902 39.6769 122.528 39.5617 122.145 39.5425C121.492 39.5425 120.85 39.9169 120.85 41.3377C120.85 42.7585 121.253 43.0753 121.934 43.0753C122.403 43.0273 122.845 42.8449 123.219 42.5473V39.8785V39.8881ZM123.727 43.6417C123.727 44.8513 123.142 45.3409 121.905 45.3409C121.483 45.3409 121.061 45.2929 120.649 45.1969L120.706 44.8033C121.099 44.8897 121.512 44.9281 121.914 44.9281C122.835 44.9281 123.228 44.5921 123.228 43.6705V43.0081C122.825 43.2961 122.346 43.4689 121.847 43.4977C120.927 43.4977 120.361 43.0369 120.361 41.3665C120.361 39.6961 121.214 39.1489 122.135 39.1489C122.538 39.1585 122.94 39.2737 123.295 39.4849L123.324 39.2353H123.746V43.6417H123.727Z" fill="black" style="fill:black;fill-opacity:1;"/>
<path d="M127.831 41.011C127.812 39.763 127.496 39.5134 126.786 39.5134C126.076 39.5134 125.654 39.8014 125.616 41.011H127.831ZM128.09 43.3246C127.668 43.4302 127.246 43.4782 126.815 43.4878C125.769 43.4878 125.089 43.171 125.089 41.3278C125.089 39.4846 125.76 39.1006 126.815 39.1006C127.87 39.1006 128.301 39.5038 128.301 41.0686C128.301 41.1742 128.301 41.251 128.301 41.3758H125.597C125.616 42.8734 126.057 43.0846 126.92 43.0846C127.304 43.0846 127.678 43.027 128.042 42.931L128.09 43.3246Z" fill="black" style="fill:black;fill-opacity:1;"/>
</svg>
