<svg width="166" height="48" viewBox="0 0 166 48" fill="none" xmlns="http://www.w3.org/2000/svg">
<g clip-path="url(#clip0_3059_4681)">
<path d="M39.2909 21.3024V15.0912C39.2909 15.024 39.3487 7.4496 46.1731 7.1232L50.5527 6.9312C53.5365 6.5184 55.2787 5.6736 56.3568 3.3984V12.3168C56.3375 12.5376 56.3087 12.768 56.2509 12.9888C55.5579 15.7344 52.9013 16.8576 50.0714 17.0112L46.2501 17.2032C42.0534 17.424 40.6289 19.1232 39.2909 21.312M39.2909 36.7488C39.2909 36.6816 39.3487 29.1072 46.1731 28.7808L50.5527 28.5888C53.5365 28.176 55.2787 27.3312 56.3568 25.0656V33.9744C56.3375 34.1952 56.3087 34.4256 56.2509 34.6368C55.5579 37.3824 52.9013 38.5056 50.0714 38.6592L46.2501 38.8512C42.0534 39.072 40.6289 40.7712 39.2909 42.96V36.7392V36.7488ZM37.7027 33.3696C36.3648 31.1712 34.9402 29.4816 30.7435 29.2608L26.9223 29.0688C24.0828 28.9248 21.4358 27.792 20.7427 25.0464C20.685 24.8256 20.6465 24.6048 20.6369 24.384V15.4656C21.7053 17.7312 23.4475 18.5856 26.441 18.9984L30.8206 19.1904C37.6353 19.5168 37.7027 27.1008 37.7027 27.1584V33.3696ZM46.2116 18.2784L50.2446 18.0672C57.2905 17.6832 57.4348 12.336 57.4348 12.288V0.0576L56.8477 0C56.8477 0 55.7504 5.472 50.697 5.7216L46.0768 5.9424C42.1785 6.1344 40.2053 8.5248 39.2332 10.8288C38.6364 12.2688 38.3091 13.8048 38.2514 15.3696V23.952C38.1455 23.5872 38.0204 23.232 37.876 22.8864C36.9038 20.5824 34.9306 18.192 31.0323 18L26.4121 17.7888C23.3801 17.6352 21.4358 15.5616 20.5117 12.9216C20.4155 12.6432 20.3288 12.3552 20.2615 12.0672L19.6743 12.1248V24.3552C19.6839 24.6528 19.7321 24.9408 19.8091 25.2192C20.5984 28.5216 23.6015 29.952 26.8645 30.1344L30.8976 30.3456C36.8364 30.672 38.1647 37.2384 38.261 38.3232V48.0096H38.8578C38.8578 47.3472 40.0513 40.272 46.2212 39.9264L50.2543 39.7152C57.3001 39.3216 57.4445 33.984 57.4445 33.936V21.7056L56.8573 21.648C56.8573 21.648 55.76 27.1104 50.7067 27.3696L46.0865 27.5808C42.1882 27.7824 40.215 30.1632 39.2428 32.4672C39.0984 32.8128 38.9733 33.1584 38.8674 33.4848V26.3328C38.7904 25.8048 40.4845 18.288 46.2308 18.288" fill="#00A65E" style="fill:#00A65E;fill:color(display-p3 0.0000 0.6510 0.3686);fill-opacity:1;"/>
<path d="M74.9819 22.483V22.3294C74.9819 21.475 74.6739 21.0238 74.0868 21.0238C73.8076 21.0142 73.5477 21.1582 73.413 21.3982C73.2494 21.7342 73.182 22.1086 73.2301 22.483V24.979C73.2012 25.3534 73.2494 25.7278 73.3552 26.0926C73.4804 26.3998 73.7788 26.5918 74.1156 26.5726C74.7124 26.5726 75.0204 26.0926 75.0204 25.1134C75.0204 25.0462 75.0204 24.9886 75.0108 24.9214H76.1851V25.1806C76.1851 26.803 75.4728 27.667 74.1156 27.667C73.4419 27.715 72.8066 27.3982 72.4312 26.8318C72.1521 26.371 72.0654 25.9294 72.0654 24.8158V22.7134C72.0654 21.5326 72.1521 21.1006 72.5082 20.6302C72.8932 20.1598 73.49 19.891 74.0964 19.9294C75.3862 19.9294 76.137 20.7838 76.137 22.2622V22.483H74.9723H74.9819Z" fill="#00A65E" style="fill:#00A65E;fill:color(display-p3 0.0000 0.6510 0.3686);fill-opacity:1;"/>
<path d="M78.3894 25.6799C78.3894 26.3903 78.5915 26.7071 79.0535 26.7071C79.5155 26.7071 79.7273 26.3903 79.7273 25.6799V23.8271C79.7273 23.1167 79.5252 22.7999 79.0631 22.7999C78.6011 22.7999 78.3894 23.1167 78.3894 23.8271V25.6799ZM80.7765 25.6127C80.7765 26.4863 80.6802 26.8703 80.3337 27.1967C79.5925 27.8111 78.5145 27.8111 77.7733 27.1967C77.4461 26.8703 77.3306 26.4863 77.3306 25.6127V23.8943C77.3306 23.0207 77.4461 22.6367 77.7733 22.2911C78.5241 21.6959 79.5925 21.6959 80.3337 22.2911C80.6706 22.6271 80.7765 23.0111 80.7765 23.8943V25.6127Z" fill="#00A65E" style="fill:#00A65E;fill:color(display-p3 0.0000 0.6510 0.3686);fill-opacity:1;"/>
<path d="M83.183 22.6752C83.6642 22.1088 84.0878 21.8784 84.5786 21.8784C85.1947 21.8784 85.4931 22.2912 85.4931 23.184V27.552H84.4439V23.4528C84.4439 22.9536 84.3476 22.8 84.0396 22.8C83.6835 22.848 83.3658 23.0496 83.183 23.3664V27.552H82.1338V21.9552H83.183V22.6752Z" fill="#00A65E" style="fill:#00A65E;fill:color(display-p3 0.0000 0.6510 0.3686);fill-opacity:1;"/>
<path d="M88.0437 27.5519L86.6672 21.9551H87.7934L88.5923 25.5167L89.3046 21.9551H90.4115L89.1506 27.5519H88.0437Z" fill="#00A65E" style="fill:#00A65E;fill:color(display-p3 0.0000 0.6510 0.3686);fill-opacity:1;"/>
<path d="M93.8478 23.7023C93.8478 23.0399 93.6457 22.7711 93.1644 22.7711C92.6832 22.7711 92.4714 23.0495 92.4714 23.7023V24.0095H93.8478V23.7023ZM92.4714 24.9311V25.4303C92.4329 25.7663 92.481 26.1023 92.6062 26.4095C92.7217 26.6111 92.9527 26.7263 93.1837 26.7167C93.6457 26.7167 93.8575 26.4191 93.8575 25.7663V25.6223H94.9066C94.897 26.3903 94.8585 26.6303 94.6949 26.9183C94.3676 27.4271 93.7901 27.7247 93.1837 27.6767C92.6447 27.7247 92.1153 27.5039 91.7688 27.0911C91.4896 26.6399 91.3645 26.1023 91.4222 25.5743V23.9039C91.4222 23.0111 91.5281 22.6463 91.8746 22.3199C92.2211 22.0031 92.6832 21.8303 93.1548 21.8591C93.6457 21.8303 94.1366 22.0223 94.4735 22.3775C94.7911 22.7423 94.9066 23.1455 94.9066 24.0191V24.9407H92.481L92.4714 24.9311Z" fill="#00A65E" style="fill:#00A65E;fill:color(display-p3 0.0000 0.6510 0.3686);fill-opacity:1;"/>
<path d="M97.2166 22.6752C97.6979 22.1088 98.1214 21.8784 98.6123 21.8784C99.2284 21.8784 99.5268 22.2912 99.5268 23.184V27.552H98.4776V23.4528C98.4776 22.9536 98.3717 22.8 98.0733 22.8C97.7172 22.848 97.3995 23.0496 97.2166 23.3664V27.552H96.1675V21.9552H97.2166V22.6752Z" fill="#00A65E" style="fill:#00A65E;fill:color(display-p3 0.0000 0.6510 0.3686);fill-opacity:1;"/>
<path d="M103.377 22.8959H102.415V25.8815C102.415 26.4479 102.607 26.6783 103.069 26.6783C103.204 26.6783 103.348 26.6495 103.473 26.6111V27.5519C103.242 27.5999 103.002 27.6287 102.761 27.6287C102.338 27.6767 101.914 27.5231 101.625 27.2159C101.423 26.9663 101.365 26.6975 101.365 25.9871V22.8959H100.557V21.9647H101.365V20.4287H102.415V21.9647H103.377V22.8959Z" fill="#00A65E" style="fill:#00A65E;fill:color(display-p3 0.0000 0.6510 0.3686);fill-opacity:1;"/>
<path d="M105.552 27.5521H104.503V21.9553H105.552V27.5521ZM105.552 21.1393H104.503V20.0449H105.552V21.1393Z" fill="#00A65E" style="fill:#00A65E;fill:color(display-p3 0.0000 0.6510 0.3686);fill-opacity:1;"/>
<path d="M107.882 25.6799C107.882 26.3903 108.084 26.7071 108.546 26.7071C109.008 26.7071 109.22 26.3903 109.22 25.6799V23.8271C109.22 23.1167 109.018 22.7999 108.556 22.7999C108.094 22.7999 107.882 23.1167 107.882 23.8271V25.6799ZM110.269 25.6127C110.269 26.4863 110.163 26.8703 109.826 27.1967C109.085 27.8111 108.007 27.8111 107.266 27.1967C106.939 26.8703 106.823 26.4863 106.823 25.6127V23.8943C106.823 23.0207 106.939 22.6367 107.266 22.2911C108.017 21.6959 109.075 21.6959 109.826 22.2911C110.163 22.6271 110.269 23.0111 110.269 23.8943V25.6127Z" fill="#00A65E" style="fill:#00A65E;fill:color(display-p3 0.0000 0.6510 0.3686);fill-opacity:1;"/>
<path d="M112.646 22.6752C113.128 22.1088 113.551 21.8784 114.042 21.8784C114.668 21.8784 114.956 22.2912 114.956 23.184V27.552H113.907V23.4528C113.907 22.9536 113.801 22.8 113.503 22.8C113.147 22.848 112.829 23.0496 112.646 23.3664V27.552H111.597V21.9552H112.646V22.6752Z" fill="#00A65E" style="fill:#00A65E;fill:color(display-p3 0.0000 0.6510 0.3686);fill-opacity:1;"/>
<path d="M119.808 25.6799C119.808 26.3903 120.01 26.7071 120.472 26.7071C120.934 26.7071 121.146 26.3903 121.146 25.6799V23.8271C121.146 23.1167 120.944 22.7999 120.481 22.7999C120.019 22.7999 119.808 23.1167 119.808 23.8271V25.6799ZM122.204 25.6127C122.204 26.4863 122.099 26.8703 121.762 27.1967C121.021 27.8111 119.942 27.8111 119.201 27.1967C118.874 26.8703 118.759 26.4863 118.759 25.6127V23.8943C118.759 23.0207 118.874 22.6367 119.201 22.2911C119.952 21.6959 121.011 21.6959 121.762 22.2911C122.099 22.6271 122.204 23.0111 122.204 23.8943V25.6127Z" fill="#00A65E" style="fill:#00A65E;fill:color(display-p3 0.0000 0.6510 0.3686);fill-opacity:1;"/>
<path d="M124.399 22.6752C124.88 22.1088 125.304 21.8784 125.795 21.8784C126.42 21.8784 126.709 22.2912 126.709 23.184V27.552H125.66V23.4528C125.66 22.9536 125.554 22.8 125.256 22.8C124.9 22.848 124.582 23.0496 124.399 23.3664V27.552H123.35V21.9552H124.399V22.6752Z" fill="#00A65E" style="fill:#00A65E;fill:color(display-p3 0.0000 0.6510 0.3686);fill-opacity:1;"/>
<path d="M73.8944 38.0446C74.6259 38.0446 75.0591 37.6606 75.0591 36.9886C75.088 36.3166 74.5586 35.7598 73.8944 35.731C73.8367 35.731 73.7885 35.731 73.7308 35.731H73.3169V38.035H73.904L73.8944 38.0446ZM73.7211 34.6654C74.2987 34.7326 74.8185 34.3198 74.8858 33.7438C74.8858 33.6958 74.8858 33.6574 74.8858 33.6094C74.8858 33.3502 74.7896 33.091 74.6067 32.9086C74.3564 32.7166 74.0484 32.6398 73.7404 32.6686H73.2976V34.6654H73.7115H73.7211ZM72.1426 31.603H73.8848C75.2901 31.603 76.089 32.2942 76.089 33.5038C76.1564 34.291 75.627 35.011 74.8473 35.1838C75.858 35.4814 76.2719 35.9902 76.2719 36.9886C76.2719 38.3134 75.4345 39.1198 74.0388 39.1198H72.1522V31.6126L72.1426 31.603Z" fill="#00A65E" style="fill:#00A65E;fill:color(display-p3 0.0000 0.6510 0.3686);fill-opacity:1;"/>
<path d="M78.5917 39.1102H77.5425V33.5134H78.5917V39.1102ZM78.5917 32.6974H77.5425V31.603H78.5917V32.6974Z" fill="#00A65E" style="fill:#00A65E;fill:color(display-p3 0.0000 0.6510 0.3686);fill-opacity:1;"/>
<path d="M80.9306 37.2386C80.9306 37.949 81.1327 38.2658 81.5948 38.2658C82.0568 38.2658 82.2686 37.949 82.2686 37.2386V35.3858C82.2686 34.6754 82.0664 34.3586 81.6044 34.3586C81.1424 34.3586 80.9306 34.6754 80.9306 35.3858V37.2386ZM83.3177 37.181C83.3177 38.0546 83.2118 38.4386 82.875 38.765C82.1338 39.3794 81.0558 39.3794 80.3146 38.765C79.9873 38.4386 79.8718 38.0546 79.8718 37.181V35.4626C79.8718 34.5794 79.9873 34.205 80.3146 33.8594C81.0654 33.2546 82.1242 33.2546 82.875 33.8594C83.2118 34.1954 83.3177 34.5794 83.3177 35.4626V37.181Z" fill="#00A65E" style="fill:#00A65E;fill:color(display-p3 0.0000 0.6510 0.3686);fill-opacity:1;"/>
<path d="M85.6471 31.603H84.5979V39.1102H85.6471V31.603Z" fill="#00A65E" style="fill:#00A65E;fill:color(display-p3 0.0000 0.6510 0.3686);fill-opacity:1;"/>
<path d="M87.986 37.2386C87.986 37.949 88.1882 38.2658 88.6502 38.2658C89.1122 38.2658 89.324 37.949 89.324 37.2386V35.3858C89.324 34.6754 89.1218 34.3586 88.6598 34.3586C88.1978 34.3586 87.986 34.6754 87.986 35.3858V37.2386ZM90.3731 37.181C90.3731 38.0546 90.2673 38.4386 89.9304 38.765C89.1892 39.3794 88.1112 39.3794 87.37 38.765C87.0428 38.4386 86.9272 38.0546 86.9272 37.181V35.4626C86.9272 34.5794 87.0428 34.205 87.37 33.8594C88.1208 33.2546 89.1796 33.2546 89.9304 33.8594C90.2673 34.1954 90.3731 34.5794 90.3731 35.4626V37.181Z" fill="#00A65E" style="fill:#00A65E;fill:color(display-p3 0.0000 0.6510 0.3686);fill-opacity:1;"/>
<path d="M92.6255 35.8943C92.6255 36.4991 92.8372 36.8063 93.2607 36.8063C93.7035 36.8063 93.9056 36.5087 93.9056 35.8943V35.2703C93.9056 34.6559 93.7035 34.3583 93.2704 34.3583C92.8372 34.3583 92.6255 34.6655 92.6255 35.2703V35.8943ZM92.7121 39.2927C92.5677 39.4079 92.4811 39.5807 92.4618 39.7631C92.4618 40.0895 92.7602 40.2239 93.5014 40.2239C94.2425 40.2239 94.5698 40.0703 94.5698 39.7439C94.5698 39.5327 94.435 39.4175 94.127 39.3695C93.8479 39.3311 93.5688 39.3119 93.2896 39.3119C93.1452 39.3023 92.9912 39.2927 92.741 39.2543C92.7313 39.2639 92.7313 39.2735 92.7025 39.2927M95.619 34.5791C95.5227 34.4831 95.3976 34.4255 95.2628 34.4351C95.0992 34.4351 94.9452 34.5119 94.8586 34.6463C94.9452 34.9535 94.9837 35.2703 94.9741 35.5775C94.9741 36.9695 94.3773 37.7279 93.28 37.7279C93.1452 37.7279 93.0105 37.7087 92.8757 37.6799C92.741 37.7279 92.6351 37.8623 92.6255 38.0063C92.6255 38.1311 92.7025 38.2079 92.8468 38.2559C93.1356 38.2943 93.4244 38.3231 93.7131 38.3231C94.1752 38.3039 94.6276 38.4095 95.0318 38.6303C95.388 38.8703 95.5901 39.2831 95.5612 39.7151C95.5612 40.6751 94.8586 41.1071 93.3281 41.1071C92.0287 41.1071 91.3838 40.7711 91.3838 40.0895C91.3838 39.6479 91.6437 39.3791 92.2597 39.1679C91.7881 38.9759 91.6052 38.7743 91.6052 38.4383C91.6052 38.0159 91.8458 37.7855 92.4715 37.5743C91.8169 37.2287 91.5378 36.6239 91.5378 35.5775C91.5378 34.1855 92.1346 33.4367 93.2607 33.4367C93.8094 33.3983 94.3388 33.6671 94.6276 34.1471C94.7046 33.6863 95.1377 33.3791 95.5997 33.4559C95.5997 33.4559 95.5997 33.4559 95.6093 33.4559V34.5695L95.619 34.5791Z" fill="#00A65E" style="fill:#00A65E;fill:color(display-p3 0.0000 0.6510 0.3686);fill-opacity:1;"/>
<path d="M97.5633 39.1102H96.5142V33.5134H97.5633V39.1102ZM97.5633 32.6974H96.5142V31.603H97.5633V32.6974Z" fill="#00A65E" style="fill:#00A65E;fill:color(display-p3 0.0000 0.6510 0.3686);fill-opacity:1;"/>
<path d="M101.288 35.4529V35.3089C101.288 34.6657 101.077 34.3681 100.615 34.3681C100.383 34.3585 100.162 34.4737 100.037 34.6753C99.9118 34.9825 99.8637 35.3185 99.9022 35.6545V37.0081C99.8733 37.3345 99.9118 37.6705 100.037 37.9777C100.152 38.1793 100.374 38.2945 100.615 38.2849C101.077 38.2849 101.288 37.9777 101.288 37.3057V37.1521H102.337V37.3633C102.395 37.8529 102.251 38.3425 101.943 38.7265C101.596 39.0817 101.105 39.2737 100.615 39.2449C100.075 39.2833 99.5557 39.0721 99.1996 38.6593C98.9108 38.2081 98.7857 37.6801 98.853 37.1521V35.5297C98.7953 35.0017 98.9204 34.4641 99.1996 34.0129C99.5461 33.6001 100.075 33.3889 100.615 33.4273C101.115 33.3985 101.596 33.5809 101.943 33.9361C102.251 34.3105 102.395 34.7905 102.337 35.2705V35.4721H101.288V35.4529Z" fill="#00A65E" style="fill:#00A65E;fill:color(display-p3 0.0000 0.6510 0.3686);fill-opacity:1;"/>
<path d="M105.678 36.2303C104.754 36.7295 104.378 37.1231 104.378 37.6415C104.34 37.9487 104.561 38.2271 104.869 38.2655C104.879 38.2655 104.888 38.2655 104.908 38.2655C105.235 38.2463 105.524 38.0543 105.678 37.7567V36.2207V36.2303ZM105.774 39.1103C105.706 38.8991 105.678 38.6783 105.687 38.4575C105.177 39.0047 104.879 39.1871 104.426 39.1871C103.714 39.1871 103.29 38.6207 103.29 37.6991C103.262 37.0463 103.618 36.4415 104.205 36.1535C104.686 35.8847 105.177 35.6447 105.697 35.4431V35.1455C105.697 34.5695 105.533 34.3487 105.139 34.3487C104.744 34.3487 104.561 34.5887 104.513 35.1455H103.406C103.387 34.2047 104.137 33.4271 105.081 33.4175C105.148 33.4175 105.216 33.4175 105.283 33.4175C105.706 33.3887 106.13 33.5423 106.438 33.8495C106.679 34.1279 106.746 34.3967 106.746 35.0879V37.5743C106.717 38.0831 106.756 38.5919 106.871 39.0911H105.783L105.774 39.1103Z" fill="#00A65E" style="fill:#00A65E;fill:color(display-p3 0.0000 0.6510 0.3686);fill-opacity:1;"/>
<path d="M109.181 31.603H108.132V39.1102H109.181V31.603Z" fill="#00A65E" style="fill:#00A65E;fill:color(display-p3 0.0000 0.6510 0.3686);fill-opacity:1;"/>
<path d="M114.62 38.0446C115.447 38.0446 115.736 37.6222 115.736 36.451V34.2814C115.736 33.1006 115.438 32.6878 114.62 32.6878H114.042V38.0542H114.62V38.0446ZM112.887 31.603H114.725C116.208 31.603 116.901 32.3614 116.901 33.955V36.7582C116.901 38.3614 116.198 39.1102 114.725 39.1102H112.887V31.603Z" fill="#00A65E" style="fill:#00A65E;fill:color(display-p3 0.0000 0.6510 0.3686);fill-opacity:1;"/>
<path d="M119.221 39.1102H118.171V33.5134H119.221V39.1102ZM119.221 32.6974H118.171V31.603H119.221V32.6974Z" fill="#00A65E" style="fill:#00A65E;fill:color(display-p3 0.0000 0.6510 0.3686);fill-opacity:1;"/>
<path d="M121.636 39.1105L120.26 33.5137H121.377L122.185 37.0753L122.897 33.5137H124.004L122.743 39.1105H121.636Z" fill="#00A65E" style="fill:#00A65E;fill:color(display-p3 0.0000 0.6510 0.3686);fill-opacity:1;"/>
<path d="M127.315 35.261C127.315 34.5986 127.113 34.3298 126.632 34.3298C126.151 34.3298 125.939 34.6082 125.939 35.261V35.5682H127.315V35.261ZM125.939 36.4898V36.989C125.9 37.325 125.949 37.661 126.074 37.9682C126.189 38.1698 126.42 38.285 126.651 38.2754C127.113 38.2754 127.325 37.9778 127.325 37.3346V37.1906H128.374C128.365 37.9586 128.326 38.1986 128.162 38.4866C127.835 38.9954 127.258 39.293 126.651 39.245C126.112 39.293 125.583 39.0722 125.236 38.6594C124.957 38.2082 124.832 37.6706 124.89 37.1426V35.4722C124.89 34.5794 124.996 34.2146 125.342 33.8882C125.689 33.5714 126.151 33.3986 126.622 33.4274C127.113 33.3986 127.604 33.5906 127.941 33.9458C128.259 34.3106 128.374 34.7138 128.374 35.5874V36.509H125.949L125.939 36.4898Z" fill="#00A65E" style="fill:#00A65E;fill:color(display-p3 0.0000 0.6510 0.3686);fill-opacity:1;"/>
<path d="M130.675 33.5138V34.4834C130.954 33.7442 131.368 33.437 132.022 33.437V34.6562C131.859 34.589 131.685 34.5506 131.512 34.5506C131.262 34.541 131.012 34.6466 130.858 34.8482C130.713 35.0402 130.675 35.2226 130.675 35.7506V39.1202H129.625V33.5234H130.675V33.5138Z" fill="#00A65E" style="fill:#00A65E;fill:color(display-p3 0.0000 0.6510 0.3686);fill-opacity:1;"/>
<path d="M135.035 35.1746C134.823 34.589 134.573 34.3682 134.169 34.3682C133.89 34.3394 133.649 34.541 133.62 34.8194C133.62 34.8386 133.62 34.8482 133.62 34.8674C133.62 35.1746 133.774 35.3186 134.563 35.7602C134.977 35.9618 135.362 36.221 135.699 36.5282C135.959 36.8162 136.103 37.2002 136.094 37.5842C136.123 38.4674 135.43 39.2066 134.544 39.245C134.486 39.245 134.429 39.245 134.361 39.245C133.399 39.245 132.802 38.7554 132.446 37.6706L133.428 37.3346C133.649 38.0258 133.928 38.2946 134.361 38.2946C134.669 38.3138 134.939 38.0834 134.958 37.7762C134.958 37.7666 134.958 37.7474 134.958 37.7378C134.958 37.421 134.775 37.2194 134.169 36.893C133.716 36.6914 133.302 36.4034 132.937 36.0578C132.667 35.7698 132.523 35.3954 132.532 35.0018C132.532 34.1474 133.216 33.4466 134.072 33.437C134.101 33.437 134.14 33.437 134.169 33.437C135.064 33.437 135.641 33.8786 135.988 34.7906L135.025 35.2034L135.035 35.1746Z" fill="#00A65E" style="fill:#00A65E;fill:color(display-p3 0.0000 0.6510 0.3686);fill-opacity:1;"/>
<path d="M138.154 39.1102H137.104V33.5134H138.154V39.1102ZM138.154 32.6974H137.104V31.603H138.154V32.6974Z" fill="#00A65E" style="fill:#00A65E;fill:color(display-p3 0.0000 0.6510 0.3686);fill-opacity:1;"/>
<path d="M141.898 34.4543H140.935V37.4399C140.935 38.0063 141.128 38.2367 141.59 38.2367C141.725 38.2367 141.859 38.2079 141.994 38.1695V39.1199C141.763 39.1679 141.522 39.1967 141.282 39.1967C140.858 39.2447 140.435 39.0911 140.146 38.7839C139.944 38.5343 139.886 38.2655 139.886 37.5551V34.4639H139.078V33.5327H139.886V32.0063H140.935V33.5327H141.898V34.4639V34.4543Z" fill="#00A65E" style="fill:#00A65E;fill:color(display-p3 0.0000 0.6510 0.3686);fill-opacity:1;"/>
<path d="M146.326 33.5137L145.103 38.8705C144.718 40.7041 144.304 41.0977 142.726 41.0977V40.0129C142.783 40.0129 142.841 40.0225 142.899 40.0225C143.39 40.0609 143.823 39.6961 143.871 39.2065C143.871 39.1681 143.871 39.1297 143.871 39.1009C143.871 38.9377 143.842 38.7745 143.794 38.6209L142.562 33.5137H143.669L144.497 37.3345L145.257 33.5137H146.345H146.326Z" fill="#00A65E" style="fill:#00A65E;fill:color(display-p3 0.0000 0.6510 0.3686);fill-opacity:1;"/>
</g>
<defs>
<clipPath id="clip0_3059_4681">
<rect width="166" height="48" fill="white" style="fill:white;fill-opacity:1;"/>
</clipPath>
</defs>
</svg>
