<?xml version="1.0" encoding="utf-8"?>
<!-- Generator: Adobe Illustrator 25.0.0, SVG Export Plug-In . SVG Version: 6.00 Build 0)  -->
<svg version="1.1" id="Layer_1" xmlns="http://www.w3.org/2000/svg" xmlns:xlink="http://www.w3.org/1999/xlink" x="0px" y="0px"
	 viewBox="0 0 333.4 333.8" style="enable-background:new 0 0 333.4 333.8;" xml:space="preserve">
<style type="text/css">
	.st0{fill:#005776;}
	.st1{fill:#008346;}
	.st2{fill:#56B88E;}
	.st3{fill:#FFFFFF;}
	.st4{fill-rule:evenodd;clip-rule:evenodd;fill:#FFFFFF;}
	.st5{fill:#333333;}
</style>
<g>
	<g>
		<path class="st0" d="M50.9,42.9v158h106v-158H50.9z M122.1,208.3c-0.3-0.2-1.4,0-1.7,0.2l0.3,0.2c0,0.3-0.9,0.3-0.3,0.7l1.1,0.1
			l-0.8,0.5c-0.2,0.3,1,0.7,0.7,0.9c-0.3,0.3-1-0.2-1.5-0.4l0.2,0.4c0,0-1,0.3-0.6,0.5l2.1,0.5C127.4,212.7,124.4,209.9,122.1,208.3
			z M44.4,56.6l0.2-0.2L44,56c-0.1-0.2-0.5-0.8-0.9-0.8l-0.9,0.4l-0.8-0.9c-0.4-0.2-0.1,1.1-0.4,1.1c-1.1-0.4,0.1-2.3-1.2-1.7
			l-1.2,1.4c-0.8-0.1-0.9,0.4-1.2,0.5l-0.3-0.2l0.5-0.5c-1.4,0-0.3,1.2-0.9,1.8l-0.2-0.2c0-0.2,0.4-0.6,0-0.7l-1.6,1.2
			c0.4-0.6-0.4-0.4-0.2,0.2c0,0.2,0.7,0.4,0.5,0.5l-0.7-0.4L34,58.4l0.5,0.1L33,60.5l-1.3,0.2l-0.8,0.1c-0.2,0.9,0.4,0.9-0.6,1.3
			l2.4,1.7c1.4,1,3.5,1.3,4.5,2.7c0.2,0.3-0.7,0.4-1.1,0.5c-0.5,0.1-0.8-0.7-1.3-0.7c-0.3,0-0.1,0.7,0.1,0.8l0.8,0.4
			c-1.6-0.2-3.5,0.9-4.9-0.1l-1.7,1.1c0,0.1,0.1,0.1,0.1,0.2v0c2.3,4.2,6.5,1.7,6.8,1.9l-0.2,0.5h-0.5c0,0.5,1.1,1.6,0.4,2.1
			c-1.1,0.7-3.4,1.3-4.2,2.4c0,0.1,0.1,0.5,0.2,1.1v0c0.3,1.4,0.8,3.8,1.4,4c1.4,0.6,1.1-1,1.3-1.3c0.2-0.3,1-1.2,0.9-0.8
			c-0.3,1.4-0.8,1.9-0.1,3.3v0.5l-0.5,0.3c1.6-0.5,3.4-1.1,5-0.8l-0.2,0.3l-0.4,0.6l0.1,0.5l-0.5,1.4L38.5,85
			c-1.6,0.7-1.7,2.9-3.1,2.2l-1.9,1.4c-0.5,0.4,4.4-1.5,4.4-1.5c0.2-0.6,1.3-1.4,2.6-2.4h0c0.5-0.4,1.1-0.8,1.6-1.3L42,83.2
			c0.1-1.2,0.9-2.8,1.5-3.4c0.7-0.7,0.8-1.6,1.8-2l0.3-1.1l0.2-0.9c0.1,0.3,0.1,0.6,0.1,0.9c0.2,3.1-2.1,1.9-1.7,4.8
			c0.1,0.7,1.4-0.6,1.5-0.6l-0.1,0.4c0.3-0.2,0.3-0.9,0.7-1.1l0.1,0.4l0.2-0.7l0.8,0.2c0.9-0.6-0.8-2,0.7-2.4
			c0.2-0.1-0.1,0.5-0.1,0.7l0.2-0.5l1,0.2l-0.1,0.4h0.4l-0.4,0.2l0.6-0.2l-0.2,0.3c0.1,0.1,0.5,0.2,0.9,0.4V57.8
			C48.7,57,46.3,56.1,44.4,56.6z M120,209c0.3-2.2,3.2-3.8,3.2-6l1.5-1.2c0.1-0.2,0.2-0.3,0.2-0.5h-8.4c-0.2,1.1-0.2,2.2,0.1,3.3
			c0.5,1.7,2.9,2.4,3.3,4.1c0.2,0.8-1.6,0.5-1.1,1.1C119.6,210.7,119.9,209.7,120,209z"/>
	</g>
</g>
<path class="st1" d="M100.5,57.2l0.2,0.3C100.6,57.3,100.5,57.2,100.5,57.2z"/>
<polygon class="st2" points="268.4,75.9 268.4,76 268.4,76 "/>
<path class="st0" d="M161.9,14h106.2v103.5H161.9V14z M284.7,48.4l-1.8-0.2h-2l-1.6-0.2l-1.6-0.9l-0.5-0.7h-0.4l-1.4-0.2l-1.4-0.7
	h-0.4l-0.7-0.5l-0.7-1.1l0.2-0.4l1.1-0.2l1.6,0.2l-0.5-0.9l-0.4-0.9l0.4-0.4l2-0.9l2.9-0.2l-0.2-0.2l-1.3-0.4l-1.6-0.2l-0.2-1.4
	l-0.7-0.4h-3.2l-3.8,0.4l0,15.4h3.6l-0.2-1.1l0.9-0.5l1.1-0.4l0.5,0.5l2,0.2l2.7-0.7l0.4-0.4l1.6-0.2l2.3,0.7l-0.5-0.7l-0.7-0.5
	l0.2-0.4l1.3-0.9l2-0.5v-0.2L284.7,48.4z M270.7,77.6l-2.3-1.6v4.1l0.7-0.5h0.4l1.3,0.2l1.4,0.5l1.3-0.7l1.1-0.5l-2.5-0.2
	L270.7,77.6z"/>
<polygon class="st3" points="268.3,76.8 268.1,76.7 267.7,75.8 267.9,75.1 267.4,75.1 265.8,75.6 263.3,76 262.9,74.9 261.5,74.4 
	260.4,75.1 260.4,76.5 260,76.7 258.3,76.5 256.1,75.5 255.6,76.5 255.6,77.6 255.2,78 253.8,78.7 251.6,78.9 252.2,78.1 
	253.1,77.8 252.5,77.3 251.6,77.3 250.9,76.5 250.4,75.5 250,75.3 248.2,75.8 245.9,76 245.2,75.3 244.8,74.2 246.2,74 247.7,74.2 
	247.7,73.8 248.4,73 249.8,72.2 249.5,72.1 248.2,71.5 246.4,71.3 246.4,70.6 245,69.9 243,69.2 242.3,68.5 241.9,67.9 241.4,67.8 
	239.1,70.1 238.2,69.7 237.7,69 237.3,69 236,69.2 234.6,70.1 235.3,70.8 235,71 233.5,70.8 232.1,69.7 232.1,68.5 232.3,67.4 
	234.6,66.7 238,66.1 239.6,66.1 240.5,66.3 241.2,66.5 243,66.7 244.6,66.9 246.2,67.6 247.1,68.7 247.5,69.5 247.9,69.9 
	249.7,70.1 252,69.4 252.5,68.8 254.8,68.8 257.7,69.4 259.3,68.8 261.5,69.4 262.4,69.4 262.9,69 262.4,68.5 261.5,68.5 
	259.9,67.8 257.4,68.1 256.3,67.9 255.7,67.4 255.7,67 255.9,66.1 257,65.1 256.1,64.5 255.2,64.5 253.6,64.4 251.8,64.2 
	250.4,63.5 249.1,62.6 248.8,61.8 247.9,61.8 247.1,62.4 245.9,62.2 245.2,61.5 246.1,59.9 248.6,60.6 250,60.6 250.5,60.1 
	250.7,59.7 252.2,59 254.3,58.6 254.1,58.3 253.2,57.7 251.6,57.5 249.5,56.8 247.9,56.8 246.4,57.2 244.8,57.5 243.9,57.5 
	244.1,57.7 244.3,58.1 243.7,59 242.3,59.9 240,59.9 237.8,59.5 238,59.2 239.6,59 241.6,58.4 241.9,57.5 243.2,56.5 244.8,56.1 
	246.6,56.1 248.4,55.9 249.1,55.8 249.8,55.9 251.8,56.3 253.8,56.5 255.7,56.1 257.5,55.6 258.3,55 259,55.4 259.5,55 259.3,54.3 
	259.5,53.6 260,53.8 262.2,54.3 264.9,55 265.1,54.1 264.9,52.9 265.4,52.2 266.3,52 266.7,52.5 268.3,53.4 268.3,38.2 267.9,38.2 
	267.6,37.8 266.1,36.9 264.2,35.9 264.2,35 264.7,34.1 264.5,33.5 265.4,32.5 267,31.6 265.8,31.4 264.5,31.2 263.8,30.3 
	263.3,29.2 262,29.1 260.8,28.7 260.2,27.8 260.6,26.7 260.2,26.9 258.3,27.4 255.9,28.3 255.7,28.2 254.5,27.4 253.6,26.2 
	253.8,26 255,25.3 256.8,24.9 257.4,24.2 257.7,23.5 257.5,23.3 256.5,23.1 255,23.5 254.7,23.1 253.2,23 251.6,22.1 250.2,21.5 
	248.9,19.4 248,19 247.1,19.4 246.6,19.6 244.8,19.2 242.7,18.5 242.3,18.7 240.7,19.7 238.4,20.1 237.7,21 237.1,21.9 235.9,21.9 
	234.8,21.4 234.4,21.7 233,22.4 230.8,23 230.5,22.8 229.2,22.3 227.4,22.3 226.9,22.8 226.4,23.5 225.3,23.3 224.6,22.6 217,22.6 
	216.5,23 217.6,23.5 217.8,23.9 218.8,24.8 220.1,26 219.7,26.2 219.4,27.4 219,29.1 218.1,29.2 217.2,28.9 216.7,27.8 216.3,26.9 
	216,26.6 214.7,25.8 212.6,25.7 210.6,26.7 209.2,26.7 207.6,26.6 206.1,26.2 205.4,26 205.6,26.2 206.5,26.7 207.4,27.6 207.2,28 
	206.3,28.5 204.9,29.1 204,28.2 202,27.8 201.8,27.1 202,26.4 201.3,26.7 200.9,27.3 200.9,27.8 199.7,28.9 197.3,29.4 197.9,30 
	197.9,30.3 197.2,31.4 195.7,32.5 195.4,32.3 193.9,32.8 192.5,33.4 192.3,33 191.3,32.3 190.5,31 189.6,31 188,30.9 186.1,30.7 
	184.3,30.7 182.5,30.9 181.8,31 181.9,31.2 182.8,31.7 183.9,32.5 184.3,33.5 182.5,35.2 181,35.3 179.8,36.2 179.6,36.9 
	177.1,37.1 172.4,37.1 171.5,37.3 171.5,38.2 169.2,39.1 167.6,39.1 166.5,39.8 166.3,40.7 166,40.9 164.4,41.1 162.2,41.2 
	161.7,41.6 159.7,42.5 156.9,42.7 153.1,42.7 152.2,43 151.7,43.4 151.7,44.1 151.8,44.8 150.4,45.4 148.8,45.4 148.8,46.1 
	149.2,46.8 149.3,47.5 148.8,48.2 148.6,48.6 149.3,49.3 150.8,49.8 150.6,50.6 150,51.3 150,51.8 150.4,52.3 150.2,53.4 
	149.5,54.1 148.3,54.1 147.4,54.9 147.2,56.1 145.2,56.5 142.9,57.2 142,57.9 141.4,58.4 141.6,58.6 142.9,58.8 144.3,59.5 
	144.5,59.9 144.1,60.6 143.4,61.7 144.5,61.5 145.7,61.1 146.5,61.5 146.6,62.2 147.4,62.9 148.3,63.3 148.6,63.3 149.3,64.2 
	149.7,65.8 150,65.4 151.7,64.5 154,64.5 154.3,64.7 154.7,65.8 155.6,67 156,66.5 156.5,66.5 158.3,66.7 160.1,68.1 160.4,68.3 
	161.3,68.1 162.1,67 161.7,66.7 161,66.9 159.9,66.7 159,66 159.5,65.1 161.3,65.2 163.8,65.6 164.7,66.3 165.1,66.9 165.8,66.5 
	166.2,65.6 166.9,65.4 167.6,65.8 171.7,65.4 172.6,64.5 173.5,63.8 173.9,64.2 175.8,65.1 178.9,65.2 179.2,65.1 180.5,65.4 
	182.1,66.5 182.1,66.9 182.5,67.9 182.1,69.4 181.6,69.5 180.3,68.8 178.9,67.6 178.7,68.1 177.1,68.7 174.8,68.3 174.1,68.7 
	173.9,69.4 172.6,69.7 171.2,69.5 170.5,70.1 169.6,70.6 169.2,70.3 168.1,70.3 166.7,71.2 168,72.2 170.3,72.2 171.4,72.4 
	171.9,72.8 172.1,73.5 171.7,74.2 172.1,74.4 173.9,75.1 176.4,75.5 176.6,75.1 176,74.6 174.8,73.8 174.9,73.5 176.4,73 
	178.4,72.6 179.1,73.5 179.4,74.4 181.4,75.3 183.9,76.5 185.3,76.5 186.2,76.4 187.1,77.1 187.3,78.1 187.7,78.5 189.3,79.4 
	191.6,79.2 192,79.4 193,80.3 193.9,81.9 195.4,80.1 195.7,80.1 197,80.5 198.4,81.6 198.6,81.4 199.5,81 200.4,80.1 200.7,79.9 
	202.4,79.9 204.3,80.1 204.1,79 204.5,78.3 206.3,78.3 208.6,78.1 209.7,78 210.8,78.1 210.6,77.8 209.7,76.7 208.1,76 208.3,74.9 
	206.3,73.7 204.7,73.7 203.3,73.1 202.7,72.4 202.4,72.2 201.3,72.4 200,73.1 199.5,74 198.1,73.8 197.5,74.2 197.2,74.7 
	196.4,74.7 195.9,74.2 196.1,73 195.9,71.9 196.6,71.3 197.7,71.3 198.2,71.2 200.2,70.8 202.7,71.7 203.6,71.7 205.8,71.9 
	207.7,72.1 209.5,72.8 211,74.2 211.5,75.3 211.9,76.2 212.6,77.8 213.5,79.6 214.4,81.2 215.4,82.8 215.8,83.7 216,84.2 215.6,86 
	214,88 212.6,89.8 211.5,91.6 211,93.6 211,97.9 211.1,100 211.3,102.2 211.7,104.3 211.7,106.5 211.5,108.6 210.6,110.4 209.7,112 
	208.6,113.6 207.6,115.2 205.6,117.8 216.5,118.1 218.7,114.7 219.2,113.8 219.6,111.8 220.1,109.9 220.6,107.9 221,105.9 
	221.5,103.9 221.9,102 222.4,100 222.8,97.9 223,95.9 223.1,93.7 223.3,92.8 223.3,91.2 223.1,89.4 223,87.8 223.5,86.4 224.2,85.7 
	226,85.5 227.8,85.3 231.6,85.3 233.5,85.1 235.3,85.1 237.1,85 239.1,84.6 240.7,84.2 242.5,83.7 242.8,83.5 244.1,82.1 
	245.5,80.5 246.8,80.3 247.7,81 246.8,81.4 246.1,81.9 246.6,82.1 248.8,82.3 251.3,82.4 252,83.5 252.2,85 252.7,85.3 255,85.3 
	257.9,84.2 256.8,83.5 255.4,83.3 254.7,82.8 254.5,82.1 254.8,81.2 254.7,79.9 256.1,79.4 257.5,79.6 258.1,79.8 260,80.8 
	262.4,81.9 262.9,80.8 263.3,80.7 264.7,79.6 266.5,78.9 266.5,79.6 266.9,80.3 267.9,80.1 268.3,79.8 "/>
<path class="st0" d="M304.6,261.4c-0.1,2.5-0.4,3.9-1.3,6.2c-2.3,6.1-6,9.1-11.8,12c-4.8,2.5-8.2,3-13.6,3c-4.5,0-7.2-0.6-11.4-2.2
	c-5.4-2.1-8.2-4.3-12.2-8.5c-3.4-3.5-4.7-6.1-7.2-10.2c-4-6.7-5.7-10.9-8.3-18.3c-0.1-0.2-0.2-0.5-0.3-0.7h0
	c-2.4-6.8-3.7-11-4.6-18.4c-0.1-1.1-0.2-2-0.3-2.9h13.6c0.1,5.6,0.2,9,1.3,14.7c0.5,2.6,1,4.6,1.7,6.6h0c0.6,2,1.3,3.9,2.2,6.3
	c2.4,6.8,3.4,11,7.5,16.9c1.2,1.7,1.7,2.8,3.3,4.1c3.4,2.8,5.8,4.4,10.1,5.5c6.9,1.8,12,1,18.1-2.6c1.8-1.1,3-1.7,4.4-3.4
	c1.2-1.3,1.6-2.3,2.4-3.9c0.6-1.2,0.8-1.9,1.1-3.3c0.4-1.6,0.5-2.5,0.4-4.1c-0.1-1.6-0.2-2.6-1-4c-0.7-1.4-1.3-2.1-2.6-3
	c-1.2-0.8-2-1.2-3.4-1.3c-2.6-0.3-5,1.7-4.6,0c0.2-0.8,0.6-1.3,1.4-1.6c1.6-0.6,2.2-0.9,3.6-0.9c1.1,0.1,1.6,0.4,2.6,0.7
	c1.1,0.4,1.8,0.5,2.8,1.1c1.3,0.7,1.9,1.3,2.8,2.4c1.9,2.1,2.5,3.8,3,6.5C304.6,259.4,304.6,260.1,304.6,261.4z M207.5,222.1
	l0.4,0.4l1-0.4l-0.2-0.7h-1.6L207.5,222.1z M191.2,222.3l-0.2,2.5v1.3l0.6,0.4l0.6,0.2l0.2-0.8l0.4-1.7l0.2-1.7l0.2-1.1h-2
	L191.2,222.3z M247.2,221.2c0,0,0,0.1,0,0.2h35.2v-0.2h0.2v-35.2l1.4-0.9l2.9,0.4l2.1-0.2l0.6-0.2l-0.2-0.8l-0.8-1l-3.1-0.2
	l-2.3-0.4l-0.6,0.2v-9.1l0.8-0.7l1.7-0.6l1.7-0.4l1.9-0.2h1.9l4,0.2l3.8,0.4V171l-0.4-1.3l-2.9-0.8l-2.7-0.4h-0.6h-1.3h-2.5
	l-2.3,0.4l-2.1,1l-0.8,0.7v-1.5l1.2-1.1l1.9-1.5l1.9-1.3l1-0.6l-0.8-0.8l-1-0.6l-1,0.6l-2.1,1.5l-1,0.9v-43.4h-65.4l0.3-2.8l0.6-0.8
	v-1.3l-0.6-0.8l-1.5,2.7l-1.5,1.5H214l-1-3.3l-0.2-2.7v-0.6l-1-0.6l-0.8,0.6l-0.2,3.1l0.2,2.5v0.6l-1.9-2.9l-0.8-2.9l-0.2-0.6
	l-1-0.4l-0.6,2.1l0.4,1.9v0.4l0.8,2.1l0.8,1.9l0.2,0.5h-1.7l-1.5-1.3l-0.8-2.3v-1.9l-0.2-0.4l-1.3,1.5l-0.6,1.5l-0.2,0.2v1l0.8,1.5
	l0.3,0.3h-41.3v98.3h0.1v0.2h29.1l0-0.2h2l0,0.2h13.9l-0.1-0.2h1.6l0,0.2h24.9c0,0,0-0.1,0-0.2H247.2z"/>
<path class="st3" d="M280.2,171.4l1.7-1.7l0.5-0.4v-2.9l-0.7,0.6l-1.7,2.1l-1.9,1.9l-0.8,0.8l-0.8-0.2L276,171v-1.3l-0.4-1.3l-1,0.6
	l-1,1l0.6,2.7l-0.2,2.3l-0.4,0.4l-1.3-1.9l-0.8-1.3h-0.6l-0.6,2.1l-0.2,1.7l0.2,0.4l1.9,2.1l0.4,2.1l-0.2,0.6l-2.3-0.4l-1.5-1
	l-0.4-0.4l-0.8-0.8l-1.5-1.5l-1.5-1.7l-1.3-1.7l-1.3-1.7l-0.4-0.8l-0.6-0.4l-1-0.6l-2.3-1h-2.1l-2.5,2.5l-1.9,1.9l-1.9,1.9l-1.7,1.5
	l-1,0.8l-0.6-1l-0.4-1.5l-0.2-1.3l-0.4-2.7l-0.6-2.5l-1-2.3l-1.7-1.9l-1.3-0.8l-1.9-1.7l-2.1-1.5l-1.9-1.7l-2.1-1.7l-2.1-1.5
	l-1.9-1.5L226,153l-2.1-1.5l-2.1-1.5l-2.1-1.3v-0.6l0.6-0.8l1.5-1.7l1.5-1.7l1.3-1.7l1.3-1.9l0.4-0.8l-0.6-1.3l-1.5-2.3l-1.9-2.1
	l-1.9-2.1l-2.1-2.3l-0.8-1l-0.4-4.8l0.2-0.9l-13.9,0l0.9,0.9l1.3,1l1,1.5l0.2,1l-2.3-0.6H203l-0.2,0.6l0.8,1l2.1,1.5l2.3,0.6
	l2.5,0.4l2.5,0.2l1.3,0.2l0.4,0.6l0.8,1.3l1,1.3l0.8,1.3l0.4,1.5v0.6l-0.6,0.6l-1.5,1.3l-1.7,0.8l-1.5,1l-1.5,0.8l-0.8,0.6l-2.1-0.8
	l-2.1-1l-2.1-0.8l-1.9-1l-2.1-1l-2.1-0.8l-2.1-1l-2.1-0.8l-2.1-0.8l-2.1-0.8h-1l-2.3,0.6l-2.1,0.4l-2.3,0.4l-2.1,0.2l-1.3-0.2
	l-1.3,1.3l-1.5,1l-1.5,1.3l-1.7,1l-1.5,1.3l-1.5,1l-1.5,1.3l-1.5,1.3l-1.3,1.5l-1.3,1.5l1.7,2.7l2.1,1.5l0.6,0.2l0.6,0.4l1.7,0.6
	l1.9,0.2h1.9l2.9,0.2l0.8,0.2l1.9,0.2h1.7l3.3-0.8l0.8-0.4l0.8,0.4l1.5,1l1.7,1.5l1.7,1l1.9,0.2l1-0.4l1-0.2l1-0.4l1.3,1.7l1.3,0.8
	h0.4l1-0.8l1.3-0.2l0.2,1.5v6.7l-0.2,3.6l-0.2,3.3l-0.2,1.7l-2.3,1.9l-2.3,0.6l-0.6,0.2l-1.7-1.3l-1-1.5l-0.4-0.2l-2.3-1.3l-1.9-0.6
	h-0.4l1.5,1.3l0.8,1.3v0.4l-0.6,0.4l-1.5,0.2l-2.5-1h-2.1l-2.5,2.1l2.1,0.2l1.9-0.2l0.4,0.2l1.3,0.6l0.6,1l-0.8,0.4l-1.5,0.4
	l-3.1,0.6l-2.1,1.7l0.4,1.3l3.1-1.9h2.5l1.7,0.4l0.4,0.2l-1.5,1.7l-1.9,1l-0.4,0.2l-1.3,1.7l0.8,0.8l2.5-2.1l2.5-0.8h0.6l-1.7,2.3
	l-0.6,1.9l0.2,0.4l0.8-1.3l1-0.8l2.3-1.3l2.3-0.8l2.3-1.5l1.7-2.1l6.3-1.5l0.6-1l0.8-1.9l0.8-2.1l1-2.1l0.8-1.9l0.6-1h0.4l6.9,13.2
	l0.6,0.4l1.5,0.8l1.7,0.8l1.3,0.8l1.3,0.8l0.6,0.6l-1.5,0.2l-2.9,0.2l-2.9,0.2l-2.9,0.2l-2.9,0.6l-1.3,0.4l-0.6,2.5l-0.4,2.1v0.6
	l1.3,0.8l1.3,1l1.3,1l1,1l0.8,1.3l1,1.3l0.6,1.3l0.2,0.8l0.6,2.1l0.2,1.5l-0.4,0.4l-1-0.2h-2.5l-2.5,0.2l-2.3-0.2l-1.9-1.3l-0.8-1
	l-0.8,0.4l0.6,1.3l0.2,1.5l-3.3-0.4l-2.7-0.8h-0.8l-0.2,1l0.8,0.6l1.5,0.6l1,0.8v0.4l-2.1,0.4l-1.7-0.2h-0.4l-1-0.6h-2.1l-1.9,0.6
	l-1.9,1.5l-1.7,1.5l-0.8,0.6l0.4,0.8l0.8-0.2l1.5-0.8l1-1l1.5-0.6l1.5-0.2l1,0.4l0.8,0.2l0.6,0.4l-1,1.3l-1.3,0.8l-0.2,0.2l-1,0.8
	l-1.7,2.1l-0.6,2.3l-0.1,1.6h2l0.4-2.2l0.2-0.8l1-1.3l1.3-0.8l1.5-0.8l1.3-0.4l2.9-0.8l3.3-0.4l3.1-0.2l1,0.4l-1.5,1.5l-1,1.5
	l-0.2,0.4v2.9l0.5,1.2h1.6l-0.2-0.7l0.6-2.3l1.7-1.7l2.1-1.5l2.1-1.5l0.8-0.8l3.8-1.3l2.7-1.3l0.6-0.6l-0.4-1.3l-0.2-2.5v-2.5
	l-0.1-0.9l-0.1-1.6l-1-2.1l-0.8-1l0.4-1.3l1,0.2l2.1,0.6l2.1,0.6l2.1,0.4l4.2-0.6l0.3,4.7l0.1,1l0.3,5.7c0.2,3.5,0.3,5.4,0.6,8.9
	c0.1,1.2,0.2,2.1,0.2,3.1h13.6c0-0.3,0-0.5,0-0.8c0-2.2,0-3.4,0-5.5c0-3.7,0.2-8.4,0.3-12.5h0c0.2-5.4,0.4-9.8,0.4-9.8l1.3-1.4
	l1.3-1l1-1l1-1.3l1-1l1-1.3l0.8-1.3l1-1.3l1-1l1-1.3l1,0.2l1.5,1.7l1.7,1.5l1.7,1.3l1.7,1l1.9,0.8l1.9,0.6l2.1,0.6l2.1,0.2h4.2
	l0.6-0.4l1-0.8l2.3-1.5l0.1,0v-3.3l-1.3,0.4l-1.5,0.2l-0.4-0.2l0.4-3.8l0.8-2.9v-0.8l1.5-1.5l0.5-0.4v-2.9l-0.9,0.8l-0.6,1l-0.6,0.6
	l-0.8,0.2v-1.3L280.2,171.4z M182.5,144.8l-0.6,1.5l-0.6,0.2l-2.7,0.2l-2.1-1.9v-0.4l0.8-0.8l1.5-1l0.4-0.2l1.5,0.2l1.7,0.8l0.2,0.2
	V144.8z M212.8,170.8l-0.8-0.8l-0.2-1.3l1.5,0.4l0.6,1.3L212.8,170.8z M217.4,173.9l-0.6-1l0.2-1l1.5,0.6l0.2,1.5H217.4z
	 M237.5,164.7l0.4,1.5h-1l-0.8-0.8l-0.2-1L237.5,164.7z M237.5,171.2h-1l-1-1l0.2-1.5h0.4l1.3,0.4l1,1.5L237.5,171.2z M241.2,173.1
	l-0.8-1.3l0.2-1.7h0.4l0.8,0.8l0.2,2.1H241.2z M245.6,205H245l-0.6-1v-1.5l1-0.6l0.4,1.5L245.6,205z"/>
<g>
	<path class="st4" d="M151.7,155.1c-0.6-0.5-1.8-2-2.7-2c-4.8,0-3.2-0.7-6.2-1.9c-2-0.8-1.9,1.3-2.6,1.5c-0.2,0.1,0-0.4-0.1-0.6
		l-1.8,0.1l-0.1,0.2l0.1-0.3h0.7c0.3-0.2-0.2-0.6-0.2-0.7l0.2-0.2l-0.5,0.4l-0.1-0.7l1.2-1.3c0.2-0.2,0.2-1-0.3-0.8l0-0.1l-0.6-1.9
		c-0.5-1.3-4.1-1.9-5.6-1.7c-0.5-1-6.8-4.5-4.7-4.6h-2l0.3,0.2c-0.6,0.3-3.4,0.1-3.9,0c-0.8-0.2-1.1-1.4-1.8-1.7
		c-0.2-0.1-0.3,0.3-0.3,0.5l0.5,0.2c-0.5,0.2-1.2,0.2-1.6,0.7c-0.1,0.1,0.9,2-0.1,1.7c-1.1-0.4,0.9-3.2-0.1-3.2
		c-1.7,0-4.4,2.4-5.3,4.1c-3.1-3.2-7,2.4-5.6-6.6c-1.2-1.4-3.2-0.9-4.7-0.8c-0.8,0,0.3-1.6,0.2-2.4l-0.3-0.2l0.3-0.3l0.1-0.1l0,0.1
		l0.2,0.6c0.1-0.2,0.3-0.4,0.4-0.6v0c0.6-1,1.2-2.3,0.4-2.8c-0.3-0.2-0.6,0.2-0.7,0.1c-0.1,0,0-0.4-0.3-0.3l-2.1,0.6l-0.4,1.8
		c-0.4,0.1-0.4,0.3-0.5,0.6h0c-0.1,0.3-0.2,0.4-0.9,0l0.5,0l-0.5,0c0,0,0,0-0.1,0l-0.1,0l-1.8,0.5c-0.1-0.1-0.3-0.3-0.4-0.5h0
		c-1.9-2.6-4.1-9-1.5-10.1c1.4-0.6,2.2-1.8,4.2-1.2l1.8,0.4l0.5,0.5l0.2-0.1c-0.1-0.3,0.1-0.8-0.2-1.1l-0.9,0.1l-0.1-0.3l2-0.1
		l0.2-0.6c0.9,0.4,1.6,1.1,2.5,1.3c0.3,0.1,0.8-0.5,1.2-0.4c1.6,0.4,1.3,4.6,2.7,5.2c0.8,0.3,1.1-1.4,0.9-1.8l-1.4-3.9
		c0.3-1.5,1.9-2.8,3.2-3.8v0c1.1-0.8,2.2-1.5,2.3-1.7c0.2-0.5-0.5-0.1-0.9-0.4l0.1-0.4l0.1,0.3l0.4-0.2l0.3,0.1
		c0.2-1.7-2.7-2.7-0.5-2.4c0.6,0.1,0.1-2.2,0.4-1.7c0.5,0.8-0.6,2.2,0.1,2.8l0.8-1.7c-2-1.6,4.7-2.9,3.8-4.6l0.7-1.8
		c1.1-0.1,2-0.8,2.9-1.3l2.4-1.7c0.3-0.2-0.4,0.8-0.2,0.8l1.4-0.1c0.1,0-1.2,0.7-1,0.1l-1.6,1l0.2-0.1c0,0.7-0.5,0.8,0.2,1.3
		l0.2,0.1l4.1-2.4c-6.6,1.6-1.2-12.3-9.1-2.3l1.7-2.6c0.6-0.9,1.5-1.6,2.4-2c1,0,5.3,0.3,5.9,0l1.5-1.5c4.4,0.2,2.1-6.9-1.7-3.1
		c0.1-0.3-0.8-0.5-0.8-0.6l0.2-0.2l0.7,0.3l0.2-0.4l1.1-0.4l-0.2,0l-0.4,0l1.8-0.8c-0.3-0.9-2.1-0.5-2.1-0.5c-0.2,0,0.2-0.3,0.2-0.5
		c0-0.4-0.5-0.6-0.8-0.9c-1.2-1-1.4-0.8-2.4-1.5l0.2,0l0.5-0.1l-0.2-0.2c0.3,0,1,0.3,0.9-0.4c0-0.3-0.1-0.5-0.1-0.8v0
		c-0.4-1.9-1.5-3.7-2.8-5.1c-0.3-0.3-0.7,0.6-0.7,0.7c-0.4,0.7,0.2,0.3,0.1,0.9c-0.1,0.4-0.8,0.6-0.8,1l0.3,0.4l-0.2,0.4v-0.5
		l-0.4-0.2c-0.4,0.3-0.4,1.3-1.2,1.3l-0.1-0.6l-0.1,0.2l0.1-0.5l-0.4,0.9c-0.2,0.2-0.7,0.3-0.7,0.1c0-0.5,0.7-1,0.5-1.5l-1.5,0.3
		c0.5-0.3,0.6-1.2,0.6-1.7c0-0.6-0.8-0.6-1.2-0.7c-0.2,0-0.6,0.1-0.5-0.1c1-1.6,1.1-2.4-0.3-3.4h0c-0.4-0.3-0.8-0.6-1.4-0.9
		c-0.6-0.3-1.5-0.5-1.9,0.2l-2.3-0.8c-0.7,0.2-0.7,1.1-0.5,1.5v0c0.1,0.2,0.3,0.3,0.5,0.2l-0.7,1.8c0.9-0.2,0.2,1.3,0.4,1.6l0.6,0.7
		l-1.6,0.9c-0.4,0.4,1,1.3,1.2,1.4c0.2,0.5,0.3,1,0.5,1.4v0c0.7,2.1,0.9,3.4-2.4,5c0.8,0.7,0.9,2.3,0.8,3.2c1.4,2.5-4.2,3.4-3.4-4.1
		l-2.8-0.2l-0.2,0.5l-0.1,0.2c-0.6-1.8-2.7-3.1-5.1-4.1c-1.3,0.7-1.4,0.5-1.5-0.4h0c-0.1-0.5-0.1-1.3-0.5-2.2l-0.9-0.1L98.1,83
		l-0.1-0.5c-0.3-0.5-0.4-0.3-0.4-0.8c0-1.4-0.5-3,0.2-4.1l0.9-0.5C99,77,99,76.9,99,76.7v0c0-0.3,0-0.6,0.3-0.7l0.4,0.2
		c0.2-0.3,0.1-1.5,0.2-1.1l-0.1-0.4c0.4-0.2,1.4,0.3,1.7-0.4l-0.2-1c-0.3-0.4-2.5-0.5-2.5-0.9c-0.1-0.8,2.8,0.9,2.8,0.9
		c0.9,0.2,1.7-0.8,2.4-1.4l1.1-2.3l-2-0.3l-0.4-0.4c-0.1-0.1-0.2-0.2-0.2-0.2v0c-1-1.1,0-0.8,0.9-0.2l0.2,0.2l0.5,0.6l0.7-0.1
		l0.4-0.5l0.8-1.1c1.1-2,2,1,4.4-2.7c0.8-1.2,0.5-2.8,0.1-4.3v0c0-0.2-0.1-0.3-0.1-0.5c-0.1-0.3-1.2,0-1.1-1l-0.1-0.5l-2.6-0.3
		c0,0,0.1,1.1,0,2.3v0c-0.1,1.8-0.4,4.1-1.8,4.2l-1-1.7l0.2-1.2l0.1,0.4l0.3-0.1c0-0.2-0.2-1-0.5-1.6h0c-0.3-0.6-0.7-1.2-1-0.8
		c-0.2,0.2-0.3,0.5-0.3,0.8v0c0,0.6,0.1,1.3-0.5,1.6l-0.2-1.1c0-0.2,0-0.4-0.1-0.5v0c-0.1-0.2-0.3-0.4-0.4-0.7c-0.3-0.4-1-3-0.7-2.9
		l-1.1-1.6c1.2-5.5-4.8-2.1-3.4,2l2,1.7c0.2-0.5,0.8,0,0.7,0.5l-0.1-0.4l-0.4,0.2l-0.3,1.1l-0.1,0.5l0.7-0.3c0.2-0.3-0.1,0-0.1,0
		l0-0.2l0.1-0.2c0.1,0.1,0.1,0.2,0.2,0.2h0c0.6,1.2-0.8,2.9-1.4,4.2l-0.3-0.2l0.1-0.2c-0.2,0-0.8,0.2-0.8-0.4c0-0.8,0.3-2.1-0.8-2.3
		c-3.1-0.6-0.3,1.2,0.1,1.4L95.3,64c0,0-2.6-2-1-0.4c-1.1-0.3-2.6-0.3-3.7,0.2c-0.3-1.3-1.4-2.6-2.7-3.1h0c-0.3-0.1-0.7-0.2-1-0.2
		l-0.5,0.2L85,61.4c-0.8,0.2,0,1.1,0.4,1.3c0.5,0.2,0.1-0.3,0.1-0.4c0.1-0.4,1,0.1,1.1,0.1c0.2,0,0.1-0.4,0.2-0.6l-0.1-0.2
		c0.2-0.1,0.7-0.5,0.7-0.2c0.2,1.1-2.2,1.6-2.1,2.3l0.8,2c-0.7,0.8-0.8-0.6-1.3-1.2l-0.1-0.6c-0.2,0,0,0.7-0.2,0.6l-0.1-0.8
		c-0.2-0.2-1.2,0.2-1.1-0.7c-0.9,0.8-4.6-0.5-7.7-2.2v0c-1.3-0.7-2.5-1.6-3.2-2.3c-1.2-0.8-1.3,0.8-1.6,1.1l-1,0.1l0.5-0.9l-0.4-0.1
		c-0.3-0.7-0.3-1-0.3-1c0,0,0.3,1.3-0.8,1.8c-1,0.4-1.3-2.7-2.3-3.1l-0.2,0.4l0.5,0.5l-1.4,1.4l0.2-0.5l0.1-0.2
		c-1.3,0.1-1.3,1.5-2,2.1v-0.3v-0.5l-1.8,1c0.5-1,3.9-1.9,3.1-3.1l-4,2.5c-0.4,0.2-0.7,0.6-0.5,1l0,0.1l0.2,0.9
		c-0.1-0.1-1-0.7-1.9-0.9l0,0c-0.4-0.1-0.9-0.2-1.2-0.1l-1.7-1.7c-0.2-0.1-1.9-0.6-1.8-0.1l-1.8-1.3l-1.9,0.4c0,0-0.1,0-0.1-0.1v2.9
		v0v8v0v8v0v2.7c0.6,0.2,1.2,0.6,1.2,0.8l2.5-0.1c-0.4,0.6,1,0.3,1.7,0.3c0,0.2,0,0.4,0,0.5c-0.1,0.3,0.4,0.9,0.9,0.9l0.7-0.7
		l-0.2-0.2c0.9,0,0.4,2.3,1.3,2.5c0.1,0,0.6-0.3,0.5-0.5L58.2,82l0.6,0.4l0.2-0.3c0.6,0.5-0.2,0.3,0.5,0.8c0.1,0,0.1,0.6,0.3,0.4
		c0.5-0.6-0.6-1.4-0.2-2l0.7,1.8c0.5,0.1,1,0.7,1.6,1.6v0c1.8,3,3.9,9.2,8,11.2c0,0-0.2,0.6,0,0.7c0.4,0.3,1,0.1,1.4,0.4v0.6
		l0.5,0.1l-0.4,0.1l0.2,0.2c0.6,0.1,0.5,1.8-0.1,2.2l0.2-1l-1.7-0.4c-0.3,0,0.2,1.3,0.2,1.3c0.2,0.6,0.9,1,1,1.7l-0.7,0.2l-0.2,3.5
		c-0.1,1.8-0.1,4,0.5,5.6c0.1,0.2,0.7,1.2,0.9,1.1c0.2-0.1,0.3-0.9,0.6-0.2l-0.4,0.2c0,0.1,0,0.2-0.1,0.2l0.1,0.7
		c0.2,0.3,0.8,0.5,0.4,0.9l1.2,1.4l0.1,0.6l1.8,0.6l0.1,0c0,0.9,5.6,6.6,3.4,6.8l1.3,1.1c0.9,1.5,0.7-0.1,1.2,2.1
		c0.2,0.9,1.3,1.4,2.1,1.9c0.1,0.1,0.6-0.5,0.5-0.7c-0.2-0.4-0.9-0.4-1.1-0.8l-0.9-2.5l-0.2-0.1c0,0,0.1,0.5-0.1,0.2l-0.7-2.3
		c-0.8,0.3-2.1-3.3-2.2-3.5c2.7,2.9,6.7,6.6,8.7,9.9c1.1,1.8-0.8,2.5,1.3,3.8h0c0.2,0.1,0.5,0.3,0.8,0.4c4,1.8,7.4,2.6,11.1,4.2
		c1.1,0.5,2.6-0.2,3.6,0.5c0.3,0.2,0,0.5,0,0.5l1.7,1.7c-0.3,0.5,0.1,1.3,0.7,1.4c1.5,0.2,3,1.1,3.9,2.3l0.7-0.3
		c0.1-1.1-0.9-0.2,0.5-1.2l0.5,0.3c1,0,1.1,1.4,1.4,1.1c-0.1,0.3,0,0.6,0.2,0.8l-0.1,2.4l0.5,0.1l-0.7,1c-0.3,0.2-0.6,0.5-1,0.8h0
		c-0.8,0.8-1.7,1.8-2,2.7c-0.5,1.7,0.8,4.1,1.8,6.8c0.6,1.6,1.1,3.4,2.3,4.7c-0.7,1.7,4.5,3.7,5.4,4.7c0.2,0.8,0.8,4.6-0.1,5.1
		c0.2,1-0.3,4.6-0.8,8c-0.5,2.9-1,5.7-1.3,6.4h-0.2l0.1,0.6c-0.2,0.5-0.4-0.3-0.4,1.2l-0.2,3.9c0.3,3.8-0.5,6.2-0.8,8.4h8.4
		c0.4-1.3-1.4-0.8-1.7-2.2c-0.4-1.3,5.5-9.1,8.9-9.8c1.9-0.4,0.9-3.5,0.1-4.2c0,0-0.7-0.8-0.4-0.9l0.5,0.5c0.5,0.3,2.3,0.7,2.8,0.6
		c1.4-0.2,2.6-2.1,3.8-4.4v0c1.7-3.3,3.4-7.4,5.8-8.1l0.1-0.3l2.1-0.1C147.1,169.9,156.7,154.5,151.7,155.1z M102.4,99.4
		c1.6-1.2,2.2-0.9,2.5-1.1c0.6-0.5,1,1,1.2,1.2l0.8-0.1c0.7,0.4,1.3,1.7,0.8,2.3l3.1,0.5c0.8,0.6,0.9,1.1,0.7,1.4v0.4
		c-0.5,0.1-1-0.4-1.1-0.5l-0.4-0.5c-0.1,1.5-2.3,3-1.4,4.2c0.8,1,2.6-0.2,3.8-0.9c0.2-0.2,0-0.4,0.2-0.5c0-0.1-0.1-0.1-0.2-0.2
		l-0.7-0.1c0-0.2,0.8-0.6,0.9-0.7c1-0.3,1.9-1,2.9-1l-0.2,0.2l-0.4,0.4l0.2,0.1c0.1,0.4-0.3,0.8-0.8,0.9c-1.3,0.1-1.7,0.2-1.8,0.3
		c0.1,0.1,0.1,0.3,0,0.4c-0.1,0-0.1,0.1-0.2,0.1c-0.1,0.2-0.5,0.5-1.4,0.9c-0.2,0.1-2.6,1.1-2.7,0.3c-0.1-1.1-0.2-2.3,0.1-3.4
		c0.1-0.7-0.8-2.2-1.5-1.7v0.3c0,0.4-1.2,1-1.2,1c-0.5,1.2,0.2,2.1-0.3,3.3c-0.2,0.4-0.6,0.9-1,0.4c-0.4-0.5-0.3-3.9,0.4-4.9
		l1.7-0.7c0.4-0.1,1.1,0.5,1.2,0.1l-0.5-0.7c-0.8-0.2-5,0.3-3.1-1.4C102.1,101.5,98.4,102.4,102.4,99.4z M74.5,68.5
		c-0.7,0.2,0,0.8,0.1,1.1l-0.4-0.1l-1.4,1.2c-0.5-0.1,0.7-1.1,0.8-1.2l0-0.7c-1.3,0.1-0.7,2.6-2.8,0.9l0.5-0.2l0.6-0.9
		c0.2-0.2-0.5-0.7-0.2-0.8l1,0.2l0.1-0.3c-1.1-0.5-4.4,0.6-3.4-0.6c1.5-0.1,3.6-0.6,4.7-1.7c0.3-0.5-0.8,1.5-0.3,1.6
		c2.1,0.3,1.4-0.4,2.5-0.7l-0.1,0.5l0.2-0.2C76.2,68.2,75.7,68.2,74.5,68.5z M79.9,78.3l-2.3,0.4l-1.4-1.1c-0.5,1-0.9-1-0.3-0.4
		l2.1,0.8c-0.4-0.5,0.4-0.5,0.5-0.5l0.1-0.7h0.6L79,76.5l0.2-0.3c-0.1-0.1-1.7-1.2-1.8-1.8c0-0.2,0.4-0.2,0.6-0.1
		c0.1,0.1,0.5,1,1.1,1.2c0.3,0.1,0.2-0.6,0.2-0.7l0-0.2l0.9,1.5l0.9-0.1c0.6-0.5,1.9-2.8,3.1-1.2L84,75.3l-0.6-0.2l-0.2,0.1l0.5,0.3
		C83.5,75.5,79.5,77.5,79.9,78.3z M81.4,109c-0.2,0-0.7-1.1-0.8-1.3l0.1,0l0.3,0c0,0.1-0.1,0.3-0.1,0.4c0.2,0.4,0.2-0.3,0.5-0.2
		c0.5,0.2-0.1,0.2,0.2,0.6C81.7,108.7,81.6,109,81.4,109z M82.4,82.6l1.4-1.7c0.7,0.4,0.3-0.2,0.2-0.4c0-0.2,0.9-0.1,0.9-0.1
		l-0.6,0.4c-0.3,0.4,0.5,0.2,0.5,0.2c0.2,0.2,1.1,0,2.1,0.4C86,81.5,82.4,82.6,82.4,82.6z M94.1,90c0,0,0.7,0,0.7,0.2l-0.2,0.4
		c0.5,0.5,0.7,3,1.8,4.2C96.1,97.6,93.7,91.3,94.1,90z M106.2,139.8l-0.2-0.7h0.2l0.5,0.4l0.2,0.5L106.2,139.8z"/>
	<polygon class="st4" points="117.5,133.2 118.3,133.4 118.8,133.3 119.2,133.5 119.5,133.8 120.1,133.1 120.3,133.3 121.2,133 
		122.2,133.2 122.4,132.9 122.3,132.8 121.9,132.5 121.3,132.4 121.6,132.2 121.1,132.2 120.9,131.9 120.2,131.6 119.2,131.7 
		118.7,131.8 118.1,131.6 117.6,131.8 118.2,132 118.3,132.6 118.6,132.8 118.6,132.8 118.6,133 116.8,133 117.3,133.5 	"/>
	<polygon class="st4" points="113.5,132.9 113.1,133.2 113.7,133.6 114.2,133.7 114.6,133.5 115,133.6 114.9,133.3 114.2,133 	"/>
	<polygon class="st4" points="123.5,133 123.4,133.2 123.6,133.5 124.3,133.5 124.8,133.3 124.7,133 	"/>
	<polygon class="st4" points="113.7,129.4 113.4,129.3 112.7,129 113.7,129.6 	"/>
	<polygon class="st4" points="116.9,131.3 116.3,130.9 115.5,130.8 115.5,130.4 114.5,130.2 114.1,129.8 113.4,129.6 112.8,129.2 
		112,129.1 111.3,128.5 109.9,128.4 109.1,128.4 107.9,128.7 107.4,129 107.3,129.6 107,129.7 107.3,129.8 107.9,129.4 108.5,129.3 
		108.9,128.9 109.7,128.9 109.9,129 109.5,129.2 109.6,129.4 111,129.5 111.6,129.9 112.7,130 113.3,130.9 114.2,131 113.7,131.7 
		115.8,131.7 	"/>
	<polygon class="st4" points="117.8,132.7 118.1,132.8 118,132.6 	"/>
</g>
<g>
	<path class="st5" d="M96.3,316.3c-1,0-2.6-0.1-4.2-0.6c-2.4-0.7-5.3-2.6-9-11.7c-4.7-11.7-14.6-37.7-20.6-53.2
		c-2.4-6.2-4.1-10.7-4.6-11.9c-1.3-3.5-1.8-4.2-2.8-4.2c-1,0-1.5,1-2.8,4.5l-24.5,67.1l0,0c-2.1,5.8-4.2,9.2-8.7,9.8
		c-0.9,0.1-2.4,0.2-3.1,0.2c-0.9,0-1.5,0.5-1.5,1.1c0,1.4,1.7,1.4,2.6,1.4c3.4,0,7.2-0.1,9.7-0.2c1.2,0,2.1-0.1,2.5-0.1
		c0.5,0,1.5,0.1,2.7,0.1c1.8,0.1,4.1,0.2,5.7,0.2c1.8,0,2.1-0.7,2.1-1.4c0-0.4-0.2-1.1-1.6-1.1h-1.1c-1.4,0-3.6-0.7-3.6-2.6
		c0-1.9,0.5-4.4,1.5-7.1l6.5-19.1c0.2-0.5,0.4-0.5,0.6-0.5h23.2c0.3,0,0.4,0.1,0.5,0.3l10,26.6c0.3,0.7,0.3,1.4,0.1,1.8
		c-0.1,0.3-0.4,0.4-0.4,0.4c-1,0.2-1.1,0.9-1.1,1.2c0,1.1,1.2,1.1,3.2,1.2l0.5,0c4.8,0.1,10.8,0.2,17,0.2c1.8,0,2.7-0.5,2.7-1.4
		C97.9,316.3,96.7,316.3,96.3,316.3z M64,282.1H43.5c0,0,0-0.1,0-0.1l9.5-29.2c0.1-0.4,0.3-0.7,0.3-0.8c0.1,0.1,0.2,0.4,0.3,0.8
		L63.9,282C64,282,64,282.1,64,282.1z"/>
	<path class="st5" d="M131.5,316.3c-0.9,0-3.2-0.2-4.8-0.4c-2.7-0.4-3.4-2.2-3.8-5.5c-0.5-4.5-0.5-12.8-0.5-23.4v-19
		c0-16.8,0-19.9,0.2-23.3c0.2-3.8,1.1-5.2,3.6-5.7c1.3-0.2,1.9-0.3,2.6-0.3c0.8,0,1.4-0.5,1.4-1.1c0-1.4-1.6-1.4-2.2-1.4
		c-2.3,0-6.4,0.2-8.8,0.3c-1,0-1.6,0.1-1.8,0.1c-0.1,0-0.8,0-1.7-0.1c-2.3-0.1-6.6-0.3-9.2-0.3c-0.7,0-2.2,0-2.2,1.4
		c0,0.7,0.6,1.1,1.4,1.1c0.6,0,2,0.1,3.2,0.4c2.1,0.5,3.1,2.1,3.3,5.6c0.2,3.4,0.2,6.5,0.2,23.3v19c0,10.5,0,18.9-0.5,23.4
		c-0.5,3.4-1,5.2-2.7,5.5c-1.2,0.3-2.4,0.4-3.1,0.4c-1,0-1.4,0.6-1.4,1.1c0,1.4,1.6,1.4,2.2,1.4c2.3,0,6.4-0.2,8.8-0.3
		c1,0,1.6-0.1,1.8-0.1c0.1,0,0.6,0,1.3,0c2.4,0.1,7.4,0.3,12,0.3c1.9,0,2.2-0.9,2.2-1.4C132.8,316.9,132.5,316.3,131.5,316.3z"/>
	<path class="st5" d="M181.5,236.2c-0.7,0-1.4,0-2.1,0c-4.5,0-9.2,0.2-12,0.3c-1.3,0-2.2,0.1-2.6,0.1c-0.1,0-0.7,0-1.4-0.1
		c-2.3-0.1-7.1-0.3-10.8-0.3c-0.7,0-2.2,0-2.2,1.4c0,0.7,0.6,1.1,1.4,1.1c1,0,2.7,0.1,3.6,0.3c3.4,0.7,4.1,2.3,4.2,5.7
		c0.2,3.4,0.2,6.5,0.2,23.3v19c0,10.5,0,18.9-0.5,23.4c-0.5,3.4-1,5.2-2.7,5.5c-1.2,0.3-2.4,0.4-3.1,0.4c-1,0-1.4,0.6-1.4,1.1
		c0,1.4,1.6,1.4,2.2,1.4c2.3,0,6.4-0.2,8.8-0.3c1,0,1.6-0.1,1.8-0.1c0.3,0,1.4,0.1,2.9,0.2c4.9,0.4,14.1,1.1,21,1.1
		c13.8,0,25.2-4.3,33.1-12.6c7.5-7.9,11.8-19.1,11.8-30.8c0-13.8-5.8-22.7-10.6-27.8C210.9,236,192.5,236.1,181.5,236.2z
		 M169.9,279.7v-13.4c0-8.2,0-19.3,0.1-23c0-1,0.2-1.4,1-1.7c0.7-0.4,4.5-0.7,6.8-0.7c14.1,0,25.5,2,35,12
		c3.8,4,10.2,12.8,10.2,26.9c0,10.4-3.3,20.4-8.5,25.5c-6.3,6.3-15.5,9.9-25.3,9.9c-12.5,0-16.7-2.2-18-4.1c-0.8-1.1-1-6.1-1.1-7.9
		C170,301.1,169.9,291.2,169.9,279.7z"/>
	<path class="st5" d="M317.3,316.4c-1.1,0-2.6-0.1-4.2-0.6c-2.4-0.7-5.3-2.6-9-11.7c-4.7-11.7-14.6-37.7-20.6-53.2
		c-2.4-6.2-4.1-10.8-4.6-11.9c-1.3-3.4-1.8-4.2-2.8-4.2c-1,0-1.5,1-2.8,4.5l-24.5,67.1c-2.1,5.8-4.2,9.3-8.7,9.9
		c-0.9,0.1-2.4,0.2-3.1,0.2c-0.9,0-1.4,0.4-1.4,1.1c0,1.3,1.7,1.3,2.5,1.3c3.4,0,7.2-0.1,9.7-0.2c1.2,0,2.1-0.1,2.5-0.1
		c0.5,0,1.5,0.1,2.7,0.1c1.8,0.1,4.1,0.2,5.7,0.2c1.7,0,2.1-0.7,2.1-1.3c0-0.5-0.3-1.1-1.5-1.1h-1.1c-1.4,0-3.7-0.7-3.7-2.7
		c0-1.9,0.5-4.4,1.5-7.1l17.9-53.8c0.2-0.5,0.3-0.7,0.4-0.8c0.1,0.1,0.2,0.3,0.4,0.9l22.2,61c0.3,0.8,0.3,1.4,0.1,1.9
		c-0.1,0.2-0.3,0.4-0.4,0.4c-1,0.2-1.1,0.9-1.1,1.2c0,1,1.2,1.1,3.2,1.2l0.5,0c4.8,0.1,10.8,0.2,17,0.2c1.7,0,2.6-0.4,2.6-1.3
		C318.8,316.4,317.7,316.4,317.3,316.4z"/>
</g>
<path class="st3" d="M162,221.3h29l0,0L162,221.3L162,221.3z M208.5,221.3h24.9c0,0,0,0,0,0L208.5,221.3L208.5,221.3z M193,221.3
	h13.9l0,0L193,221.3L193,221.3z"/>
</svg>
