<svg width="362" height="152" viewBox="0 0 362 152" fill="none" xmlns="http://www.w3.org/2000/svg">
<path d="M235.804 35.3923C236.346 35.3923 236.707 35.7541 236.707 36.2967V41.7834C236.707 42.3261 236.346 42.6878 235.804 42.6878H213.594C213.052 42.6878 212.691 42.3261 212.691 41.7834V1.38675C212.691 0.844109 213.052 0.482346 213.594 0.482346H235.744C236.286 0.482346 236.647 0.844109 236.647 1.38675V6.87346C236.647 7.4161 236.286 7.77786 235.744 7.77786H220.937V17.3042H234.841C235.383 17.3042 235.744 17.666 235.744 18.2086V23.6954C235.744 24.238 235.383 24.5998 234.841 24.5998H220.937V35.3923H235.804Z" fill="#082C43"/>
<path d="M204.546 0.482346C205.088 0.482346 205.449 0.844109 205.449 1.38675V6.87346C205.449 7.4161 205.088 7.77786 204.546 7.77786H195.458V41.7834C195.458 42.3261 195.096 42.6878 194.555 42.6878H188.114C187.573 42.6878 187.212 42.3261 187.212 41.7834V7.77786H178.063C177.521 7.77786 177.16 7.4161 177.16 6.87346V1.38675C177.16 0.844109 177.521 0.482346 178.063 0.482346H204.546Z" fill="#082C43"/>
<path d="M179.193 41.6628C179.434 42.2658 179.133 42.6878 178.471 42.6878H171.79C171.308 42.6878 170.947 42.5069 170.766 41.9643L168.359 34.7894H152.589L150.181 41.9643C150 42.5069 149.639 42.6878 149.158 42.6878H142.477C141.815 42.6878 141.514 42.2658 141.754 41.6628L156.381 1.20587C156.561 0.72352 156.922 0.482346 157.404 0.482346H163.423C163.905 0.482346 164.386 0.72352 164.567 1.20587L179.193 41.6628ZM154.816 28.1571H166.132L160.474 11.2146L154.816 28.1571Z" fill="#082C43"/>
<path d="M134.713 0.482346C135.255 0.482346 135.616 0.844109 135.616 1.38675V41.7834C135.616 42.3261 135.255 42.6878 134.713 42.6878H128.273C127.731 42.6878 127.37 42.3261 127.37 41.7834V15.8572L126.588 18.5101L117.318 41.9643C117.138 42.4467 116.716 42.6878 116.235 42.6878H110.517C110.035 42.6878 109.614 42.4467 109.433 41.9643L100.104 18.5101L99.3213 15.7969V41.7834C99.3213 42.3261 98.9602 42.6878 98.4185 42.6878H91.9781C91.4363 42.6878 91.0752 42.3261 91.0752 41.7834V1.38675C91.0752 0.844109 91.4363 0.482346 91.9781 0.482346H99.2009C99.6825 0.482346 100.104 0.663228 100.284 1.08528L113.346 33.2217L126.347 1.08528C126.528 0.663228 126.949 0.482346 127.43 0.482346H134.713Z" fill="#082C43"/>
<path d="M74.3817 1.38675C74.3817 0.844109 74.7428 0.482346 75.2845 0.482346H81.725C82.2667 0.482346 82.6278 0.844109 82.6278 1.38675V41.7834C82.6278 42.3261 82.2667 42.6878 81.725 42.6878H75.2845C74.7428 42.6878 74.3817 42.3261 74.3817 41.7834V1.38675Z" fill="#082C43"/>
<path d="M66.2545 35.3923C66.7962 35.3923 67.1574 35.7541 67.1574 36.2967V41.7834C67.1574 42.3261 66.7962 42.6878 66.2545 42.6878H45.248C44.7063 42.6878 44.3451 42.3261 44.3451 41.7834V1.38675C44.3451 0.844109 44.7063 0.482346 45.248 0.482346H51.6884C52.2301 0.482346 52.5912 0.844109 52.5912 1.38675V35.3923H66.2545Z" fill="#082C43"/>
<path d="M33.0847 31.835L37.0573 36.1158C37.4787 36.5379 37.4787 36.9599 37.0573 37.382C33.3255 41.1202 28.2093 43.4716 22.3708 43.4716C10.3327 43.4716 0.702148 33.885 0.702148 21.766C0.702148 9.58667 10.3327 0 22.3708 0C28.2093 0 33.3255 2.35145 37.0573 6.08964C37.4787 6.5117 37.4787 6.93375 37.0573 7.35581L33.0847 11.6367C32.7236 12.0587 32.2421 12.0587 31.8207 11.6969C29.2927 9.46609 26.1628 8.07933 22.3106 8.07933C14.9673 8.07933 9.18904 13.9278 9.18904 21.766C9.18904 29.5438 14.9673 35.3923 22.3106 35.3923C26.1628 35.3923 29.2927 34.0056 31.8207 31.7747C32.2421 31.4129 32.7236 31.4129 33.0847 31.835Z" fill="#082C43"/>
<path d="M293.292 54.7465C293.834 54.7465 294.195 55.1083 294.195 55.6509V61.1376C294.195 61.6803 293.834 62.042 293.292 62.042H284.204V96.0476C284.204 96.5902 283.843 96.952 283.301 96.952H276.86C276.319 96.952 275.958 96.5902 275.958 96.0476V62.042H266.809C266.267 62.042 265.906 61.6803 265.906 61.1376V55.6509C265.906 55.1083 266.267 54.7465 266.809 54.7465H293.292Z" fill="#082C43"/>
<path d="M256.437 86.0992L260.41 90.38C260.831 90.8021 260.831 91.2241 260.41 91.6462C256.678 95.3844 251.561 97.7358 245.723 97.7358C233.685 97.7358 224.054 88.1492 224.054 76.0302C224.054 63.8509 233.685 54.2642 245.723 54.2642C251.561 54.2642 256.678 56.6156 260.41 60.3538C260.831 60.7759 260.831 61.1979 260.41 61.62L256.437 65.9008C256.076 66.3229 255.594 66.3229 255.173 65.9611C252.645 63.7303 249.515 62.3435 245.663 62.3435C238.32 62.3435 232.541 68.192 232.541 76.0302C232.541 83.808 238.32 89.6565 245.663 89.6565C249.515 89.6565 252.645 88.2697 255.173 86.0389C255.594 85.6771 256.076 85.6771 256.437 86.0992Z" fill="#082C43"/>
<path d="M217.747 89.6565C218.289 89.6565 218.65 90.0182 218.65 90.5609V96.0476C218.65 96.5902 218.289 96.952 217.747 96.952H195.537C194.995 96.952 194.634 96.5902 194.634 96.0476V55.6509C194.634 55.1083 194.995 54.7465 195.537 54.7465H217.687C218.229 54.7465 218.59 55.1083 218.59 55.6509V61.1376C218.59 61.6803 218.229 62.042 217.687 62.042H202.88V71.5684H216.784C217.326 71.5684 217.687 71.9302 217.687 72.4728V77.9595C217.687 78.5022 217.326 78.8639 216.784 78.8639H202.88V89.6565H217.747Z" fill="#082C43"/>
<path d="M163.94 87.4256C164.241 87.0036 164.722 87.0036 165.264 87.3653C166.528 88.2094 168.334 89.5359 171.343 89.5359C175.376 89.5359 177.964 87.0036 177.964 80.8536V55.6509C177.964 55.1083 178.325 54.7465 178.867 54.7465H185.308C185.849 54.7465 186.21 55.1083 186.21 55.6509V81.1551C186.21 92.6712 180.251 97.4947 171.584 97.4947C166.468 97.4947 162.676 95.5653 160.629 93.1535C160.268 92.7315 160.328 92.3094 160.629 91.8873L163.94 87.4256Z" fill="#082C43"/>
<path d="M135.393 97.7358C123.475 97.7358 113.724 88.0889 113.724 76.0302C113.724 63.9112 123.475 54.2642 135.393 54.2642C147.311 54.2642 157.062 63.9112 157.062 76.0302C157.062 88.0889 147.311 97.7358 135.393 97.7358ZM135.393 89.6565C142.917 89.6565 148.695 83.7477 148.695 76.0302C148.695 68.2523 142.917 62.3435 135.393 62.3435C127.869 62.3435 122.091 68.2523 122.091 76.0302C122.091 83.7477 127.869 89.6565 135.393 89.6565Z" fill="#082C43"/>
<path d="M108.681 95.8667C109.102 96.53 108.801 96.952 108.079 96.952H101.217C100.735 96.952 100.374 96.7711 100.133 96.3491L91.0446 82.3007H87.5536V96.0476C87.5536 96.5902 87.1924 96.952 86.6507 96.952H80.2103C79.6686 96.952 79.3074 96.5902 79.3074 96.0476V55.6509C79.3074 55.1083 79.6686 54.7465 80.2103 54.7465H92.6698C102.601 54.7465 107.958 60.4744 107.958 68.4935C107.958 74.5831 104.888 79.3463 99.1102 81.336L108.681 95.8667ZM87.5536 62.042V74.9449H92.4892C96.3414 74.9449 100.073 73.4375 100.073 68.4935C100.073 63.6097 96.3414 62.042 92.4892 62.042H87.5536Z" fill="#082C43"/>
<path d="M57.4018 54.7465C67.3333 54.7465 72.6902 60.4744 72.6902 68.4935C72.6902 76.5728 67.3333 82.3007 57.4018 82.3007H52.2856V96.0476C52.2856 96.5902 51.9244 96.952 51.3827 96.952H44.9423C44.4006 96.952 44.0395 96.5902 44.0395 96.0476V55.6509C44.0395 55.1083 44.4006 54.7465 44.9423 54.7465H57.4018ZM57.2212 74.9449C61.0734 74.9449 64.8053 73.4375 64.8053 68.4935C64.8053 63.6097 61.0734 62.042 57.2212 62.042H52.2856V74.9449H57.2212Z" fill="#082C43"/>
<path d="M361.105 150.131C361.527 150.794 361.226 151.216 360.503 151.216H353.642C353.16 151.216 352.799 151.035 352.558 150.613L343.469 136.565H339.978V150.312C339.978 150.854 339.617 151.216 339.075 151.216H332.635C332.093 151.216 331.732 150.854 331.732 150.312V109.915C331.732 109.372 332.093 109.011 332.635 109.011H345.095C355.026 109.011 360.383 114.739 360.383 122.758C360.383 128.847 357.313 133.61 351.535 135.6L361.105 150.131ZM339.978 116.306V129.209H344.914C348.766 129.209 352.498 127.702 352.498 122.758C352.498 117.874 348.766 116.306 344.914 116.306H339.978Z" fill="#082C43"/>
<path d="M322.693 143.921C323.235 143.921 323.596 144.282 323.596 144.825V150.312C323.596 150.854 323.235 151.216 322.693 151.216H300.482C299.941 151.216 299.58 150.854 299.58 150.312V109.915C299.58 109.372 299.941 109.011 300.482 109.011H322.633C323.174 109.011 323.535 109.372 323.535 109.915V115.402C323.535 115.944 323.174 116.306 322.633 116.306H307.826V125.833H321.73C322.271 125.833 322.633 126.194 322.633 126.737V132.224C322.633 132.766 322.271 133.128 321.73 133.128H307.826V143.921H322.693Z" fill="#082C43"/>
<path d="M292.156 150.131C292.578 150.794 292.277 151.216 291.554 151.216H284.693C284.211 151.216 283.85 151.035 283.609 150.613L274.521 136.565H271.029V150.312C271.029 150.854 270.668 151.216 270.127 151.216H263.686C263.144 151.216 262.783 150.854 262.783 150.312V109.915C262.783 109.372 263.144 109.011 263.686 109.011H276.146C286.077 109.011 291.434 114.739 291.434 122.758C291.434 128.847 288.364 133.61 282.586 135.6L292.156 150.131ZM271.029 116.306V129.209H275.965C279.817 129.209 283.549 127.702 283.549 122.758C283.549 117.874 279.817 116.306 275.965 116.306H271.029Z" fill="#082C43"/>
<path d="M233.873 152C221.955 152 212.204 142.353 212.204 130.294C212.204 118.175 221.955 108.528 233.873 108.528C245.791 108.528 255.542 118.175 255.542 130.294C255.542 142.353 245.791 152 233.873 152ZM233.873 143.921C241.397 143.921 247.175 138.012 247.175 130.294C247.175 122.516 241.397 116.608 233.873 116.608C226.349 116.608 220.571 122.516 220.571 130.294C220.571 138.012 226.349 143.921 233.873 143.921Z" fill="#082C43"/>
<path d="M208.279 143.921C208.82 143.921 209.182 144.282 209.182 144.825V150.312C209.182 150.854 208.82 151.216 208.279 151.216H187.272C186.73 151.216 186.369 150.854 186.369 150.312V109.915C186.369 109.372 186.73 109.011 187.272 109.011H193.713C194.254 109.011 194.615 109.372 194.615 109.915V143.921H208.279Z" fill="#082C43"/>
<path d="M164.464 109.011C174.395 109.011 179.752 114.739 179.752 122.758C179.752 130.837 174.395 136.565 164.464 136.565H159.347V150.312C159.347 150.854 158.986 151.216 158.445 151.216H152.004C151.462 151.216 151.101 150.854 151.101 150.312V109.915C151.101 109.372 151.462 109.011 152.004 109.011H164.464ZM164.283 129.209C168.135 129.209 171.867 127.702 171.867 122.758C171.867 117.874 168.135 116.306 164.283 116.306H159.347V129.209H164.283Z" fill="#082C43"/>
<path d="M143.981 150.131C144.342 150.794 144.101 151.216 143.379 151.216H136.577C136.096 151.216 135.735 151.035 135.494 150.613L127.188 136.866L118.881 150.613C118.641 151.035 118.28 151.216 117.798 151.216H110.996C110.274 151.216 110.033 150.794 110.395 150.131L122.794 129.631L110.996 110.096C110.635 109.433 110.876 109.011 111.598 109.011H118.4C118.881 109.011 119.243 109.192 119.483 109.614L127.188 122.336L134.892 109.614C135.133 109.192 135.494 109.011 135.976 109.011H142.777C143.499 109.011 143.74 109.433 143.379 110.096L131.582 129.631L143.981 150.131Z" fill="#082C43"/>
<path d="M103.267 143.921C103.809 143.921 104.17 144.282 104.17 144.825V150.312C104.17 150.854 103.809 151.216 103.267 151.216H81.0567C80.515 151.216 80.1539 150.854 80.1539 150.312V109.915C80.1539 109.372 80.515 109.011 81.0567 109.011H103.207C103.749 109.011 104.11 109.372 104.11 109.915V115.402C104.11 115.944 103.749 116.306 103.207 116.306H88.4V125.833H102.304C102.846 125.833 103.207 126.194 103.207 126.737V132.224C103.207 132.766 102.846 133.128 102.304 133.128H88.4V143.921H103.267Z" fill="#082C43"/>
</svg>